<svg width="141" height="117" viewBox="0 0 141 117" fill="none" xmlns="http://www.w3.org/2000/svg">
<g clip-path="url(#clip0_225_2054)">
<path d="M92.7582 0H51.7859C45.4134 0 40.2476 5.15881 40.2476 11.5225V105.02C40.2476 111.384 45.4134 116.543 51.7859 116.543H92.7582C99.1306 116.543 104.296 111.384 104.296 105.02V11.5225C104.296 5.15881 99.1306 0 92.7582 0Z" fill="#3F3D56"/>
<path d="M103.216 11.5233V105.021C103.213 107.79 102.11 110.444 100.149 112.402C98.1889 114.36 95.5308 115.461 92.7581 115.464H51.7864C49.0138 115.461 46.3556 114.36 44.395 112.402C42.4344 110.444 41.3316 107.79 41.3284 105.021V11.5233C41.3316 8.75447 42.4344 6.09992 44.395 4.14204C46.3556 2.18415 49.0138 1.0828 51.7864 1.07959H57.1441V2.9278C57.1442 3.76452 57.477 4.56695 58.0695 5.1586C58.662 5.75025 59.4655 6.08265 60.3034 6.0827H84.2411C85.079 6.08265 85.8825 5.75025 86.475 5.1586C87.0675 4.56695 87.4003 3.76452 87.4004 2.9278V1.07959H92.7581C95.5308 1.0828 98.1889 2.18415 100.149 4.14204C102.11 6.09992 103.213 8.75447 103.216 11.5233Z" fill="white"/>
<path d="M39.9529 23.6421C39.7445 23.6419 39.5448 23.5591 39.3974 23.412C39.2501 23.2649 39.1672 23.0654 39.167 22.8573V21.2877C39.167 21.0796 39.2498 20.88 39.3972 20.7328C39.5446 20.5856 39.7444 20.5029 39.9529 20.5029C40.1613 20.5029 40.3612 20.5856 40.5086 20.7328C40.6559 20.88 40.7387 21.0796 40.7387 21.2877V22.8573C40.7385 23.0654 40.6556 23.2649 40.5083 23.412C40.361 23.5591 40.1612 23.6419 39.9529 23.6421Z" fill="#3F3D56"/>
<path d="M39.9529 31.6905C39.7445 31.6903 39.5448 31.6075 39.3974 31.4604C39.2501 31.3133 39.1672 31.1138 39.167 30.9057V26.5851C39.167 26.377 39.2498 26.1773 39.3972 26.0302C39.5446 25.883 39.7444 25.8003 39.9529 25.8003C40.1613 25.8003 40.3612 25.883 40.5086 26.0302C40.6559 26.1773 40.7387 26.377 40.7387 26.5851V30.9057C40.7385 31.1138 40.6556 31.3133 40.5083 31.4604C40.361 31.6075 40.1612 31.6903 39.9529 31.6905Z" fill="#3F3D56"/>
<path d="M39.9529 38.161C39.7445 38.1607 39.5448 38.078 39.3974 37.9309C39.2501 37.7837 39.1672 37.5842 39.167 37.3762V33.0556C39.167 32.8474 39.2498 32.6478 39.3972 32.5006C39.5446 32.3534 39.7444 32.2708 39.9529 32.2708C40.1613 32.2708 40.3612 32.3534 40.5086 32.5006C40.6559 32.6478 40.7387 32.8474 40.7387 33.0556V37.3762C40.7385 37.5842 40.6556 37.7837 40.5083 37.9309C40.361 38.078 40.1612 38.1607 39.9529 38.161Z" fill="#3F3D56"/>
<path d="M104.395 34.6294C104.186 34.6292 103.987 34.5464 103.839 34.3993C103.692 34.2522 103.609 34.0527 103.609 33.8446V23.3021C103.609 23.094 103.692 22.8944 103.839 22.7472C103.986 22.6 104.186 22.5173 104.395 22.5173C104.603 22.5173 104.803 22.6 104.95 22.7472C105.098 22.8944 105.181 23.094 105.181 23.3021V33.8446C105.18 34.0527 105.098 34.2522 104.95 34.3993C104.803 34.5464 104.603 34.6292 104.395 34.6294Z" fill="#3F3D56"/>
<path d="M73.9604 3.59941H67.8698C67.7396 3.59941 67.6146 3.54773 67.5225 3.45574C67.4304 3.36376 67.3787 3.239 67.3787 3.10891C67.3787 2.97882 67.4304 2.85406 67.5225 2.76207C67.6146 2.67009 67.7396 2.61841 67.8698 2.61841H73.9604C74.0906 2.61841 74.2156 2.67009 74.3077 2.76207C74.3998 2.85406 74.4516 2.97882 74.4516 3.10891C74.4516 3.239 74.3998 3.36376 74.3077 3.45574C74.2156 3.54773 74.0906 3.59941 73.9604 3.59941Z" fill="white"/>
<path d="M77.1039 3.50135C77.3209 3.50135 77.4968 3.32567 77.4968 3.10895C77.4968 2.89224 77.3209 2.71655 77.1039 2.71655C76.8869 2.71655 76.7109 2.89224 76.7109 3.10895C76.7109 3.32567 76.8869 3.50135 77.1039 3.50135Z" fill="white"/>
<path d="M124.316 111.641C124.46 111.647 124.601 111.608 124.722 111.53C124.842 111.452 124.936 111.339 124.99 111.206C125.044 111.073 125.056 110.927 125.024 110.787C124.993 110.648 124.918 110.521 124.812 110.425C124.794 110.355 124.781 110.305 124.762 110.235C124.896 109.885 125.132 109.584 125.438 109.369C125.745 109.154 126.109 109.035 126.483 109.028C126.858 109.021 127.226 109.126 127.541 109.329C127.856 109.532 128.102 109.825 128.249 110.169C129.098 112.1 130.191 114.098 129.677 116.24C133.134 108.739 131.845 99.463 126.571 93.1272C125.122 92.3481 123.941 90.9508 123.621 89.3182C124.336 89.5527 125.22 88.9649 124.677 88.2198C124.442 87.9352 124.204 87.653 123.969 87.3684C126.651 84.4612 129.922 88.9591 126.977 92.8766C127.964 94.0887 128.822 95.4006 129.536 96.7909C129.36 95.3091 129.539 93.8067 130.058 92.4074C130.585 91.1029 131.585 89.999 132.465 88.8672C133.534 87.4882 135.768 88.0985 135.93 89.834C134.934 90.1714 134.818 91.6136 135.963 91.8C135.694 95.0341 133.609 98.0236 130.711 99.4684C131.815 102.471 132.265 105.674 132.032 108.864C132.51 105.134 136.506 104.191 139.29 102.684C139.467 102.569 139.674 102.507 139.886 102.506C140.098 102.506 140.305 102.567 140.482 102.683C140.66 102.798 140.8 102.962 140.885 103.155C140.971 103.349 140.998 103.563 140.964 103.771C140.579 103.932 140.211 104.13 139.865 104.363C139.704 104.474 139.58 104.632 139.512 104.816C139.443 105 139.434 105.2 139.484 105.39C139.534 105.58 139.642 105.749 139.792 105.875C139.943 106.001 140.128 106.077 140.324 106.094C138.947 109.594 135.322 111.97 131.576 111.992C131.231 113.558 130.723 115.084 130.063 116.544L124.503 116.597C124.482 116.536 124.464 116.472 124.445 116.411C124.96 116.438 125.476 116.403 125.983 116.305C124.606 114.708 123.545 113.896 124.316 111.641Z" fill="#F2F2F2"/>
<path d="M16.6994 111.641C16.5559 111.647 16.4143 111.608 16.2937 111.53C16.1731 111.452 16.0795 111.339 16.0253 111.206C15.9712 111.073 15.9593 110.927 15.9911 110.787C16.023 110.648 16.0971 110.521 16.2035 110.425C16.2218 110.355 16.235 110.305 16.2533 110.235C16.1193 109.885 15.884 109.584 15.5773 109.369C15.2706 109.154 14.9067 109.035 14.532 109.028C14.1574 109.021 13.7892 109.126 13.4746 109.329C13.16 109.532 12.9133 109.825 12.7662 110.169C11.9179 112.1 10.8248 114.098 11.3386 116.24C7.88189 108.739 9.1702 99.463 14.4448 93.1272C15.8935 92.3481 17.075 90.9508 17.3947 89.3182C16.6791 89.5527 15.7954 88.9649 16.3388 88.2198C16.574 87.9352 16.8114 87.653 17.0466 87.3684C14.3647 84.4612 11.0935 88.9591 14.0385 92.8766C13.0514 94.0887 12.1938 95.4006 11.4797 96.7909C11.6557 95.3091 11.4769 93.8067 10.958 92.4074C10.431 91.1029 9.43049 89.999 8.55093 88.8672C7.48154 87.4882 5.24768 88.0985 5.08547 89.834C6.0813 90.1714 6.19734 91.6136 5.05276 91.8C5.32124 95.0341 7.4068 98.0236 10.3047 99.4684C9.20084 102.471 8.75043 105.674 8.98351 108.864C8.50512 105.134 4.50965 104.191 1.72508 102.684C1.54804 102.569 1.34109 102.507 1.12948 102.506C0.917861 102.506 0.710724 102.567 0.533337 102.683C0.35595 102.798 0.215979 102.962 0.1305 103.155C0.0450202 103.349 0.0177266 103.563 0.0519491 103.771C0.436728 103.932 0.804587 104.13 1.15011 104.363C1.312 104.474 1.43556 104.632 1.50386 104.816C1.57217 105 1.58187 105.2 1.53164 105.39C1.4814 105.58 1.3737 105.749 1.22328 105.875C1.07286 106.001 0.887094 106.077 0.691445 106.094C2.06891 109.594 5.69385 111.97 9.43993 111.992C9.78502 113.558 10.2921 115.084 10.953 116.544L16.5128 116.597C16.5333 116.536 16.5518 116.472 16.5704 116.411C16.0554 116.438 15.5391 116.403 15.0328 116.305C16.4097 114.708 17.4705 113.896 16.6995 111.642L16.6994 111.641Z" fill="#F2F2F2"/>
<path d="M54.8031 5.70419H49.4985C49.2379 5.70419 48.9881 5.60084 48.8038 5.41686C48.6196 5.23289 48.5161 4.98337 48.5161 4.72319C48.5161 4.46301 48.6196 4.21349 48.8038 4.02952C48.9881 3.84554 49.2379 3.74219 49.4985 3.74219H54.8031C55.0637 3.74219 55.3135 3.84554 55.4978 4.02952C55.682 4.21349 55.7855 4.46301 55.7855 4.72319C55.7855 4.98337 55.682 5.23289 55.4978 5.41686C55.3135 5.60084 55.0637 5.70419 54.8031 5.70419Z" fill="#E6E6E6"/>
<path d="M89.5782 5.60614C90.0665 5.60614 90.4623 5.21085 90.4623 4.72323C90.4623 4.23562 90.0665 3.84033 89.5782 3.84033C89.0899 3.84033 88.6941 4.23562 88.6941 4.72323C88.6941 5.21085 89.0899 5.60614 89.5782 5.60614Z" fill="#E6E6E6"/>
<path d="M92.3289 5.60614C92.8172 5.60614 93.2131 5.21085 93.2131 4.72323C93.2131 4.23562 92.8172 3.84033 92.3289 3.84033C91.8407 3.84033 91.4448 4.23562 91.4448 4.72323C91.4448 5.21085 91.8407 5.60614 92.3289 5.60614Z" fill="#E6E6E6"/>
<path d="M95.0794 5.60614C95.5677 5.60614 95.9635 5.21085 95.9635 4.72323C95.9635 4.23562 95.5677 3.84033 95.0794 3.84033C94.5911 3.84033 94.1953 4.23562 94.1953 4.72323C94.1953 5.21085 94.5911 5.60614 95.0794 5.60614Z" fill="#E6E6E6"/>
<path d="M88.9601 19.4155H55.6193C54.9735 19.4164 54.3543 19.673 53.8976 20.1291C53.441 20.5851 53.184 21.2034 53.1831 21.8484V43.4913C53.184 44.1362 53.441 44.7545 53.8976 45.2106C54.3543 45.6667 54.9735 45.9233 55.6193 45.9242H88.9601C89.6061 45.9236 90.2254 45.6671 90.6822 45.211C91.139 44.7548 91.3958 44.1363 91.3964 43.4913V21.8484C91.3958 21.2033 91.139 20.5849 90.6822 20.1287C90.2254 19.6726 89.6061 19.4161 88.9601 19.4155Z" fill="#F2F2F2"/>
<path d="M78.5223 28.6548C75.5093 33.9747 72.1844 39.1123 68.5649 44.0408H63.3364C66.7611 39.8744 70.1883 35.7079 73.618 31.5415C74.6019 30.3419 75.6697 29.0851 77.1456 28.5977L78.5223 28.6548Z" fill="#3F3D56"/>
<path d="M71.5739 27.8018C71.0286 28.3692 70.5061 28.9595 70.0142 29.5727C68.9311 30.8752 67.8633 32.1891 66.7916 33.4992C66.1243 34.3142 65.4569 35.1292 64.7971 35.9442C64.5876 35.8098 64.3887 35.6596 64.2022 35.4948C63.1484 34.5814 62.4948 33.2922 62.3814 31.9034C62.268 30.5145 62.7039 29.1366 63.5956 28.0648C64.4873 26.993 65.7639 26.3127 67.1519 26.1696C68.5398 26.0264 69.9287 26.4319 71.0209 27.2991C71.2178 27.4524 71.4026 27.6204 71.5739 27.8018Z" fill="#FC773F"/>
<path d="M91.3964 27.1831V27.9738L91.0428 27.8443L86.0662 26.0275C84.4453 25.4369 82.8284 24.762 81.1545 24.3362C79.6981 23.9202 78.1516 23.94 76.7064 24.3931C75.4182 24.8691 74.2394 25.5998 73.2407 26.5415C72.7987 26.9496 72.3703 27.3675 71.9558 27.8011C71.8202 27.9444 71.6847 28.0876 71.5511 28.2308C71.1503 28.6664 70.7632 29.1117 70.3958 29.5728C69.3133 30.8756 68.2445 32.1901 67.1737 33.4988C66.5057 34.315 65.8377 35.1292 65.1776 35.9434C62.9732 38.6373 60.7819 41.3363 58.6038 44.0406C58.3104 44.0373 58.0184 44.0005 57.7334 43.9308C59.9555 41.1741 62.188 38.4247 64.431 35.6825C64.4821 35.6197 64.5332 35.5569 64.5843 35.4941C64.8475 35.1665 65.1167 34.8369 65.3839 34.5092C66.5018 33.1417 67.6204 31.7755 68.7396 30.4106C69.553 29.4178 70.3605 28.4211 71.2367 27.4794C71.2898 27.4185 71.3448 27.3597 71.4017 27.2989C71.4862 27.2086 71.5707 27.1203 71.6572 27.0281C73.561 25.0641 75.9363 23.3278 78.7811 23.2807C80.455 23.2552 82.072 23.7849 83.628 24.3441C85.3039 24.9503 86.9739 25.5664 88.6478 26.1786L91.3964 27.1831Z" fill="#3F3D56"/>
<path d="M92.1802 93.7088H52.364C51.7182 93.7081 51.099 93.4515 50.6423 92.9955C50.1856 92.5394 49.9287 91.9211 49.928 91.2761V85.9173C49.9287 85.2724 50.1856 84.654 50.6423 84.198C51.099 83.7419 51.7182 83.4854 52.364 83.4846H92.1802C92.826 83.4854 93.4452 83.7419 93.9019 84.198C94.3586 84.654 94.6155 85.2724 94.6162 85.9173V91.2761C94.6155 91.9211 94.3586 92.5394 93.9019 92.9955C93.4452 93.4515 92.826 93.7081 92.1802 93.7088Z" fill="#F2F2F2"/>
<path d="M92.1802 66.2408H52.364C51.7182 66.2401 51.099 65.9835 50.6423 65.5275C50.1856 65.0714 49.9287 64.4531 49.928 63.8081V58.4493C49.9287 57.8044 50.1856 57.186 50.6423 56.7299C51.099 56.2739 51.7182 56.0173 52.364 56.0166H92.1802C92.826 56.0173 93.4452 56.2739 93.9019 56.7299C94.3586 57.186 94.6155 57.8044 94.6162 58.4493V63.8081C94.6155 64.4531 94.3586 65.0714 93.9019 65.5275C93.4452 65.9835 92.826 66.2401 92.1802 66.2408Z" fill="#F2F2F2"/>
<path d="M92.1802 79.9749H52.364C51.7182 79.9742 51.099 79.7177 50.6423 79.2616C50.1856 78.8055 49.9287 78.1872 49.928 77.5422V72.1835C49.9287 71.5385 50.1856 70.9201 50.6423 70.4641C51.099 70.008 51.7182 69.7515 52.364 69.7507H92.1802C92.826 69.7515 93.4452 70.008 93.9019 70.4641C94.3586 70.9201 94.6155 71.5385 94.6162 72.1835V77.5422C94.6155 78.1872 94.3586 78.8055 93.9019 79.2616C93.4452 79.7177 92.826 79.9742 92.1802 79.9749Z" fill="#F2F2F2"/>
<path d="M77.1096 87.6795H65.3781C65.2389 87.6795 65.1054 87.6243 65.007 87.526C64.9086 87.4277 64.8533 87.2944 64.8533 87.1554C64.8533 87.0164 64.9086 86.8831 65.007 86.7849C65.1054 86.6866 65.2389 86.6313 65.3781 86.6313H77.1096C77.2488 86.6313 77.3822 86.6866 77.4807 86.7849C77.5791 86.8831 77.6344 87.0164 77.6344 87.1554C77.6344 87.2944 77.5791 87.4277 77.4807 87.526C77.3822 87.6243 77.2488 87.6795 77.1096 87.6795Z" fill="white"/>
<path d="M88.3927 90.5621H65.2467C65.1075 90.5621 64.9741 90.5069 64.8756 90.4086C64.7772 90.3103 64.7219 90.177 64.7219 90.038C64.7219 89.899 64.7772 89.7657 64.8756 89.6674C64.9741 89.5691 65.1075 89.5139 65.2467 89.5139H88.3927C88.5319 89.5139 88.6653 89.5691 88.7638 89.6674C88.8622 89.7657 88.9175 89.899 88.9175 90.038C88.9175 90.177 88.8622 90.3103 88.7638 90.4086C88.6653 90.5069 88.5319 90.5621 88.3927 90.5621Z" fill="white"/>
<path d="M59.1454 92.1107C61.0887 92.1107 62.664 90.5375 62.664 88.5968C62.664 86.6562 61.0887 85.083 59.1454 85.083C57.2021 85.083 55.6267 86.6562 55.6267 88.5968C55.6267 90.5375 57.2021 92.1107 59.1454 92.1107Z" fill="white"/>
<path d="M58.3615 93.3431C58.0024 93.1755 57.5921 93.1545 57.2177 93.2845C56.8433 93.4144 56.5345 93.6852 56.357 94.039C56.3221 94.1115 56.2932 94.1868 56.2707 94.264L50.9721 94.5802L50.1868 97.3216L57.3983 96.1048C57.7263 96.1732 58.0678 96.1313 58.3695 95.9856C58.6711 95.8398 58.916 95.5985 59.0658 95.2991C59.1494 95.128 59.1985 94.9421 59.2101 94.752C59.2218 94.562 59.1959 94.3715 59.1338 94.1914C59.0718 94.0113 58.9748 93.8452 58.8485 93.7026C58.7222 93.56 58.569 93.4436 58.3976 93.3601C58.3856 93.3542 58.3736 93.3486 58.3615 93.3431Z" fill="#FFB6B6"/>
<path d="M46.6658 79.8212C46.3167 79.6785 45.9408 79.6126 45.5639 79.6279C45.187 79.6432 44.8177 79.7395 44.4814 79.91C44.145 80.0806 43.8494 80.3215 43.6145 80.6163C43.3797 80.9112 43.2112 81.2531 43.1206 81.6188L41.6638 87.4936L41.9378 97.7713C41.9378 97.7713 49.5416 99.2284 50.8181 98.2918C52.0946 97.3552 51.9747 96.658 52.0945 97.3552C52.2144 98.0524 52.7623 98.345 52.7699 98.0676C52.7775 97.7903 52.8395 97.8377 53.1576 97.7541C53.4757 97.6706 54.8796 97.1538 54.8796 97.1538L54.9425 94.2235C54.9425 94.2235 52.6215 93.3448 52.0584 93.607C51.4953 93.8692 52.1782 94.3042 51.4953 93.8692C50.8123 93.4341 50.7377 92.061 50.6209 93.2985C50.5042 94.536 50.1623 94.7664 49.6503 94.2161C49.1383 93.6659 46.766 94.0174 46.766 94.0174L48.2756 82.5927C48.3515 82.018 48.2347 81.4344 47.9435 80.933C47.6523 80.4316 47.203 80.0407 46.6658 79.8212Z" fill="#FC773F"/>
<path d="M97.8724 110.3L97.9524 108.136L89.6316 106.798L89.5137 109.992L97.8724 110.3Z" fill="#FFB6B6"/>
<path d="M96.3621 110.951L96.2832 107.486L97.7665 107.541L100.161 104.337C100.28 104.179 100.445 104.063 100.635 104.005C100.824 103.948 101.026 103.952 101.213 104.018C101.399 104.084 101.56 104.207 101.671 104.37C101.782 104.534 101.838 104.728 101.831 104.925L101.679 109.042L100.185 109.697L101.642 110.028L101.585 111.58L96.3621 110.951Z" fill="#2F2E41"/>
<path d="M51.0422 115.262L77.3972 112.202C77.3972 112.202 88.7782 112.858 91.4484 111.124L94.2643 110.769L94.4169 106.638C94.4169 106.638 92.695 106.651 91.705 106.19C90.715 105.729 91.4031 105.166 90.4592 105.72C89.5153 106.274 89.615 106.341 88.8852 106.086C88.1554 105.831 54.6898 104.465 54.6898 104.465L51.0422 115.262Z" fill="#2F2E41"/>
<path d="M85.7711 113.47L87.3035 111.938L82.1148 105.305L79.853 107.567L85.7711 113.47Z" fill="#FFB6B6"/>
<path d="M84.22 112.922L86.522 110.328L87.5722 111.375L91.5094 110.654C91.7039 110.618 91.9047 110.645 92.0825 110.732C92.2603 110.818 92.4058 110.959 92.4978 111.134C92.5897 111.308 92.6233 111.508 92.5937 111.703C92.564 111.898 92.4727 112.079 92.3329 112.219L89.4181 115.133L87.8768 114.599L88.7195 115.831L87.6205 116.93L84.22 112.922Z" fill="#2F2E41"/>
<path d="M40.6445 100.848L40.9065 106.931C41.215 114.091 49.111 118.424 55.2337 114.686C55.3465 114.617 55.4598 114.545 55.5734 114.472C55.5734 114.472 57.8945 113.849 57.824 112.863C57.7536 111.877 58.3206 111.398 58.8224 111.667C59.3243 111.935 65.8946 102.624 65.8946 102.624C65.8946 102.624 79.5455 109.424 82.5571 111.024L85.7346 110.16C85.7346 110.16 86.9306 110.724 86.4998 109.908C86.069 109.092 85.9917 109.483 85.8594 108.594C85.727 107.705 85.3885 106.603 85.1832 106.65C84.9779 106.696 68.2953 95.0357 68.2953 95.0357C68.2953 95.0357 65.5775 92.2889 62.2062 94.1025C62.1359 94.3689 62.196 94.3782 62.196 94.3782L51.0592 103.44L49.4856 100.456L40.6445 100.848Z" fill="#2F2E41"/>
<path d="M48.1297 78.5007L43.3548 76.2659L41.9253 78.7499C41.9253 78.7499 38.0859 84.2213 38.0302 88.1684C37.9745 92.1156 38.6559 93.2894 38.6559 93.2894C38.6559 93.2894 37.0005 94.5253 37.8282 95.2808C38.6559 96.0362 40.4883 96.3622 39.0809 96.6897C37.6735 97.0172 38.0302 100.333 39.602 100.921C41.1737 101.51 49.6148 101.505 49.6148 101.505C49.539 101.248 49.5334 100.975 49.5987 100.715C49.6639 100.455 49.7977 100.218 49.9861 100.027C50.6405 99.3716 51.2299 99.8416 50.6405 98.8218C50.0511 97.802 49.0687 98.3906 49.8546 97.0172C50.6405 95.6438 50.6402 95.2334 50.6402 95.2334C50.6402 95.2334 52.2423 92.1886 49.8292 88.8854C49.6821 88.684 49.8058 88.6763 49.8058 88.6763L47.8572 82.1554L48.1297 78.5007Z" fill="#FC773F"/>
<path d="M40.4347 69.1039C40.4751 70.1111 39.8395 71.5381 39.5264 72.3986C39.1918 73.3186 40.6422 74.5397 41.5706 74.8071C41.619 74.4884 41.7781 74.1969 42.0203 73.9837C41.9534 74.2875 41.9475 74.6015 42.0031 74.9075L49.8517 76.6918C51.2636 75.0589 52.6833 72.7115 52.3736 69.8804C52.4478 69.3428 52.3613 68.7953 52.125 68.3066C51.8886 67.8179 51.5131 67.4098 51.0453 67.1335L47.0775 64.7928C45.3898 64.4091 43.2644 64.1774 42.0454 65.2203C41.5008 65.7042 41.0729 66.305 40.794 66.9776C40.515 67.6501 40.3922 68.3771 40.4347 69.1039Z" fill="#2F2E41"/>
<path d="M47.4499 75.8292C49.9456 75.8292 51.9687 73.8088 51.9687 71.3166C51.9687 68.8243 49.9456 66.804 47.4499 66.804C44.9543 66.804 42.9312 68.8243 42.9312 71.3166C42.9312 73.8088 44.9543 75.8292 47.4499 75.8292Z" fill="#FFB6B6"/>
<path d="M42.1563 68.9057L41.9382 69.8622L45.7504 70.7289C45.7538 70.5354 45.7972 70.3447 45.8779 70.1688C45.9586 69.9929 46.0748 69.8355 46.2192 69.7066C46.137 70.0817 46.1464 70.471 46.2466 70.8417C48.3025 71.9938 50.1556 72.4019 51.8172 72.1081C52.0423 72.1593 52.2786 72.1191 52.474 71.9963C52.6694 71.8735 52.808 71.6783 52.8593 71.4534C53.5278 68.5208 51.7763 65.5233 48.854 64.7954C48.1437 64.618 47.405 64.5841 46.6814 64.6955C45.9577 64.807 45.2637 65.0616 44.6399 65.4444C44.016 65.8272 43.475 66.3306 43.0486 66.9249C42.6221 67.5193 42.3187 68.1927 42.1563 68.9057Z" fill="#2F2E41"/>
<path d="M44.3852 62.595C44.8878 62.486 45.4198 62.5124 45.8743 62.1724L45.5763 62.8556C46.4026 62.6295 47.2836 62.7174 48.0489 63.1022C48.2764 63.2041 48.4705 63.3682 48.6087 63.5755C48.6829 63.7007 48.7281 63.841 48.7408 63.9859C48.7536 64.1309 48.7336 64.2769 48.6823 64.4131C48.6334 64.53 48.5607 64.6354 48.4688 64.7226C48.3768 64.8098 48.2677 64.8769 48.1483 64.9196C47.9367 64.9831 47.715 65.0063 47.4948 64.9879C46.5671 64.9663 45.6394 64.9447 44.7116 64.9231C44.3581 64.9451 44.0047 64.8765 43.6851 64.7239C43.5152 64.6191 43.3796 64.4671 43.295 64.2864C43.2104 64.1058 43.1805 63.9044 43.2089 63.707C43.2974 63.0859 43.8825 62.704 44.3852 62.595Z" fill="#2F2E41"/>
<path d="M68.8975 97.9621C68.8867 97.9492 68.8743 97.9378 68.8605 97.9282C68.8267 97.889 68.7856 97.8569 68.7395 97.8336L68.4088 97.6568L66.2136 95.2229C66.0865 95.1568 65.9387 95.1427 65.8013 95.1836L65.7957 95.1853L64.8553 95.4757L64.0465 95.7263L62.9168 96.0761L55.2219 98.4555L50.1638 100.019C50.0271 100.063 49.9128 100.158 49.8456 100.284C49.7783 100.411 49.7635 100.559 49.8044 100.696C49.8282 100.771 49.8675 100.841 49.9199 100.901L50.0808 101.08L50.4184 101.455L51.2006 103.074L51.4176 103.316C51.4868 103.393 51.5765 103.449 51.6762 103.477C51.7759 103.505 51.8815 103.503 51.9807 103.474L68.6441 98.8463C68.7307 98.8184 68.809 98.7695 68.8723 98.7042C68.9355 98.6388 68.9816 98.559 69.0067 98.4716C69.0317 98.3842 69.0348 98.2921 69.0158 98.2032C68.9967 98.1144 68.9561 98.0316 68.8975 97.9621Z" fill="#CCCCCC"/>
<path d="M67.9082 73.8871L67.5855 73.9393C67.4971 73.954 67.418 74.003 67.3656 74.0756L67.2234 74.2742L65.941 77.4765C65.8888 77.5497 65.8678 77.6406 65.8827 77.7293L66.0329 78.6417L65.4651 94.9274C65.4794 95.0116 65.5247 95.0875 65.5921 95.1401L68.082 98.4661L68.1401 98.5123L68.2655 98.6103C68.3298 98.6599 68.4096 98.6852 68.4908 98.6818L68.7024 98.6718C68.7504 98.6694 68.7974 98.657 68.8403 98.6351C68.8831 98.6133 68.9209 98.5826 68.951 98.5452C68.9814 98.5081 69.0034 98.4648 69.0156 98.4185C69.0278 98.3721 69.0298 98.3236 69.0216 98.2764L68.2993 74.1657C68.2847 74.0772 68.2354 73.998 68.1624 73.9457C68.0894 73.8934 67.9985 73.8722 67.9099 73.8868L67.9082 73.8871Z" fill="#CCCCCC"/>
<path d="M67.368 75.1526L66.232 78.6083L65.7925 92.4117L67.5607 93.9813L67.368 75.1526Z" fill="#FC773F"/>
<path d="M58.5832 96.2081C58.2241 96.0405 57.8138 96.0195 57.4394 96.1494C57.065 96.2794 56.7562 96.5502 56.5787 96.904C56.5438 96.9765 56.5149 97.0518 56.4924 97.129L51.1937 97.4452L50.4084 100.187L57.62 98.9698C57.948 99.0382 58.2895 98.9963 58.5911 98.8506C58.8928 98.7048 59.1376 98.4635 59.2875 98.1641C59.4564 97.8185 59.4808 97.42 59.3555 97.0564C59.2302 96.6927 58.9654 96.3937 58.6193 96.225C58.6073 96.2192 58.5953 96.2136 58.5832 96.2081Z" fill="#FFB6B6"/>
<path d="M46.8875 82.6862C46.5383 82.5435 46.1625 82.4776 45.7856 82.4929C45.4086 82.5082 45.0394 82.6045 44.7031 82.775C44.3667 82.9456 44.071 83.1865 43.8362 83.4813C43.6014 83.7762 43.4329 84.1181 43.3422 84.4838L41.8855 90.3586L42.1595 100.636C42.1595 100.636 49.7633 102.093 51.0398 101.157C52.3162 100.22 52.1964 99.523 52.3162 100.22C52.4361 100.917 52.984 101.21 52.9916 100.933C52.9992 100.655 53.0612 100.703 53.3793 100.619C53.6974 100.536 55.1013 100.019 55.1013 100.019L55.1642 97.0885C55.1642 97.0885 52.8432 96.2098 52.2801 96.472C51.717 96.7341 52.3999 97.1692 51.717 96.7341C51.034 96.2991 50.9594 94.926 50.8426 96.1635C50.7258 97.401 50.384 97.6314 49.872 97.0811C49.3599 96.5309 46.9877 96.8824 46.9877 96.8824L48.4973 85.4576C48.5732 84.883 48.4564 84.2994 48.1652 83.798C47.874 83.2966 47.4247 82.9057 46.8875 82.6862Z" fill="#FC773F"/>
<path d="M1.0348e-06 116.766C-9.05335e-05 116.797 0.00589582 116.828 0.0176136 116.856C0.0293314 116.884 0.0465511 116.91 0.0682808 116.932C0.0900104 116.953 0.115821 116.971 0.144229 116.982C0.172637 116.994 0.203082 117 0.233812 117H140.766C140.828 117 140.888 116.975 140.932 116.932C140.975 116.888 141 116.828 141 116.766C141 116.705 140.975 116.645 140.932 116.601C140.888 116.558 140.828 116.533 140.766 116.533H0.2338C0.203072 116.533 0.17263 116.539 0.144223 116.551C0.115817 116.562 0.090006 116.579 0.0682778 116.601C0.0465496 116.623 0.029331 116.649 0.0176136 116.677C0.00589618 116.705 -8.94829e-05 116.736 1.0348e-06 116.766Z" fill="#CCCCCC"/>
<path d="M124.008 66.2408H84.1922C83.5463 66.2401 82.9271 65.9835 82.4704 65.5275C82.0137 65.0714 81.7568 64.4531 81.7561 63.8081V58.4493C81.7568 57.8044 82.0137 57.186 82.4704 56.7299C82.9271 56.2739 83.5463 56.0173 84.1922 56.0166H124.008C124.654 56.0173 125.273 56.2739 125.73 56.7299C126.187 57.186 126.444 57.8044 126.444 58.4493V63.8081C126.444 64.4531 126.187 65.0714 125.73 65.5275C125.273 65.9835 124.654 66.2401 124.008 66.2408Z" fill="#E6E6E6"/>
<path d="M108.937 60.2115H97.2059C97.0668 60.2115 96.9333 60.1563 96.8349 60.058C96.7364 59.9597 96.6812 59.8264 96.6812 59.6874C96.6812 59.5484 96.7364 59.4151 96.8349 59.3168C96.9333 59.2185 97.0668 59.1633 97.2059 59.1633H108.937C109.077 59.1633 109.21 59.2185 109.309 59.3168C109.407 59.4151 109.462 59.5484 109.462 59.6874C109.462 59.8264 109.407 59.9597 109.309 60.058C109.21 60.1563 109.077 60.2115 108.937 60.2115Z" fill="white"/>
<path d="M120.221 63.0941H97.0749C96.9357 63.0941 96.8022 63.0388 96.7038 62.9406C96.6053 62.8423 96.55 62.709 96.55 62.57C96.55 62.431 96.6053 62.2977 96.7038 62.1994C96.8022 62.1011 96.9357 62.0459 97.0749 62.0459H120.221C120.36 62.0459 120.493 62.1011 120.592 62.1994C120.69 62.2977 120.746 62.431 120.746 62.57C120.746 62.709 120.69 62.8423 120.592 62.9406C120.493 63.0388 120.36 63.0941 120.221 63.0941Z" fill="white"/>
<path d="M90.9735 64.6424C92.9168 64.6424 94.4921 63.0692 94.4921 61.1286C94.4921 59.1879 92.9168 57.6147 90.9735 57.6147C89.0302 57.6147 87.4548 59.1879 87.4548 61.1286C87.4548 63.0692 89.0302 64.6424 90.9735 64.6424Z" fill="white"/>
<path d="M111.238 79.9749H71.4216C70.7758 79.9742 70.1566 79.7177 69.6999 79.2616C69.2432 78.8055 68.9863 78.1872 68.9856 77.5422V72.1835C68.9863 71.5385 69.2432 70.9201 69.6999 70.4641C70.1566 70.008 70.7758 69.7515 71.4216 69.7507H111.238C111.884 69.7515 112.503 70.008 112.96 70.4641C113.416 70.9201 113.673 71.5385 113.674 72.1835V77.5422C113.673 78.1872 113.416 78.8055 112.96 79.2616C112.503 79.7177 111.884 79.9742 111.238 79.9749Z" fill="#E6E6E6"/>
<path d="M96.1669 73.9456H84.4354C84.2963 73.9456 84.1628 73.8904 84.0644 73.7921C83.9659 73.6938 83.9106 73.5605 83.9106 73.4215C83.9106 73.2826 83.9659 73.1493 84.0644 73.051C84.1628 72.9527 84.2963 72.8975 84.4354 72.8975H96.1669C96.3061 72.8975 96.4396 72.9527 96.538 73.051C96.6364 73.1493 96.6917 73.2826 96.6917 73.4215C96.6917 73.5605 96.6364 73.6938 96.538 73.7921C96.4396 73.8904 96.3061 73.9456 96.1669 73.9456Z" fill="white"/>
<path d="M107.45 76.8279H84.3043C84.1652 76.8279 84.0317 76.7727 83.9332 76.6745C83.8348 76.5762 83.7795 76.4429 83.7795 76.3039C83.7795 76.1649 83.8348 76.0316 83.9332 75.9333C84.0317 75.835 84.1652 75.7798 84.3043 75.7798H107.45C107.589 75.7798 107.723 75.835 107.821 75.9333C107.92 76.0316 107.975 76.1649 107.975 76.3039C107.975 76.4429 107.92 76.5762 107.821 76.6745C107.723 76.7727 107.589 76.8279 107.45 76.8279Z" fill="white"/>
<path d="M78.203 78.3766C80.1463 78.3766 81.7216 76.8034 81.7216 74.8627C81.7216 72.9221 80.1463 71.3489 78.203 71.3489C76.2597 71.3489 74.6843 72.9221 74.6843 74.8627C74.6843 76.8034 76.2597 78.3766 78.203 78.3766Z" fill="white"/>
</g>
<defs>
<clipPath id="clip0_225_2054">
<rect width="141" height="117" fill="white"/>
</clipPath>
</defs>
</svg>
