<svg width="207" height="106" viewBox="0 0 207 106" fill="none" xmlns="http://www.w3.org/2000/svg">
<g clip-path="url(#clip0_225_3210)">
<path d="M10.052 103.36C13.7952 106.055 18.646 106.191 23.3349 105.859C23.9897 105.813 24.6398 105.759 25.2838 105.701C25.2877 105.7 25.2928 105.7 25.2968 105.699C25.3278 105.696 25.3588 105.693 25.3884 105.691C25.5213 105.679 25.6543 105.666 25.786 105.654L25.7549 105.713L25.6573 105.897C25.6923 105.836 25.7274 105.775 25.7625 105.714C25.7728 105.695 25.7844 105.677 25.7947 105.658C27.0093 103.546 28.2141 101.356 28.5214 98.9432C28.839 96.4393 27.9463 93.604 25.7414 92.3733C25.4522 92.2124 25.146 92.0842 24.8284 91.9912C24.6965 91.9511 24.5629 91.9186 24.4277 91.8899C23.6008 91.7063 22.7398 91.7463 21.9334 92.0055C21.127 92.2648 20.4043 92.734 19.8395 93.365C19.2747 93.996 18.8883 94.766 18.7199 95.5957C18.5516 96.4254 18.6074 97.285 18.8816 98.086C17.0122 96.1702 17.3609 93.0622 18.0058 90.4647C18.6519 87.8673 19.434 84.9769 18.1199 82.6439C17.3894 81.3453 16.1048 80.5396 14.6632 80.2151C14.619 80.2055 14.5748 80.196 14.5305 80.1878C12.8128 79.8401 11.0271 80.1528 9.53008 81.0635C6.77355 82.7996 5.35776 86.0913 4.89825 89.3158C4.15789 94.5047 5.79629 100.296 10.052 103.36Z" fill="#F2F2F2"/>
<path d="M11.2606 95.0421C11.3693 96.1866 11.6443 97.3092 12.0772 98.3744C12.4761 99.317 13.0137 100.195 13.6723 100.978C15.0415 102.58 16.7755 103.83 18.7285 104.622C20.2057 105.227 21.7534 105.643 23.3349 105.859C23.9897 105.813 24.6398 105.759 25.2839 105.701C25.2878 105.699 25.2929 105.7 25.2968 105.699C25.3278 105.696 25.3588 105.693 25.3884 105.691C25.5213 105.679 25.6543 105.666 25.786 105.654L25.7549 105.713L25.6573 105.897C25.6924 105.836 25.7274 105.775 25.7625 105.714C25.7729 105.695 25.7844 105.677 25.7947 105.658C24.609 104.478 23.7238 103.03 23.2132 101.437C22.7025 99.8441 22.5813 98.152 22.8598 96.5025C23.1511 94.8647 23.8257 93.3188 24.8284 91.9911C24.6965 91.951 24.5629 91.9185 24.4277 91.8898C24.0466 92.4105 23.7124 92.9638 23.4288 93.5433C22.4114 95.6101 22.0868 97.9494 22.5031 100.215C22.8901 102.265 23.8543 104.162 25.2825 105.684C25.1574 105.675 25.0312 105.665 24.9076 105.653C22.567 105.455 20.2313 104.952 18.1084 103.922C16.2938 103.063 14.7184 101.771 13.521 100.16C12.2353 98.3881 11.6687 96.2564 11.5714 94.0898C11.4965 91.7557 11.7413 89.4222 12.299 87.1544C12.8398 84.8419 13.6617 82.6042 14.7464 80.4913C14.7706 80.4434 14.7755 80.3879 14.76 80.3365C14.7446 80.2851 14.7099 80.2416 14.6632 80.215C14.6243 80.1888 14.5766 80.179 14.5305 80.1877C14.5079 80.1936 14.487 80.2046 14.4693 80.2198C14.4516 80.235 14.4375 80.254 14.4281 80.2753C14.2943 80.5363 14.163 80.7975 14.0367 81.0616C12.9846 83.2615 12.21 85.5836 11.7307 87.9744C11.2655 90.2808 11.0171 92.6934 11.2606 95.0421Z" fill="white"/>
<path d="M198.965 101.699C193.317 105.765 185.998 105.97 178.923 105.47C177.935 105.4 176.954 105.319 175.983 105.231C175.977 105.229 175.969 105.23 175.963 105.228C175.916 105.224 175.869 105.219 175.825 105.216C175.624 105.198 175.424 105.179 175.225 105.16L175.272 105.25L175.419 105.527C175.366 105.434 175.313 105.343 175.26 105.25C175.245 105.223 175.227 105.195 175.212 105.167C173.379 101.979 171.561 98.6746 171.098 95.0348C170.618 91.2568 171.965 86.9789 175.292 85.1221C175.728 84.8792 176.191 84.6858 176.67 84.5454C176.869 84.485 177.07 84.436 177.274 84.3926C178.522 84.1157 179.821 84.1759 181.038 84.5671C182.254 84.9583 183.345 85.6663 184.197 86.6184C185.049 87.5704 185.632 88.7321 185.886 89.984C186.14 91.2359 186.056 92.5329 185.642 93.7415C188.463 90.8508 187.937 86.1614 186.964 82.2423C185.989 78.3232 184.809 73.9622 186.792 70.4421C187.894 68.4828 189.832 67.2672 192.007 66.7775C192.074 66.7631 192.141 66.7487 192.207 66.7363C194.799 66.2116 197.493 66.6834 199.752 68.0575C203.911 70.677 206.047 75.6436 206.741 80.5089C207.858 88.3379 205.386 97.0753 198.965 101.699Z" fill="#F2F2F2"/>
<path d="M197.141 89.1487C196.977 90.8756 196.562 92.5694 195.909 94.1766C195.307 95.5988 194.496 96.9232 193.502 98.1056C191.472 100.546 188.788 102.381 185.873 103.603C183.644 104.516 181.309 105.143 178.923 105.47C177.935 105.4 176.954 105.319 175.982 105.23C175.977 105.229 175.969 105.229 175.963 105.228C175.916 105.223 175.869 105.219 175.825 105.216C175.624 105.198 175.423 105.179 175.225 105.16L175.272 105.249L175.419 105.527C175.366 105.434 175.313 105.343 175.26 105.25C175.245 105.222 175.227 105.195 175.212 105.167C177.001 103.385 178.336 101.201 179.107 98.7977C179.877 96.3941 180.06 93.841 179.64 91.3522C179.2 88.881 178.183 86.5487 176.67 84.5453C176.869 84.4849 177.07 84.4358 177.274 84.3925C177.849 85.1781 178.354 86.013 178.781 86.8874C180.316 90.0058 180.806 93.5354 180.178 96.9536C179.594 100.047 178.139 102.909 175.984 105.205C176.173 105.192 176.364 105.176 176.55 105.159C180.082 104.86 183.606 104.102 186.809 102.547C189.547 101.251 191.924 99.3018 193.731 96.8712C195.67 94.1973 196.525 90.9809 196.672 87.712C196.828 84.2122 196.373 80.651 195.574 77.2476C194.758 73.7585 193.518 70.3823 191.882 67.1942C191.845 67.1219 191.838 67.0383 191.861 66.9607C191.884 66.8831 191.937 66.8175 192.007 66.7773C192.066 66.7378 192.138 66.723 192.207 66.7361C192.241 66.7451 192.273 66.7617 192.3 66.7846C192.326 66.8075 192.348 66.8361 192.362 66.8684C192.564 67.2622 192.762 67.6563 192.952 68.0548C194.54 71.3741 195.708 74.8776 196.432 78.4849C197.134 81.9648 197.508 85.605 197.141 89.1487Z" fill="white"/>
<path d="M145.891 61.9208H61.4382C61.2613 61.9204 61.0917 61.85 60.9666 61.725C60.8415 61.6 60.771 61.4305 60.7705 61.2537V0.66735C60.7709 0.490501 60.8413 0.321002 60.9664 0.195936C61.0916 0.0708701 61.2611 0.00042062 61.4381 0H145.891C146.068 0.000403105 146.237 0.0708142 146.362 0.195836C146.487 0.320858 146.558 0.490317 146.558 0.667151V61.2535C146.558 61.4303 146.487 61.5998 146.362 61.7248C146.237 61.8499 146.068 61.9204 145.891 61.9208ZM61.4384 0.407737C61.3695 0.407907 61.3035 0.435337 61.2548 0.484026C61.2061 0.532714 61.1786 0.5987 61.1785 0.667549V61.2535C61.1787 61.3223 61.2062 61.3882 61.2549 61.4369C61.3036 61.4855 61.3696 61.5129 61.4385 61.5131H145.891C145.959 61.5129 146.025 61.4854 146.074 61.4367C146.123 61.388 146.15 61.3221 146.15 61.2533V0.66735C146.15 0.598534 146.123 0.532598 146.074 0.483951C146.025 0.435304 145.959 0.407904 145.89 0.407737H61.4384Z" fill="#3F3D56"/>
<path d="M141.227 5.20337V48.2593C141.227 48.4016 141.199 48.5425 141.145 48.674C141.091 48.8055 141.011 48.9249 140.91 49.0256C140.809 49.1263 140.69 49.2061 140.558 49.2606C140.427 49.3151 140.286 49.3432 140.144 49.3433H67.013C66.961 49.3437 66.909 49.3396 66.8576 49.3312C66.5997 49.294 66.3637 49.1652 66.1931 48.9684C66.0224 48.7715 65.9285 48.5197 65.9285 48.2593V5.20337C65.9284 4.91598 66.0425 4.64031 66.2458 4.43703C66.449 4.23374 66.7248 4.11948 67.0123 4.11938H140.143C140.285 4.11934 140.426 4.14732 140.558 4.20173C140.689 4.25615 140.809 4.33593 140.91 4.43652C141.01 4.53711 141.09 4.65654 141.145 4.788C141.199 4.91945 141.227 5.06035 141.227 5.20266V5.20337Z" fill="#F2F2F2"/>
<path d="M84.3626 29.7197C89.6176 29.7197 93.8777 25.4619 93.8777 20.2097C93.8777 14.9575 89.6176 10.6997 84.3626 10.6997C79.1075 10.6997 74.8474 14.9575 74.8474 20.2097C74.8474 25.4619 79.1075 29.7197 84.3626 29.7197Z" fill="#FF6584"/>
<path d="M114.201 49.5159H67.5226C67.4641 49.5166 67.4057 49.512 67.3481 49.5021L89.4249 11.2827C89.5596 11.0447 89.7552 10.8467 89.9915 10.7089C90.2279 10.5711 90.4966 10.4985 90.7703 10.4985C91.0439 10.4985 91.3126 10.5711 91.549 10.7089C91.7854 10.8467 91.9809 11.0447 92.1156 11.2827L106.932 36.9309L107.642 38.1581L114.201 49.5159Z" fill="#3F3D56"/>
<path opacity="0.2" d="M114.201 49.5159H98.2639L106.087 38.1582L106.651 37.3401L106.932 36.9309L107.642 38.1582L114.201 49.5159Z" fill="black"/>
<path d="M140.191 49.5158H99.8184L107.642 38.1581L108.205 37.3399L118.4 22.5386C119.068 21.5685 120.676 21.5081 121.462 22.3556C121.514 22.4134 121.563 22.4745 121.608 22.5386L140.191 49.5158Z" fill="#3F3D56"/>
<path d="M63.4869 60.8457C64.2023 60.8457 64.7822 60.2661 64.7822 59.5512C64.7822 58.8362 64.2023 58.2566 63.4869 58.2566C62.7716 58.2566 62.1917 58.8362 62.1917 59.5512C62.1917 60.2661 62.7716 60.8457 63.4869 60.8457Z" fill="#FC773F"/>
<path d="M63.4869 3.7625C64.2023 3.7625 64.7822 3.18289 64.7822 2.46792C64.7822 1.75294 64.2023 1.17334 63.4869 1.17334C62.7716 1.17334 62.1917 1.75294 62.1917 2.46792C62.1917 3.18289 62.7716 3.7625 63.4869 3.7625Z" fill="#FC773F"/>
<path d="M144.058 3.7625C144.774 3.7625 145.354 3.18289 145.354 2.46792C145.354 1.75294 144.774 1.17334 144.058 1.17334C143.343 1.17334 142.763 1.75294 142.763 2.46792C142.763 3.18289 143.343 3.7625 144.058 3.7625Z" fill="#FC773F"/>
<path d="M144.058 60.8457C144.774 60.8457 145.354 60.2661 145.354 59.5512C145.354 58.8362 144.774 58.2566 144.058 58.2566C143.343 58.2566 142.763 58.8362 142.763 59.5512C142.763 60.2661 143.343 60.8457 144.058 60.8457Z" fill="#FC773F"/>
<path d="M45.0343 103.313H47.5351L48.7247 93.6729L45.0339 93.6731L45.0343 103.313Z" fill="#A0616A"/>
<path d="M52.3582 105.634L44.4987 105.634L44.4985 102.599L49.3214 102.599C50.1268 102.599 50.8992 102.919 51.4687 103.488C52.0382 104.057 52.3581 104.829 52.3582 105.634Z" fill="#2F2E41"/>
<path d="M35.6513 103.313H38.1521L39.3417 93.6729L35.6509 93.6731L35.6513 103.313Z" fill="#A0616A"/>
<path d="M42.9751 105.634L35.1156 105.634L35.1155 102.599L39.9383 102.599C40.7437 102.599 41.5161 102.919 42.0856 103.488C42.6551 104.057 42.9751 104.829 42.9751 105.634Z" fill="#2F2E41"/>
<path d="M35.9568 74.6009C36.2262 74.4276 36.4544 74.1975 36.6252 73.9266C36.796 73.6558 36.9053 73.3508 36.9454 73.0331C36.9855 72.7154 36.9554 72.3928 36.8573 72.0881C36.7592 71.7833 36.5954 71.5037 36.3775 71.269L38.0241 47.9143L33.281 48.374L33.1507 71.2453C32.7805 71.6374 32.5671 72.1515 32.5508 72.6903C32.5346 73.2292 32.7166 73.7552 33.0625 74.1688C33.4084 74.5824 33.8941 74.8549 34.4275 74.9345C34.961 75.0141 35.5051 74.8954 35.9568 74.6009Z" fill="#A0616A"/>
<path d="M45.1091 98.4578C44.8847 98.4571 44.6683 98.3746 44.5005 98.2257C44.3326 98.0768 44.2249 97.8719 44.1975 97.6493L42.7439 85.4982C42.7235 85.3271 42.6418 85.1692 42.5139 85.0537C42.386 84.9381 42.2206 84.8727 42.0482 84.8695C41.8758 84.8663 41.7081 84.9256 41.5761 85.0364C41.444 85.1471 41.3565 85.3019 41.3298 85.4722L39.4986 97.1064C39.4655 97.3227 39.3557 97.52 39.1893 97.6622C39.0229 97.8044 38.8109 97.8821 38.5919 97.8813H35.624C35.5029 97.8812 35.3829 97.8573 35.2711 97.8107C35.1593 97.7642 35.0578 97.696 34.9725 97.6101C34.8872 97.5241 34.8197 97.4222 34.774 97.3101C34.7282 97.198 34.7052 97.0779 34.7061 96.9569L36.1226 71.1606C36.1231 70.9409 36.2029 70.7289 36.3473 70.5634C36.4917 70.3978 36.691 70.2899 36.9086 70.2595L47.9222 68.6616C48.0531 68.6426 48.1865 68.6522 48.3133 68.6895C48.4401 68.7268 48.5574 68.7911 48.6571 68.878C48.7568 68.9648 48.8365 69.0721 48.8909 69.1926C48.9452 69.3131 48.9729 69.4439 48.972 69.576L48.7798 97.4156C48.7782 97.6502 48.6867 97.8753 48.5241 98.0446C48.3615 98.2138 48.1401 98.3143 47.9056 98.3254L45.1526 98.4566C45.138 98.4574 45.1235 98.4578 45.1091 98.4578Z" fill="#2F2E41"/>
<path d="M39.3991 72.1352C38.3397 72.1311 37.289 71.9442 36.2933 71.5825C36.1245 71.5204 35.9779 71.4097 35.872 71.2644C35.7661 71.1191 35.7056 70.9457 35.6981 70.7661C35.6031 68.6587 35.0472 57.8115 33.429 51.1949C33.1144 49.897 33.1913 48.535 33.65 47.2807C34.1087 46.0264 34.9287 44.9358 36.0065 44.1465C36.0936 44.084 36.1823 44.0226 36.2728 43.9623C37.2087 43.3396 38.2885 42.9666 39.4095 42.8788C40.5304 42.791 41.6552 42.9913 42.6768 43.4606C43.7322 43.9326 44.6492 44.6667 45.3406 45.5929C46.0319 46.5192 46.4746 47.6069 46.6265 48.7525L49.2655 68.3342C49.2825 68.4566 49.2744 68.5812 49.2417 68.7004C49.2091 68.8196 49.1526 68.9309 49.0756 69.0276C49.0003 69.1236 48.9063 69.2034 48.7992 69.262C48.6921 69.3207 48.5743 69.3569 48.4527 69.3686C47.5383 69.4598 45.6418 69.814 43.2146 71.1618C42.0474 71.8081 40.7334 72.1433 39.3991 72.1352Z" fill="#FC773F"/>
<path d="M36.1727 55.9034L31.8298 54.7265C31.595 54.6626 31.3952 54.5082 31.2741 54.2972C31.153 54.0862 31.1207 53.8358 31.1841 53.601L32.7108 47.9732C32.8743 47.3704 33.2553 46.8494 33.7804 46.5108C34.3055 46.1721 34.9375 46.0397 35.5544 46.1392C36.1714 46.2386 36.7297 46.5629 37.1216 47.0494C37.5135 47.5359 37.7114 48.1501 37.677 48.7738L37.3294 55.0685C37.3219 55.2049 37.2839 55.338 37.2184 55.458C37.1528 55.5779 37.0612 55.6817 36.9503 55.7617C36.8394 55.8417 36.7121 55.896 36.5775 55.9205C36.443 55.945 36.3047 55.9391 36.1727 55.9034Z" fill="#FC773F"/>
<path d="M41.007 40.8018C43.7739 40.8018 46.0169 38.56 46.0169 35.7946C46.0169 33.0292 43.7739 30.7874 41.007 30.7874C38.2401 30.7874 35.9971 33.0292 35.9971 35.7946C35.9971 38.56 38.2401 40.8018 41.007 40.8018Z" fill="#A0616A"/>
<path d="M59.162 45.6321C59.137 45.7421 59.1207 45.8539 59.1132 45.9665L50.3508 51.0188L48.221 49.7933L45.9504 52.7641L50.5067 56.0098L60.5033 48.1277C60.9111 48.2785 61.3551 48.3017 61.7763 48.1941C62.1975 48.0866 62.5759 47.8534 62.8613 47.5257C63.1467 47.1979 63.3255 46.7911 63.3739 46.3593C63.4224 45.9275 63.3381 45.4912 63.1324 45.1084C62.9266 44.7256 62.6092 44.4145 62.2222 44.2164C61.8353 44.0184 61.3972 43.9427 60.9662 43.9996C60.5352 44.0565 60.1317 44.2431 59.8094 44.5347C59.4872 44.8263 59.2614 45.2091 59.162 45.6321Z" fill="#A0616A"/>
<path d="M49.6246 51.2625L45.8501 53.7106C45.6458 53.8428 45.3974 53.8886 45.1593 53.838C44.9213 53.7873 44.7131 53.6444 44.5804 53.4405L41.4044 48.5492C41.0642 48.0253 40.9302 47.3941 41.0281 46.7772C41.126 46.1603 41.4489 45.6015 41.9347 45.2085C42.4204 44.8155 43.0345 44.6162 43.6586 44.649C44.2826 44.6818 44.8725 44.9443 45.3143 45.386L49.774 49.8443C49.8707 49.9409 49.9446 50.058 49.9902 50.1868C50.0359 50.3157 50.0521 50.4531 50.0378 50.589C50.0235 50.725 49.9789 50.856 49.9074 50.9725C49.8359 51.089 49.7393 51.1881 49.6246 51.2625Z" fill="#FC773F"/>
<path d="M37.4618 39.7561C38.3965 40.7512 40.1322 40.217 40.254 38.8576C40.2635 38.7521 40.2628 38.6459 40.2519 38.5405C40.189 37.9383 39.841 37.3917 39.9244 36.7559C39.9432 36.5977 40.0022 36.4469 40.0957 36.3178C40.8405 35.321 42.5888 36.7636 43.2917 35.8613C43.7227 35.308 43.2161 34.4368 43.5468 33.8184C43.9833 33.0022 45.2763 33.4049 46.0871 32.9579C46.9893 32.4605 46.9353 31.0771 46.3415 30.2357C45.6172 29.2095 44.3474 28.6619 43.0934 28.583C41.8395 28.5041 40.5941 28.8429 39.4234 29.2989C38.0932 29.817 36.7742 30.533 35.9556 31.702C34.9601 33.1236 34.8643 35.0348 35.3622 36.6971C35.665 37.7083 36.6986 38.9436 37.4618 39.7561Z" fill="#2F2E41"/>
<path d="M77.92 106H0.203979C0.149881 106 0.0979975 105.979 0.059744 105.94C0.0214904 105.902 0 105.85 0 105.796C0 105.742 0.0214904 105.69 0.059744 105.652C0.0979975 105.614 0.149881 105.592 0.203979 105.592H77.92C77.9741 105.592 78.026 105.614 78.0643 105.652C78.1025 105.69 78.124 105.742 78.124 105.796C78.124 105.85 78.1025 105.902 78.0643 105.94C78.026 105.979 77.9741 106 77.92 106Z" fill="#3F3D56"/>
<path d="M205.611 106H127.895C127.841 106 127.789 105.979 127.751 105.94C127.712 105.902 127.691 105.85 127.691 105.796C127.691 105.742 127.712 105.69 127.751 105.652C127.789 105.614 127.841 105.592 127.895 105.592H205.611C205.665 105.592 205.717 105.614 205.755 105.652C205.793 105.69 205.815 105.742 205.815 105.796C205.815 105.85 205.793 105.902 205.755 105.94C205.717 105.979 205.665 106 205.611 106Z" fill="#3F3D56"/>
<path d="M170.41 67.5402C170.134 67.4029 169.891 67.2067 169.699 66.9656C169.507 66.7244 169.37 66.444 169.298 66.1443C169.226 65.8446 169.221 65.5327 169.283 65.2307C169.344 64.9287 169.472 64.6439 169.655 64.3964L168.078 48.9817H171.487L172.741 64.0333C173.136 64.3694 173.395 64.8389 173.467 65.3528C173.54 65.8666 173.421 66.3892 173.134 66.8215C172.846 67.2538 172.41 67.5657 171.908 67.6982C171.406 67.8306 170.873 67.7744 170.41 67.5402Z" fill="#FFB8B8"/>
<path d="M167.28 40.4747C169.943 40.4747 172.103 38.3165 172.103 35.6542C172.103 32.9919 169.943 30.8337 167.28 30.8337C164.616 30.8337 162.457 32.9919 162.457 35.6542C162.457 38.3165 164.616 40.4747 167.28 40.4747Z" fill="#FFB8B8"/>
<path d="M166.182 57.9382L158.984 56.3671C158.795 56.3255 158.624 56.223 158.499 56.0753C158.374 55.9277 158.3 55.743 158.29 55.5497C158.207 53.9443 158.147 49.7913 159.384 45.9143C159.623 45.171 160.009 44.4831 160.519 43.8914C161.028 43.2997 161.651 42.8161 162.351 42.4693C163.051 42.1226 163.814 41.9196 164.593 41.8725C165.373 41.8253 166.154 41.935 166.891 42.1949C167.668 42.4679 168.379 42.902 168.977 43.4689C169.574 44.0357 170.045 44.7224 170.359 45.4839C170.672 46.2454 170.821 47.0646 170.795 47.8876C170.77 48.7106 170.57 49.519 170.21 50.2595C168.614 53.5357 167.608 55.9081 167.222 57.3113C167.162 57.529 167.021 57.7153 166.827 57.832C166.634 57.9486 166.403 57.9866 166.182 57.9382Z" fill="#FC773F"/>
<path d="M159.401 103.734L156.993 103.733L155.848 94.4524H159.401L159.401 103.734Z" fill="#FFB8B8"/>
<path d="M155.274 103.046H159.917V105.967H152.351C152.351 105.584 152.426 105.204 152.573 104.849C152.72 104.495 152.935 104.173 153.207 103.901C153.478 103.63 153.801 103.415 154.155 103.268C154.51 103.121 154.89 103.046 155.274 103.046Z" fill="#2F2E41"/>
<path d="M183.474 100.615L181.365 101.774L175.887 94.193L179.001 92.4822L183.474 100.615Z" fill="#FFB8B8"/>
<path d="M179.527 102L183.595 99.7642L185.004 102.325L178.373 105.968C178.188 105.632 178.071 105.262 178.029 104.881C177.987 104.499 178.021 104.114 178.128 103.745C178.235 103.377 178.413 103.033 178.653 102.733C178.893 102.434 179.19 102.185 179.527 102Z" fill="#2F2E41"/>
<path d="M159.445 98.5794L155.739 98.2942C155.531 98.2788 155.336 98.1905 155.187 98.0451C155.039 97.8996 154.946 97.7063 154.927 97.4994C154.399 91.993 152.081 64.0897 158.349 55.4986L158.366 55.4747L158.394 55.4643C158.451 55.4438 164.04 53.4517 167.247 57.1025C167.348 57.2185 167.417 57.3588 167.446 57.5095C167.476 57.6601 167.466 57.8159 167.417 57.9615L167.295 58.3284C167.26 58.4324 167.251 58.5432 167.268 58.6516C167.285 58.76 167.327 58.8627 167.392 58.9511C168.282 60.1536 171.278 64.785 172.455 73.8924C172.463 73.9504 172.478 74.0072 172.5 74.0614L181.192 95.4028C181.236 95.5117 181.258 95.6285 181.257 95.7461C181.256 95.8638 181.231 95.98 181.184 96.0879C181.137 96.1958 181.069 96.2932 180.984 96.3744C180.898 96.4557 180.798 96.5191 180.688 96.561L177.953 97.6025C177.754 97.6772 177.534 97.6781 177.334 97.6048C177.135 97.5315 176.968 97.389 176.864 97.2033L164.316 74.4501C164.267 74.3596 164.189 74.2871 164.096 74.2431C164.002 74.199 163.897 74.1857 163.795 74.205C163.693 74.2243 163.6 74.2752 163.529 74.3504C163.458 74.4257 163.413 74.5214 163.4 74.624L160.389 97.8124C160.361 98.025 160.257 98.2204 160.096 98.362C159.935 98.5036 159.728 98.5817 159.513 98.5819C159.491 98.5819 159.468 98.5812 159.445 98.5794Z" fill="#2F2E41"/>
<path d="M148.529 41.2538C148.553 41.3597 148.569 41.4674 148.576 41.5757L157.012 46.4396L159.062 45.2598L161.248 48.1199L157.821 50.5609C157.544 50.7581 157.211 50.8603 156.871 50.852C156.531 50.8437 156.203 50.7255 155.936 50.515L147.238 43.6564C146.845 43.8016 146.418 43.824 146.012 43.7204C145.607 43.6169 145.242 43.3924 144.967 43.0768C144.693 42.7613 144.52 42.3695 144.474 41.9538C144.427 41.538 144.508 41.1179 144.706 40.7493C144.904 40.3808 145.21 40.0812 145.583 39.8905C145.955 39.6998 146.377 39.627 146.792 39.6818C147.207 39.7366 147.596 39.9163 147.906 40.1971C148.216 40.4779 148.434 40.8465 148.529 41.2538Z" fill="#FFB8B8"/>
<path d="M157.128 45.9533C157.153 45.8289 157.205 45.7115 157.28 45.609C157.355 45.5066 157.451 45.4215 157.562 45.3596L161.433 43.1962C161.948 42.7997 162.598 42.6231 163.243 42.7053C163.887 42.7874 164.472 43.1215 164.871 43.6343C165.269 44.1472 165.448 44.7969 165.367 45.4411C165.287 46.0854 164.955 46.6716 164.443 47.0713L161.356 50.2746C161.268 50.366 161.162 50.4373 161.043 50.4838C160.925 50.5302 160.798 50.5507 160.672 50.5438C160.545 50.5368 160.421 50.5026 160.309 50.4436C160.196 50.3845 160.098 50.3019 160.02 50.2014L157.294 46.6698C157.216 46.5694 157.161 46.4533 157.133 46.3297C157.104 46.206 157.102 46.0776 157.128 45.9533Z" fill="#FC773F"/>
<path d="M167.148 52.6228C167.049 52.543 166.969 52.4429 166.912 52.3292C166.856 52.2156 166.825 52.091 166.821 51.9642L166.682 47.5336C166.566 46.8946 166.709 46.2359 167.078 45.7019C167.448 45.1679 168.015 44.8021 168.654 44.6849C169.293 44.5676 169.952 44.7084 170.487 45.0764C171.023 45.4443 171.39 46.0094 171.509 46.6478L172.933 50.8611C172.974 50.9813 172.988 51.1089 172.975 51.2351C172.962 51.3614 172.921 51.4833 172.857 51.5926C172.792 51.7019 172.705 51.796 172.601 51.8685C172.496 51.941 172.378 51.9902 172.253 52.0128L167.861 52.8054C167.736 52.828 167.608 52.8234 167.484 52.7919C167.361 52.7604 167.247 52.7027 167.148 52.6228Z" fill="#FC773F"/>
<path d="M166.516 34.5455C165.277 35.3935 163.649 36.2651 162.383 35.3621C161.987 35.0607 161.699 34.6392 161.563 34.1607C161.427 33.6821 161.449 33.1724 161.627 32.7077C162.233 30.9749 163.899 30.2121 165.492 29.6274C167.562 28.8672 169.817 28.2625 171.954 28.8069C174.092 29.3512 175.981 31.4197 175.595 33.5904C175.285 35.336 173.637 36.7885 173.871 38.546C174.107 40.3148 176.097 41.2458 177.854 41.562C179.611 41.8781 181.577 41.9797 182.84 43.241C184.451 44.8502 184.049 47.7263 182.533 49.4253C181.017 51.1242 178.73 51.8943 176.513 52.4178C173.577 53.1115 170.4 53.476 167.611 52.3249C164.822 51.1737 162.652 48.0749 163.46 45.1691C163.801 43.9417 164.605 42.9044 165.382 41.8945C166.159 40.8846 166.946 39.8286 167.242 38.5896C167.489 37.5571 167.306 36.3583 166.621 35.5838C166.497 35.4483 166.418 35.2767 166.397 35.0938C166.376 34.911 166.414 34.7261 166.504 34.5659L166.516 34.5455Z" fill="#2F2E41"/>
</g>
<defs>
<clipPath id="clip0_225_3210">
<rect width="207" height="106" fill="white"/>
</clipPath>
</defs>
</svg>
