<svg width="167" height="124" viewBox="0 0 167 124" fill="none" xmlns="http://www.w3.org/2000/svg">
<g clip-path="url(#clip0_225_2406)">
<path d="M118.021 90.5731H28.6281C27.8316 90.5722 27.068 90.2546 26.5047 89.6901C25.9415 89.1255 25.6247 88.3601 25.6238 87.5617V14.6022C25.6247 13.8038 25.9415 13.0384 26.5047 12.4738C27.068 11.9093 27.8316 11.5917 28.6281 11.5908H118.021C118.818 11.5917 119.581 11.9093 120.145 12.4738C120.708 13.0384 121.025 13.8038 121.026 14.6022V87.5617C121.025 88.3601 120.708 89.1255 120.145 89.6901C119.581 90.2546 118.818 90.5722 118.021 90.5731Z" fill="#E6E6E6"/>
<path d="M30.6549 13.7341C29.8876 13.735 29.1521 14.0409 28.6095 14.5847C28.067 15.1286 27.7618 15.8659 27.761 16.6349V85.5306C27.7619 86.2996 28.0671 87.0368 28.6096 87.5806C29.1521 88.1244 29.8877 88.4302 30.6549 88.4311H91.8411C99.0121 88.423 105.887 85.5641 110.958 80.4815C116.028 75.399 118.881 68.508 118.889 61.3202V16.6349C118.888 15.8659 118.583 15.1286 118.04 14.5847C117.498 14.0409 116.762 13.735 115.995 13.7341L30.6549 13.7341Z" fill="white"/>
<path d="M101.72 44.7195H85.5112C85.1731 44.7192 84.849 44.5844 84.61 44.3448C84.3709 44.1052 84.2365 43.7803 84.2361 43.4415V35.355C84.2365 35.0161 84.3709 34.6913 84.61 34.4517C84.849 34.2121 85.1731 34.0773 85.5112 34.0769H101.72C102.058 34.0773 102.382 34.2121 102.622 34.4517C102.861 34.6913 102.995 35.0161 102.995 35.355C103.998 38.2166 104.141 40.9357 102.995 43.4415C102.995 43.7803 102.861 44.1052 102.622 44.3448C102.382 44.5844 102.058 44.7192 101.72 44.7195Z" fill="#E6E6E6"/>
<path d="M99.7999 43.938H86.0286C85.7414 43.9377 85.4661 43.8232 85.263 43.6196C85.0599 43.416 84.9456 43.14 84.9453 42.8521V35.9819C84.9456 35.694 85.0599 35.418 85.263 35.2144C85.4661 35.0108 85.7414 34.8963 86.0286 34.896H99.7999C100.087 34.8963 100.363 35.0108 100.566 35.2144C100.769 35.418 100.883 35.694 100.883 35.9819C101.813 38.4286 101.962 40.7439 100.883 42.8521C100.883 43.14 100.769 43.416 100.566 43.6196C100.363 43.8232 100.087 43.9377 99.7999 43.938Z" fill="white"/>
<path d="M99.0574 48.9554H88.1383C87.817 48.9559 87.5088 48.8285 87.2813 48.6012C87.0538 48.3739 86.9256 48.0654 86.9251 47.7434C86.9245 47.4214 87.0514 47.1124 87.2781 46.8843C87.5048 46.6562 87.8125 46.5276 88.1337 46.5269H99.0574C99.3783 46.5275 99.6858 46.6557 99.9125 46.8833C100.139 47.111 100.267 47.4195 100.267 47.7411C100.267 48.0628 100.139 48.3713 99.9125 48.5989C99.6858 48.8266 99.3783 48.9548 99.0574 48.9554Z" fill="#E6E6E6"/>
<path d="M91.7159 36.7512C91.5903 36.7517 91.4699 36.8019 91.3812 36.891C91.2924 36.9801 91.2424 37.1008 91.2422 37.2267V42.3737C91.2422 42.4568 91.2639 42.5385 91.3053 42.6105C91.3466 42.6826 91.4062 42.7425 91.4778 42.7842C91.5495 42.826 91.6309 42.8481 91.7138 42.8485C91.7968 42.8488 91.8783 42.8273 91.9504 42.7861L96.4828 40.1957C96.5556 40.1542 96.6161 40.094 96.6582 40.0213C96.7002 39.9486 96.7222 39.8661 96.722 39.782C96.7218 39.698 96.6993 39.6156 96.6568 39.5431C96.6144 39.4707 96.5536 39.4108 96.4805 39.3697L91.9483 36.8128C91.8774 36.7726 91.7974 36.7513 91.7159 36.7512Z" fill="#E6E6E6"/>
<path d="M157.841 113.512C157.591 113.193 157.251 112.957 156.866 112.834C156.481 112.71 156.067 112.705 155.679 112.82L155.595 112.845L154.834 115.823C154.72 115.379 154.476 114.377 154.322 113.396L154.309 113.315L154.233 113.348C153.437 113.701 152.689 114.153 152.007 114.693C150.798 115.665 149.814 116.89 149.125 118.282C148.435 119.673 148.057 121.199 148.015 122.752L148.014 122.809L148.012 122.845L148.113 122.809L150.275 122.034C151.233 122.119 152.197 121.988 153.097 121.651C153.998 121.315 154.812 120.781 155.481 120.089C156.354 119.165 156.954 117.977 157.533 116.828C157.703 116.493 157.876 116.147 158.054 115.815C158.252 115.454 158.338 115.041 158.3 114.631C158.262 114.22 158.102 113.83 157.841 113.512Z" fill="#F2F2F2"/>
<path d="M102.619 37.5663C102.662 37.7917 102.754 38.0049 102.889 38.1907C103.023 38.3766 103.197 38.5307 103.397 38.6421C103.598 38.7535 103.82 38.8195 104.048 38.8355C104.277 38.8515 104.506 38.817 104.72 38.7346L111.183 46.2703L112.001 43.4885L105.594 36.5941C105.432 36.2432 105.147 35.9641 104.793 35.8096C104.44 35.6551 104.042 35.6359 103.675 35.7558C103.309 35.8756 102.999 36.1261 102.804 36.4598C102.609 36.7935 102.543 37.1872 102.619 37.5663Z" fill="#FFB8B8"/>
<path d="M128.665 121.008H126.526L125.509 112.739H128.665L128.665 121.008Z" fill="#FFB6B6"/>
<path d="M128.608 120.308L126.324 119.376L126.259 119.35L124.998 120.308C124.286 120.308 123.604 120.591 123.1 121.096C122.597 121.6 122.314 122.284 122.314 122.998V123.085H129.21V120.308H128.608Z" fill="#2F2E41"/>
<path d="M143.922 121.008H141.784L140.766 112.739H143.923L143.922 121.008Z" fill="#FFB6B6"/>
<path d="M143.865 120.308L141.581 119.376L141.516 119.35L140.255 120.308C139.543 120.308 138.861 120.591 138.357 121.096C137.854 121.6 137.571 122.284 137.571 122.998V123.085H144.467V120.308H143.865Z" fill="#2F2E41"/>
<path d="M138.874 71.6301C138.874 71.6301 141.557 74.4275 141.557 76.726C141.557 79.0244 140.886 82.1804 141.557 82.8711C142.228 83.5619 143.066 84.4021 142.06 85.4105C141.054 86.4188 140.551 86.9229 141.222 87.5951C141.892 88.2674 141.557 100.031 141.557 100.031L145.078 115.828H140.642L135.018 100.031L133.509 86.9229L128.629 99.5269L129.168 115.964L124.531 115.828L122.611 98.3505C122.611 98.3505 125.462 81.7252 124.959 81.2991C124.456 80.873 124.959 80.0129 124.959 80.0129L126.3 73.6467L138.874 71.6301Z" fill="#2F2E41"/>
<path d="M133.622 51.7964C133.622 51.7964 134.534 48.1937 130.332 47.1608C126.13 46.1278 114.117 44.8008 114.117 44.8008L108.047 38.344L105.99 41.3383L112.795 49.815L128.92 53.1348L133.622 51.7964Z" fill="#3F3D56"/>
<path d="M106.99 41.1178C107.178 40.873 107.326 40.599 107.426 40.3067L108.297 38.1625L108.071 38.153C107.758 38.0941 107.437 38.102 107.127 38.1763C106.818 38.2506 106.528 38.3897 106.275 38.5843C106.023 38.7789 105.815 39.0247 105.664 39.3057C105.514 39.5866 105.424 39.8962 105.401 40.2144C105.372 40.4895 105.422 40.7672 105.543 41.0156C105.605 41.1388 105.695 41.2455 105.806 41.327C105.917 41.4086 106.046 41.4626 106.181 41.4847C106.336 41.493 106.49 41.464 106.63 41.4001C106.771 41.3362 106.894 41.2394 106.99 41.1178Z" fill="#E6E6E6"/>
<path d="M125.444 74.5053L124.941 78.1599C124.941 78.1599 125.947 79.2428 126.45 79.1074C126.953 78.9721 128.797 78.1841 128.797 78.1841C128.797 78.1841 130.977 79.3781 132.15 79.5135C133.324 79.6489 139.527 78.8367 139.695 78.4306C139.863 78.0246 141.811 76.435 141.811 76.435L141.036 71.7981L125.444 74.5053Z" fill="#E6E6E6"/>
<path d="M141.779 61.7201C141.779 61.7201 141.353 65.2442 141.689 65.5685C142.024 65.8912 141.353 67.933 140.683 69.2774C140.012 70.6218 141.186 70.7899 141.186 71.7982C141.186 72.8065 141.689 76.5037 141.689 76.5037C141.689 76.5037 136.491 76.8398 135.653 75.9995C134.814 75.1593 133.473 75.8315 131.629 77.6801C129.785 79.5286 125.779 78.0162 124.941 77.1759C124.103 76.3356 125.593 73.3107 126.096 72.7242C126.599 72.1377 125.612 72.8166 125.109 70.9579C124.606 69.0993 125.593 69.2774 126.431 68.4372C127.27 67.5969 126.431 66.0844 125.761 64.5719C125.09 63.0595 125.593 51.7999 125.593 49.1111C125.593 46.4223 129.282 46.0862 129.282 46.0862L130.742 44.246L131.815 42.8931L133.917 42.8091L133.973 42.8074L136.007 42.7251L136.994 43.8779L139.174 46.4223L141.689 46.9264C143.7 47.5986 143.198 51.7999 143.198 51.7999L141.779 61.7201Z" fill="#3F3D56"/>
<path d="M133.814 42.0801C136.194 42.0801 138.123 40.1461 138.123 37.7603C138.123 35.3745 136.194 33.4404 133.814 33.4404C131.433 33.4404 129.504 35.3745 129.504 37.7603C129.504 40.1461 131.433 42.0801 133.814 42.0801Z" fill="#FFB6B6"/>
<path d="M138.811 36.307C137.625 35.5783 137.777 33.673 136.635 33.0077C136.067 32.6797 135.429 32.494 134.774 32.4665C134.12 32.4389 133.468 32.5703 132.875 32.8494C132.07 32.5045 131.107 32.7798 130.463 33.4027C129.82 34.0257 129.471 34.9446 129.368 35.8688C129.294 36.7974 129.361 37.7319 129.566 38.6405C129.63 38.2754 129.694 37.9104 129.758 37.5453L133.155 36.801C132.854 37.0719 132.554 37.3427 132.253 37.6136C133.792 37.9647 135.406 37.7116 136.764 36.9064C138.243 37.571 137.975 39.0636 136.677 41.0445C137.18 41.8847 140.161 37.1372 138.811 36.307Z" fill="#2F2E41"/>
<path d="M136.994 43.8778C136.984 43.8856 136.974 43.8929 136.964 43.8997C136.609 44.112 136.202 44.2224 135.789 44.219C135.247 44.2642 134.71 44.0953 134.291 43.7484C134.072 43.54 133.198 43.9803 132.625 44.224C132.023 44.4738 131.349 44.4817 130.742 44.2458L131.815 42.893L133.583 42.5H134.025L136.006 42.725L136.994 43.8778Z" fill="#E6E6E6"/>
<path d="M165.932 123.292L105.94 123.36C105.906 123.36 105.872 123.353 105.84 123.34C105.808 123.327 105.779 123.308 105.754 123.283C105.73 123.259 105.71 123.23 105.697 123.198C105.683 123.166 105.676 123.132 105.676 123.097C105.676 123.063 105.683 123.029 105.696 122.997C105.709 122.965 105.728 122.935 105.752 122.911C105.777 122.886 105.805 122.867 105.837 122.853C105.869 122.84 105.903 122.833 105.938 122.833H105.94L165.932 122.765C166.001 122.765 166.068 122.793 166.117 122.842C166.166 122.892 166.193 122.958 166.193 123.028C166.193 123.098 166.166 123.165 166.117 123.214C166.068 123.263 166.001 123.291 165.932 123.292Z" fill="#CACACA"/>
<path d="M94.1002 34.8108H93.6587V3.15894H111.023V3.60149H94.1002V34.8108Z" fill="#3F3D56"/>
<path d="M124.528 0.359619H112.827C112.066 0.359619 111.336 0.662688 110.798 1.20215C110.26 1.74162 109.958 2.47328 109.958 3.2362C109.958 3.99912 110.26 4.73079 110.798 5.27025C111.336 5.80972 112.066 6.11278 112.827 6.11278H124.528C125.289 6.11278 126.019 5.80972 126.557 5.27025C127.095 4.73079 127.397 3.99912 127.397 3.2362C127.397 2.47328 127.095 1.74162 126.557 1.20215C126.019 0.662688 125.289 0.359619 124.528 0.359619Z" fill="#FC773F"/>
<path d="M93.6235 37.7066C95.08 37.7066 96.2607 36.5231 96.2607 35.0633C96.2607 33.6034 95.08 32.4199 93.6235 32.4199C92.167 32.4199 90.9863 33.6034 90.9863 35.0633C90.9863 36.5231 92.167 37.7066 93.6235 37.7066Z" fill="#FC773F"/>
<path d="M61.8449 44.9959L73.4141 42.3124L76.7348 41.5422C77.1502 41.4458 76.9777 40.8048 76.5621 40.9012L64.9929 43.5846L61.6722 44.3549C61.2568 44.4513 61.4293 45.0923 61.8449 44.9959Z" fill="#F2F2F2"/>
<path d="M73.7917 38.0073L79.9851 40.8629C80.1964 40.9362 80.3944 41.0436 80.5711 41.181C80.7421 41.3488 80.6177 41.5102 80.4781 41.6564C80.0613 42.0466 79.6211 42.4108 79.1599 42.747L76.5213 44.8972C76.19 45.1672 76.6574 45.6381 76.9856 45.3708L79.2837 43.498L80.4328 42.5616C80.7583 42.2963 81.1546 42.0256 81.2854 41.603C81.5603 40.7151 80.4756 40.3621 79.8728 40.0842L77.1757 38.8406L74.1289 37.4358C73.7449 37.2587 73.4047 37.8289 73.7917 38.0073Z" fill="#F2F2F2"/>
<path d="M159.259 59.7463C158.156 58.9965 156.815 58.7179 155.505 58.6233C154.016 58.5421 152.523 58.5439 151.034 58.6286C149.488 58.69 147.944 58.8022 146.404 58.9652C144.865 59.1284 143.333 59.3422 141.808 59.6066C140.442 59.8197 139.091 60.1162 137.761 60.4945C136.503 60.8436 135.317 61.4174 134.262 62.1883C133.335 62.8867 132.623 63.8316 132.205 64.9155C131.796 65.9321 131.726 67.0546 132.007 68.1143C132.157 68.629 132.413 69.1063 132.759 69.515C133.159 69.9635 133.633 70.3397 134.161 70.6272C135.255 71.2537 136.495 71.6303 137.485 72.4324C137.746 72.6422 137.984 72.8793 138.195 73.1398C138.338 73.3413 138.536 73.4973 138.765 73.5893C138.982 73.6654 139.217 73.6753 139.44 73.6178C139.662 73.5604 139.863 73.4381 140.017 73.2664C140.215 72.9945 140.38 72.6999 140.509 72.3888L141.031 71.3788C141.066 71.2905 141.11 71.2059 141.162 71.1264C141.201 71.0796 141.131 71.1274 141.144 71.115C141.152 71.1083 141.167 71.1085 141.175 71.1031C141.218 71.0815 141.264 71.0642 141.31 71.0512C141.793 70.8666 142.278 70.6878 142.766 70.5148C144.565 69.8721 146.386 69.2797 148.235 68.8C149.187 68.5441 150.152 68.3417 151.126 68.1937C152.388 68.0135 153.669 68.0345 154.936 67.9113C156.301 67.7787 157.709 67.5019 158.879 66.7487C159.847 66.1592 160.593 65.2649 160.999 64.2056C161.175 63.7007 161.236 63.1626 161.176 62.6311C161.024 61.4285 160.24 60.413 159.259 59.7463Z" fill="#E6E6E6"/>
<path d="M157.001 60.4219C156.004 59.7444 154.793 59.4926 153.609 59.4072C152.263 59.3338 150.914 59.3353 149.568 59.4119C148.171 59.4674 146.776 59.5688 145.384 59.7161C143.994 59.8635 142.609 60.0567 141.231 60.2957C139.997 60.4883 138.776 60.7562 137.574 61.098C136.437 61.4135 135.365 61.932 134.412 62.6287C133.574 63.2598 132.931 64.1136 132.553 65.0932C132.183 66.0119 132.12 67.0262 132.374 67.9838C132.509 68.449 132.741 68.8803 133.054 69.2497C133.415 69.6549 133.844 69.9949 134.32 70.2547C135.309 70.8209 136.43 71.1612 137.325 71.886C137.56 72.0756 137.775 72.2899 137.966 72.5252C138.095 72.7073 138.274 72.8483 138.481 72.9315C138.677 73.0002 138.889 73.0092 139.091 72.9572C139.292 72.9053 139.473 72.7948 139.612 72.6397C139.791 72.3939 139.941 72.1277 140.057 71.8466L140.529 70.9339C140.561 70.8541 140.6 70.7777 140.647 70.7058C140.682 70.6635 140.619 70.7067 140.631 70.6955C140.638 70.6894 140.651 70.6896 140.659 70.6847C140.698 70.6652 140.739 70.6496 140.781 70.6379C141.217 70.4711 141.656 70.3095 142.096 70.1531C143.722 69.5723 145.367 69.037 147.039 68.6035C147.899 68.3722 148.771 68.1893 149.651 68.0556C150.792 67.8928 151.949 67.9117 153.095 67.8004C154.328 67.6806 155.6 67.4304 156.658 66.7497C157.532 66.2171 158.206 65.4089 158.573 64.4516C158.733 63.9954 158.787 63.5091 158.733 63.0288C158.596 61.9421 157.887 61.0244 157.001 60.4219Z" fill="white"/>
<path d="M154.913 61.6456L138.665 64.6494C138.618 64.6582 138.57 64.6578 138.524 64.6482C138.478 64.6385 138.434 64.6198 138.395 64.5931C138.356 64.5664 138.322 64.5322 138.296 64.4925C138.27 64.4528 138.253 64.4084 138.244 64.3618C138.235 64.3152 138.236 64.2674 138.246 64.221C138.255 64.1746 138.274 64.1306 138.301 64.0915C138.328 64.0524 138.362 64.019 138.402 63.9932C138.441 63.9674 138.486 63.9496 138.532 63.941L138.534 63.9407L154.782 60.9369C154.829 60.9283 154.876 60.929 154.923 60.9388C154.969 60.9487 155.013 60.9676 155.051 60.9945C155.09 61.0213 155.124 61.0555 155.149 61.0953C155.175 61.135 155.193 61.1793 155.201 61.2259C155.21 61.2724 155.209 61.3202 155.199 61.3665C155.189 61.4127 155.17 61.4566 155.144 61.4956C155.117 61.5346 155.083 61.5679 155.043 61.5936C155.003 61.6193 154.959 61.637 154.913 61.6456Z" fill="#E6E6E6"/>
<path d="M155.313 63.8206L139.065 66.8244C139.018 66.8333 138.971 66.8329 138.924 66.8232C138.878 66.8136 138.834 66.7948 138.795 66.7681C138.756 66.7414 138.722 66.7072 138.697 66.6676C138.671 66.6279 138.653 66.5835 138.644 66.5369C138.635 66.4903 138.636 66.4424 138.646 66.396C138.655 66.3496 138.674 66.3056 138.701 66.2665C138.728 66.2275 138.762 66.194 138.802 66.1682C138.841 66.1424 138.886 66.1247 138.932 66.1161L138.934 66.1157L155.182 63.1119C155.229 63.1033 155.277 63.104 155.323 63.1139C155.369 63.1238 155.413 63.1427 155.451 63.1695C155.49 63.1963 155.524 63.2306 155.549 63.2703C155.575 63.31 155.593 63.3544 155.601 63.4009C155.61 63.4475 155.609 63.4952 155.599 63.5415C155.589 63.5878 155.57 63.6317 155.544 63.6706C155.517 63.7096 155.483 63.7429 155.443 63.7686C155.404 63.7944 155.359 63.812 155.313 63.8206Z" fill="#E6E6E6"/>
<path d="M141.359 68.6493L139.465 68.9994C139.372 69.0163 139.275 68.9954 139.197 68.9412C139.119 68.887 139.065 68.8039 139.048 68.7101C139.03 68.6164 139.051 68.5196 139.105 68.441C139.159 68.3623 139.241 68.3083 139.335 68.2907L141.228 67.9406C141.322 67.9236 141.418 67.9444 141.497 67.9986C141.575 68.0528 141.629 68.136 141.646 68.2298C141.663 68.3236 141.643 68.4205 141.589 68.4991C141.535 68.5777 141.452 68.6318 141.359 68.6493Z" fill="#E6E6E6"/>
<path d="M139.987 77.6915C140.817 77.5381 141.365 76.7394 141.212 75.9076C141.059 75.0758 140.262 74.5258 139.433 74.6792C138.603 74.8327 138.054 75.6313 138.207 76.4631C138.36 77.2949 139.157 77.8449 139.987 77.6915Z" fill="#D1D3D4"/>
<path d="M55.8997 44.3098H42.0214C41.3771 44.309 40.7595 44.0522 40.3039 43.5955C39.8483 43.1389 39.5921 42.5198 39.5913 41.874V32.706C39.5921 32.0602 39.8483 31.4411 40.3039 30.9845C40.7595 30.5279 41.3771 30.271 42.0214 30.2703H55.8997C56.5439 30.271 57.1616 30.5279 57.6172 30.9845C58.0727 31.4411 58.329 32.0602 58.3298 32.706V41.874C58.329 42.5198 58.0727 43.1389 57.6172 43.5955C57.1616 44.0522 56.5439 44.309 55.8997 44.3098Z" fill="#E6E6E6"/>
<path d="M54.3746 43.816H42.2961C41.7354 43.8153 41.1978 43.5918 40.8013 43.1944C40.4048 42.797 40.1818 42.2581 40.1812 41.6961V33.717C40.1818 33.155 40.4048 32.6162 40.8013 32.2188C41.1978 31.8214 41.7354 31.5978 42.2961 31.5972H54.3746C54.9353 31.5978 55.4729 31.8214 55.8693 32.2188C56.2658 32.6162 56.4889 33.155 56.4895 33.717V41.6961C56.4889 42.2582 56.2658 42.797 55.8693 43.1944C55.4729 43.5918 54.9353 43.8153 54.3746 43.816Z" fill="white"/>
<path d="M57.8546 52.5698H40.0469C39.9368 52.5695 39.8314 52.5255 39.7537 52.4475C39.676 52.3694 39.6323 52.2636 39.6323 52.1533C39.6323 52.043 39.676 51.9372 39.7537 51.8591C39.8314 51.7811 39.9368 51.7371 40.0469 51.7368H57.8546C57.9646 51.7371 58.07 51.7811 58.1478 51.8591C58.2255 51.9372 58.2691 52.043 58.2691 52.1533C58.2691 52.2636 58.2255 52.3694 58.1478 52.4475C58.07 52.5255 57.9646 52.5695 57.8546 52.5698Z" fill="#E6E6E6"/>
<path d="M57.8546 50.1899H40.0469C39.9368 50.1896 39.8314 50.1457 39.7537 50.0676C39.676 49.9895 39.6323 49.8837 39.6323 49.7734C39.6323 49.6631 39.676 49.5573 39.7537 49.4793C39.8314 49.4012 39.9368 49.3572 40.0469 49.3569H57.8546C57.9646 49.3572 58.07 49.4012 58.1478 49.4793C58.2255 49.5573 58.2691 49.6631 58.2691 49.7734C58.2691 49.8837 58.2255 49.9895 58.1478 50.0676C58.07 50.1457 57.9646 50.1896 57.8546 50.1899Z" fill="#E6E6E6"/>
<path d="M57.8545 54.9497H40.0469C39.9367 54.9497 39.831 54.9058 39.753 54.8277C39.6751 54.7496 39.6313 54.6436 39.6313 54.5332C39.6313 54.4227 39.6751 54.3168 39.753 54.2387C39.831 54.1606 39.9367 54.1167 40.0469 54.1167H57.8545C57.9648 54.1167 58.0704 54.1606 58.1484 54.2387C58.2263 54.3168 58.2701 54.4227 58.2701 54.5332C58.2701 54.6436 58.2263 54.7496 58.1484 54.8277C58.0704 54.9058 57.9648 54.9497 57.8545 54.9497Z" fill="#E6E6E6"/>
<path d="M57.8545 57.3296H40.0469C39.9367 57.3296 39.831 57.2857 39.753 57.2076C39.6751 57.1295 39.6313 57.0235 39.6313 56.9131C39.6313 56.8026 39.6751 56.6967 39.753 56.6186C39.831 56.5405 39.9367 56.4966 40.0469 56.4966H57.8545C57.9648 56.4966 58.0704 56.5405 58.1484 56.6186C58.2263 56.6967 58.2701 56.8026 58.2701 56.9131C58.2701 57.0235 58.2263 57.1295 58.1484 57.2076C58.0704 57.2857 57.9648 57.3296 57.8545 57.3296Z" fill="#E6E6E6"/>
<path d="M57.8545 59.7094H40.0469C39.9367 59.7094 39.831 59.6656 39.753 59.5875C39.6751 59.5093 39.6313 59.4034 39.6313 59.293C39.6313 59.1825 39.6751 59.0766 39.753 58.9985C39.831 58.9203 39.9367 58.8765 40.0469 58.8765H57.8545C57.9648 58.8765 58.0704 58.9203 58.1484 58.9985C58.2263 59.0766 58.2701 59.1825 58.2701 59.293C58.2701 59.4034 58.2263 59.5093 58.1484 59.5875C58.0704 59.6656 57.9648 59.7094 57.8545 59.7094Z" fill="#E6E6E6"/>
<path d="M57.8546 62.0893H40.0469C39.9368 62.0891 39.8314 62.0451 39.7537 61.967C39.676 61.8889 39.6323 61.7831 39.6323 61.6728C39.6323 61.5625 39.676 61.4568 39.7537 61.3787C39.8314 61.3006 39.9368 61.2566 40.0469 61.2563H57.8546C57.9646 61.2566 58.07 61.3006 58.1478 61.3787C58.2255 61.4568 58.2691 61.5625 58.2691 61.6728C58.2691 61.7831 58.2255 61.8889 58.1478 61.967C58.07 62.0451 57.9646 62.0891 57.8546 62.0893Z" fill="#E6E6E6"/>
<path d="M48.0605 56.6313H48.502V73.6791H16.5676V73.2365H48.0605V56.6313Z" fill="#3F3D56"/>
<path d="M3.06298 76.4783H14.7632C15.5244 76.4783 16.2543 76.1752 16.7925 75.6357C17.3307 75.0963 17.6331 74.3646 17.6331 73.6017C17.6331 72.8388 17.3307 72.1071 16.7925 71.5676C16.2543 71.0282 15.5244 70.7251 14.7632 70.7251H3.06298C2.30185 70.7251 1.57189 71.0282 1.03368 71.5676C0.495477 72.1071 0.193115 72.8388 0.193115 73.6017C0.193115 74.3646 0.495477 75.0963 1.03368 75.6357C1.57189 76.1752 2.30185 76.4783 3.06298 76.4783Z" fill="#FC773F"/>
<path d="M48.5886 57.9158C50.0451 57.9158 51.2258 56.7324 51.2258 55.2725C51.2258 53.8126 50.0451 52.6292 48.5886 52.6292C47.1321 52.6292 45.9514 53.8126 45.9514 55.2725C45.9514 56.7324 47.1321 57.9158 48.5886 57.9158Z" fill="#FC773F"/>
<path d="M62.2194 56.007C66.0912 56.8318 65.1063 56.9928 68.9781 57.8176L72.3122 58.5279C72.7292 58.6167 72.8434 57.9627 72.4262 57.8739C68.5544 57.049 69.5393 56.8881 65.6675 56.0633L62.3334 55.353C61.9164 55.2642 61.8022 55.9181 62.2194 56.007Z" fill="#F2F2F2"/>
<path d="M71.1372 54.0771L75.5437 59.2909C75.7043 59.4469 75.8384 59.6282 75.9406 59.8275C76.0246 60.0521 75.8437 60.1456 75.6556 60.2189C75.1133 60.3957 74.5606 60.539 74.0008 60.6481L70.7024 61.4775C70.2884 61.5816 70.5131 62.2066 70.9232 62.1035L73.796 61.3811L75.2324 61.0199C75.6394 60.9176 76.1127 60.8403 76.4096 60.5129C77.0334 59.8249 76.1996 59.0451 75.7707 58.5376L73.8517 56.2671L71.684 53.7022C71.4108 53.3789 70.8619 53.7513 71.1372 54.0771Z" fill="#F2F2F2"/>
<path d="M85.1088 76.8046C88.4958 76.8046 91.2415 74.0524 91.2415 70.6575C91.2415 67.2626 88.4958 64.5105 85.1088 64.5105C81.7218 64.5105 78.9761 67.2626 78.9761 70.6575C78.9761 74.0524 81.7218 76.8046 85.1088 76.8046Z" fill="#E6E6E6"/>
<path d="M84.5109 76.0209C87.0858 76.0209 89.1732 73.9287 89.1732 71.3478C89.1732 68.7668 87.0858 66.6746 84.5109 66.6746C81.936 66.6746 79.8486 68.7668 79.8486 71.3478C79.8486 73.9287 81.936 76.0209 84.5109 76.0209Z" fill="white"/>
<path d="M83.6745 74.547C83.5686 74.547 83.4641 74.5223 83.3694 74.4748C83.2747 74.4274 83.1923 74.3584 83.1288 74.2735L81.4557 72.0374C81.4019 71.9656 81.3628 71.8839 81.3405 71.7969C81.3182 71.71 81.3133 71.6195 81.3259 71.5306C81.3385 71.4417 81.3685 71.3561 81.4141 71.2788C81.4597 71.2016 81.5201 71.134 81.5917 71.0801C81.6633 71.0262 81.7449 70.987 81.8316 70.9646C81.9184 70.9423 82.0087 70.9373 82.0974 70.95C82.1861 70.9627 82.2714 70.9927 82.3485 71.0384C82.4256 71.0841 82.493 71.1446 82.5468 71.2164L82.5472 71.217L83.6418 72.6797L86.4531 68.4529C86.5028 68.3781 86.5666 68.3138 86.6411 68.2637C86.7155 68.2136 86.7991 68.1788 86.887 68.1611C86.9749 68.1434 87.0654 68.1433 87.1534 68.1607C87.2414 68.1781 87.325 68.2127 87.3996 68.2625C87.4742 68.3124 87.5383 68.3765 87.5882 68.4512C87.638 68.5259 87.6727 68.6097 87.6903 68.6978C87.7078 68.786 87.7078 68.8767 87.6903 68.9649C87.6728 69.053 87.6382 69.1368 87.5883 69.2115L84.2422 74.2426C84.1816 74.3335 84.1002 74.4087 84.0048 74.4616C83.9093 74.5145 83.8026 74.5438 83.6935 74.5468C83.6872 74.5469 83.6808 74.547 83.6745 74.547Z" fill="#E6E6E6"/>
<path d="M142.373 76.9901C142.571 76.8738 142.74 76.7154 142.87 76.5262C143 76.337 143.087 76.1216 143.125 75.8952C143.162 75.6687 143.15 75.4367 143.089 75.2155C143.027 74.9943 142.918 74.7893 142.769 74.6149L147.694 65.99L144.804 66.1474L140.465 74.5053C140.189 74.7756 140.022 75.1379 139.995 75.5235C139.968 75.9091 140.083 76.2912 140.318 76.5975C140.553 76.9038 140.892 77.1129 141.271 77.1853C141.65 77.2577 142.042 77.1882 142.373 76.9901Z" fill="#FFB8B8"/>
<path d="M136.827 46.7583C136.827 46.7583 142.042 45.0778 143.383 49.1111C144.725 53.1444 149.234 64.0678 149.234 64.0678L144.389 73.9829L142.21 71.6302L144.539 64.74L137.833 54.6568L136.827 46.7583Z" fill="#3F3D56"/>
<path d="M144.556 72.9703C144.399 72.7041 144.199 72.4652 143.966 72.263L142.302 70.6577L142.209 70.8646C142.039 71.1339 141.927 71.4362 141.881 71.7518C141.835 72.0675 141.856 72.3892 141.943 72.6961C142.03 73.0029 142.181 73.2879 142.385 73.5323C142.59 73.7767 142.843 73.9751 143.129 74.1144C143.374 74.243 143.649 74.3001 143.925 74.279C144.062 74.2671 144.194 74.2228 144.311 74.1497C144.427 74.0767 144.525 73.977 144.596 73.8588C144.661 73.7183 144.691 73.5642 144.684 73.4096C144.677 73.255 144.633 73.1043 144.556 72.9703Z" fill="#E6E6E6"/>
<path d="M85.0558 78.9275H84.6143V95.9752H99.5502V95.5327H85.0558V78.9275Z" fill="#3F3D56"/>
<path d="M115.924 95.8981C115.924 95.1354 115.621 94.4041 115.083 93.8648C114.545 93.3255 113.815 93.0222 113.054 93.0215H101.354C100.593 93.0215 99.8631 93.3246 99.3249 93.864C98.7867 94.4035 98.4844 95.1351 98.4844 95.8981C98.4844 96.661 98.7867 97.3926 99.3249 97.9321C99.8631 98.4716 100.593 98.7746 101.354 98.7746H113.054C113.815 98.7739 114.545 98.4706 115.083 97.9313C115.621 97.392 115.924 96.6608 115.924 95.8981Z" fill="#FC773F"/>
<path d="M84.5273 80.212C85.9838 80.212 87.1645 79.0285 87.1645 77.5686C87.1645 76.1088 85.9838 74.9253 84.5273 74.9253C83.0708 74.9253 81.8901 76.1088 81.8901 77.5686C81.8901 79.0285 83.0708 80.212 84.5273 80.212Z" fill="#FC773F"/>
</g>
<defs>
<clipPath id="clip0_225_2406">
<rect width="166" height="123" fill="white" transform="translate(0.193115 0.359619)"/>
</clipPath>
</defs>
</svg>
