<svg width="135" height="124" viewBox="0 0 135 124" fill="none" xmlns="http://www.w3.org/2000/svg">
<g clip-path="url(#clip0_225_2755)">
<path d="M9.42819 110.383C7.21491 111.908 4.95163 113.481 3.41905 115.69C1.88658 117.898 1.21759 120.913 2.44899 123.302L2.41723 123.451C3.35052 123.779 4.35258 123.861 5.32685 123.69C6.30113 123.518 7.21479 123.098 7.97981 122.471C9.92804 120.835 10.5389 118.14 11.0359 115.644L12.506 108.263L9.42819 110.383Z" fill="#F0F0F0"/>
<path d="M11.56 117.827C10.0835 118.153 8.57076 118.495 7.30475 119.322C6.03881 120.15 5.05269 121.58 5.18965 123.087L5.1416 123.158C5.55888 123.526 6.06402 123.781 6.60835 123.898C7.15268 124.014 7.71784 123.989 8.2494 123.823C9.61112 123.383 10.4994 122.106 11.2861 120.91L13.6131 117.372L11.56 117.827Z" fill="#F0F0F0"/>
<path d="M134.817 6.5888H8.75387C8.70545 6.58864 8.65908 6.5693 8.6249 6.53503C8.59073 6.50076 8.57153 6.45435 8.57153 6.40597C8.57153 6.35759 8.59073 6.31118 8.6249 6.27692C8.65908 6.24265 8.70545 6.22331 8.75387 6.22314H134.817C134.865 6.22331 134.912 6.24265 134.946 6.27692C134.98 6.31118 134.999 6.35759 134.999 6.40597C134.999 6.45435 134.98 6.50076 134.946 6.53503C134.912 6.5693 134.865 6.58864 134.817 6.5888Z" fill="#CACACA"/>
<path d="M12.872 4.02681C13.9835 4.02681 14.8846 3.12538 14.8846 2.0134C14.8846 0.901432 13.9835 0 12.872 0C11.7605 0 10.8594 0.901432 10.8594 2.0134C10.8594 3.12538 11.7605 4.02681 12.872 4.02681Z" fill="#3F3D56"/>
<path d="M19.8249 4.02681C20.9364 4.02681 21.8375 3.12538 21.8375 2.0134C21.8375 0.901432 20.9364 0 19.8249 0C18.7133 0 17.8123 0.901432 17.8123 2.0134C17.8123 3.12538 18.7133 4.02681 19.8249 4.02681Z" fill="#3F3D56"/>
<path d="M26.7775 4.02681C27.889 4.02681 28.7901 3.12538 28.7901 2.0134C28.7901 0.901432 27.889 0 26.7775 0C25.666 0 24.7649 0.901432 24.7649 2.0134C24.7649 3.12538 25.666 4.02681 26.7775 4.02681Z" fill="#3F3D56"/>
<path d="M130.651 1.23058H125.711C125.614 1.23058 125.521 1.19206 125.452 1.12348C125.384 1.05491 125.345 0.961903 125.345 0.864924C125.345 0.767946 125.384 0.674938 125.452 0.606364C125.521 0.53779 125.614 0.499268 125.711 0.499268H130.651C130.748 0.499268 130.841 0.53779 130.91 0.606364C130.979 0.674938 131.017 0.767946 131.017 0.864924C131.017 0.961903 130.979 1.05491 130.91 1.12348C130.841 1.19206 130.748 1.23058 130.651 1.23058Z" fill="#3F3D56"/>
<path d="M130.651 2.60338H125.711C125.614 2.60338 125.521 2.56486 125.452 2.49629C125.384 2.42771 125.345 2.33471 125.345 2.23773C125.345 2.14075 125.384 2.04774 125.452 1.97917C125.521 1.9106 125.614 1.87207 125.711 1.87207H130.651C130.748 1.87207 130.841 1.9106 130.91 1.97917C130.979 2.04774 131.017 2.14075 131.017 2.23773C131.017 2.33471 130.979 2.42771 130.91 2.49629C130.841 2.56486 130.748 2.60338 130.651 2.60338Z" fill="#3F3D56"/>
<path d="M130.651 3.97619H125.711C125.614 3.97619 125.521 3.93766 125.452 3.86909C125.384 3.80052 125.345 3.70751 125.345 3.61053C125.345 3.51355 125.384 3.42054 125.452 3.35197C125.521 3.2834 125.614 3.24487 125.711 3.24487H130.651C130.748 3.24521 130.841 3.28388 130.909 3.35242C130.977 3.42095 131.016 3.51377 131.016 3.61053C131.016 3.70729 130.977 3.80011 130.909 3.86864C130.841 3.93718 130.748 3.97585 130.651 3.97619Z" fill="#3F3D56"/>
<path d="M94.4242 14.4382H10.8091V64.5903H94.4242V14.4382Z" fill="#F0F0F0"/>
<path d="M131.017 14.4382H104.67V30.2411H131.017V14.4382Z" fill="#F0F0F0"/>
<path d="M125.761 37.501H110.085C109.889 37.501 109.701 37.4232 109.562 37.2847C109.424 37.1461 109.346 36.9583 109.346 36.7624C109.346 36.5664 109.424 36.3786 109.562 36.24C109.701 36.1015 109.889 36.0237 110.085 36.0237H125.761C125.957 36.0237 126.145 36.1015 126.283 36.24C126.422 36.3786 126.499 36.5664 126.499 36.7624C126.499 36.9583 126.422 37.1461 126.283 37.2847C126.145 37.4232 125.957 37.501 125.761 37.501Z" fill="#E4E4E4"/>
<path d="M123.234 34.9722H112.612C112.416 34.9722 112.229 34.8944 112.09 34.7559C111.952 34.6173 111.874 34.4295 111.874 34.2335C111.874 34.0376 111.952 33.8498 112.09 33.7112C112.229 33.5727 112.416 33.4949 112.612 33.4949H123.234C123.429 33.4949 123.617 33.5727 123.756 33.7112C123.894 33.8498 123.972 34.0376 123.972 34.2335C123.972 34.4295 123.894 34.6173 123.756 34.7559C123.617 34.8944 123.429 34.9722 123.234 34.9722Z" fill="#E4E4E4"/>
<path d="M131.017 43.175H104.67V58.9779H131.017V43.175Z" fill="#F0F0F0"/>
<path d="M125.761 66.2376H110.085C109.889 66.2376 109.701 66.1598 109.562 66.0212C109.424 65.8827 109.346 65.6948 109.346 65.4989C109.346 65.303 109.424 65.1151 109.562 64.9766C109.701 64.8381 109.889 64.7603 110.085 64.7603H125.761C125.957 64.7603 126.145 64.8381 126.283 64.9766C126.422 65.1151 126.499 65.303 126.499 65.4989C126.499 65.6948 126.422 65.8827 126.283 66.0212C126.145 66.1598 125.957 66.2376 125.761 66.2376Z" fill="#E4E4E4"/>
<path d="M123.234 63.709H112.612C112.416 63.709 112.229 63.6312 112.09 63.4927C111.952 63.3542 111.874 63.1663 111.874 62.9704C111.874 62.7745 111.952 62.5866 112.09 62.448C112.229 62.3095 112.416 62.2317 112.612 62.2317H123.234C123.429 62.232 123.617 62.31 123.755 62.4485C123.893 62.587 123.971 62.7747 123.971 62.9704C123.971 63.1661 123.893 63.3537 123.755 63.4922C123.617 63.6307 123.429 63.7087 123.234 63.709Z" fill="#E4E4E4"/>
<path d="M54.0697 41.4181C57.5157 41.4181 60.3093 38.6235 60.3093 35.1761C60.3093 31.7287 57.5157 28.9341 54.0697 28.9341C50.6236 28.9341 47.8301 31.7287 47.8301 35.1761C47.8301 38.6235 50.6236 41.4181 54.0697 41.4181Z" fill="#9E616A"/>
<path d="M64.5826 64.5903H48.9373L49.8154 44.7985L49.9234 44.685L51.4768 43.0449H56.4169L58.2502 44.8204L58.3947 44.9614L62.2956 48.7008L64.5826 64.5903Z" fill="#FC773F"/>
<path d="M53.2682 64.5903H41.3772C41.2986 57.0162 41.2363 51.3018 41.2363 51.3018L41.8438 50.9321L41.8475 50.9302L48.5165 46.8796L49.9163 44.6045L49.9236 44.685L50.3353 49.4806C50.3353 49.4806 52.5729 56.7124 53.2682 64.5903Z" fill="#2F2E41"/>
<path d="M69.4477 64.5903H58.8668C58.3014 62.0241 58.0069 59.5806 58.135 57.5434C58.6546 49.2207 57.4562 44.6045 57.9758 44.6045L58.2502 44.8205L61.5143 47.3995L65.8122 48.9754L68.7945 50.07L69.3141 50.2603V50.5111C69.316 51.7704 69.3287 57.6184 69.4477 64.5903Z" fill="#2F2E41"/>
<path d="M48.1667 37.129C48.1667 37.129 48.6968 36.1977 48.5736 33.0863C48.4504 29.9749 53.1864 31.7347 57.1439 31.4378C61.1013 31.141 60.2636 36.6324 60.2636 36.6324C60.2636 36.6324 60.5491 36.3059 61.1604 33.6557C61.7716 31.0054 60.3837 28.3643 60.3837 28.3643C59.975 25.5793 57.772 26.4719 57.772 26.4719C58.833 26.885 58.6292 27.7685 58.6292 27.7685C57.7312 26.1934 55.5283 27.086 55.5283 27.086C52.5902 25.2415 49.6125 27.6704 49.6125 27.6704C46.0632 28.4763 48.1447 31.3 48.1447 31.3C44.5753 33.1046 48.1667 37.129 48.1667 37.129Z" fill="#2F2E41"/>
<path d="M37.9319 64.5902C38.2355 58.5152 38.4679 53.7489 38.3764 53.381C38.1203 52.3579 41.7339 50.9723 41.8437 50.932L41.8454 50.9302H41.8473L42.5371 51.3017L43.042 64.5902H37.9319Z" fill="#2F2E41"/>
<path d="M71.936 64.5903H66.566L65.0291 49.4038L65.6621 48.9407C65.6621 48.9407 65.717 48.9535 65.8122 48.9755C66.3044 49.0981 67.8925 49.5136 68.7945 50.07C68.9941 50.1828 69.1704 50.3325 69.3141 50.5111C69.402 50.6163 69.446 50.7514 69.4368 50.8882C69.391 51.3183 70.562 57.3988 71.936 64.5903Z" fill="#2F2E41"/>
<path d="M80.9763 70.7222H24.2571C24.0389 70.7225 23.8299 70.8095 23.6757 70.9639C23.5216 71.1183 23.4351 71.3276 23.4351 71.5458C23.4351 71.7641 23.5216 71.9734 23.6757 72.1278C23.8299 72.2822 24.0389 72.3691 24.2571 72.3695H80.9763C81.0845 72.3697 81.1918 72.3485 81.2918 72.3072C81.3919 72.2659 81.4828 72.2052 81.5594 72.1287C81.636 72.0522 81.6967 71.9614 81.7382 71.8614C81.7797 71.7613 81.801 71.6541 81.801 71.5458C81.801 71.4376 81.7797 71.3303 81.7382 71.2303C81.6967 71.1303 81.636 71.0394 81.5594 70.9629C81.4828 70.8864 81.3919 70.8258 81.2918 70.7845C81.1918 70.7432 81.0845 70.722 80.9763 70.7222Z" fill="#CACACA"/>
<path d="M65.6072 70.7222V72.3695H24.2571C24.0389 72.3692 23.8299 72.2822 23.6757 72.1278C23.5216 71.9734 23.4351 71.7641 23.4351 71.5458C23.4351 71.3276 23.5216 71.1183 23.6757 70.9639C23.8299 70.8095 24.0389 70.7225 24.2571 70.7222H65.6072Z" fill="#3F3D56"/>
<path d="M65.6071 73.1931C66.5166 73.1931 67.2538 72.4556 67.2538 71.5458C67.2538 70.636 66.5166 69.8984 65.6071 69.8984C64.6977 69.8984 63.9604 70.636 63.9604 71.5458C63.9604 72.4556 64.6977 73.1931 65.6071 73.1931Z" fill="#3F3D56"/>
<path d="M52.6167 85.2734C51.9444 85.2734 51.2872 85.074 50.7282 84.7003C50.1692 84.3267 49.7336 83.7956 49.4763 83.1742C49.219 82.5529 49.1517 81.8692 49.2828 81.2095C49.414 80.5499 49.7377 79.944 50.2131 79.4684C50.6885 78.9928 51.2942 78.669 51.9536 78.5378C52.6129 78.4065 53.2964 78.4739 53.9175 78.7313C54.5386 78.9886 55.0695 79.4245 55.443 79.9837C55.8165 80.5429 56.0159 81.2004 56.0159 81.8729C56.0149 82.7745 55.6564 83.6388 55.0192 84.2763C54.3819 84.9138 53.5179 85.2724 52.6167 85.2734ZM52.6167 78.734C51.9961 78.734 51.3895 78.9181 50.8735 79.263C50.3575 79.6079 49.9553 80.0982 49.7179 80.6717C49.4804 81.2453 49.4182 81.8764 49.5393 82.4853C49.6604 83.0942 49.9592 83.6535 50.398 84.0925C50.8368 84.5315 51.3959 84.8304 52.0046 84.9516C52.6132 85.0727 53.2441 85.0105 53.8175 84.7729C54.3908 84.5354 54.8809 84.133 55.2256 83.6168C55.5704 83.1006 55.7544 82.4937 55.7544 81.8729C55.7535 81.0407 55.4226 80.2429 54.8344 79.6544C54.2461 79.066 53.4486 78.7349 52.6167 78.734Z" fill="#FC773F"/>
<path d="M52.1677 83.7039C52.133 83.7039 52.0997 83.6902 52.0752 83.6656C52.0507 83.6411 52.0369 83.6078 52.0369 83.5731V80.1726C52.0367 80.1553 52.0399 80.1382 52.0464 80.1222C52.0529 80.1062 52.0626 80.0916 52.0747 80.0793C52.0869 80.067 52.1014 80.0573 52.1173 80.0506C52.1333 80.0439 52.1504 80.0405 52.1677 80.0405C52.185 80.0405 52.2021 80.0439 52.2181 80.0506C52.2341 80.0573 52.2485 80.067 52.2607 80.0793C52.2729 80.0916 52.2825 80.1062 52.289 80.1222C52.2955 80.1382 52.2987 80.1553 52.2986 80.1726V83.5731C52.2986 83.6078 52.2848 83.6411 52.2602 83.6656C52.2357 83.6902 52.2024 83.7039 52.1677 83.7039Z" fill="#FC773F"/>
<path d="M53.0657 83.7041C53.031 83.7041 52.9977 83.6903 52.9731 83.6658C52.9486 83.6412 52.9348 83.608 52.9348 83.5733V80.1728C52.9347 80.1555 52.9379 80.1384 52.9444 80.1223C52.9509 80.1063 52.9605 80.0918 52.9727 80.0795C52.9849 80.0672 52.9994 80.0575 53.0153 80.0508C53.0313 80.0442 53.0484 80.0408 53.0657 80.0408C53.0829 80.0408 53.1001 80.0442 53.116 80.0508C53.132 80.0575 53.1464 80.0672 53.1586 80.0795C53.1708 80.0918 53.1804 80.1063 53.1869 80.1223C53.1934 80.1384 53.1967 80.1555 53.1965 80.1728V83.5733C53.1965 83.608 53.1827 83.6412 53.1582 83.6658C53.1336 83.6903 53.1004 83.7041 53.0657 83.7041Z" fill="#FC773F"/>
<path d="M37.0476 81.8729C37.0476 81.2004 37.247 80.5429 37.6205 79.9837C37.994 79.4245 38.5249 78.9886 39.146 78.7313C39.7671 78.4739 40.4506 78.4065 41.1099 78.5378C41.7693 78.669 42.375 78.9928 42.8504 79.4684C43.3258 79.944 43.6495 80.5499 43.7807 81.2095C43.9118 81.8692 43.8445 82.5529 43.5872 83.1742C43.3299 83.7956 42.8943 84.3267 42.3353 84.7003C41.7763 85.074 41.1191 85.2734 40.4468 85.2734C39.5456 85.2724 38.6816 84.9138 38.0443 84.2763C37.4071 83.6388 37.0486 82.7745 37.0476 81.8729ZM37.3091 81.8729C37.3091 82.4937 37.4931 83.1006 37.8379 83.6168C38.1827 84.133 38.6727 84.5354 39.246 84.7729C39.8194 85.0105 40.4503 85.0727 41.0589 84.9516C41.6676 84.8305 42.2267 84.5315 42.6655 84.0925C43.1043 83.6535 43.4032 83.0942 43.5242 82.4853C43.6453 81.8764 43.5832 81.2453 43.3457 80.6717C43.1082 80.0981 42.706 79.6079 42.19 79.263C41.674 78.9181 41.0674 78.734 40.4468 78.734C39.6149 78.735 38.8174 79.066 38.2291 79.6544C37.6409 80.2429 37.31 81.0407 37.3091 81.8729Z" fill="#3F3D56"/>
<path d="M41.915 83.0178C41.9389 83.0179 41.9622 83.01 41.9812 82.9954C42.0002 82.9808 42.0139 82.9604 42.0201 82.9373C42.0263 82.9141 42.0247 82.8896 42.0155 82.8675C42.0064 82.8453 41.9902 82.8268 41.9694 82.8149L40.3386 81.8729L41.9694 80.931C41.9944 80.9166 42.0126 80.8929 42.0201 80.865C42.0276 80.8371 42.0237 80.8074 42.0093 80.7824C41.9948 80.7574 41.9711 80.7392 41.9432 80.7317C41.9154 80.7243 41.8857 80.7282 41.8607 80.7426L40.0668 81.7787C40.0503 81.7883 40.0366 81.802 40.027 81.8186C40.0175 81.8351 40.0125 81.8538 40.0125 81.8729C40.0125 81.892 40.0175 81.9108 40.027 81.9273C40.0366 81.9439 40.0503 81.9576 40.0668 81.9672L41.8607 83.0033C41.8772 83.0128 41.8959 83.0179 41.915 83.0178Z" fill="#3F3D56"/>
<path d="M39.5097 83.3958C39.5385 83.3958 39.5662 83.3843 39.5866 83.3639C39.607 83.3435 39.6185 83.3158 39.6185 83.287V80.4591C39.6185 80.4303 39.607 80.4026 39.5866 80.3822C39.5662 80.3618 39.5385 80.3503 39.5097 80.3503C39.4808 80.3503 39.4532 80.3618 39.4328 80.3822C39.4123 80.4026 39.4009 80.4303 39.4009 80.4591V83.287C39.4009 83.3158 39.4123 83.3435 39.4328 83.3639C39.4532 83.3843 39.4808 83.3958 39.5097 83.3958Z" fill="#3F3D56"/>
<path d="M64.7864 85.2734C64.1141 85.2734 63.4569 85.074 62.8979 84.7003C62.3389 84.3267 61.9032 83.7956 61.6459 83.1742C61.3887 82.5529 61.3214 81.8692 61.4525 81.2095C61.5837 80.5499 61.9074 79.944 62.3828 79.4684C62.8582 78.9928 63.4639 78.669 64.1232 78.5378C64.7826 78.4065 65.4661 78.4739 66.0872 78.7313C66.7083 78.9886 67.2392 79.4245 67.6127 79.9837C67.9862 80.5429 68.1856 81.2004 68.1856 81.8729C68.1846 82.7745 67.8261 83.6388 67.1888 84.2763C66.5516 84.9138 65.6876 85.2724 64.7864 85.2734ZM64.7864 78.734C64.1658 78.734 63.5592 78.9181 63.0432 79.263C62.5272 79.6079 62.125 80.0982 61.8875 80.6717C61.65 81.2453 61.5879 81.8764 61.709 82.4853C61.83 83.0942 62.1289 83.6535 62.5677 84.0925C63.0065 84.5315 63.5656 84.8304 64.1743 84.9516C64.7829 85.0727 65.4138 85.0105 65.9871 84.7729C66.5605 84.5354 67.0505 84.133 67.3953 83.6168C67.7401 83.1006 67.9241 82.4937 67.9241 81.8729C67.9231 81.0407 67.5923 80.2429 67.004 79.6544C66.4158 79.066 65.6183 78.7349 64.7864 78.734Z" fill="#3F3D56"/>
<path d="M63.3183 83.0179C63.2944 83.0179 63.2711 83.01 63.2521 82.9954C63.2331 82.9809 63.2194 82.9604 63.2132 82.9373C63.207 82.9142 63.2086 82.8896 63.2177 82.8675C63.2269 82.8454 63.2431 82.8269 63.2638 82.8149L64.8947 81.873L63.2638 80.9311C63.239 80.9166 63.2208 80.8929 63.2134 80.865C63.206 80.8372 63.21 80.8076 63.2243 80.7827C63.2387 80.7577 63.2624 80.7395 63.2902 80.732C63.318 80.7245 63.3476 80.7283 63.3725 80.7427L65.1665 81.7788C65.183 81.7883 65.1967 81.8021 65.2063 81.8186C65.2158 81.8351 65.2208 81.8539 65.2208 81.873C65.2208 81.8921 65.2158 81.9108 65.2063 81.9274C65.1967 81.9439 65.183 81.9577 65.1665 81.9672L63.3725 83.0033C63.3561 83.0129 63.3373 83.0179 63.3183 83.0179Z" fill="#3F3D56"/>
<path d="M65.7238 83.3958C65.6949 83.3958 65.6673 83.3843 65.6469 83.3639C65.6265 83.3435 65.615 83.3158 65.615 83.287V80.4591C65.615 80.4303 65.6265 80.4026 65.6469 80.3822C65.6673 80.3618 65.6949 80.3503 65.7238 80.3503C65.7527 80.3503 65.7803 80.3618 65.8007 80.3822C65.8212 80.4026 65.8326 80.4303 65.8326 80.4591V83.287C65.8326 83.3158 65.8212 83.3435 65.8007 83.3639C65.7803 83.3843 65.7527 83.3958 65.7238 83.3958Z" fill="#3F3D56"/>
<path d="M19.9158 84.436C19.7361 84.2559 19.5981 84.0386 19.5115 83.7994C19.4248 83.5602 19.3917 83.3049 19.4143 83.0515C19.437 82.7981 19.5149 82.5528 19.6426 82.3327C19.7703 82.1127 19.9446 81.9234 20.1534 81.778L18.481 75.8242L21.5413 76.8017L22.6603 82.3057C22.8811 82.6727 22.9596 83.108 22.881 83.529C22.8024 83.9501 22.5722 84.3277 22.2339 84.5903C21.8956 84.8529 21.4728 84.9822 21.0455 84.9538C20.6183 84.9253 20.2163 84.7411 19.9158 84.436Z" fill="#FFB6B6"/>
<path d="M19.0978 54.7728L18.4639 54.1128C18.4639 54.1128 16.5039 55.4595 16.9186 59.6343C17.2249 62.7179 16.257 64.0256 16.3652 72.9883L19.0978 81.1964L22.2584 79.539L19.9717 69.4112L19.0978 54.7728Z" fill="#FC773F"/>
<path d="M21.4689 121.39H23.7352L24.8135 112.646L21.4685 112.646L21.4689 121.39Z" fill="#FFB6B6"/>
<path d="M20.8909 120.65L25.354 120.65C26.1083 120.65 26.832 120.95 27.3653 121.484C27.8987 122.017 28.1984 122.741 28.1985 123.495V123.588L20.891 123.588L20.8909 120.65Z" fill="#2F2E41"/>
<path d="M28.0781 120.588L30.3276 120.863L32.4619 112.315L29.142 111.908L28.0781 120.588Z" fill="#FFB6B6"/>
<path d="M27.5942 119.782L32.0242 120.326C32.7729 120.418 33.4546 120.803 33.9191 121.398C34.3836 121.992 34.593 122.747 34.5012 123.496L34.49 123.588L27.2368 122.698L27.5942 119.782Z" fill="#2F2E41"/>
<path d="M20.2941 76.5542C20.2941 76.5542 15.9284 79.539 18.1111 87.6181L21.0629 118.978L24.5699 118.953L26.0553 103.479L27.0648 92.5853L30.4378 103.85L27.6635 117.673L31.7582 118.104L36.6641 102.03L34.2983 79.1428L20.2941 76.5542Z" fill="#2F2E41"/>
<path d="M30.828 53.2656L28.6082 51.4794L22.7214 51.2371L18.464 54.1128C18.464 54.1128 18.0245 64.3527 20.9054 73.4744L19.395 77.2847L34.4971 79.18L30.828 53.2656Z" fill="#FC773F"/>
<path d="M26.0685 49.0455C28.8573 49.0455 31.118 46.7839 31.118 43.9941C31.118 41.2042 28.8573 38.9426 26.0685 38.9426C23.2798 38.9426 21.019 41.2042 21.019 43.9941C21.019 46.7839 23.2798 49.0455 26.0685 49.0455Z" fill="#FFB6B6"/>
<path d="M27.3929 37.7496H26.2708C25.4889 37.5165 24.6634 37.4692 23.86 37.6117C23.0566 37.7541 22.2976 38.0823 21.6434 38.5701C20.9893 39.0578 20.458 39.6917 20.092 40.4212C19.726 41.1507 19.5353 41.9556 19.5352 42.7718L17.7876 48.5412C17.7372 48.7075 17.7264 48.8834 17.7562 49.0547C17.7859 49.2259 17.8554 49.3879 17.9589 49.5275C18.0624 49.6671 18.1972 49.7805 18.3525 49.8587C18.5077 49.9368 18.679 49.9775 18.8528 49.9775H19.7058C20.0631 49.4685 20.2189 48.8451 20.1431 48.2279C20.3018 48.6143 20.4129 49.0185 20.4742 49.4318C20.4939 49.6134 20.4902 49.7968 20.463 49.9775H27.8843C27.9323 49.2493 27.6911 48.5316 27.2133 47.9803C27.8112 48.5778 28.3309 49.249 28.7598 49.9775H28.8992C29.1944 49.9775 29.4775 49.8602 29.6862 49.6514C29.8949 49.4426 30.0122 49.1594 30.0122 48.8641V43.2085H32.8497C32.8497 42.4916 32.7086 41.7818 32.4343 41.1195C32.1601 40.4572 31.7582 39.8554 31.2514 39.3485C30.7447 38.8416 30.1432 38.4395 29.4811 38.1651C28.8191 37.8908 28.1095 37.7496 27.3929 37.7496Z" fill="#2F2E41"/>
<path d="M33.012 83.9992C32.8323 83.8191 32.6943 83.6019 32.6077 83.3627C32.521 83.1235 32.4879 82.8682 32.5105 82.6148C32.5332 82.3613 32.6111 82.116 32.7388 81.896C32.8665 81.6759 33.0408 81.4866 33.2496 81.3413L31.5771 75.3875L34.6375 76.3649L35.7565 81.8689C35.9772 82.2359 36.0558 82.6712 35.9772 83.0923C35.8986 83.5133 35.6684 83.8909 35.3301 84.1535C34.9918 84.4161 34.569 84.5455 34.1417 84.517C33.7145 84.4886 33.3125 84.3043 33.012 83.9992Z" fill="#FFB6B6"/>
<path d="M28.9136 54.3953L30.8278 53.2654C30.8278 53.2654 33.8386 52.7345 34.16 56.7474C34.4814 60.7603 34.9443 71.1771 34.9443 71.1771L35.8834 79.9584L32.3985 80.7018L28.3931 68.6933L28.9136 54.3953Z" fill="#FC773F"/>
<path d="M46.4915 123.999H0.21827C0.160381 123.999 0.104867 123.976 0.063933 123.936C0.0229994 123.895 0 123.839 0 123.781C0 123.723 0.0229994 123.668 0.063933 123.627C0.104867 123.586 0.160381 123.563 0.21827 123.563H46.4915C46.5494 123.563 46.6049 123.586 46.6459 123.627C46.6868 123.668 46.7098 123.723 46.7098 123.781C46.7098 123.839 46.6868 123.895 46.6459 123.936C46.6049 123.976 46.5494 123.999 46.4915 123.999Z" fill="#CACACA"/>
</g>
<defs>
<clipPath id="clip0_225_2755">
<rect width="135" height="124" fill="white"/>
</clipPath>
</defs>
</svg>
