<svg width="131" height="114" viewBox="0 0 131 114" fill="none" xmlns="http://www.w3.org/2000/svg">
<g clip-path="url(#clip0_225_1917)">
<path d="M109.137 26.9304H108.514V9.87286C108.514 7.25441 107.474 4.74321 105.622 2.89169C103.771 1.04017 101.26 1.72852e-06 98.6413 0H62.5013C61.2047 0 59.9209 0.255369 58.7231 0.751526C57.5253 1.24768 56.4369 1.97491 55.5201 2.89169C54.6033 3.80847 53.8761 4.89685 53.3799 6.09468C52.8838 7.29251 52.6284 8.57633 52.6284 9.87286V103.454C52.6284 106.072 53.6686 108.583 55.5201 110.435C57.3716 112.286 59.8828 113.327 62.5013 113.327H98.6413C101.26 113.326 103.771 112.286 105.622 110.435C107.474 108.583 108.514 106.072 108.514 103.454V39.0724H109.137L109.137 26.9304Z" fill="#E6E6E6"/>
<path d="M99.0398 2.56763H94.3227C94.5397 3.09953 94.6225 3.67663 94.5639 4.24807C94.5052 4.81952 94.3069 5.36778 93.9865 5.84454C93.6661 6.3213 93.2333 6.71194 92.7263 6.98203C92.2193 7.25212 91.6537 7.39338 91.0792 7.39336H70.375C69.8006 7.39333 69.235 7.25204 68.728 6.98192C68.2211 6.71181 67.7883 6.32117 67.4679 5.84441C67.1475 5.36766 66.9493 4.81942 66.8906 4.248C66.832 3.67658 66.9148 3.09951 67.1318 2.56763H62.7257C60.7703 2.56763 58.895 3.34442 57.5123 4.72712C56.1296 6.10981 55.3528 7.98515 55.3528 9.94058V103.386C55.3528 105.341 56.1296 107.216 57.5123 108.599C58.895 109.982 60.7703 110.758 62.7257 110.758H99.0398C100.995 110.758 102.871 109.982 104.253 108.599C105.636 107.216 106.413 105.341 106.413 103.386V9.94043C106.413 7.98502 105.636 6.10972 104.253 4.72706C102.871 3.3444 100.995 2.56763 99.0398 2.56763Z" fill="white"/>
<path d="M69.8983 24.3639C69.7016 24.3656 69.5066 24.3259 69.3262 24.2474C69.1458 24.1688 68.9839 24.0532 68.8511 23.9079C68.6936 23.7256 68.5754 23.5127 68.5041 23.2826C68.4327 23.0524 68.4098 22.81 68.4367 22.5705C68.4742 22.1145 68.6654 21.6846 68.9789 21.3513C69.1295 21.1885 69.3117 21.0582 69.5145 20.9683C69.7172 20.8785 69.9362 20.831 70.1579 20.8289C70.3641 20.828 70.5682 20.8705 70.7569 20.9536C70.9456 21.0368 71.1146 21.1587 71.253 21.3115C71.4101 21.489 71.5287 21.6971 71.6013 21.9227C71.6739 22.1483 71.6989 22.3865 71.6748 22.6222C71.6455 23.1061 71.4368 23.5616 71.0895 23.8998C70.7662 24.2007 70.3401 24.3668 69.8983 24.3639ZM70.1579 21.418C69.5813 21.418 69.083 21.947 69.0236 22.6222C69.0039 22.7803 69.0171 22.9407 69.0622 23.0934C69.1072 23.2462 69.1833 23.388 69.2856 23.51C69.363 23.5952 69.4578 23.6629 69.5634 23.7085C69.6691 23.7542 69.7833 23.7767 69.8983 23.7747C70.4376 23.7747 71.0146 23.4023 71.088 22.5705C71.1049 22.4161 71.0897 22.2599 71.0434 22.1118C70.997 21.9636 70.9204 21.8266 70.8185 21.7094C70.735 21.6172 70.6331 21.5436 70.5193 21.4934C70.4054 21.4432 70.2823 21.4175 70.1579 21.418Z" fill="#3F3D56"/>
<path d="M69.9174 26.1313C69.4617 26.1387 69.0096 26.0491 68.5911 25.8685C68.1726 25.6878 67.7974 25.4203 67.4902 25.0836C67.183 24.7468 66.9509 24.3486 66.8094 23.9154C66.6678 23.4821 66.62 23.0237 66.6691 22.5706C66.7656 21.6194 67.2078 20.7368 67.9118 20.09C68.6158 19.4431 69.5327 19.0771 70.4885 19.0613C71.5491 19.0613 72.4218 19.402 73.0122 20.0467C73.572 20.658 73.8341 21.5186 73.7503 22.4699C73.6709 23.371 73.2886 23.8404 72.9818 24.0754C72.8464 24.1858 72.6899 24.2676 72.5219 24.3157C72.3539 24.3639 72.1779 24.3775 72.0045 24.3556C71.5196 24.2696 70.9832 23.8291 71.0676 22.8706L71.2237 21.0984C71.231 21.0209 71.2686 20.9494 71.3284 20.8995C71.3882 20.8496 71.4653 20.8255 71.5429 20.8323C71.6205 20.8391 71.6922 20.8764 71.7424 20.936C71.7925 20.9955 71.8171 21.0725 71.8106 21.1501L71.6545 22.9222C71.6126 23.3988 71.7818 23.7177 72.1073 23.7754C72.2948 23.79 72.4804 23.7297 72.6235 23.6077C72.8364 23.4446 73.1028 23.1059 73.1634 22.4182C73.2335 21.6221 73.031 20.9397 72.5777 20.4446C72.1019 19.9251 71.3795 19.6504 70.4885 19.6504C69.6799 19.6658 68.9047 19.9764 68.3093 20.5238C67.7138 21.0711 67.3392 21.8174 67.256 22.622C67.214 22.9937 67.252 23.3701 67.3673 23.726C67.4826 24.0819 67.6726 24.409 67.9246 24.6855C68.1766 24.962 68.4847 25.1815 68.8284 25.3292C69.1721 25.4769 69.5434 25.5495 69.9174 25.5421C70.3788 25.567 70.8397 25.4835 71.263 25.2981C71.3349 25.2682 71.4158 25.2681 71.4879 25.2977C71.5599 25.3273 71.6174 25.3842 71.6475 25.4561C71.6777 25.5279 71.6782 25.6088 71.6489 25.681C71.6196 25.7532 71.5629 25.8108 71.4912 25.8413C70.9957 26.057 70.4573 26.1562 69.9174 26.1313Z" fill="#3F3D56"/>
<path d="M66.807 68.2383C66.7488 68.2383 66.6918 68.221 66.6434 68.1886C66.5949 68.1562 66.5572 68.1102 66.5349 68.0564C66.5126 68.0026 66.5067 67.9434 66.5181 67.8862C66.5295 67.8291 66.5575 67.7766 66.5987 67.7354L68.5135 65.8206C68.5689 65.766 68.6436 65.7355 68.7214 65.7358C68.7991 65.7361 68.8736 65.7671 68.9286 65.8221C68.9836 65.8771 69.0146 65.9516 69.0149 66.0293C69.0152 66.1071 68.9847 66.1818 68.9301 66.2372L67.0153 68.152C66.988 68.1794 66.9555 68.2011 66.9198 68.2159C66.884 68.2307 66.8457 68.2383 66.807 68.2383ZM71.6676 67.5018C71.6094 67.5018 71.5524 67.4845 71.504 67.4521C71.4555 67.4198 71.4178 67.3738 71.3955 67.3199C71.3732 67.2661 71.3674 67.2069 71.3787 67.1497C71.3901 67.0926 71.4181 67.0401 71.4593 66.9989L73.0795 65.3787C73.1349 65.3241 73.2096 65.2937 73.2874 65.2939C73.3651 65.2942 73.4396 65.3252 73.4946 65.3802C73.5496 65.4352 73.5806 65.5097 73.5809 65.5875C73.5812 65.6652 73.5507 65.7399 73.4961 65.7953L71.8759 67.4155C71.8486 67.4429 71.8161 67.4646 71.7804 67.4794C71.7446 67.4943 71.7063 67.5019 71.6676 67.5018ZM70.7839 67.5018C70.7452 67.5019 70.7069 67.4943 70.6711 67.4794C70.6354 67.4646 70.6029 67.4429 70.5756 67.4155L69.3973 66.2372C69.3696 66.2099 69.3476 66.1774 69.3325 66.1416C69.3175 66.1058 69.3096 66.0673 69.3095 66.0285C69.3094 65.9896 69.3169 65.9511 69.3317 65.9152C69.3465 65.8792 69.3683 65.8466 69.3958 65.8191C69.4233 65.7916 69.4559 65.7699 69.4918 65.7551C69.5278 65.7403 69.5663 65.7327 69.6051 65.7328C69.644 65.733 69.6824 65.7408 69.7183 65.7559C69.7541 65.7709 69.7866 65.7929 69.8139 65.8206L70.9922 66.9989C71.0334 67.0401 71.0614 67.0926 71.0728 67.1497C71.0842 67.2069 71.0783 67.2661 71.056 67.3199C71.0337 67.3738 70.996 67.4198 70.9475 67.4521C70.8991 67.4845 70.8421 67.5018 70.7839 67.5018Z" fill="#3F3D56"/>
<path d="M73.7299 65.8816C73.5842 65.8816 73.4418 65.8384 73.3207 65.7575C73.1996 65.6766 73.1052 65.5615 73.0495 65.427C72.9937 65.2924 72.9791 65.1443 73.0076 65.0015C73.036 64.8586 73.1061 64.7274 73.2091 64.6244C73.3121 64.5214 73.4433 64.4513 73.5862 64.4228C73.729 64.3944 73.8771 64.409 74.0117 64.4648C74.1463 64.5205 74.2613 64.6149 74.3422 64.736C74.4231 64.8571 74.4663 64.9995 74.4663 65.1451C74.4661 65.3404 74.3884 65.5276 74.2504 65.6657C74.1123 65.8037 73.9251 65.8814 73.7299 65.8816ZM73.7299 64.9979C73.7007 64.9979 73.6723 65.0065 73.648 65.0227C73.6238 65.0389 73.6049 65.0619 73.5938 65.0888C73.5826 65.1157 73.5797 65.1453 73.5854 65.1739C73.5911 65.2025 73.6051 65.2287 73.6257 65.2493C73.6463 65.2699 73.6726 65.2839 73.7011 65.2896C73.7297 65.2953 73.7593 65.2924 73.7862 65.2812C73.8131 65.2701 73.8361 65.2512 73.8523 65.227C73.8685 65.2028 73.8772 65.1743 73.8772 65.1452C73.8771 65.1061 73.8616 65.0687 73.834 65.041C73.8063 65.0134 73.7689 64.9979 73.7299 64.9979Z" fill="#3F3D56"/>
<path d="M71.2257 68.3855C71.0801 68.3855 70.9377 68.3423 70.8166 68.2614C70.6955 68.1805 70.6011 68.0655 70.5453 67.9309C70.4896 67.7963 70.475 67.6482 70.5034 67.5054C70.5318 67.3625 70.602 67.2313 70.705 67.1283C70.808 67.0253 70.9392 66.9552 71.082 66.9267C71.2249 66.8983 71.373 66.9129 71.5075 66.9687C71.6421 67.0244 71.7571 67.1188 71.8381 67.2399C71.919 67.361 71.9622 67.5034 71.9622 67.6491C71.962 67.8443 71.8843 68.0315 71.7462 68.1696C71.6082 68.3076 71.421 68.3853 71.2257 68.3855ZM71.2257 67.5018C71.1966 67.5018 71.1681 67.5104 71.1439 67.5266C71.1197 67.5428 71.1008 67.5658 71.0896 67.5927C71.0785 67.6196 71.0756 67.6492 71.0813 67.6778C71.0869 67.7064 71.101 67.7326 71.1216 67.7532C71.1422 67.7738 71.1684 67.7878 71.197 67.7935C71.2256 67.7992 71.2552 67.7963 71.2821 67.7851C71.309 67.774 71.332 67.7551 71.3482 67.7309C71.3644 67.7067 71.373 67.6782 71.373 67.6491C71.373 67.61 71.3574 67.5726 71.3298 67.545C71.3022 67.5173 71.2648 67.5018 71.2257 67.5018Z" fill="#3F3D56"/>
<path d="M69.1637 66.3235C69.018 66.3235 68.8757 66.2803 68.7545 66.1994C68.6334 66.1185 68.539 66.0034 68.4833 65.8689C68.4276 65.7343 68.413 65.5862 68.4414 65.4434C68.4698 65.3005 68.54 65.1693 68.6429 65.0663C68.7459 64.9633 68.8772 64.8932 69.02 64.8647C69.1629 64.8363 69.311 64.8509 69.4455 64.9066C69.5801 64.9624 69.6951 65.0568 69.776 65.1779C69.857 65.299 69.9002 65.4414 69.9002 65.587C69.8999 65.7823 69.8223 65.9695 69.6842 66.1076C69.5462 66.2456 69.359 66.3233 69.1637 66.3235ZM69.1637 65.4397C69.1346 65.4397 69.1061 65.4484 69.0819 65.4646C69.0576 65.4808 69.0388 65.5038 69.0276 65.5307C69.0165 65.5576 69.0136 65.5872 69.0192 65.6158C69.0249 65.6443 69.039 65.6706 69.0596 65.6912C69.0802 65.7118 69.1064 65.7258 69.135 65.7315C69.1635 65.7372 69.1932 65.7343 69.2201 65.7231C69.247 65.712 69.27 65.6931 69.2862 65.6689C69.3024 65.6447 69.311 65.6162 69.311 65.587C69.311 65.548 69.2954 65.5106 69.2678 65.4829C69.2402 65.4553 69.2028 65.4398 69.1637 65.4397Z" fill="#3F3D56"/>
<path d="M66.3651 69.1218C66.2195 69.1218 66.0771 69.0786 65.956 68.9977C65.8349 68.9168 65.7405 68.8018 65.6847 68.6672C65.629 68.5326 65.6144 68.3846 65.6428 68.2417C65.6712 68.0988 65.7414 67.9676 65.8444 67.8646C65.9474 67.7616 66.0786 67.6915 66.2214 67.6631C66.3643 67.6347 66.5124 67.6492 66.6469 67.705C66.7815 67.7607 66.8965 67.8551 66.9775 67.9762C67.0584 68.0973 67.1016 68.2397 67.1016 68.3854C67.1014 68.5806 67.0237 68.7678 66.8856 68.9059C66.7476 69.044 66.5604 69.1216 66.3651 69.1218ZM66.3651 68.2381C66.336 68.2381 66.3075 68.2467 66.2833 68.2629C66.2591 68.2791 66.2402 68.3021 66.229 68.329C66.2179 68.3559 66.215 68.3855 66.2207 68.4141C66.2263 68.4427 66.2404 68.4689 66.261 68.4895C66.2816 68.5101 66.3078 68.5242 66.3364 68.5298C66.365 68.5355 66.3946 68.5326 66.4215 68.5215C66.4484 68.5103 66.4714 68.4914 66.4876 68.4672C66.5038 68.443 66.5124 68.4145 66.5124 68.3854C66.5124 68.3463 66.4968 68.3089 66.4692 68.2813C66.4416 68.2537 66.4042 68.2381 66.3651 68.2381Z" fill="#3F3D56"/>
<path d="M94.3223 91.839H88.136C87.8627 91.8387 87.6006 91.7299 87.4073 91.5366C87.214 91.3434 87.1053 91.0813 87.105 90.8079V86.3892C87.1053 86.1158 87.214 85.8538 87.4073 85.6605C87.6006 85.4672 87.8627 85.3585 88.136 85.3582H94.3223C94.5956 85.3585 94.8577 85.4672 95.051 85.6605C95.2443 85.8538 95.353 86.1158 95.3533 86.3892V90.8079C95.353 91.0813 95.2443 91.3434 95.051 91.5366C94.8577 91.7299 94.5956 91.8387 94.3223 91.839ZM88.136 85.9473C88.0189 85.9475 87.9065 85.9941 87.8237 86.0769C87.7409 86.1597 87.6943 86.272 87.6941 86.3892V90.8079C87.6943 90.9251 87.7409 91.0374 87.8237 91.1203C87.9065 91.2031 88.0189 91.2497 88.136 91.2498H94.3223C94.4394 91.2497 94.5517 91.2031 94.6346 91.1203C94.7174 91.0374 94.764 90.9251 94.7641 90.8079V86.3892C94.764 86.272 94.7174 86.1597 94.6346 86.0769C94.5517 85.994 94.4394 85.9474 94.3223 85.9473L88.136 85.9473Z" fill="#3F3D56"/>
<path d="M91.229 89.1879C91.1635 89.1879 91.0999 89.1661 91.0482 89.1258L88.3969 87.0637C88.3664 87.04 88.3408 87.0104 88.3217 86.9768C88.3026 86.9432 88.2903 86.9061 88.2855 86.8677C88.2807 86.8294 88.2835 86.7904 88.2938 86.7531C88.304 86.7158 88.3215 86.6809 88.3453 86.6503C88.369 86.6198 88.3985 86.5943 88.4322 86.5751C88.4658 86.556 88.5029 86.5437 88.5412 86.5389C88.5796 86.5341 88.6186 86.5369 88.6559 86.5472C88.6932 86.5574 88.7281 86.5749 88.7586 86.5987L91.229 88.5201L93.6994 86.5987C93.73 86.5749 93.7649 86.5574 93.8022 86.5472C93.8395 86.5369 93.8784 86.5341 93.9168 86.5389C93.9552 86.5437 93.9923 86.556 94.0259 86.5751C94.0595 86.5943 94.0891 86.6198 94.1128 86.6503C94.1366 86.6809 94.1541 86.7158 94.1643 86.7531C94.1746 86.7904 94.1774 86.8294 94.1726 86.8677C94.1678 86.9061 94.1555 86.9432 94.1364 86.9768C94.1172 87.0104 94.0917 87.04 94.0611 87.0637L91.4099 89.1258C91.3582 89.1661 91.2945 89.1879 91.229 89.1879Z" fill="#3F3D56"/>
<path d="M124.456 95.9172L90.3792 95.9307C90.336 95.9307 90.2946 95.9135 90.264 95.883C90.2335 95.8524 90.2163 95.811 90.2163 95.7677C90.2163 95.7245 90.2335 95.6831 90.264 95.6525C90.2946 95.622 90.336 95.6048 90.3792 95.6048L124.456 95.5913C124.499 95.5913 124.54 95.6085 124.571 95.639C124.602 95.6696 124.619 95.711 124.619 95.7542C124.619 95.7975 124.602 95.8389 124.571 95.8695C124.54 95.9 124.499 95.9172 124.456 95.9172Z" fill="#CCCCCC"/>
<path d="M124.002 98.0353C125.262 98.0353 126.283 97.0141 126.283 95.7542C126.283 94.4944 125.262 93.4731 124.002 93.4731C122.742 93.4731 121.721 94.4944 121.721 95.7542C121.721 97.0141 122.742 98.0353 124.002 98.0353Z" fill="#FC773F"/>
<path d="M123.641 52.2504L89.2386 52.2639C89.1954 52.2639 89.154 52.2468 89.1234 52.2162C89.0928 52.1857 89.0757 52.1442 89.0757 52.101C89.0757 52.0578 89.0928 52.0163 89.1234 51.9858C89.154 51.9552 89.1954 51.9381 89.2386 51.9381L123.641 51.9246C123.684 51.9246 123.726 51.9417 123.756 51.9723C123.787 52.0028 123.804 52.0443 123.804 52.0875C123.804 52.1307 123.787 52.1721 123.756 52.2027C123.726 52.2333 123.684 52.2504 123.641 52.2504Z" fill="#CCCCCC"/>
<path d="M124.002 54.5317C125.262 54.5317 126.283 53.5104 126.283 52.2506C126.283 50.9908 125.262 49.9695 124.002 49.9695C122.742 49.9695 121.721 50.9908 121.721 52.2506C121.721 53.5104 122.742 54.5317 124.002 54.5317Z" fill="#FC773F"/>
<path d="M35.5636 29.9284L69.9659 29.9419C70.0092 29.9419 70.0506 29.9247 70.0812 29.8942C70.1117 29.8636 70.1289 29.8222 70.1289 29.779C70.1289 29.7358 70.1117 29.6943 70.0812 29.6638C70.0506 29.6332 70.0092 29.616 69.9659 29.616L35.5636 29.6025C35.5204 29.6025 35.4789 29.6197 35.4484 29.6503C35.4178 29.6808 35.4006 29.7223 35.4006 29.7655C35.4006 29.8087 35.4178 29.8501 35.4484 29.8807C35.4789 29.9112 35.5204 29.9284 35.5636 29.9284Z" fill="#CCCCCC"/>
<path d="M35.2025 32.2094C36.4623 32.2094 37.4836 31.1881 37.4836 29.9283C37.4836 28.6685 36.4623 27.6472 35.2025 27.6472C33.9427 27.6472 32.9214 28.6685 32.9214 29.9283C32.9214 31.1881 33.9427 32.2094 35.2025 32.2094Z" fill="#FC773F"/>
<path d="M35.5636 74.0839L69.9659 74.0974C70.0092 74.0974 70.0506 74.0803 70.0812 74.0497C70.1117 74.0192 70.1289 73.9777 70.1289 73.9345C70.1289 73.8913 70.1117 73.8498 70.0812 73.8193C70.0506 73.7887 70.0092 73.7716 69.9659 73.7716L35.5636 73.7581C35.5204 73.7581 35.4789 73.7752 35.4484 73.8058C35.4178 73.8363 35.4006 73.8778 35.4006 73.921C35.4006 73.9642 35.4178 74.0057 35.4484 74.0362C35.4789 74.0668 35.5204 74.0839 35.5636 74.0839Z" fill="#CCCCCC"/>
<path d="M35.2025 76.3649C36.4623 76.3649 37.4836 75.3436 37.4836 74.0838C37.4836 72.824 36.4623 71.8027 35.2025 71.8027C33.9427 71.8027 32.9214 72.824 32.9214 74.0838C32.9214 75.3436 33.9427 76.3649 35.2025 76.3649Z" fill="#FC773F"/>
<path d="M91.2291 95.9308C89.7789 95.9308 88.3613 95.5008 87.1556 94.6951C85.9498 93.8894 85.01 92.7443 84.4551 91.4046C83.9001 90.0648 83.755 88.5906 84.0379 87.1683C84.3208 85.746 85.0191 84.4395 86.0445 83.4141C87.0699 82.3887 88.3764 81.6904 89.7986 81.4075C91.2209 81.1246 92.6952 81.2698 94.0349 81.8247C95.3747 82.3797 96.5198 83.3194 97.3255 84.5252C98.1311 85.731 98.5612 87.1485 98.5612 88.5987C98.5589 90.5426 97.7858 92.4063 96.4112 93.7808C95.0366 95.1554 93.173 95.9286 91.2291 95.9308ZM91.2291 81.5925C89.8434 81.5925 88.4888 82.0034 87.3366 82.7732C86.1844 83.5431 85.2864 84.6373 84.7562 85.9175C84.2259 87.1977 84.0871 88.6065 84.3575 89.9655C84.6278 91.3246 85.2951 92.573 86.2749 93.5528C87.2548 94.5327 88.5031 95.2 89.8622 95.4703C91.2213 95.7406 92.63 95.6019 93.9102 95.0716C95.1904 94.5413 96.2847 93.6433 97.0545 92.4911C97.8244 91.339 98.2353 89.9844 98.2353 88.5987C98.2332 86.7412 97.4944 84.9603 96.1809 83.6469C94.8674 82.3334 93.0866 81.5946 91.2291 81.5925Z" fill="#CCCCCC"/>
<path d="M70.0474 74.0973C68.5973 74.0973 67.1797 73.6673 65.9739 72.8616C64.7682 72.0559 63.8284 70.9108 63.2735 69.5711C62.7185 68.2313 62.5733 66.7571 62.8562 65.3348C63.1391 63.9125 63.8374 62.606 64.8629 61.5806C65.8883 60.5552 67.1947 59.8569 68.617 59.574C70.0393 59.2911 71.5135 59.4363 72.8533 59.9912C74.1931 60.5462 75.3382 61.486 76.1438 62.6917C76.9495 63.8975 77.3795 65.315 77.3795 66.7652C77.3773 68.7091 76.6041 70.5728 75.2296 71.9473C73.855 73.3219 71.9913 74.0951 70.0474 74.0973ZM70.0474 59.759C68.6617 59.759 67.3071 60.1699 66.155 60.9397C65.0028 61.7096 64.1048 62.8038 63.5745 64.084C63.0442 65.3643 62.9055 66.773 63.1758 68.132C63.4462 69.4911 64.1134 70.7395 65.0933 71.7193C66.0731 72.6992 67.3215 73.3665 68.6806 73.6368C70.0397 73.9071 71.4484 73.7684 72.7286 73.2381C74.0088 72.7078 75.103 71.8098 75.8729 70.6576C76.6427 69.5055 77.0536 68.1509 77.0536 66.7652C77.0515 64.9077 76.3127 63.1268 74.9993 61.8134C73.6858 60.4999 71.9049 59.7611 70.0474 59.759Z" fill="#CCCCCC"/>
<path d="M89.7628 52.264C88.3126 52.264 86.895 51.834 85.6893 51.0284C84.4835 50.2227 83.5437 49.0776 82.9888 47.7378C82.4338 46.398 82.2886 44.9238 82.5716 43.5015C82.8545 42.0792 83.5528 40.7728 84.5782 39.7474C85.6036 38.722 86.9101 38.0237 88.3323 37.7407C89.7546 37.4578 91.2289 37.603 92.5686 38.158C93.9084 38.7129 95.0535 39.6527 95.8592 40.8585C96.6648 42.0642 97.0948 43.4818 97.0948 44.9319C97.0926 46.8759 96.3194 48.7395 94.9449 50.1141C93.5703 51.4886 91.7067 52.2618 89.7628 52.264ZM89.7628 37.9257C88.3771 37.9257 87.0225 38.3366 85.8703 39.1065C84.7181 39.8763 83.8201 40.9706 83.2899 42.2508C82.7596 43.531 82.6208 44.9397 82.8912 46.2988C83.1615 47.6579 83.8288 48.9063 84.8086 49.8861C85.7884 50.8659 87.0368 51.5332 88.3959 51.8035C89.755 52.0739 91.1637 51.9351 92.4439 51.4048C93.7241 50.8746 94.8184 49.9766 95.5882 48.8244C96.3581 47.6722 96.769 46.3176 96.769 44.9319C96.7669 43.0744 96.0281 41.2936 94.7146 39.9801C93.4011 38.6667 91.6203 37.9278 89.7628 37.9257Z" fill="#CCCCCC"/>
<path d="M70.2105 29.9283C68.7604 29.9283 67.3428 29.4983 66.137 28.6927C64.9313 27.887 63.9915 26.7419 63.4365 25.4021C62.8816 24.0624 62.7364 22.5881 63.0193 21.1658C63.3022 19.7435 64.0005 18.4371 65.0259 17.4117C66.0514 16.3863 67.3578 15.688 68.7801 15.405C70.2024 15.1221 71.6766 15.2673 73.0164 15.8223C74.3561 16.3772 75.5013 17.317 76.3069 18.5228C77.1126 19.7285 77.5426 21.1461 77.5426 22.5963C77.5404 24.5402 76.7672 26.4038 75.3926 27.7784C74.0181 29.1529 72.1544 29.9261 70.2105 29.9283ZM70.2105 15.59C68.8248 15.59 67.4702 16.0009 66.3181 16.7708C65.1659 17.5406 64.2679 18.6349 63.7376 19.9151C63.2073 21.1953 63.0686 22.604 63.3389 23.9631C63.6092 25.3222 64.2765 26.5706 65.2564 27.5504C66.2362 28.5302 67.4846 29.1975 68.8437 29.4679C70.2027 29.7382 71.6115 29.5994 72.8917 29.0692C74.1719 28.5389 75.2661 27.6409 76.036 26.4887C76.8058 25.3365 77.2167 23.982 77.2167 22.5963C77.2146 20.7387 76.4758 18.9579 75.1623 17.6444C73.8489 16.331 72.068 15.5921 70.2105 15.59Z" fill="#CCCCCC"/>
<path d="M24.1962 79.6069C23.9958 79.454 23.8298 79.2607 23.709 79.0395C23.5882 78.8182 23.5154 78.574 23.4953 78.3228C23.4908 78.2642 23.4894 78.2055 23.4911 78.1468L15.9035 73.0368C15.6552 72.8678 15.4681 72.6232 15.3702 72.3392C15.2722 72.0553 15.2686 71.7473 15.3599 71.4612L18.9863 62.4516C19.1424 62.0637 19.4457 61.7535 19.83 61.5889C20.2143 61.4243 20.6481 61.4186 21.0366 61.5731C21.425 61.7277 21.7364 62.0298 21.9025 62.4135C22.0686 62.7971 22.076 63.2309 21.923 63.6199L18.9951 71.0645L24.9033 76.4309C24.9812 76.4132 25.0604 76.4009 25.14 76.3943C25.5963 76.358 26.0492 76.4977 26.4059 76.7846C26.7625 77.0716 26.9958 77.4842 27.058 77.9377C27.1201 78.3912 27.0064 78.8513 26.7402 79.2236C26.474 79.596 26.0754 79.8524 25.6261 79.9402C25.5109 79.9624 25.3938 79.9737 25.2764 79.9738C24.8857 79.974 24.5059 79.845 24.1962 79.6069Z" fill="#A0616A"/>
<path d="M15.9066 67.7566C15.8622 67.6529 15.8407 67.5409 15.8435 67.4282C15.8464 67.3154 15.8735 67.2046 15.9231 67.1033L17.6542 63.565C17.8289 63.015 18.2145 62.5568 18.7265 62.2907C19.2386 62.0246 19.8352 61.9725 20.3856 62.1456C20.9361 62.3188 21.3954 62.7031 21.6629 63.2144C21.9304 63.7257 21.9842 64.3222 21.8126 64.8731L21.1806 68.7741C21.1625 68.8854 21.1207 68.9915 21.0579 69.0852C20.9952 69.179 20.913 69.258 20.8169 69.3171C20.7208 69.3762 20.6131 69.4138 20.5012 69.4275C20.3892 69.4412 20.2756 69.4306 20.1682 69.3965L16.3905 68.196C16.2829 68.1619 16.1841 68.105 16.1005 68.0291C16.017 67.9533 15.9509 67.8604 15.9066 67.7566Z" fill="#FC773F"/>
<path d="M27.847 111.44H29.8446L30.7948 103.735L27.8467 103.735L27.847 111.44Z" fill="#A0616A"/>
<path d="M27.3374 110.788L31.2713 110.787H31.2714C31.6007 110.787 31.9267 110.852 32.2308 110.978C32.535 111.104 32.8114 111.289 33.0442 111.522C33.277 111.754 33.4616 112.031 33.5876 112.335C33.7136 112.639 33.7784 112.965 33.7784 113.294V113.376L27.3375 113.376L27.3374 110.788Z" fill="#2F2E41"/>
<path d="M8.31372 110.024L10.2484 110.522L13.0867 103.296L10.2313 102.562L8.31372 110.024Z" fill="#A0616A"/>
<path d="M7.98263 109.266L11.7927 110.245L11.7929 110.245C12.1117 110.327 12.4113 110.471 12.6746 110.669C12.9378 110.866 13.1595 111.114 13.327 111.397C13.4945 111.681 13.6046 111.995 13.6509 112.32C13.6972 112.646 13.6788 112.978 13.5969 113.297L13.5766 113.376L7.33838 111.773L7.98263 109.266Z" fill="#2F2E41"/>
<path d="M22.3246 58.5818C24.5348 58.5818 26.3265 56.7902 26.3265 54.58C26.3265 52.3698 24.5348 50.5781 22.3246 50.5781C20.1144 50.5781 18.3228 52.3698 18.3228 54.58C18.3228 56.7902 20.1144 58.5818 22.3246 58.5818Z" fill="#A0616A"/>
<path d="M20.3006 71.2258C19.3485 70.2458 18.5401 69.1358 17.8996 67.9289C17.5589 67.2672 17.3606 66.5415 17.3173 65.7985C17.2741 65.0555 17.387 64.3117 17.6486 63.615C17.9158 62.9027 18.3291 62.2543 18.862 61.7114C19.395 61.1685 20.0356 60.7433 20.7429 60.463C21.9831 59.9597 23.3668 59.9389 24.6217 60.4047C25.8765 60.8705 26.9115 61.7891 27.523 62.9798C28.5243 64.9394 28.9168 66.8554 28.6894 68.6747C28.2546 72.1527 28.0001 73.9504 27.9329 74.0175L27.9106 74.0399L20.4662 74.3708L20.3006 71.2258Z" fill="#FC773F"/>
<path d="M20.7427 73.4081L27.4046 73.0765C27.5729 73.0681 27.7378 73.1252 27.8649 73.2357C27.9919 73.3463 28.0712 73.5018 28.0862 73.6695L31.1508 108.021C31.1589 108.113 31.1477 108.205 31.1179 108.291C31.0881 108.378 31.0404 108.457 30.9778 108.524C30.9152 108.591 30.8393 108.644 30.7548 108.68C30.6704 108.716 30.5794 108.733 30.4878 108.731L27.8851 108.676C27.7419 108.673 27.6038 108.622 27.492 108.533C27.3801 108.444 27.3009 108.32 27.2664 108.181L22.2942 88.1461C22.2617 88.015 22.1892 87.8973 22.0869 87.8092C21.9845 87.721 21.8574 87.6669 21.7229 87.6542C21.5884 87.6415 21.4534 87.6709 21.3363 87.7383C21.2193 87.8057 21.1261 87.9078 21.0696 88.0305L11.6471 108.495C11.5831 108.634 11.4723 108.746 11.3339 108.812C11.1956 108.877 11.0387 108.892 10.8906 108.853L8.27132 108.17C8.1092 108.128 7.96954 108.025 7.88138 107.882C7.79323 107.74 7.76337 107.569 7.79801 107.405C8.65981 103.337 13.822 80.0392 20.3215 73.5906C20.4346 73.48 20.5846 73.415 20.7427 73.4081Z" fill="#2F2E41"/>
<path d="M33.3582 77.2652C33.1173 77.1909 32.8948 77.0667 32.7051 76.9007C32.5154 76.7347 32.3627 76.5306 32.2571 76.3017C32.2327 76.2484 32.2112 76.1938 32.1925 76.1381L23.3074 73.9608C23.0161 73.8879 22.756 73.7228 22.5661 73.4902C22.3761 73.2575 22.2665 72.9696 22.2534 72.6696L22.5475 62.9622C22.5601 62.5444 22.7378 62.1486 23.0416 61.8614C23.3454 61.5743 23.7506 61.4193 24.1685 61.4302C24.5864 61.4412 24.9829 61.6173 25.2712 61.9199C25.5595 62.2226 25.7162 62.6272 25.7069 63.0451L25.5283 71.0426L32.9257 74.0402C32.9927 73.9967 33.0627 73.9579 33.1351 73.924C33.3993 73.8016 33.6894 73.7453 33.9802 73.76C34.271 73.7747 34.5539 73.8599 34.8043 74.0084C35.0548 74.1569 35.2654 74.3641 35.4179 74.6121C35.5704 74.8602 35.6602 75.1417 35.6796 75.4322C35.699 75.7227 35.6474 76.0136 35.5292 76.2797C35.4111 76.5459 35.2299 76.7792 35.0014 76.9597C34.7728 77.1401 34.5038 77.2622 34.2175 77.3155C33.9312 77.3687 33.6363 77.3514 33.3582 77.2652Z" fill="#A0616A"/>
<path d="M21.5999 67.7991C21.5233 67.7164 21.4653 67.6181 21.4301 67.511C21.3949 67.4038 21.3832 67.2904 21.3958 67.1783L21.8362 63.2639C21.8157 62.6872 22.0248 62.126 22.4175 61.7033C22.8102 61.2805 23.3546 61.0307 23.9312 61.0087C24.5078 60.9866 25.0696 61.1941 25.4934 61.5856C25.9173 61.9772 26.1686 62.5208 26.1923 63.0973L26.9089 66.9837C26.9294 67.0946 26.9257 67.2086 26.8981 67.318C26.8705 67.4273 26.8197 67.5294 26.7491 67.6174C26.6784 67.7053 26.5897 67.777 26.4889 67.8275C26.3881 67.8781 26.2775 67.9063 26.1648 67.9103L22.2034 68.0501C22.0907 68.0542 21.9784 68.0338 21.8743 67.9905C21.7701 67.9472 21.6766 67.8819 21.5999 67.7991Z" fill="#FC773F"/>
<path d="M16.5902 59.8636L17.0084 58.5122L17.2943 60.0289L19.6427 59.9667L19.6319 58.4713L20.5246 59.9471L22.6527 59.4768C22.198 58.871 21.738 58.2557 21.4472 57.5416C21.1565 56.8275 21.0506 55.9901 21.3223 55.2673C21.994 53.4802 24.5405 53.9803 25.9333 53.9651C26.3397 53.9607 26.7984 53.9314 27.0645 53.5992C27.2649 53.3491 27.2978 52.9912 27.2876 52.6604C27.2353 50.957 26.2126 49.3318 24.7668 48.6546C24.059 48.3287 23.27 48.2218 22.5011 48.3477C22.1001 48.4111 21.7106 48.5338 21.3457 48.7117C21.0202 48.8706 20.6785 49.2492 20.3281 49.239C20.0337 49.2303 19.6439 48.9237 19.3235 48.8713C18.9375 48.8117 18.5437 48.8254 18.1628 48.9118C17.3973 49.0824 16.7073 49.4953 16.1952 50.0892C15.1067 51.354 14.7833 53.2176 14.973 54.9334C15.1627 56.6492 15.8045 58.2628 16.4393 59.8485" fill="#2F2E41"/>
<path d="M130.837 113.677H0.162935C0.119722 113.677 0.0782788 113.66 0.0477225 113.629C0.0171662 113.599 0 113.557 0 113.514C0 113.471 0.0171662 113.43 0.0477225 113.399C0.0782788 113.368 0.119722 113.351 0.162935 113.351H130.837C130.88 113.351 130.922 113.368 130.952 113.399C130.983 113.43 131 113.471 131 113.514C131 113.557 130.983 113.599 130.952 113.629C130.922 113.66 130.88 113.677 130.837 113.677Z" fill="#E6E6E6"/>
<path d="M128.633 111.658C129.13 111.254 129.492 110.709 129.671 110.094C129.804 109.472 129.539 108.742 128.946 108.501C128.281 108.244 127.569 108.706 127.031 109.172C126.493 109.637 125.873 110.17 125.167 110.07C125.529 109.74 125.799 109.322 125.951 108.857C126.103 108.392 126.132 107.896 126.036 107.416C126.006 107.217 125.922 107.029 125.792 106.875C125.424 106.48 124.753 106.65 124.31 106.962C122.903 107.952 122.511 109.862 122.505 111.582C122.362 110.96 122.481 110.313 122.478 109.688C122.476 109.063 122.3 108.336 121.764 108.006C121.432 107.827 121.059 107.739 120.682 107.749C120.049 107.727 119.346 107.789 118.913 108.252C118.372 108.825 118.515 109.791 118.983 110.416C119.451 111.041 120.16 111.444 120.812 111.882C121.337 112.194 121.785 112.62 122.121 113.129C122.161 113.2 122.194 113.274 122.219 113.351H126.182C127.071 112.9 127.896 112.33 128.633 111.658Z" fill="#F2F2F2"/>
<path d="M87.3994 49.2395C87.3258 49.2391 87.2533 49.2204 87.1887 49.185C87.1241 49.1496 87.0694 49.0987 87.0294 49.0368C86.9894 48.9749 86.9655 48.9041 86.9599 48.8306C86.9542 48.7572 86.9669 48.6835 86.9969 48.6162L87.5067 47.4787C86.8042 46.8547 86.3568 45.9934 86.2502 45.0598C86.1436 44.1263 86.3854 43.1862 86.9293 42.42C87.4731 41.6537 88.2806 41.1152 89.197 40.9077C90.1134 40.7001 91.0742 40.8382 91.8951 41.2954C92.716 41.7526 93.3392 42.4967 93.6452 43.3851C93.9513 44.2735 93.9186 45.2436 93.5534 46.1093C93.1883 46.9751 92.5164 47.6756 91.6666 48.0765C90.8168 48.4774 89.8489 48.5505 88.9486 48.2818L87.6475 49.1626C87.5744 49.2125 87.4879 49.2393 87.3994 49.2395ZM90.0302 41.3751C89.3524 41.3747 88.6913 41.5851 88.1385 41.9773C87.5857 42.3695 87.1686 42.9239 86.945 43.5637C86.7214 44.2036 86.7024 44.8971 86.8906 45.5482C87.0788 46.1993 87.465 46.7758 87.9955 47.1976L88.1561 47.3257L87.6075 48.5497L88.8663 47.6975L88.9906 47.7392C89.4396 47.8901 89.9161 47.9415 90.387 47.8899C90.8578 47.8383 91.3118 47.6849 91.7175 47.4404C92.1232 47.1959 92.4709 46.8661 92.7365 46.4739C93.002 46.0816 93.1791 45.6364 93.2555 45.1689C93.3318 44.7014 93.3056 44.2229 93.1787 43.7665C93.0517 43.3102 92.8271 42.8869 92.5203 42.526C92.2134 42.1651 91.8318 41.8753 91.4019 41.6765C90.9719 41.4778 90.5039 41.3749 90.0302 41.3751Z" fill="#3F3D56"/>
<path d="M90.0302 44.9964C90.3229 44.9964 90.5601 44.7592 90.5601 44.4665C90.5601 44.1738 90.3229 43.9365 90.0302 43.9365C89.7375 43.9365 89.5002 44.1738 89.5002 44.4665C89.5002 44.7592 89.7375 44.9964 90.0302 44.9964Z" fill="#3F3D56"/>
<path d="M88.5285 44.9964C88.8212 44.9964 89.0584 44.7592 89.0584 44.4665C89.0584 44.1738 88.8212 43.9365 88.5285 43.9365C88.2358 43.9365 87.9985 44.1738 87.9985 44.4665C87.9985 44.7592 88.2358 44.9964 88.5285 44.9964Z" fill="#3F3D56"/>
<path d="M91.5317 44.9964C91.8243 44.9964 92.0616 44.7592 92.0616 44.4665C92.0616 44.1738 91.8243 43.9365 91.5317 43.9365C91.239 43.9365 91.0017 44.1738 91.0017 44.4665C91.0017 44.7592 91.239 44.9964 91.5317 44.9964Z" fill="#3F3D56"/>
</g>
<defs>
<clipPath id="clip0_225_1917">
<rect width="131" height="113.677" fill="white"/>
</clipPath>
</defs>
</svg>
