<svg width="118" height="123" viewBox="0 0 118 123" fill="none" xmlns="http://www.w3.org/2000/svg">
<g clip-path="url(#clip0_225_2669)">
<path d="M79.4461 82.6221C80.7795 82.6221 81.8605 81.538 81.8605 80.2007C81.8605 78.8634 80.7795 77.7793 79.4461 77.7793C78.1127 77.7793 77.0317 78.8634 77.0317 80.2007C77.0317 81.538 78.1127 82.6221 79.4461 82.6221Z" fill="#FC773F"/>
<path d="M99.7954 85.5627H77.7507C77.56 85.5627 77.3771 85.4867 77.2423 85.3515C77.1075 85.2163 77.0317 85.0329 77.0317 84.8417C77.0317 84.6504 77.1075 84.467 77.2423 84.3318C77.3771 84.1966 77.56 84.1206 77.7507 84.1206H99.7954C99.986 84.1206 100.169 84.1966 100.304 84.3318C100.439 84.467 100.514 84.6504 100.514 84.8417C100.514 85.0329 100.439 85.2163 100.304 85.3515C100.169 85.4867 99.986 85.5627 99.7954 85.5627Z" fill="#E6E6E6"/>
<path d="M83.226 88.4119H77.7507C77.56 88.4119 77.3772 88.3359 77.2423 88.2007C77.1075 88.0655 77.0317 87.8821 77.0317 87.6908C77.0317 87.4996 77.1075 87.3162 77.2423 87.1809C77.3772 87.0457 77.56 86.9697 77.7507 86.9697H83.226C83.4166 86.9697 83.5995 87.0457 83.7343 87.1809C83.8692 87.3162 83.9449 87.4996 83.9449 87.6908C83.9449 87.8821 83.8692 88.0655 83.7343 88.2007C83.5995 88.3359 83.4166 88.4119 83.226 88.4119Z" fill="#E6E6E6"/>
<path d="M82.6578 63.2845H33.2227C32.8283 63.284 32.4501 63.1267 32.1711 62.8469C31.8922 62.5672 31.7353 62.1879 31.7349 61.7923V23.8935C31.7353 23.4979 31.8922 23.1186 32.1712 22.8389C32.4501 22.5592 32.8283 22.4018 33.2227 22.4014H82.6578C83.0523 22.4018 83.4305 22.5592 83.7094 22.8389C83.9883 23.1186 84.1452 23.4979 84.1457 23.8935V61.7923C84.1453 62.1879 83.9884 62.5672 83.7094 62.8469C83.4305 63.1267 83.0523 63.284 82.6578 63.2845Z" fill="white"/>
<path d="M82.6579 63.4697H33.2229C32.7795 63.4692 32.3544 63.2923 32.0409 62.9779C31.7274 62.6634 31.5511 62.2371 31.5505 61.7925V23.8937C31.5511 23.449 31.7274 23.0227 32.0409 22.7083C32.3544 22.3939 32.7795 22.217 33.2229 22.2166H82.6579C83.1013 22.217 83.5263 22.3939 83.8398 22.7083C84.1533 23.0227 84.3297 23.449 84.3302 23.8937V61.7925C84.3297 62.2371 84.1534 62.6634 83.8398 62.9779C83.5263 63.2923 83.1013 63.4692 82.6579 63.4697ZM33.2228 22.5865C32.8773 22.5869 32.546 22.7248 32.3016 22.9698C32.0573 23.2149 31.9198 23.5471 31.9194 23.8937V61.7925C31.9198 62.1391 32.0573 62.4713 32.3016 62.7164C32.546 62.9615 32.8773 63.0993 33.2228 63.0997H82.6579C83.0035 63.0993 83.3348 62.9615 83.5791 62.7164C83.8235 62.4713 83.9609 62.1391 83.9613 61.7925V23.8937C83.9609 23.5471 83.8235 23.2149 83.5791 22.9698C83.3348 22.7248 83.0035 22.5869 82.6579 22.5865H33.2228Z" fill="#F0F0F0"/>
<path d="M31.8491 56.0698V61.7923C31.8497 62.1575 31.9946 62.5076 32.252 62.7659C32.5095 63.0241 32.8586 63.1694 33.2228 63.17H82.6579C83.0221 63.1694 83.3712 63.0241 83.6287 62.7659C83.8862 62.5076 84.031 62.1575 84.0316 61.7923V56.0698H31.8491Z" fill="#F0F0F0"/>
<path d="M32.3148 22.6428L32.116 22.9543L83.932 56.2256L84.1309 55.914L32.3148 22.6428Z" fill="#F0F0F0"/>
<path d="M117.139 6.76189H0.50548C0.456522 6.76081 0.40993 6.74055 0.375685 6.70544C0.341441 6.67034 0.322266 6.62317 0.322266 6.57406C0.322266 6.52495 0.341441 6.47779 0.375685 6.44268C0.40993 6.40757 0.456522 6.38731 0.50548 6.38623H117.139C117.188 6.38731 117.235 6.40757 117.269 6.44268C117.303 6.47779 117.322 6.52495 117.322 6.57406C117.322 6.62317 117.303 6.67034 117.269 6.70544C117.235 6.74055 117.188 6.76081 117.139 6.76189Z" fill="#CACACA"/>
<path d="M4.62898 4.13227C5.74194 4.13227 6.64418 3.20723 6.64418 2.06614C6.64418 0.925041 5.74194 0 4.62898 0C3.51601 0 2.61377 0.925041 2.61377 2.06614C2.61377 3.20723 3.51601 4.13227 4.62898 4.13227Z" fill="#3F3D56"/>
<path d="M11.5906 4.13227C12.7036 4.13227 13.6059 3.20723 13.6059 2.06614C13.6059 0.925041 12.7036 0 11.5906 0C10.4777 0 9.57544 0.925041 9.57544 2.06614C9.57544 3.20723 10.4777 4.13227 11.5906 4.13227Z" fill="#3F3D56"/>
<path d="M18.5523 4.13227C19.6653 4.13227 20.5675 3.20723 20.5675 2.06614C20.5675 0.925041 19.6653 0 18.5523 0C17.4393 0 16.5371 0.925041 16.5371 2.06614C16.5371 3.20723 17.4393 4.13227 18.5523 4.13227Z" fill="#3F3D56"/>
<path d="M112.968 0.512207H108.022C107.924 0.514159 107.831 0.554582 107.762 0.624795C107.694 0.695009 107.655 0.789415 107.655 0.887741C107.655 0.986067 107.694 1.08047 107.762 1.15069C107.831 1.2209 107.924 1.26132 108.022 1.26327H112.968C113.066 1.26132 113.159 1.2209 113.228 1.15069C113.296 1.08047 113.335 0.986067 113.335 0.887741C113.335 0.789415 113.296 0.695009 113.228 0.624795C113.159 0.554582 113.066 0.514159 112.968 0.512207Z" fill="#3F3D56"/>
<path d="M112.968 1.92188H108.022C107.924 1.92383 107.831 1.96425 107.762 2.03446C107.694 2.10468 107.655 2.19908 107.655 2.29741C107.655 2.39573 107.694 2.49014 107.762 2.56035C107.831 2.63057 107.924 2.67099 108.022 2.67294H112.968C113.066 2.67099 113.159 2.63057 113.228 2.56035C113.296 2.49014 113.335 2.39573 113.335 2.29741C113.335 2.19908 113.296 2.10468 113.228 2.03446C113.159 1.96425 113.066 1.92383 112.968 1.92188Z" fill="#3F3D56"/>
<path d="M112.968 3.32959H108.022C107.924 3.33154 107.831 3.37196 107.762 3.44218C107.694 3.51239 107.655 3.6068 107.655 3.70512C107.655 3.80345 107.694 3.89785 107.762 3.96807C107.831 4.03828 107.924 4.0787 108.022 4.08066H112.968C113.066 4.0787 113.159 4.03828 113.228 3.96807C113.296 3.89785 113.335 3.80345 113.335 3.70512C113.335 3.6068 113.296 3.51239 113.228 3.44218C113.159 3.37196 113.066 3.33154 112.968 3.32959Z" fill="#3F3D56"/>
<path d="M64.423 120.249L66.8006 120.248L67.9316 111.051L64.4226 111.051L64.423 120.249Z" fill="#FFB6B6"/>
<path d="M63.8164 119.47L64.4856 119.47L67.0983 118.405L68.4986 119.47C69.2899 119.47 70.049 119.786 70.6086 120.347C71.1682 120.908 71.4826 121.669 71.4826 122.463V122.56L63.8165 122.56L63.8164 119.47Z" fill="#2F2E41"/>
<path d="M42.9407 117.149L45.0685 118.212L50.1718 110.487L47.0311 108.917L42.9407 117.149Z" fill="#FFB6B6"/>
<path d="M42.7441 116.181L43.343 116.48L46.1553 116.695L46.9347 118.275L46.9348 118.275C47.6431 118.629 48.182 119.251 48.4332 120.004C48.6844 120.756 48.6272 121.578 48.2743 122.289L48.231 122.376L41.3699 118.946L42.7441 116.181Z" fill="#2F2E41"/>
<path d="M65.4764 78.4783L50.3596 78.8738L50.6225 86.2566C50.6225 86.2566 50.3596 88.2341 50.8854 88.7614C51.4112 89.2888 51.6741 89.2888 51.4112 90.2116C51.1483 91.1345 50.4686 99.9519 50.4686 99.9519C50.4686 99.9519 44.2642 110.954 44.5271 111.218C44.79 111.482 45.0529 111.218 44.79 111.877C44.5271 112.536 44.2642 112.273 44.5271 112.536C44.76 112.788 44.9794 113.052 45.1844 113.327H49.4692C49.4692 113.327 49.7088 112.009 49.7088 111.877C49.7088 111.745 49.9717 110.954 49.9717 110.823C49.9717 110.691 57.4579 102.736 57.4579 102.736L59.0353 89.5524L62.8474 102.472C62.8474 102.472 62.8474 113.81 63.1103 114.074C63.3732 114.337 63.3732 114.206 63.2418 114.733C63.1103 115.26 62.5845 115.128 62.9789 115.524C63.3732 115.919 63.5047 115.26 63.3732 115.919L63.2418 116.579L68.292 116.635C68.292 116.635 68.8178 115.524 68.5549 115.128C68.292 114.733 68.3078 114.841 68.6285 114.194C68.9493 113.546 69.0807 113.415 68.9493 113.283C68.8178 113.151 68.8178 112.45 68.8178 112.45C68.8178 112.45 66.9224 86.5202 66.9224 86.1247C66.9125 85.9212 66.9499 85.7182 67.0316 85.5316V84.9948L66.528 83.0925L65.4764 78.4783Z" fill="#2F2E41"/>
<path d="M59.658 50.2382C65.1225 50.2382 69.5524 45.7954 69.5524 40.3149C69.5524 34.8344 65.1225 30.3916 59.658 30.3916C54.1935 30.3916 49.7637 34.8344 49.7637 40.3149C49.7637 45.7954 54.1935 50.2382 59.658 50.2382Z" fill="#FC773F"/>
<path d="M57.3862 44.9573C57.2461 44.9569 57.1083 44.9209 56.9858 44.8527C56.8547 44.7818 56.7454 44.6764 56.6696 44.5478C56.5937 44.4193 56.5543 44.2724 56.5554 44.1231V37.2463C56.5554 37.0971 56.5954 36.9508 56.6711 36.8224C56.7468 36.6941 56.8555 36.5885 56.9858 36.5167C57.1161 36.4449 57.2632 36.4095 57.4118 36.4142C57.5604 36.419 57.705 36.4636 57.8305 36.5436L64.3349 39.982C64.4528 40.0572 64.5499 40.161 64.6172 40.2838C64.6845 40.4066 64.7198 40.5445 64.7198 40.6847C64.7198 40.8248 64.6845 40.9627 64.6172 41.0855C64.5499 41.2084 64.4528 41.3122 64.3349 41.3873L57.8305 44.8258C57.6979 44.9112 57.5438 44.9568 57.3862 44.9573Z" fill="white"/>
<path d="M60.7879 53.5197C60.7879 53.5197 55.7342 53.0129 55.3973 53.5197C55.1773 53.9361 55.0616 54.4 55.0604 54.8713C55.0604 54.8713 53.0389 55.716 52.702 55.3781C52.3651 55.0402 52.0282 54.0265 51.0174 54.3644C50.0067 54.7023 48.0706 60.5488 48.0706 60.5488C48.0706 60.5488 48.255 60.5488 49.3329 66.0219C50.06 69.714 49.9397 72.7462 50.0195 74.8109C50.0326 75.1511 49.5367 76.3537 49.5462 76.643C49.5885 77.9321 50.11 77.8213 50.1751 78.0172C50.3436 78.524 49.3329 81.5651 55.3973 81.5651C61.4617 81.5651 65.8415 81.2272 65.8415 80.0446C65.8415 79.4482 66.4566 79.099 66.3313 77.198C66.297 76.6762 65.4005 74.8954 65.394 74.3397C65.3831 73.6225 65.4098 72.9052 65.474 72.1908C65.5362 71.4768 65.6591 70.7695 65.8415 70.0766C66.8523 66.3597 67.2536 59.6238 67.2536 59.6238L65.5935 56.294L61.9671 55.716C61.9671 55.716 61.7986 53.6886 60.7879 53.5197Z" fill="#3F3D56"/>
<path d="M59.3265 52.3431C61.6586 51.708 63.0359 49.2971 62.4027 46.9582C61.7694 44.6192 59.3656 43.238 57.0335 43.8731C54.7013 44.5081 53.3241 46.919 53.9573 49.258C54.5906 51.5969 56.9944 52.9781 59.3265 52.3431Z" fill="#FFB6B6"/>
<path d="M79.1035 115.294L79.234 112.353C80.5937 111.624 82.1103 111.239 83.6521 111.231C81.5301 112.971 81.7953 116.325 80.3567 118.665C79.9024 119.391 79.291 120.005 78.5677 120.463C77.8445 120.92 77.028 121.208 76.1786 121.305L74.4029 122.396C74.1593 121.033 74.213 119.634 74.5604 118.295C74.9078 116.955 75.5406 115.707 76.4152 114.637C76.9118 114.041 77.4813 113.51 78.1101 113.057C78.5354 114.182 79.1035 115.294 79.1035 115.294Z" fill="#F2F2F2"/>
<path d="M102.647 122.713C102.648 122.751 102.64 122.788 102.626 122.823C102.612 122.858 102.59 122.89 102.564 122.916C102.537 122.943 102.506 122.964 102.471 122.979C102.436 122.993 102.399 123 102.361 123H25.2506C25.1746 123 25.1018 122.97 25.048 122.916C24.9943 122.862 24.9641 122.789 24.9641 122.713C24.9641 122.637 24.9943 122.564 25.048 122.51C25.1018 122.456 25.1746 122.426 25.2506 122.426H102.361C102.399 122.425 102.436 122.433 102.471 122.447C102.506 122.462 102.537 122.483 102.564 122.509C102.59 122.536 102.612 122.568 102.626 122.603C102.64 122.638 102.648 122.675 102.647 122.713Z" fill="#CCCCCC"/>
<path d="M78.2633 79.2765C78.0615 79.2803 77.8614 79.2396 77.677 79.1574C77.4926 79.0752 77.3285 78.9534 77.1961 78.8007C77.0637 78.648 76.9663 78.468 76.9108 78.2734C76.8552 78.0789 76.8429 77.8745 76.8746 77.6746L69.2144 73.468L71.4563 72.252L78.5551 76.5279C78.8863 76.6036 79.1783 76.7986 79.3758 77.0759C79.5733 77.3531 79.6624 77.6934 79.6265 78.0322C79.5905 78.371 79.4319 78.6848 79.1806 78.9142C78.9294 79.1435 78.603 79.2724 78.2633 79.2765Z" fill="#FFB8B8"/>
<path d="M75.469 77.092L69.6169 74.9431L66.9842 72.4672L66.33 72.133L64.0755 70.546L64.0688 70.526L60.4865 59.9057C60.322 59.0335 60.4961 58.1313 60.9733 57.3838C61.4504 56.6362 62.1945 56.0998 63.0531 55.8845C63.5278 55.7661 64.0222 55.7498 64.5037 55.8368C64.9852 55.9238 65.4429 56.1121 65.8466 56.3892C66.2503 56.6664 66.5909 57.0262 66.846 57.4449C67.1011 57.8636 67.2649 58.3318 67.3265 58.8185L68.4794 67.9206L71.8661 71.0099L72.7022 71.1722L72.8947 72.0752L76.7602 74.8721L75.469 77.092Z" fill="#3F3D56"/>
<path d="M52.5221 34.8251C52.5268 35.0274 52.4873 35.2283 52.4062 35.4137C52.3252 35.599 52.2046 35.7643 52.053 35.8978C51.9013 36.0313 51.7224 36.1299 51.5287 36.1866C51.3349 36.2432 51.1312 36.2566 50.9318 36.2258L46.7757 43.9293L45.552 41.6869L49.78 34.5461C49.8539 34.2136 50.0468 33.9197 50.3223 33.7203C50.5978 33.5209 50.9366 33.4298 51.2746 33.4641C51.6126 33.4985 51.9263 33.6561 52.1562 33.9069C52.3861 34.1577 52.5163 34.4845 52.5221 34.8251Z" fill="#FFB8B8"/>
<path d="M53.1088 56.299L50.5028 52.496C50.5028 52.496 50.9125 52.5202 50.653 51.6691C50.5823 51.4375 49.9008 50.6382 49.8234 50.3611C49.7553 50.1168 49.6856 49.8564 49.6162 49.5823C49.3674 48.5997 48.0232 47.6911 48.2551 46.4894C49.3618 40.7546 49.9152 39.6447 50.085 38.7261C50.085 38.7261 49.1228 35.1486 47.5612 37.3583C45.9995 39.568 43.5244 45.1844 44.1795 47.9752C44.8347 50.7661 47.339 59.8705 48.1099 60.5476C48.8807 61.2247 53.1088 56.299 53.1088 56.299Z" fill="#3F3D56"/>
<path d="M61.3543 42.9173C61.0303 42.9076 61.1415 42.2951 60.8804 42.0997C60.8792 42.1056 60.8778 42.1115 60.8765 42.1174C60.8423 42.2497 60.7666 42.3675 60.6606 42.4535C60.5546 42.5394 60.4239 42.5889 60.2877 42.5948C60.1515 42.6006 60.0171 42.5624 59.9042 42.4858C59.7913 42.4093 59.7059 42.2984 59.6605 42.1695C59.6172 42.0203 59.5389 41.8838 59.432 41.7714C59.3252 41.659 59.193 41.5739 59.0465 41.5234C59.0303 42.0912 58.6021 42.5839 58.0912 42.8292C57.5804 43.0744 56.9979 43.1152 56.4317 43.1236C55.8653 43.1006 55.2983 43.1437 54.7418 43.2519C54.1927 43.3909 53.6586 43.7177 53.424 44.2346C53.1894 44.7516 53.3568 45.4633 53.8698 45.7039C53.4724 45.706 53.1351 46.0349 52.9977 46.4089C52.8851 46.7926 52.8557 47.1959 52.9116 47.5919C53.0232 49.0581 53.2956 50.6366 54.3601 51.6478C55.1714 52.4184 56.3327 52.7289 57.4501 52.7244C58.5675 52.7199 58.371 52.6169 59.4515 52.3308C59.4515 52.3308 60.4786 49.3775 60.22 49.087C59.9613 48.7965 59.7465 48.4247 59.7933 48.0381C59.8401 47.6514 60.2544 47.3051 60.614 47.4523C60.5535 47.2972 60.508 47.2677 60.4794 47.2756C60.4976 47.2315 60.5135 47.1866 60.527 47.1409C60.5946 46.9079 60.7165 46.6944 60.8825 46.5179C61.0484 46.3413 61.2538 46.2068 61.4817 46.1254C61.7119 46.0505 61.9595 46.048 62.1912 46.1183C62.4228 46.1886 62.6275 46.3284 62.7776 46.5187C63.9607 45.406 63.2267 42.973 61.3543 42.9173Z" fill="#2F2E41"/>
</g>
<defs>
<clipPath id="clip0_225_2669">
<rect width="117" height="123" fill="white" transform="translate(0.322266)"/>
</clipPath>
</defs>
</svg>
