<svg width="127" height="124" viewBox="0 0 127 124" fill="none" xmlns="http://www.w3.org/2000/svg">
<g clip-path="url(#clip0_225_2898)">
<path d="M39.2536 116.086L39.3896 113.032C40.8071 112.275 42.3881 111.875 43.9954 111.867C41.7833 113.674 42.0597 117.157 40.56 119.587C40.0864 120.341 39.4491 120.979 38.6951 121.454C37.9411 121.928 37.0899 122.228 36.2045 122.329L34.3534 123.461C34.0994 122.046 34.1554 120.593 34.5175 119.202C34.8797 117.811 35.5394 116.515 36.4512 115.403C36.9689 114.785 37.5625 114.234 38.218 113.763C38.6613 114.931 39.2536 116.086 39.2536 116.086Z" fill="#F2F2F2"/>
<path d="M115.771 71.5776C120.761 67.7797 123.145 61.3977 121.653 55.3096C121.616 55.1584 121.577 55.0074 121.535 54.8568C120.546 51.243 118.098 47.8084 114.531 46.6537C111.536 45.6842 108.266 46.4298 105.141 46.0442C99.007 45.2873 94.2512 40.3284 90.9049 35.1363C87.5586 29.9443 84.9868 24.1325 80.5403 19.8431C73.2109 12.7727 61.2548 11.2505 52.1674 15.8527C43.0801 20.455 37.2915 30.6656 37.5384 40.8417C37.7852 51.0178 43.8317 60.7468 52.6128 65.9087C55.8386 67.805 59.5695 69.1484 63.2826 68.6783C66.5043 68.2704 69.4317 66.5408 72.6383 66.0273C77.6798 65.22 82.6892 67.4974 87.0497 70.1513C91.4102 72.8051 95.6222 75.9508 100.577 77.1811C105.389 78.3757 111.35 74.942 115.771 71.5776Z" fill="#F2F2F2"/>
<path d="M76.2811 26.1321H26.5615C25.5246 26.1333 24.5305 26.5454 23.7973 27.2779C23.064 28.0105 22.6516 29.0037 22.6504 30.0397V54.7629C22.6516 55.7989 23.064 56.7921 23.7973 57.5247C24.5305 58.2572 25.5246 58.6693 26.5615 58.6705H76.2811C77.3181 58.6696 78.3124 58.2577 79.0457 57.525C79.779 56.7924 80.1913 55.799 80.1922 54.7629V30.0397C80.1913 29.0036 79.779 28.0102 79.0457 27.2776C78.3124 26.5449 77.3181 26.133 76.2811 26.1321Z" fill="white"/>
<path d="M76.2813 58.863H26.5624C25.4745 58.8618 24.4315 58.4294 23.6622 57.6608C22.8929 56.8922 22.4602 55.8502 22.459 54.7632V30.0392C22.4602 28.9523 22.8929 27.9102 23.6622 27.1416C24.4315 26.373 25.4745 25.9407 26.5624 25.9395H76.2813C77.3693 25.9407 78.4123 26.373 79.1816 27.1416C79.9508 27.9102 80.3836 28.9523 80.3848 30.0392V54.7632C80.3836 55.8502 79.9508 56.8922 79.1816 57.6608C78.4123 58.4294 77.3693 58.8618 76.2813 58.863ZM26.5624 26.3237C25.5765 26.3248 24.6312 26.7166 23.934 27.4132C23.2369 28.1097 22.8447 29.0542 22.8436 30.0392V54.7632C22.8447 55.7483 23.2369 56.6927 23.934 57.3892C24.6312 58.0858 25.5765 58.4776 26.5624 58.4788H76.2813C77.2673 58.4776 78.2126 58.0858 78.9097 57.3892C79.6069 56.6927 79.9991 55.7483 80.0002 54.7632V30.0392C79.9991 29.0542 79.6069 28.1097 78.9097 27.4132C78.2126 26.7166 77.2673 26.3248 76.2813 26.3237H26.5624Z" fill="#CCCCCC"/>
<path d="M78.5684 65.6979H30.922C30.5102 65.6979 30.1152 65.5344 29.824 65.2435C29.5327 64.9525 29.3691 64.5579 29.3691 64.1464C29.3691 63.735 29.5327 63.3403 29.824 63.0494C30.1152 62.7584 30.5102 62.595 30.922 62.595H78.5684C78.9803 62.595 79.3753 62.7584 79.6665 63.0494C79.9577 63.3403 80.1213 63.735 80.1213 64.1464C80.1213 64.5579 79.9577 64.9525 79.6665 65.2435C79.3753 65.5344 78.9803 65.6979 78.5684 65.6979Z" fill="#E6E6E6"/>
<path d="M46.1965 50.9036C45.9142 50.9028 45.6368 50.8306 45.39 50.6937C45.126 50.5515 44.9058 50.34 44.7531 50.0821C44.6004 49.8242 44.5209 49.5295 44.5232 49.2299V35.4317C44.5232 35.1326 44.6037 34.8389 44.7561 34.5814C44.9086 34.3238 45.1275 34.112 45.3899 33.9679C45.6524 33.8238 45.9487 33.7528 46.248 33.7623C46.5473 33.7718 46.8386 33.8615 47.0913 34.0219L60.192 40.9209C60.4296 41.0717 60.6252 41.28 60.7607 41.5265C60.8963 41.7729 60.9673 42.0496 60.9673 42.3308C60.9673 42.612 60.8963 42.8887 60.7607 43.1351C60.6252 43.3816 60.4296 43.5899 60.192 43.7407L47.0913 50.6397C46.8244 50.8112 46.5139 50.9027 46.1965 50.9036Z" fill="#F2F2F2"/>
<path d="M123.131 44.0243H102.354C101.921 44.0239 101.505 43.8517 101.199 43.5455C100.893 43.2394 100.72 42.8243 100.72 42.3914V32.0595C100.72 31.6265 100.893 31.2115 101.199 30.9053C101.505 30.5992 101.921 30.427 102.354 30.4265H123.131C123.565 30.427 123.98 30.5992 124.286 30.9053C124.593 31.2115 124.765 31.6265 124.766 32.0595V42.3914C124.765 42.8243 124.593 43.2394 124.286 43.5455C123.98 43.8517 123.565 44.0239 123.131 44.0243Z" fill="white"/>
<path d="M123.131 44.2164H102.354C101.87 44.2159 101.406 44.0234 101.063 43.6813C100.721 43.3391 100.528 42.8752 100.528 42.3913V32.0595C100.528 31.5756 100.721 31.1117 101.063 30.7695C101.406 30.4274 101.87 30.2349 102.354 30.2344H123.131C123.616 30.2349 124.08 30.4274 124.422 30.7695C124.765 31.1117 124.958 31.5756 124.958 32.0595V42.3913C124.958 42.8752 124.765 43.3391 124.422 43.6813C124.08 44.0234 123.616 44.2159 123.131 44.2164ZM102.354 30.6186C101.972 30.619 101.605 30.771 101.335 31.0411C101.065 31.3112 100.913 31.6775 100.912 32.0595V42.3913C100.913 42.7734 101.065 43.1396 101.335 43.4097C101.605 43.6798 101.972 43.8318 102.354 43.8322H123.131C123.514 43.8318 123.88 43.6798 124.151 43.4097C124.421 43.1396 124.573 42.7734 124.573 42.3913V32.0595C124.573 31.6775 124.421 31.3112 124.151 31.0411C123.88 30.771 123.514 30.619 123.131 30.6186H102.354Z" fill="#CCCCCC"/>
<path d="M119.718 49.08H105.722C105.31 49.0795 104.915 48.9159 104.625 48.6249C104.334 48.334 104.17 47.9397 104.17 47.5285C104.17 47.1173 104.334 46.723 104.625 46.4321C104.915 46.1412 105.31 45.9775 105.722 45.9771H119.718C120.13 45.9771 120.525 46.1405 120.816 46.4315C121.107 46.7224 121.271 47.117 121.271 47.5285C121.271 47.94 121.107 48.3346 120.816 48.6256C120.525 48.9165 120.13 49.08 119.718 49.08Z" fill="#E6E6E6"/>
<path d="M110.509 40.9023C110.391 40.9019 110.275 40.8718 110.172 40.8146C110.061 40.7551 109.969 40.6668 109.905 40.559C109.842 40.4512 109.808 40.3281 109.809 40.2028V34.4368C109.809 34.3117 109.843 34.189 109.907 34.0814C109.97 33.9738 110.062 33.8852 110.172 33.825C110.281 33.7648 110.405 33.7352 110.53 33.7391C110.655 33.7431 110.777 33.7806 110.883 33.8476L116.357 36.7306C116.456 36.7937 116.538 36.8807 116.595 36.9837C116.651 37.0867 116.681 37.2023 116.681 37.3198C116.681 37.4373 116.651 37.5529 116.595 37.6559C116.538 37.7589 116.456 37.8459 116.357 37.909L110.883 40.792C110.771 40.8637 110.641 40.9019 110.509 40.9023Z" fill="#FC773F"/>
<path d="M109.863 88.4711H89.0863C88.653 88.4706 88.2376 88.2984 87.9312 87.9923C87.6248 87.6862 87.4524 87.2711 87.4519 86.8381V76.5063C87.4524 76.0733 87.6247 75.6582 87.9312 75.3521C88.2376 75.046 88.653 74.8738 89.0863 74.8733H109.863C110.297 74.8738 110.712 75.046 111.019 75.3521C111.325 75.6582 111.497 76.0733 111.498 76.5063V86.8381C111.497 87.2711 111.325 87.6862 111.019 87.9923C110.712 88.2984 110.297 88.4706 109.863 88.4711Z" fill="white"/>
<path d="M109.864 88.6632H89.0865C88.6022 88.6627 88.1379 88.4702 87.7954 88.128C87.453 87.7859 87.2603 87.322 87.2598 86.8381V76.5062C87.2603 76.0224 87.453 75.5585 87.7954 75.2163C88.1379 74.8742 88.6022 74.6817 89.0865 74.6812H109.864C110.348 74.6817 110.812 74.8742 111.155 75.2163C111.497 75.5585 111.69 76.0224 111.69 76.5062V86.8381C111.69 87.322 111.497 87.7859 111.155 88.128C110.812 88.4702 110.348 88.6627 109.864 88.6632ZM89.0865 75.0654C88.7041 75.0658 88.3376 75.2177 88.0672 75.4879C87.7968 75.758 87.6448 76.1242 87.6443 76.5062V86.8381C87.6448 87.2201 87.7968 87.5864 88.0672 87.8565C88.3376 88.1266 88.7041 88.2786 89.0865 88.279H109.864C110.246 88.2786 110.612 88.1266 110.883 87.8565C111.153 87.5864 111.305 87.2201 111.306 86.8381V76.5062C111.305 76.1242 111.153 75.758 110.883 75.4879C110.612 75.2177 110.246 75.0658 109.864 75.0654H89.0865Z" fill="#CCCCCC"/>
<path d="M106.45 93.5543H92.4537C92.0422 93.5539 91.6476 93.3902 91.3568 93.0993C91.066 92.8084 90.9026 92.414 90.9026 92.0029C90.9026 91.5917 91.066 91.1973 91.3568 90.9064C91.6476 90.6155 92.0422 90.4519 92.4537 90.4514H106.45C106.862 90.4514 107.257 90.6149 107.548 90.9058C107.839 91.1968 108.003 91.5914 108.003 92.0029C108.003 92.4143 107.839 92.809 107.548 93.0999C107.257 93.3909 106.862 93.5543 106.45 93.5543Z" fill="#E6E6E6"/>
<path d="M97.1902 85.665C97.0723 85.6646 96.9563 85.6345 96.8532 85.5773C96.7429 85.5178 96.6508 85.4295 96.587 85.3217C96.5232 85.2139 96.49 85.0908 96.491 84.9655V79.1995C96.491 79.0744 96.5246 78.9517 96.5883 78.8441C96.652 78.7365 96.7435 78.6479 96.8532 78.5877C96.9628 78.5275 97.0867 78.4978 97.2118 78.5018C97.3368 78.5058 97.4585 78.5432 97.5642 78.6103L103.039 81.4933C103.138 81.5564 103.22 81.6434 103.276 81.7464C103.333 81.8494 103.363 81.965 103.363 82.0825C103.363 82.2 103.333 82.3156 103.276 82.4186C103.22 82.5216 103.138 82.6086 103.039 82.6717L97.5642 85.5547C97.4526 85.6263 97.3228 85.6646 97.1902 85.665Z" fill="#FC773F"/>
<path d="M39.3113 52.7253L28.6771 52.7967C28.6771 52.7967 22.6206 50.8459 19.8739 51.2535L18.8237 55.3753L26.368 57.8727L39.498 55.9694C39.7927 56.1181 40.1214 56.1866 40.451 56.168C40.7807 56.1495 41.0996 56.0445 41.3757 55.8637C41.6518 55.6828 41.8754 55.4325 42.0239 55.1379C42.1724 54.8433 42.2406 54.5148 42.2216 54.1855C42.2027 53.8562 42.0972 53.5377 41.9159 53.2621C41.7346 52.9864 41.4838 52.7633 41.1888 52.6153C40.8937 52.4673 40.5649 52.3995 40.2353 52.4188C39.9057 52.4381 39.587 52.5438 39.3113 52.7253Z" fill="#A0616A"/>
<path d="M26.278 58.2718L13.6614 54.6464L12.5128 50.3704C12.2135 49.7999 12.08 49.1572 12.1272 48.5148C12.1744 47.8724 12.4005 47.2561 12.7799 46.7354C13.857 45.2779 14.6989 46.7256 16.2275 47.7002C18.9072 47.8895 25.5956 50.176 28.3107 52.8236L28.0968 54.451L26.278 58.2718Z" fill="#3F3D56"/>
<path d="M37.2553 54.7815C36.9731 54.7807 36.6956 54.7085 36.4488 54.5717C36.1848 54.4294 35.9646 54.218 35.8119 53.96C35.6592 53.7021 35.5797 53.4075 35.5821 53.1078V39.3097C35.5821 39.0105 35.6625 38.7168 35.815 38.4593C35.9674 38.2018 36.1863 37.9899 36.4488 37.8458C36.7112 37.7018 37.0076 37.6308 37.3069 37.6402C37.6062 37.6497 37.8974 37.7394 38.1502 37.8998L51.2508 44.7989C51.4884 44.9497 51.684 45.1579 51.8196 45.4044C51.9551 45.6509 52.0262 45.9275 52.0262 46.2087C52.0262 46.4899 51.9551 46.7666 51.8196 47.0131C51.684 47.2595 51.4884 47.4678 51.2508 47.6186L38.1502 54.5177C37.8832 54.6891 37.5727 54.7806 37.2553 54.7815Z" fill="#FC773F"/>
<path d="M28.4542 121.241L31.1384 121.241L32.4152 110.898L28.4539 110.898L28.4542 121.241Z" fill="#A0616A"/>
<path d="M27.7695 120.366L28.525 120.366L31.4745 119.167L33.0554 120.365H33.0556C33.949 120.366 34.8057 120.72 35.4374 121.351C36.0691 121.982 36.4241 122.838 36.4241 123.731V123.84L27.7697 123.841L27.7695 120.366Z" fill="#2F2E41"/>
<path d="M9.34106 118.717L11.8835 119.577L16.4134 110.189L12.6613 108.92L9.34106 118.717Z" fill="#A0616A"/>
<path d="M8.97357 117.668L9.68914 117.91L12.8675 117.72L13.9802 119.362L13.9804 119.362C14.8266 119.648 15.5242 120.258 15.9199 121.059C16.3157 121.859 16.377 122.783 16.0906 123.629L16.0554 123.732L7.85815 120.959L8.97357 117.668Z" fill="#2F2E41"/>
<path d="M12.4521 76.6885C12.4521 76.6885 12.1387 80.446 12.9222 84.047C13.7057 87.648 15.3919 99.6014 15.3919 99.6014C11.9766 105.21 9.99718 110.729 9.62329 116.315L14.4305 116.7L21.3136 100.383L22.011 84.047L27.0256 95.163L26.7677 96.0218C26.7067 96.2249 26.7142 96.4424 26.789 96.6408C26.8638 96.8393 27.0018 97.0076 27.1817 97.1201C27.1817 97.1201 26.7122 100.173 27.0256 100.173C27.339 100.173 28.1225 100.643 28.1225 100.643C26.1689 106.719 25.9067 112.538 27.6982 118.044L31.9286 117.852L34.7041 93.9105L32.667 80.9157L32.5102 78.4107L31.8051 78.4396L31.446 77.393L30.7865 75.5925L12.4521 76.6885Z" fill="#2F2E41"/>
<path d="M12.1814 77.4776L12.1535 77.4385C10.6619 75.3521 12.9052 70.3385 13.2436 69.6117L11.8185 69.1497L10.5723 58.6141L9.66095 54.9745C9.31756 53.5986 9.34683 52.1562 9.74575 50.7953C10.1447 49.4344 10.8989 48.2042 11.931 47.2307L14.0376 45.2462L16.5978 41.4614H20.7264L22.1421 44.133C23.5145 44.4499 24.7322 45.2378 25.583 46.3595C26.4338 47.4812 26.8638 48.8655 26.7981 50.2714L26.4772 57.278L27.7332 66.0019L27.734 67.5807L29.9146 71.1526L30.3896 73.3671C30.5861 73.6263 31.8836 75.3547 31.8836 75.8273C31.8836 75.8982 31.8312 75.9668 31.7187 76.0429C30.8345 76.6411 25.9473 77.8606 23.7843 76.9959C21.4802 76.0754 12.3213 77.4562 12.229 77.4703L12.1814 77.4776Z" fill="#3F3D56"/>
<path d="M54.3537 123.772C54.3538 123.802 54.348 123.831 54.3366 123.859C54.3252 123.887 54.3085 123.912 54.2874 123.933C54.2663 123.954 54.2412 123.971 54.2135 123.983C54.1859 123.994 54.1562 124 54.1262 124H0.228822C0.168135 124 0.109932 123.976 0.0670199 123.933C0.0241076 123.89 0 123.832 0 123.772C0 123.711 0.0241076 123.653 0.0670199 123.61C0.109932 123.567 0.168135 123.543 0.228822 123.543H54.1249C54.1854 123.543 54.2435 123.566 54.2864 123.609C54.3293 123.652 54.3535 123.71 54.3537 123.77V123.772Z" fill="#CCCCCC"/>
<path d="M19.1954 40.2397C22.2152 40.2397 24.6633 37.7938 24.6633 34.7767C24.6633 31.7596 22.2152 29.3137 19.1954 29.3137C16.1756 29.3137 13.7275 31.7596 13.7275 34.7767C13.7275 37.7938 16.1756 40.2397 19.1954 40.2397Z" fill="#A0616A"/>
<path d="M39.493 38.9709L31.0568 45.44C31.0568 45.44 25.0493 47.5365 23.1055 49.5176L24.7579 53.4374L32.2819 50.8797L41.6014 41.445C41.9262 41.3859 42.2297 41.2423 42.4813 41.0288C42.7329 40.8152 42.9238 40.5392 43.0347 40.2285C43.1456 39.9178 43.1727 39.5835 43.1131 39.259C43.0536 38.9346 42.9096 38.6315 42.6955 38.3804C42.4815 38.1292 42.205 37.9389 41.8939 37.8284C41.5829 37.7179 41.2481 37.6913 40.9235 37.7512C40.5988 37.811 40.2957 37.9553 40.0445 38.1694C39.7934 38.3835 39.6032 38.66 39.493 38.9709Z" fill="#A0616A"/>
<path d="M32.4513 51.2521L20.7321 54.6806L16.7027 53.252C16.1195 52.9776 15.6248 52.5456 15.2744 52.0049C14.924 51.4643 14.732 50.8365 14.7199 50.1925C14.6984 48.381 16.2442 49.0276 18.0517 48.883C20.3027 47.4182 27.0169 45.2084 30.7811 45.6823L31.5936 47.1089L32.4513 51.2521Z" fill="#3F3D56"/>
<path d="M22.9447 28.4694C22.5529 28.4578 22.6874 27.7198 22.3716 27.4843C22.3701 27.4915 22.3685 27.4986 22.3669 27.5057C22.3255 27.6651 22.2339 27.8071 22.1057 27.9106C21.9775 28.0141 21.8195 28.0738 21.6548 28.0808C21.4901 28.0878 21.3275 28.0418 21.1909 27.9496C21.0544 27.8573 20.9511 27.7237 20.8962 27.5684C20.8439 27.3887 20.7491 27.2243 20.6199 27.0888C20.4906 26.9534 20.3307 26.8509 20.1536 26.79C20.134 27.4741 19.6161 28.0678 18.9982 28.3632C18.3804 28.6587 17.676 28.7078 16.9911 28.718C16.3062 28.7281 15.6115 28.7051 14.9474 28.8726C14.2832 29.04 13.6372 29.4337 13.3535 30.0566C13.0697 30.6794 13.2722 31.537 13.8927 31.8268C13.412 31.8294 13.0041 32.2257 12.8379 32.6763C12.7017 33.1385 12.6662 33.6245 12.7337 34.1016C12.8688 35.8681 13.1982 37.77 14.4856 38.9882C15.4669 39.9167 16.8714 40.2908 18.2228 40.2854C19.5743 40.28 19.3366 40.1559 20.6434 39.8112C20.6434 39.8112 21.8857 36.253 21.5729 35.9029C21.26 35.5529 21.0002 35.105 21.0568 34.6391C21.1134 34.1733 21.6145 33.756 22.0494 33.9333C21.9763 33.7465 21.9212 33.711 21.8867 33.7205C21.9086 33.6674 21.9278 33.6132 21.9441 33.5581C22.026 33.2774 22.1733 33.0202 22.3741 32.8075C22.5748 32.5948 22.8232 32.4328 23.0989 32.3347C23.3773 32.2444 23.6767 32.2414 23.9569 32.3261C24.2371 32.4108 24.4846 32.5792 24.6662 32.8086C26.097 31.4679 25.2093 28.5366 22.9447 28.4694Z" fill="#2F2E41"/>
<path d="M115.5 6.62545H28.146C28.0551 6.62351 27.9686 6.58606 27.9051 6.52112C27.8415 6.45618 27.8059 6.36893 27.8059 6.27806C27.8059 6.18718 27.8415 6.09992 27.9051 6.03499C27.9686 5.97005 28.0551 5.9326 28.146 5.93066H115.5C115.591 5.9326 115.678 5.97005 115.741 6.03499C115.805 6.09992 115.841 6.18718 115.841 6.27806C115.841 6.36893 115.805 6.45618 115.741 6.52112C115.678 6.58606 115.591 6.62351 115.5 6.62545Z" fill="#CACACA"/>
<path d="M34.0922 4.15868C35.2166 4.15868 36.1281 3.22773 36.1281 2.07934C36.1281 0.930953 35.2166 0 34.0922 0C32.9679 0 32.0564 0.930953 32.0564 2.07934C32.0564 3.22773 32.9679 4.15868 34.0922 4.15868Z" fill="#3F3D56"/>
<path d="M41.1252 4.15868C42.2496 4.15868 43.161 3.22773 43.161 2.07934C43.161 0.930953 42.2496 0 41.1252 0C40.0008 0 39.0894 0.930953 39.0894 2.07934C39.0894 3.22773 40.0008 4.15868 41.1252 4.15868Z" fill="#3F3D56"/>
<path d="M48.1582 4.15868C49.2825 4.15868 50.194 3.22773 50.194 2.07934C50.194 0.930953 49.2825 0 48.1582 0C47.0338 0 46.1223 0.930953 46.1223 2.07934C46.1223 3.22773 47.0338 4.15868 48.1582 4.15868Z" fill="#3F3D56"/>
<path d="M111.266 0.515381H106.27C106.171 0.51734 106.077 0.558057 106.008 0.628785C105.938 0.699512 105.899 0.79461 105.899 0.893659C105.899 0.992709 105.938 1.08781 106.008 1.15854C106.077 1.22926 106.171 1.26998 106.27 1.27194H111.266C111.365 1.26998 111.459 1.22926 111.529 1.15854C111.598 1.08781 111.637 0.992709 111.637 0.893659C111.637 0.79461 111.598 0.699512 111.529 0.628785C111.459 0.558057 111.365 0.51734 111.266 0.515381Z" fill="#3F3D56"/>
<path d="M111.266 1.93408H106.27C106.171 1.93604 106.077 1.97676 106.008 2.04748C105.938 2.11821 105.899 2.21331 105.899 2.31236C105.899 2.41141 105.938 2.50651 106.008 2.57724C106.077 2.64796 106.171 2.68868 106.27 2.69064H111.266C111.365 2.68868 111.459 2.64796 111.529 2.57724C111.598 2.50651 111.637 2.41141 111.637 2.31236C111.637 2.21331 111.598 2.11821 111.529 2.04748C111.459 1.97676 111.365 1.93604 111.266 1.93408Z" fill="#3F3D56"/>
<path d="M111.266 3.35083H106.27C106.171 3.35279 106.077 3.3935 106.008 3.46423C105.938 3.53496 105.899 3.63006 105.899 3.72911C105.899 3.82816 105.938 3.92326 106.008 3.99398C106.077 4.06471 106.171 4.10543 106.27 4.10739H111.266C111.365 4.10543 111.459 4.06471 111.529 3.99398C111.598 3.92326 111.637 3.82816 111.637 3.72911C111.637 3.63006 111.598 3.53496 111.529 3.46423C111.459 3.3935 111.365 3.35279 111.266 3.35083Z" fill="#3F3D56"/>
<path d="M69.0455 26.1321V31.3499C69.0455 31.6093 68.5918 31.8264 67.9803 31.8859C67.9751 31.8856 67.9699 31.8863 67.9649 31.8878C67.863 31.8955 67.7553 31.9013 67.6457 31.9013C67.3086 31.9075 66.9731 31.8528 66.6554 31.7399C66.6266 31.7284 66.5977 31.7149 66.5689 31.7034C66.542 31.688 66.5131 31.6746 66.4862 31.6592C66.3343 31.5689 66.2458 31.4633 66.2458 31.3499V26.1321H69.0455Z" fill="#CCCCCC"/>
<path d="M111.546 90.3241C112.859 90.3241 113.925 89.2599 113.925 87.9472C113.925 86.6345 112.859 85.5703 111.546 85.5703C110.232 85.5703 109.167 86.6345 109.167 87.9472C109.167 89.2599 110.232 90.3241 111.546 90.3241Z" fill="#3F3D56"/>
<path d="M111.367 88.8972C111.362 88.8972 111.357 88.897 111.352 88.8968C111.307 88.8946 111.264 88.8828 111.224 88.8621C111.184 88.8415 111.149 88.8125 111.122 88.7771L110.724 88.2664C110.699 88.2342 110.68 88.1973 110.67 88.1579C110.659 88.1185 110.656 88.0774 110.661 88.0369C110.666 87.9964 110.679 87.9572 110.699 87.9217C110.719 87.8862 110.746 87.855 110.779 87.83L110.793 87.8188C110.825 87.7937 110.862 87.7752 110.902 87.7644C110.941 87.7535 110.982 87.7506 111.023 87.7556C111.063 87.7607 111.102 87.7737 111.138 87.7939C111.174 87.8141 111.205 87.8411 111.23 87.8734C111.25 87.8991 111.275 87.9203 111.304 87.9353C111.333 87.9504 111.365 87.959 111.398 87.9606C111.431 87.9621 111.463 87.9567 111.493 87.9445C111.524 87.9323 111.551 87.9138 111.574 87.8901L112.381 87.0386C112.438 86.9788 112.516 86.944 112.598 86.9418C112.681 86.9395 112.761 86.9701 112.821 87.0267L112.834 87.0393C112.864 87.0674 112.888 87.101 112.904 87.1383C112.921 87.1756 112.93 87.2158 112.931 87.2567C112.932 87.2975 112.925 87.3381 112.911 87.3763C112.896 87.4144 112.874 87.4493 112.846 87.479L111.593 88.8001C111.564 88.8308 111.529 88.8552 111.49 88.8719C111.452 88.8886 111.41 88.8972 111.367 88.8972Z" fill="white"/>
<path d="M124.621 46.1378C125.935 46.1378 127 45.0737 127 43.7609C127 42.4482 125.935 41.384 124.621 41.384C123.307 41.384 122.242 42.4482 122.242 43.7609C122.242 45.0737 123.307 46.1378 124.621 46.1378Z" fill="#3F3D56"/>
<path d="M124.443 44.7107C124.438 44.7107 124.433 44.7105 124.428 44.7103C124.383 44.7081 124.339 44.6963 124.299 44.6756C124.259 44.655 124.225 44.6259 124.197 44.5906L123.799 44.0799C123.774 44.0476 123.756 44.0108 123.745 43.9714C123.734 43.932 123.731 43.8909 123.736 43.8504C123.741 43.8098 123.754 43.7707 123.775 43.7352C123.795 43.6997 123.822 43.6685 123.854 43.6434L123.868 43.6323C123.901 43.6072 123.938 43.5887 123.977 43.5779C124.016 43.567 124.058 43.564 124.098 43.5691C124.139 43.5742 124.178 43.5872 124.213 43.6074C124.249 43.6276 124.28 43.6546 124.305 43.6869C124.325 43.7126 124.351 43.7337 124.38 43.7488C124.409 43.7638 124.441 43.7724 124.473 43.774C124.506 43.7756 124.539 43.7701 124.569 43.758C124.599 43.7458 124.627 43.7273 124.649 43.7036L125.456 42.8521C125.513 42.7923 125.591 42.7575 125.674 42.7552C125.756 42.753 125.836 42.7835 125.896 42.8402L125.91 42.8528C125.939 42.8809 125.963 42.9145 125.98 42.9518C125.997 42.9891 126.006 43.0293 126.007 43.0701C126.008 43.111 126.001 43.1516 125.986 43.1898C125.972 43.2279 125.95 43.2628 125.922 43.2924L124.669 44.6135C124.64 44.6442 124.605 44.6687 124.566 44.6854C124.527 44.7021 124.485 44.7107 124.443 44.7107Z" fill="white"/>
</g>
<defs>
<clipPath id="clip0_225_2898">
<rect width="127" height="124" fill="white"/>
</clipPath>
</defs>
</svg>
