<svg width="102" height="114" viewBox="0 0 102 114" fill="none" xmlns="http://www.w3.org/2000/svg">
<g clip-path="url(#clip0_211_765)">
<path d="M39.1065 69.8185C39.6861 70.9313 39.5772 72.1299 38.8631 72.4957C38.1491 72.8616 37.1004 72.256 36.5207 71.1432C36.267 70.6561 36.1452 70.1526 36.1484 69.7096L33.752 64.9639L36.0215 63.896L38.1431 68.6877C38.5091 68.9415 38.8528 69.3314 39.1065 69.8185Z" fill="#FFB6B6"/>
<path d="M21.2726 112.639L23.3159 112.639L24.2879 104.823L21.2722 104.823L21.2726 112.639Z" fill="#FFB6B6"/>
<path d="M28.2732 112.593C28.3368 112.699 28.3704 113.042 28.3704 113.166C28.3704 113.546 28.0599 113.854 27.6769 113.854H21.3492C21.0879 113.854 20.8761 113.644 20.8761 113.384V113.123C20.8761 113.123 20.563 112.338 21.2075 111.37C21.2075 111.37 22.0085 112.128 23.2054 110.941L23.5583 110.307L26.1132 112.16L27.5293 112.333C27.8391 112.371 28.1138 112.327 28.2732 112.593Z" fill="#2F2E41"/>
<path d="M11.6869 112.639L13.7302 112.639L14.7022 104.823L11.6865 104.823L11.6869 112.639Z" fill="#FFB6B6"/>
<path d="M18.6875 112.593C18.7511 112.699 18.7847 113.042 18.7847 113.166C18.7847 113.546 18.4742 113.854 18.0912 113.854H11.7635C11.5022 113.854 11.2904 113.644 11.2904 113.384V113.123C11.2904 113.123 10.9773 112.338 11.6218 111.37C11.6218 111.37 12.4228 112.128 13.6197 110.941L13.9726 110.307L16.5275 112.16L17.9436 112.333C18.2534 112.371 18.5281 112.327 18.6875 112.593Z" fill="#2F2E41"/>
<path d="M8.79485 66.5227L7.93408 71.7395L10.612 88.6228L11.2815 109.016H14.8971L16.7331 89.761L16.5418 77.0511L20.8456 109.205H24.6028L24.9582 68.894L8.79485 66.5227Z" fill="#2F2E41"/>
<path d="M13.2899 39.4905H20.0585L25.9145 42.9051C25.0031 42.6754 24.299 51.0611 24.275 58.4707C24.2734 58.963 23.7815 59.5291 23.786 60.01C23.79 60.4244 24.2896 60.7554 24.2983 61.1574C24.3064 61.5331 24.3166 61.9025 24.329 62.2644C24.3393 62.5648 23.7727 62.9627 23.786 63.2517C23.8031 63.6208 24.4011 63.8772 24.4233 64.2247C24.5599 66.3606 24.7952 68.0528 25.1494 68.8941C25.1494 68.8941 10.0381 73.0675 8.89036 66.6177C8.89036 66.6177 8.9559 64.2994 8.9467 61.098C8.94589 60.814 8.70197 60.5563 8.69988 60.2594C8.69833 60.0386 8.9389 59.7812 8.93655 59.5543C8.93462 59.3677 8.7024 59.2028 8.69988 59.0126C8.69838 58.8992 8.92676 58.7616 8.92503 58.647C8.83326 52.5593 8.4211 44.8873 6.97754 42.9051L13.2899 39.4905Z" fill="#FC773F"/>
<path d="M19.9849 39.4905C19.9849 39.4905 24.3709 41.0712 25.7626 42.3304C26.5021 42.9996 31.4618 55.615 31.4618 55.615L38.3506 67.513L34.7698 68.8619L27.4449 57.8914L24.1931 50.6828L19.9849 39.4905Z" fill="#FC773F"/>
<path d="M10.8876 70.2687C11.5273 71.3486 11.4841 72.5513 10.7912 72.9551C10.0982 73.3588 9.01786 72.8106 8.37815 71.7307C8.09813 71.2579 7.94899 70.7617 7.92788 70.3192L5.27515 65.7095L7.48291 64.521L9.86366 69.1914C10.2431 69.4251 10.6076 69.7959 10.8876 70.2687Z" fill="#FFB6B6"/>
<path d="M12.3335 45.3712L10.4207 41.0081C10.4207 41.0081 5.92557 42.4308 5.92557 44.5175C5.92557 44.5175 3.24762 60.4524 3.63018 64.4361L6.11685 68.7992L9.65557 66.0485L7.45583 61.0215L12.3335 45.3712Z" fill="#FC773F"/>
<path d="M8.39966 73.7172L10.656 69.2734L13.29 72.8777L10.9194 75.1542L8.39966 73.7172Z" fill="#2F2E41"/>
<path d="M16.6106 38.2371C19.0283 38.2371 20.9882 36.2934 20.9882 33.8957C20.9882 31.4979 19.0283 29.5542 16.6106 29.5542C14.1929 29.5542 12.2329 31.4979 12.2329 33.8957C12.2329 36.2934 14.1929 38.2371 16.6106 38.2371Z" fill="#FFB6B6"/>
<path d="M20.0241 29.0458C19.2634 28.8042 18.9034 27.9068 18.2075 27.5178C17.438 27.0876 16.5173 26.819 15.6687 27.0624C15.148 27.2118 14.6944 27.5419 14.1733 27.69C14.0823 27.7158 13.9864 27.7337 13.8891 27.7429C13.3288 27.7958 12.8477 28.1291 12.5676 28.6134L12.5603 28.6259C12.3959 28.9049 12.1622 29.136 11.9548 29.3852C11.198 30.2948 10.7883 31.4769 10.7968 32.6561C10.8058 33.9237 11.2976 35.1822 12.1523 36.1248L12.3706 36.025C12.8982 36.477 13.4258 36.9289 13.9534 37.3809C13.6663 36.3534 13.3765 35.29 13.5285 34.2345C13.6805 33.1791 14.3962 32.126 15.4514 31.9222C15.8506 31.8452 16.2716 31.8918 16.6592 31.7694C17.0467 31.647 17.4036 31.2519 17.2707 30.8707C17.5106 31.4998 18.4056 31.4627 19.0216 31.7441C20.4004 32.3741 19.8957 31.4005 21.0925 32.3266C21.4968 30.1046 23.0453 30.0054 20.0241 29.0458Z" fill="#2F2E41"/>
<path d="M0 113.703C0 113.868 0.133269 114 0.299224 114H101.701C101.867 114 102 113.868 102 113.703C102 113.539 101.867 113.406 101.701 113.406H0.299224C0.133269 113.406 0 113.539 0 113.703Z" fill="#CCCCCC"/>
<path d="M88.4355 114H44.076C38.6671 114 34.2666 109.636 34.2666 104.272V9.72824C34.2666 4.3641 38.6671 0 44.076 0H88.4355C93.8442 0 98.2447 4.3641 98.2447 9.72824V104.272C98.2447 109.636 93.8442 114 88.4355 114Z" fill="#3F3D56"/>
<path d="M98.2448 34.7761C98.0159 34.7761 97.8298 34.9607 97.8298 35.1877V48.3573C97.8298 48.5843 98.0159 48.7689 98.2448 48.7689C98.4737 48.7689 98.6598 48.5843 98.6598 48.3573V35.1877C98.6598 34.9607 98.4737 34.7761 98.2448 34.7761Z" fill="#3F3D56"/>
<path d="M97.3111 9.72838V104.27C97.3111 108.939 93.6468 112.758 89.0135 113.055H89.0115C88.943 113.059 88.8745 113.063 88.804 113.065C88.6815 113.071 88.5591 113.073 88.4346 113.073C88.4346 113.073 87.9782 113.04 87.144 112.979C86.3016 112.917 85.0754 112.824 83.5461 112.703C83.0876 112.668 82.6041 112.629 82.0937 112.588C81.077 112.505 79.9607 112.415 78.7634 112.312C78.2862 112.273 77.7924 112.23 77.2882 112.186C74.7111 111.966 71.8249 111.709 68.781 111.417C68.2664 111.369 67.7477 111.32 67.2248 111.269C67.0879 111.254 66.9489 111.242 66.8099 111.227C64.6395 111.015 35.2004 105.373 35.2004 104.27V9.72838C35.2004 4.86591 39.1739 0.925293 44.0769 0.925293H49.3763C50.2228 0.925293 50.9034 1.57966 50.976 2.41717C50.9823 2.47273 50.9885 2.52828 50.9989 2.58385C51.1524 3.42548 51.9305 4.01193 52.7937 4.01193H79.7179C80.5811 4.01193 81.3592 3.42548 81.5127 2.58385C81.5231 2.52828 81.5293 2.47273 81.5355 2.41717C81.6082 1.57966 82.2887 0.925293 83.1353 0.925293H88.4346C93.3377 0.925293 97.3111 4.86591 97.3111 9.72838Z" fill="white"/>
<path d="M34.0593 24.8989C33.8304 24.8989 33.6443 25.0835 33.6443 25.3105V28.6029C33.6443 28.8299 33.8304 29.0144 34.0593 29.0144C34.2881 29.0144 34.4743 28.8299 34.4743 28.6029V25.3105C34.4743 25.0835 34.2881 24.8989 34.0593 24.8989Z" fill="#3F3D56"/>
<path d="M34.0593 34.7761C33.8304 34.7761 33.6443 34.9607 33.6443 35.1877V41.5667C33.6443 41.7937 33.8304 41.9783 34.0593 41.9783C34.2881 41.9783 34.4743 41.7937 34.4743 41.5667V35.1877C34.4743 34.9607 34.2881 34.7761 34.0593 34.7761Z" fill="#3F3D56"/>
<path d="M34.0593 43.8303C33.8304 43.8303 33.6443 44.0149 33.6443 44.2419V50.6209C33.6443 50.8479 33.8304 51.0325 34.0593 51.0325C34.2881 51.0325 34.4743 50.8479 34.4743 50.6209V44.2419C34.4743 44.0149 34.2881 43.8303 34.0593 43.8303Z" fill="#3F3D56"/>
<path d="M49.2317 2.36646H41.2955C41.2525 2.36646 41.2175 2.40109 41.2175 2.44381V3.31798C41.2175 3.3607 41.2525 3.39534 41.2955 3.39534H49.2317C49.2748 3.39534 49.3097 3.3607 49.3097 3.31798V2.44381C49.3097 2.40109 49.2748 2.36646 49.2317 2.36646Z" fill="#E6E6E6"/>
<path d="M84.4467 3.39523C84.9051 3.39523 85.2766 3.02672 85.2766 2.57213C85.2766 2.11754 84.9051 1.74902 84.4467 1.74902C83.9883 1.74902 83.6167 2.11754 83.6167 2.57213C83.6167 3.02672 83.9883 3.39523 84.4467 3.39523Z" fill="#E6E6E6"/>
<path d="M86.7289 3.39523C87.1873 3.39523 87.5589 3.02672 87.5589 2.57213C87.5589 2.11754 87.1873 1.74902 86.7289 1.74902C86.2705 1.74902 85.8989 2.11754 85.8989 2.57213C85.8989 3.02672 86.2705 3.39523 86.7289 3.39523Z" fill="#E6E6E6"/>
<path d="M89.0114 3.39523C89.4697 3.39523 89.8413 3.02672 89.8413 2.57213C89.8413 2.11754 89.4697 1.74902 89.0114 1.74902C88.553 1.74902 88.1814 2.11754 88.1814 2.57213C88.1814 3.02672 88.553 3.39523 89.0114 3.39523Z" fill="#E6E6E6"/>
<path d="M83.8562 23.7285H48.6552C48.1006 23.7285 47.6494 23.281 47.6494 22.7311C47.6494 22.1811 48.1006 21.7336 48.6552 21.7336H83.8562C84.4107 21.7336 84.8619 22.1811 84.8619 22.7311C84.8619 23.281 84.4107 23.7285 83.8562 23.7285Z" fill="#E6E6E6"/>
<path d="M89.7752 102.65H76.7006C76.146 102.65 75.6948 102.202 75.6948 101.652C75.6948 101.102 76.146 100.655 76.7006 100.655H89.7752C90.3298 100.655 90.781 101.102 90.781 101.652C90.781 102.202 90.3298 102.65 89.7752 102.65Z" fill="#E6E6E6"/>
<path d="M54.8255 102.65H41.7509C41.1963 102.65 40.7451 102.202 40.7451 101.652C40.7451 101.102 41.1963 100.655 41.7509 100.655H54.8255C55.3801 100.655 55.8313 101.102 55.8313 101.652C55.8313 102.202 55.3801 102.65 54.8255 102.65Z" fill="#E6E6E6"/>
<path d="M90.7808 26.4087H41.7305V26.658H90.7808V26.4087Z" fill="#3F3D56"/>
<path d="M83.8562 38.9392H48.6552C48.1006 38.9392 47.6494 38.4917 47.6494 37.9418C47.6494 37.3918 48.1006 36.9443 48.6552 36.9443H83.8562C84.4107 36.9443 84.8619 37.3918 84.8619 37.9418C84.8619 38.4917 84.4107 38.9392 83.8562 38.9392Z" fill="#E6E6E6"/>
<path d="M90.7808 41.6194H41.7305V41.8687H90.7808V41.6194Z" fill="#3F3D56"/>
<path d="M83.8562 54.1501H48.6552C48.1006 54.1501 47.6494 53.7027 47.6494 53.1527C47.6494 52.6027 48.1006 52.1553 48.6552 52.1553H83.8562C84.4107 52.1553 84.8619 52.6027 84.8619 53.1527C84.8619 53.7027 84.4107 54.1501 83.8562 54.1501Z" fill="#E6E6E6"/>
<path d="M90.7808 56.8301H41.7305V57.0794H90.7808V56.8301Z" fill="#3F3D56"/>
<path d="M90.7808 69.7966H41.7305V70.046H90.7808V69.7966Z" fill="#3F3D56"/>
<path d="M90.7808 82.7632H41.7305V83.0125H90.7808V82.7632Z" fill="#3F3D56"/>
<path d="M66.6009 91.8844C74.655 91.8844 81.1841 85.4092 81.1841 77.4217C81.1841 69.4342 74.655 62.959 66.6009 62.959C58.5467 62.959 52.0176 69.4342 52.0176 77.4217C52.0176 85.4092 58.5467 91.8844 66.6009 91.8844Z" fill="#FC773F"/>
</g>
<defs>
<clipPath id="clip0_211_765">
<rect width="102" height="114" fill="white"/>
</clipPath>
</defs>
</svg>
