<svg width="252" height="136" viewBox="0 0 252 136" fill="none" xmlns="http://www.w3.org/2000/svg">
<g clip-path="url(#clip0_726_12609)">
<path d="M36.3662 117.954H214.291V107.242C214.291 105.004 211.591 102.802 206.884 101.2L206.836 101.183C203.658 100.063 183.343 92.0939 172.355 92.3349C166.55 92.4619 161.581 93.4446 157.585 95.2557C145.146 100.896 128.806 102.979 120.173 101.342C112.565 99.8994 91.6793 97.5135 83.9622 97.6213C73.1543 97.7698 73.1226 99.5732 62.0284 105.394C57.7911 107.615 56.2063 107.893 36.3662 109.665V117.954Z" fill="#F2F2F2"/>
<path d="M7.68242 102.209C7.29499 96.4613 9.73787 90.6553 14.7997 88.522C13.7765 94.4435 15.0372 101.024 18.2881 106.728C19.5542 108.95 21.1803 111.322 20.8342 113.644C20.6189 115.088 19.635 116.235 18.4328 116.982C17.2304 117.728 15.8137 118.127 14.4142 118.518L14.1726 118.772C10.8466 113.627 8.06986 107.956 7.68242 102.209Z" fill="#F2F2F2"/>
<path d="M14.8741 88.6271C12.3638 92.4872 11.2485 97.0878 11.7129 101.667C11.7897 102.713 12.0242 103.742 12.4086 104.718C12.829 105.696 13.4738 106.561 14.2908 107.244C15.0471 107.902 15.8861 108.498 16.4917 109.306C16.7906 109.7 17.0069 110.15 17.1276 110.629C17.2483 111.108 17.2709 111.607 17.1942 112.095C17.0177 113.252 16.418 114.219 15.7952 115.139C15.1037 116.16 14.3673 117.208 14.2418 118.522C14.2266 118.681 13.9719 118.613 13.987 118.454C14.2053 116.168 16.1356 114.778 16.7844 112.696C16.9608 112.193 17.021 111.657 16.9604 111.127C16.8998 110.598 16.72 110.089 16.4345 109.638C15.8702 108.785 15.0054 108.169 14.2347 107.509C13.4278 106.85 12.7715 106.027 12.31 105.094C11.8788 104.134 11.6055 103.112 11.5008 102.065C11.239 99.8082 11.3463 97.5239 11.8183 95.3015C12.3231 92.8555 13.2913 90.5284 14.6707 88.4453C14.7554 88.3184 14.9582 88.501 14.8741 88.6271Z" fill="white"/>
<path d="M11.4863 100.129C10.6537 99.9662 9.89251 99.5481 9.30879 98.9331C8.72506 98.318 8.34779 97.5365 8.22946 96.6974C8.21115 96.534 8.46561 96.5337 8.48394 96.6972C8.5928 97.4787 8.94418 98.2064 9.48865 98.7781C10.0331 99.3498 10.7433 99.7366 11.5193 99.8842C11.5356 99.8861 11.5513 99.8912 11.5656 99.8993C11.5799 99.9074 11.5924 99.9182 11.6025 99.9312C11.6125 99.9441 11.6199 99.9589 11.6241 99.9747C11.6284 99.9906 11.6295 100.007 11.6273 100.023C11.6251 100.04 11.6197 100.055 11.6114 100.069C11.6031 100.083 11.5921 100.096 11.579 100.106C11.5659 100.115 11.5509 100.123 11.535 100.127C11.5191 100.131 11.5026 100.131 11.4863 100.129Z" fill="white"/>
<path d="M13.8697 106.955C14.491 106.492 15.0072 105.903 15.3844 105.227C15.7615 104.551 15.9911 103.803 16.0579 103.032C16.0737 102.873 16.3285 102.941 16.3127 103.1C16.2416 103.902 16.001 104.68 15.607 105.382C15.2129 106.085 14.6743 106.696 14.0265 107.175C13.9026 107.266 13.7464 107.045 13.8697 106.955Z" fill="white"/>
<path d="M12.6197 93.0443C12.9101 93.169 13.2276 93.2176 13.542 93.1852C13.8564 93.1529 14.1574 93.0407 14.4163 92.8595C14.5388 92.7671 14.6949 92.9888 14.5732 93.0805C14.2863 93.2795 13.9539 93.4029 13.6067 93.4394C13.2595 93.4759 12.9087 93.4243 12.5867 93.2894C12.5533 93.2797 12.5242 93.259 12.504 93.2306C12.4839 93.2022 12.4739 93.1679 12.4758 93.1331C12.4782 93.1172 12.484 93.1019 12.4928 93.0885C12.5017 93.075 12.5134 93.0637 12.5271 93.0552C12.5408 93.0467 12.5562 93.0414 12.5722 93.0395C12.5882 93.0376 12.6044 93.0392 12.6197 93.0443Z" fill="white"/>
<path d="M33.268 97.8858C33.1935 97.9458 33.119 98.0058 33.0448 98.0679C32.0497 98.8787 31.1326 99.7806 30.3056 100.762C30.2403 100.837 30.1754 100.913 30.1128 100.99C28.1342 103.408 26.6859 106.215 25.8616 109.227C25.5235 110.456 25.2862 111.71 25.1521 112.977C24.9637 114.744 24.9052 116.695 24.1451 118.171C24.068 118.325 23.9801 118.474 23.8821 118.617L14.5488 119.09C14.5255 119.08 14.5026 119.073 14.4792 119.063L14.1099 119.099C14.1121 119.032 14.1159 118.962 14.1182 118.895C14.1194 118.856 14.1226 118.817 14.1237 118.778C14.1252 118.752 14.1267 118.726 14.1264 118.703C14.1269 118.694 14.1274 118.685 14.1283 118.679C14.128 118.655 14.1304 118.633 14.1305 118.612C14.1508 118.224 14.1732 117.836 14.1999 117.447C14.1995 117.445 14.1995 117.445 14.2012 117.443C14.3616 114.523 14.8923 111.636 15.7805 108.85C15.808 108.769 15.835 108.685 15.8667 108.604C16.281 107.396 16.8052 106.229 17.4329 105.117C17.7759 104.516 18.1534 103.934 18.5637 103.376C19.6258 101.938 20.9395 100.705 22.4414 99.7338C23.9744 98.714 25.6998 98.0177 27.5118 97.6875C29.3238 97.3574 31.1843 97.4004 32.979 97.814C33.0759 97.8372 33.1707 97.8605 33.268 97.8858Z" fill="#F2F2F2"/>
<path d="M33.2699 98.0062C28.895 99.1046 25.0589 101.732 22.4571 105.413C21.8859 106.197 21.4587 107.075 21.1953 108.008C20.9658 108.978 21.0032 109.992 21.3037 110.943C21.567 111.867 21.9414 112.796 21.9796 113.737C22.0006 114.197 21.9123 114.655 21.7219 115.074C21.5315 115.494 21.2444 115.862 20.8841 116.15C20.0165 116.869 18.8926 117.199 17.7768 117.481C16.5378 117.794 15.243 118.099 14.3241 118.962C14.2127 119.066 14.0293 118.865 14.1405 118.76C15.7393 117.26 18.2992 117.428 20.1527 116.332C21.0176 115.821 21.6936 115.024 21.7244 113.94C21.7512 112.991 21.366 112.032 21.0915 111.098C20.7857 110.169 20.7119 109.181 20.8768 108.217C21.0877 107.27 21.4774 106.371 22.0252 105.569C23.2132 103.769 24.7176 102.198 26.4657 100.933C28.489 99.4564 30.7751 98.3776 33.2021 97.7542C33.3549 97.7145 33.4217 97.9667 33.2699 98.0062Z" fill="white"/>
<path d="M23.2039 104.179C21.9069 102.954 21.5824 101.067 22.4382 99.7722C22.5225 99.6446 22.7474 99.7973 22.663 99.925C21.8613 101.138 22.1712 102.879 23.3836 104.024C23.5112 104.144 23.3308 104.299 23.2039 104.179Z" fill="white"/>
<path d="M21.11 110.483C21.8971 110.542 22.6882 110.442 23.4351 110.186C24.1821 109.931 24.8693 109.527 25.4551 108.999C25.5669 108.895 25.7504 109.096 25.6388 109.2C25.0278 109.749 24.3115 110.168 23.5335 110.432C22.7555 110.695 21.9319 110.799 21.1127 110.735C20.9475 110.725 20.9457 110.473 21.11 110.483Z" fill="white"/>
<path d="M28.5624 99.8036C28.7586 100.077 29.0127 100.303 29.3066 100.467C29.6005 100.631 29.9269 100.728 30.2627 100.752C30.4276 100.759 30.4293 101.011 30.2654 101.004C29.8945 100.976 29.534 100.868 29.2089 100.688C28.8838 100.508 28.6019 100.259 28.3827 99.9585C28.3593 99.9349 28.3461 99.9031 28.3457 99.8699C28.3454 99.8367 28.3579 99.8046 28.3807 99.7804C28.4083 99.7604 28.4424 99.7517 28.4762 99.756C28.51 99.7603 28.5408 99.7773 28.5624 99.8036Z" fill="white"/>
<path d="M241.356 102.209C241.743 96.4613 239.3 90.6553 234.238 88.522C235.262 94.4435 234.001 101.024 230.75 106.728C229.484 108.95 227.858 111.322 228.204 113.644C228.419 115.088 229.403 116.235 230.605 116.982C231.808 117.728 233.225 118.127 234.624 118.518L234.866 118.772C238.192 113.627 240.968 107.956 241.356 102.209Z" fill="#F2F2F2"/>
<path d="M234.164 88.6271C236.674 92.4872 237.789 97.0878 237.325 101.667C237.248 102.713 237.014 103.742 236.629 104.718C236.209 105.696 235.564 106.561 234.747 107.244C233.991 107.902 233.152 108.498 232.546 109.306C232.247 109.7 232.031 110.15 231.91 110.629C231.79 111.108 231.767 111.607 231.844 112.095C232.02 113.252 232.62 114.219 233.243 115.139C233.934 116.16 234.671 117.208 234.796 118.522C234.811 118.681 235.066 118.613 235.051 118.454C234.833 116.168 232.902 114.778 232.254 112.696C232.077 112.193 232.017 111.657 232.078 111.127C232.138 110.598 232.318 110.089 232.604 109.638C233.168 108.785 234.033 108.169 234.803 107.509C235.61 106.85 236.267 106.027 236.728 105.094C237.159 104.134 237.433 103.112 237.537 102.065C237.799 99.8082 237.692 97.5239 237.22 95.3015C236.715 92.8555 235.747 90.5284 234.367 88.4453C234.283 88.3184 234.08 88.501 234.164 88.6271Z" fill="white"/>
<path d="M237.551 100.129C238.384 99.9662 239.145 99.5481 239.729 98.9331C240.313 98.318 240.69 97.5365 240.808 96.6974C240.826 96.534 240.572 96.5337 240.554 96.6972C240.445 97.4787 240.093 98.2064 239.549 98.7781C239.004 99.3498 238.294 99.7366 237.518 99.8842C237.502 99.8861 237.486 99.8912 237.472 99.8993C237.458 99.9074 237.445 99.9182 237.435 99.9312C237.425 99.9441 237.418 99.9589 237.413 99.9747C237.409 99.9906 237.408 100.007 237.41 100.023C237.412 100.04 237.418 100.055 237.426 100.069C237.434 100.083 237.445 100.096 237.459 100.106C237.472 100.115 237.487 100.123 237.503 100.127C237.518 100.131 237.535 100.131 237.551 100.129Z" fill="white"/>
<path d="M235.168 106.955C234.547 106.492 234.031 105.903 233.654 105.227C233.276 104.551 233.047 103.803 232.98 103.032C232.964 102.873 232.71 102.941 232.725 103.1C232.796 103.902 233.037 104.68 233.431 105.382C233.825 106.085 234.364 106.696 235.011 107.175C235.135 107.266 235.292 107.045 235.168 106.955Z" fill="white"/>
<path d="M236.418 93.0443C236.128 93.169 235.81 93.2176 235.496 93.1852C235.181 93.1529 234.88 93.0407 234.621 92.8595C234.499 92.7671 234.343 92.9888 234.464 93.0805C234.751 93.2795 235.084 93.4029 235.431 93.4394C235.778 93.4759 236.129 93.4243 236.451 93.2894C236.484 93.2797 236.514 93.259 236.534 93.2306C236.554 93.2022 236.564 93.1679 236.562 93.1331C236.56 93.1172 236.554 93.1019 236.545 93.0885C236.536 93.075 236.524 93.0637 236.511 93.0552C236.497 93.0467 236.481 93.0414 236.465 93.0395C236.449 93.0376 236.433 93.0392 236.418 93.0443Z" fill="white"/>
<path d="M215.77 97.8858C215.845 97.9458 215.919 98.0058 215.993 98.0679C216.988 98.8787 217.905 99.7806 218.732 100.762C218.798 100.836 218.863 100.913 218.925 100.99C220.904 103.408 222.352 106.215 223.176 109.227C223.514 110.456 223.752 111.71 223.886 112.977C224.074 114.744 224.133 116.695 224.893 118.171C224.97 118.325 225.058 118.474 225.156 118.617L234.489 119.09C234.512 119.08 234.535 119.073 234.559 119.063L234.928 119.099C234.926 119.032 234.922 118.962 234.92 118.895C234.919 118.856 234.915 118.817 234.914 118.778C234.913 118.752 234.911 118.726 234.912 118.703C234.911 118.694 234.911 118.685 234.91 118.679C234.91 118.655 234.908 118.633 234.907 118.612C234.887 118.224 234.865 117.836 234.838 117.447C234.839 117.445 234.838 117.445 234.837 117.443C234.676 114.523 234.146 111.636 233.257 108.85C233.23 108.769 233.203 108.685 233.171 108.604C232.757 107.396 232.233 106.229 231.605 105.117C231.262 104.516 230.885 103.934 230.474 103.376C229.412 101.938 228.098 100.705 226.597 99.7338C225.064 98.714 223.338 98.0177 221.526 97.6875C219.714 97.3574 217.854 97.4004 216.059 97.814C215.962 97.8372 215.867 97.8605 215.77 97.8858Z" fill="#F2F2F2"/>
<path d="M215.768 98.0062C220.143 99.1046 223.979 101.732 226.581 105.413C227.152 106.197 227.58 107.075 227.843 108.008C228.072 108.978 228.035 109.992 227.735 110.943C227.471 111.867 227.097 112.796 227.059 113.737C227.038 114.197 227.126 114.655 227.316 115.074C227.507 115.494 227.794 115.862 228.154 116.15C229.022 116.869 230.146 117.199 231.261 117.481C232.5 117.794 233.795 118.099 234.714 118.962C234.826 119.066 235.009 118.865 234.898 118.76C233.299 117.26 230.739 117.428 228.886 116.332C228.021 115.821 227.345 115.024 227.314 113.94C227.287 112.991 227.672 112.032 227.947 111.098C228.253 110.169 228.326 109.181 228.161 108.217C227.951 107.27 227.561 106.371 227.013 105.569C225.825 103.769 224.321 102.198 222.573 100.933C220.549 99.4564 218.263 98.3776 215.836 97.7542C215.683 97.7145 215.617 97.9667 215.768 98.0062Z" fill="white"/>
<path d="M225.834 104.179C227.131 102.954 227.456 101.067 226.6 99.7722C226.516 99.6446 226.291 99.7973 226.375 99.925C227.177 101.138 226.867 102.879 225.654 104.024C225.527 104.144 225.707 104.299 225.834 104.179Z" fill="white"/>
<path d="M227.929 110.483C227.142 110.542 226.351 110.442 225.604 110.186C224.857 109.931 224.169 109.527 223.584 108.999C223.472 108.895 223.288 109.096 223.4 109.2C224.011 109.749 224.727 110.168 225.505 110.432C226.283 110.695 227.107 110.799 227.926 110.735C228.091 110.725 228.093 110.473 227.929 110.483Z" fill="white"/>
<path d="M220.476 99.8036C220.28 100.077 220.026 100.303 219.732 100.467C219.438 100.631 219.111 100.728 218.776 100.752C218.611 100.759 218.609 101.011 218.773 101.004C219.144 100.976 219.504 100.868 219.829 100.688C220.154 100.508 220.436 100.259 220.656 99.9585C220.679 99.9349 220.692 99.9031 220.693 99.8699C220.693 99.8367 220.68 99.8046 220.658 99.7804C220.63 99.7604 220.596 99.7517 220.562 99.756C220.528 99.7603 220.497 99.7773 220.476 99.8036Z" fill="white"/>
<path d="M15.9569 73.7554H14.2461V74.3256H15.9569V73.7554Z" fill="#E6E6E6"/>
<path d="M231.272 74.3256H227.799V73.7554H231.272V74.3256ZM224.327 74.3256H220.854V73.7554H224.327V74.3256ZM217.381 74.3256H213.908V73.7554H217.381V74.3256ZM210.435 74.3256H206.962V73.7554H210.435V74.3256ZM203.49 74.3256H200.017V73.7554H203.49V74.3256ZM196.544 74.3256H193.071V73.7554H196.544V74.3256ZM189.598 74.3256H186.126V73.7554H189.598V74.3256ZM182.653 74.3256H179.18V73.7554H182.653L182.653 74.3256ZM175.707 74.3256H172.234V73.7554H175.707V74.3256ZM168.761 74.3256H165.289V73.7554H168.761V74.3256ZM161.816 74.3256H158.343V73.7554H161.816V74.3256ZM154.87 74.3256H151.397V73.7554H154.87V74.3256ZM147.924 74.3256H144.452V73.7554H147.924V74.3256ZM140.979 74.3256H137.506V73.7554H140.979V74.3256ZM134.033 74.3256H130.56V73.7554H134.033V74.3256ZM127.087 74.3256H123.615V73.7554H127.087V74.3256ZM120.142 74.3256H116.669V73.7554H120.142V74.3256ZM113.196 74.3256H109.723V73.7554H113.196V74.3256ZM106.25 74.3256H102.778V73.7554H106.25V74.3256ZM99.3048 74.3256H95.832V73.7554H99.3048V74.3256ZM92.3591 74.3256H88.8863V73.7554H92.3591V74.3256ZM85.4134 74.3256H81.9407V73.7554H85.4134V74.3256ZM78.4678 74.3256H74.995V73.7554H78.4678V74.3256ZM71.5221 74.3256H68.0493V73.7554H71.5221L71.5221 74.3256ZM64.5764 74.3256H61.1037V73.7554H64.5764V74.3256ZM57.6308 74.3256H54.158V73.7554H57.6308V74.3256ZM50.6851 74.3256H47.2123V73.7554H50.6851V74.3256ZM43.7395 74.3256H40.2667V73.7554H43.7395V74.3256ZM36.7938 74.3256H33.321V73.7554H36.7938V74.3256ZM29.8481 74.3256H26.3754V73.7554H29.8481V74.3256ZM22.9025 74.3256H19.4297V73.7554H22.9025V74.3256Z" fill="#E6E6E6"/>
<path d="M236.456 73.7554H234.746V74.3256H236.456V73.7554Z" fill="#E6E6E6"/>
<path d="M15.9569 69.7681H14.2461V70.3383H15.9569V69.7681Z" fill="#E6E6E6"/>
<path d="M231.272 70.3383H227.799V69.7681H231.272V70.3383ZM224.327 70.3383H220.854V69.7681H224.327V70.3383ZM217.381 70.3383H213.908V69.7681H217.381V70.3383ZM210.435 70.3383H206.962V69.7681H210.435V70.3383ZM203.49 70.3383H200.017V69.7681H203.49V70.3383ZM196.544 70.3383H193.071V69.7681H196.544V70.3383ZM189.598 70.3383H186.126V69.7681H189.598V70.3383ZM182.653 70.3383H179.18V69.7681H182.653L182.653 70.3383ZM175.707 70.3383H172.234V69.7681H175.707V70.3383ZM168.761 70.3383H165.289V69.7681H168.761V70.3383ZM161.816 70.3383H158.343V69.7681H161.816V70.3383ZM154.87 70.3383H151.397V69.7681H154.87V70.3383ZM147.924 70.3383H144.452V69.7681H147.924V70.3383ZM140.979 70.3383H137.506V69.7681H140.979V70.3383ZM134.033 70.3383H130.56V69.7681H134.033V70.3383ZM127.087 70.3383H123.615V69.7681H127.087V70.3383ZM120.142 70.3383H116.669V69.7681H120.142V70.3383ZM113.196 70.3383H109.723V69.7681H113.196V70.3383ZM106.25 70.3383H102.778V69.7681H106.25V70.3383ZM99.3048 70.3383H95.832V69.7681H99.3048V70.3383ZM92.3591 70.3383H88.8863V69.7681H92.3591V70.3383ZM85.4134 70.3383H81.9407V69.7681H85.4134V70.3383ZM78.4678 70.3383H74.995V69.7681H78.4678V70.3383ZM71.5221 70.3383H68.0493V69.7681H71.5221L71.5221 70.3383ZM64.5764 70.3383H61.1037V69.7681H64.5764V70.3383ZM57.6308 70.3383H54.158V69.7681H57.6308V70.3383ZM50.6851 70.3383H47.2123V69.7681H50.6851V70.3383ZM43.7395 70.3383H40.2667V69.7681H43.7395V70.3383ZM36.7938 70.3383H33.321V69.7681H36.7938V70.3383ZM29.8481 70.3383H26.3754V69.7681H29.8481V70.3383ZM22.9025 70.3383H19.4297V69.7681H22.9025V70.3383Z" fill="#E6E6E6"/>
<path d="M236.456 69.7681H234.746V70.3383H236.456V69.7681Z" fill="#E6E6E6"/>
<path d="M15.9569 61.5093H14.2461V62.0795H15.9569V61.5093Z" fill="#E6E6E6"/>
<path d="M231.272 62.0795H227.799V61.5093H231.272V62.0795ZM224.327 62.0795H220.854V61.5093H224.327V62.0795ZM217.381 62.0795H213.908V61.5093H217.381V62.0795ZM210.435 62.0795H206.962V61.5093H210.435V62.0795ZM203.49 62.0795H200.017V61.5093H203.49V62.0795ZM196.544 62.0795H193.071V61.5093H196.544V62.0795ZM189.598 62.0795H186.126V61.5093H189.598V62.0795ZM182.653 62.0795H179.18V61.5093H182.653L182.653 62.0795ZM175.707 62.0795H172.234V61.5093H175.707V62.0795ZM168.761 62.0795H165.289V61.5093H168.761V62.0795ZM161.816 62.0795H158.343V61.5093H161.816V62.0795ZM154.87 62.0795H151.397V61.5093H154.87V62.0795ZM147.924 62.0795H144.452V61.5093H147.924V62.0795ZM140.979 62.0795H137.506V61.5093H140.979V62.0795ZM134.033 62.0795H130.56V61.5093H134.033V62.0795ZM127.087 62.0795H123.615V61.5093H127.087V62.0795ZM120.142 62.0795H116.669V61.5093H120.142V62.0795ZM113.196 62.0795H109.723V61.5093H113.196V62.0795ZM106.25 62.0795H102.778V61.5093H106.25V62.0795ZM99.3048 62.0795H95.832V61.5093H99.3048V62.0795ZM92.3591 62.0795H88.8863V61.5093H92.3591V62.0795ZM85.4134 62.0795H81.9407V61.5093H85.4134V62.0795ZM78.4678 62.0795H74.995V61.5093H78.4678V62.0795ZM71.5221 62.0795H68.0493V61.5093H71.5221L71.5221 62.0795ZM64.5764 62.0795H61.1037V61.5093H64.5764V62.0795ZM57.6308 62.0795H54.158V61.5093H57.6308V62.0795ZM50.6851 62.0795H47.2123V61.5093H50.6851V62.0795ZM43.7395 62.0795H40.2667V61.5093H43.7395V62.0795ZM36.7938 62.0795H33.321V61.5093H36.7938V62.0795ZM29.8481 62.0795H26.3754V61.5093H29.8481V62.0795ZM22.9025 62.0795H19.4297V61.5093H22.9025V62.0795Z" fill="#E6E6E6"/>
<path d="M236.456 61.5093H234.746V62.0795H236.456V61.5093Z" fill="#E6E6E6"/>
<path d="M15.9569 55.8135H14.2461V56.3837H15.9569V55.8135Z" fill="#E6E6E6"/>
<path d="M231.272 56.3837H227.799V55.8135H231.272V56.3837ZM224.327 56.3837H220.854V55.8135H224.327V56.3837ZM217.381 56.3837H213.908V55.8135H217.381V56.3837ZM210.435 56.3837H206.962V55.8135H210.435V56.3837ZM203.49 56.3837H200.017V55.8135H203.49V56.3837ZM196.544 56.3837H193.071V55.8135H196.544V56.3837ZM189.598 56.3837H186.126V55.8135H189.598V56.3837ZM182.653 56.3837H179.18V55.8135H182.653L182.653 56.3837ZM175.707 56.3837H172.234V55.8135H175.707V56.3837ZM168.761 56.3837H165.289V55.8135H168.761V56.3837ZM161.816 56.3837H158.343V55.8135H161.816V56.3837ZM154.87 56.3837H151.397V55.8135H154.87V56.3837ZM147.924 56.3837H144.452V55.8135H147.924V56.3837ZM140.979 56.3837H137.506V55.8135H140.979V56.3837ZM134.033 56.3837H130.56V55.8135H134.033V56.3837ZM127.087 56.3837H123.615V55.8135H127.087V56.3837ZM120.142 56.3837H116.669V55.8135H120.142V56.3837ZM113.196 56.3837H109.723V55.8135H113.196V56.3837ZM106.25 56.3837H102.778V55.8135H106.25V56.3837ZM99.3048 56.3837H95.832V55.8135H99.3048V56.3837ZM92.3591 56.3837H88.8863V55.8135H92.3591V56.3837ZM85.4134 56.3837H81.9407V55.8135H85.4134V56.3837ZM78.4678 56.3837H74.995V55.8135H78.4678V56.3837ZM71.5221 56.3837H68.0493V55.8135H71.5221L71.5221 56.3837ZM64.5764 56.3837H61.1037V55.8135H64.5764V56.3837ZM57.6308 56.3837H54.158V55.8135H57.6308V56.3837ZM50.6851 56.3837H47.2123V55.8135H50.6851V56.3837ZM43.7395 56.3837H40.2667V55.8135H43.7395V56.3837ZM36.7938 56.3837H33.321V55.8135H36.7938V56.3837ZM29.8481 56.3837H26.3754V55.8135H29.8481V56.3837ZM22.9025 56.3837H19.4297V55.8135H22.9025V56.3837Z" fill="#E6E6E6"/>
<path d="M236.456 55.8135H234.746V56.3837H236.456V55.8135Z" fill="#E6E6E6"/>
<path d="M15.9569 43.5679H14.2461V44.1381H15.9569V43.5679Z" fill="#E6E6E6"/>
<path d="M231.272 44.1381H227.799V43.5679H231.272V44.1381ZM224.327 44.1381H220.854V43.5679H224.327V44.1381ZM217.381 44.1381H213.908V43.5679H217.381V44.1381ZM210.435 44.1381H206.962V43.5679H210.435V44.1381ZM203.49 44.1381H200.017V43.5679H203.49V44.1381ZM196.544 44.1381H193.071V43.5679H196.544V44.1381ZM189.598 44.1381H186.126V43.5679H189.598V44.1381ZM182.653 44.1381H179.18V43.5679H182.653L182.653 44.1381ZM175.707 44.1381H172.234V43.5679H175.707V44.1381ZM168.761 44.1381H165.289V43.5679H168.761V44.1381ZM161.816 44.1381H158.343V43.5679H161.816V44.1381ZM154.87 44.1381H151.397V43.5679H154.87V44.1381ZM147.924 44.1381H144.452V43.5679H147.924V44.1381ZM140.979 44.1381H137.506V43.5679H140.979V44.1381ZM134.033 44.1381H130.56V43.5679H134.033V44.1381ZM127.087 44.1381H123.615V43.5679H127.087V44.1381ZM120.142 44.1381H116.669V43.5679H120.142V44.1381ZM113.196 44.1381H109.723V43.5679H113.196V44.1381ZM106.25 44.1381H102.778V43.5679H106.25V44.1381ZM99.3048 44.1381H95.832V43.5679H99.3048V44.1381ZM92.3591 44.1381H88.8863V43.5679H92.3591V44.1381ZM85.4134 44.1381H81.9407V43.5679H85.4134V44.1381ZM78.4678 44.1381H74.995V43.5679H78.4678V44.1381ZM71.5221 44.1381H68.0493V43.5679H71.5221L71.5221 44.1381ZM64.5764 44.1381H61.1037V43.5679H64.5764V44.1381ZM57.6308 44.1381H54.158V43.5679H57.6308V44.1381ZM50.6851 44.1381H47.2123V43.5679H50.6851V44.1381ZM43.7395 44.1381H40.2667V43.5679H43.7395V44.1381ZM36.7938 44.1381H33.321V43.5679H36.7938V44.1381ZM29.8481 44.1381H26.3754V43.5679H29.8481V44.1381ZM22.9025 44.1381H19.4297V43.5679H22.9025V44.1381Z" fill="#E6E6E6"/>
<path d="M236.456 43.5679H234.746V44.1381H236.456V43.5679Z" fill="#E6E6E6"/>
<path d="M97.0853 27.1108C97.0853 30.1769 96.175 33.1741 94.4695 35.7234C92.764 38.2727 90.34 40.2597 87.5038 41.433C84.6677 42.6064 81.5469 42.9134 78.5361 42.3152C75.5253 41.7171 72.7597 40.2406 70.589 38.0726C68.4184 35.9045 66.9401 33.1423 66.3412 30.1352C65.7423 27.128 66.0497 24.011 67.2245 21.1784C68.3992 18.3457 70.3886 15.9246 72.941 14.2211C75.4935 12.5177 78.4943 11.6086 81.5641 11.6086C83.605 11.5995 85.6273 11.9943 87.5146 12.7701C89.4018 13.546 91.1164 14.6875 92.5595 16.1288C94.0026 17.5702 95.1455 19.2827 95.9223 21.1676C96.6991 23.0525 97.0944 25.0725 97.0853 27.1108Z" fill="#F2F2F2"/>
<path d="M87.9118 23.4016L87.835 23.5399C88.5186 21.8573 87.897 19.7839 86.6775 18.5152C85.4582 17.2464 83.7629 16.6664 82.0937 16.4363C80.8547 16.218 79.5805 16.3169 78.3901 16.7237C76.6838 17.3802 75.3802 18.9 74.2918 20.4809C73.794 21.2041 73.3045 22.0284 73.3541 22.9322C73.4001 23.771 73.8986 24.4827 74.3068 25.1943C74.715 25.9059 75.0559 26.7888 74.7629 27.5655C74.5883 28.0283 74.2194 28.3616 73.92 28.7402C73.6206 29.1188 73.3743 29.6306 73.5189 30.1056C73.5831 30.2874 73.6934 30.4494 73.8391 30.5758C73.9847 30.7022 74.1607 30.7887 74.3499 30.8269C74.7162 30.888 75.0908 30.8791 75.4538 30.8008L84.9684 29.365C85.615 29.2674 86.2283 29.0152 86.7561 28.6297C87.2839 28.2442 87.7106 27.737 87.9997 27.1512C88.2888 26.5654 88.4318 25.9185 88.4165 25.2656C88.4012 24.6127 88.228 23.9732 87.9118 23.4016Z" fill="#2F2E41"/>
<path d="M80.835 29.2987C83.4041 29.2987 85.4868 27.2186 85.4868 24.6525C85.4868 22.0865 83.4041 20.0063 80.835 20.0063C78.2658 20.0063 76.1831 22.0865 76.1831 24.6525C76.1831 27.2186 78.2658 29.2987 80.835 29.2987Z" fill="#FFB9B9"/>
<path d="M93.2185 37.3464C90.5295 40.4023 86.7452 42.2796 82.6824 42.5728C78.6197 42.8661 74.6044 41.5519 71.5034 38.9139L72.8347 35.2036C73.1356 34.5447 73.6103 33.9799 74.2081 33.5699C74.8059 33.1599 75.5041 32.9202 76.2279 32.8764L77.0748 32.8245L79.0943 31.0848C79.0943 31.0848 84.5358 30.8908 84.4551 30.7979L87.7511 32.778L87.7484 32.7643L89.0441 32.8436C89.768 32.8872 90.4663 33.1269 91.0641 33.5369C91.6619 33.9469 92.1366 34.5117 92.4373 35.1708L93.2185 37.3464Z" fill="#E6E6E6"/>
<path d="M85.2468 20.3403C85.1267 19.7058 84.4788 19.4156 83.9236 19.275C82.3135 18.8647 80.6385 18.7728 78.9931 19.0046C77.7936 19.1755 76.5656 19.5522 75.6952 20.4873C74.9934 21.2747 74.5958 22.2863 74.5737 23.3403C74.5382 23.9705 74.6792 24.5981 74.9809 25.1527C75.1158 25.4109 75.3156 25.6297 75.5607 25.7875C75.8059 25.9453 76.0879 26.0367 76.379 26.0528L76.4348 26.2466C77.639 26.0529 78.7871 25.6016 79.8004 24.9236C80.8138 24.2457 81.6686 23.3571 82.3063 22.3186C82.0499 23.2332 81.5395 24.0566 80.8343 24.6937C82.4111 24.0636 83.7818 23.0085 84.7935 21.6461C85.0698 21.2798 85.3381 20.823 85.2468 20.3403Z" fill="#2F2E41"/>
<path d="M213.832 47.527C222.404 47.527 229.353 40.5864 229.353 32.0247C229.353 23.4631 222.404 16.5225 213.832 16.5225C205.26 16.5225 198.311 23.4631 198.311 32.0247C198.311 40.5864 205.26 47.527 213.832 47.527Z" fill="#F2F2F2"/>
<path d="M209.569 26.2074C210.779 26.2074 211.761 25.2275 211.761 24.0187C211.761 22.81 210.779 21.8301 209.569 21.8301C208.359 21.8301 207.378 22.81 207.378 24.0187C207.378 25.2275 208.359 26.2074 209.569 26.2074Z" fill="#2F2E41"/>
<path d="M213.075 34.5247C216.141 34.5247 218.627 32.0423 218.627 28.9801C218.627 25.9179 216.141 23.4355 213.075 23.4355C210.009 23.4355 207.524 25.9179 207.524 28.9801C207.524 32.0423 210.009 34.5247 213.075 34.5247Z" fill="#2F2E41"/>
<path d="M213.535 34.5229C216.026 34.5229 218.046 32.5057 218.046 30.0173C218.046 27.529 216.026 25.5117 213.535 25.5117C211.043 25.5117 209.023 27.529 209.023 30.0173C209.023 32.5057 211.043 34.5229 213.535 34.5229Z" fill="#9E616A"/>
<path d="M216.598 25.4247C215.808 24.9434 214.902 24.683 213.977 24.6709C213.051 24.6587 212.139 24.8951 211.336 25.3555C210.533 25.8158 209.869 26.4831 209.412 27.2877C208.956 28.0922 208.725 29.0045 208.742 29.929C211.041 30.5054 213.456 30.9465 215.907 30.0668L216.486 28.6517L216.827 30.0679C217.574 30.3726 218.322 30.6305 219.071 30.0649C219.101 29.143 218.889 28.2293 218.455 27.415C218.021 26.6007 217.381 25.9144 216.598 25.4247Z" fill="#2F2E41"/>
<path d="M207.529 18.0776C206.76 17.7497 205.914 17.6433 205.087 17.7705C204.26 17.8977 203.485 18.2534 202.851 18.7975C202.23 19.357 201.757 20.0613 201.475 20.8475C201.192 21.6337 201.109 22.4775 201.233 23.3036C201.481 24.9839 202.504 26.4308 203.447 27.8445C204.389 29.2581 205.31 30.8071 205.309 32.5056C205.309 33.7289 204.822 34.9021 203.957 35.7677C203.091 36.6333 201.917 37.1208 200.692 37.1232C202.13 37.7414 203.63 38.3716 205.194 38.2983C206.757 38.225 208.396 37.2212 208.651 35.6789C208.835 34.5676 208.289 33.484 207.833 32.4535C207.092 30.7744 206.556 29.012 206.237 27.2046C206.085 26.342 205.986 25.4351 206.267 24.6056C206.492 23.9909 206.908 23.4645 207.454 23.1039C208.001 22.7433 208.649 22.5677 209.303 22.6029L209.82 22.1387C209.908 21.3079 209.735 20.4703 209.324 19.7424C208.914 19.0145 208.286 18.4325 207.529 18.0776Z" fill="#2F2E41"/>
<path d="M225.51 42.3967C222.821 45.4526 219.037 47.3299 214.974 47.6231C210.911 47.9164 206.896 46.6022 203.795 43.9641L205.126 40.2539C205.427 39.595 205.902 39.0302 206.5 38.6202C207.097 38.2102 207.796 37.9705 208.519 37.9267L209.366 37.8748L211.386 36.1351C211.386 36.1351 216.827 35.9411 216.747 35.8481L220.043 37.8283L220.04 37.8146L221.336 37.8939C222.059 37.9375 222.758 38.1771 223.356 38.5871C223.953 38.9971 224.428 39.562 224.729 40.2211L225.51 42.3967Z" fill="#FC773F"/>
<path d="M185.192 15.5298C185.186 18.5958 184.271 21.5914 182.561 24.1377C180.851 26.684 178.423 28.6667 175.585 29.835C172.747 31.0033 169.625 31.3048 166.616 30.7013C163.606 30.0978 160.843 28.6164 158.676 26.4446C156.509 24.2727 155.036 21.5078 154.442 18.4996C153.849 15.4914 154.162 12.375 155.341 9.54442C156.521 6.71384 158.515 4.29624 161.07 2.59735C163.626 0.898466 166.628 -0.00541187 169.698 2.43781e-05C171.738 -0.00165096 173.758 0.399297 175.642 1.17982C177.526 1.96035 179.237 3.10507 180.677 4.54819C182.117 5.99132 183.257 7.70439 184.032 9.58897C184.806 11.4736 185.201 13.4925 185.192 15.5298Z" fill="#F2F2F2"/>
<path d="M162.477 10.4594C163.119 8.41656 164.578 6.54289 166.596 5.85229C168.615 5.16168 171.571 6.2137 173.088 7.7242C175.864 10.4872 176.541 19.9791 174.634 22.9787C174.255 22.9586 172.946 22.9438 172.562 22.9294L172.019 21.1215V22.9116C171.407 22.8927 170.791 22.8797 170.17 22.8725C168.087 22.8467 166.095 22.0154 164.613 20.5533C163.132 19.0913 162.275 17.1123 162.224 15.0326C162.174 13.0429 162.224 11.2645 162.477 10.4594Z" fill="#2F2E41"/>
<path d="M169.441 17.2301C171.884 17.2301 173.864 15.2521 173.864 12.8121C173.864 10.3721 171.884 8.39404 169.441 8.39404C166.998 8.39404 165.017 10.3721 165.017 12.8121C165.017 15.2521 166.998 17.2301 169.441 17.2301Z" fill="#9E616A"/>
<path d="M165.623 8.93193L170.716 6.38477C171.757 6.85341 172.654 7.59175 173.314 8.52322C173.973 9.45468 174.371 10.5453 174.466 11.6821L174.593 13.2009L172.46 12.6586L172.226 10.7166L171.864 12.5072L170.88 12.257L170.889 9.24202L169.904 12.2549L166.389 11.4482L165.623 8.93193Z" fill="#2F2E41"/>
<path d="M181.189 25.761C178.5 28.8169 174.715 30.6941 170.653 30.9874C166.59 31.2806 162.575 29.9664 159.474 27.3284L160.805 23.6182C161.106 22.9592 161.581 22.3944 162.178 21.9845C162.776 21.5745 163.474 21.3347 164.198 21.2909L165.045 21.239L167.065 19.4994C167.065 19.4994 172.506 19.3053 172.425 19.2124L175.721 21.1926L175.719 21.1789L177.014 21.2581C177.738 21.3017 178.436 21.5414 179.034 21.9514C179.632 22.3614 180.107 22.9263 180.407 23.5854L181.189 25.761Z" fill="#E6E6E6"/>
<path d="M127.002 56.0704C135.574 56.0704 142.523 49.1299 142.523 40.5682C142.523 32.0065 135.574 25.0659 127.002 25.0659C118.43 25.0659 111.48 32.0065 111.48 40.5682C111.48 49.1299 118.43 56.0704 127.002 56.0704Z" fill="#F2F2F2"/>
<path d="M126.573 42.4888C129.309 42.4888 131.528 40.2733 131.528 37.5403C131.528 34.8073 129.309 32.5918 126.573 32.5918C123.837 32.5918 121.619 34.8073 121.619 37.5403C121.619 40.2733 123.837 42.4888 126.573 42.4888Z" fill="#FFB6B6"/>
<path d="M138.646 50.9402C135.957 53.9961 132.172 55.8733 128.11 56.1666C124.047 56.4598 120.032 55.1456 116.931 52.5076L118.262 48.7974C118.563 48.1384 119.038 47.5736 119.635 47.1637C120.233 46.7537 120.931 46.5139 121.655 46.4701L122.502 46.4182L124.522 44.6786C124.522 44.6786 129.963 44.4845 129.882 44.3916L133.178 46.3717L133.176 46.3581L134.471 46.4373C135.195 46.4809 135.894 46.7206 136.491 47.1306C137.089 47.5406 137.564 48.1055 137.865 48.7646L138.646 50.9402Z" fill="#E6E6E6"/>
<path d="M131.799 34.4713C131.38 32.9746 130.429 31.682 129.124 30.8361C128.083 30.1716 126.785 29.8324 125.607 30.1838C124.429 30.5352 123.453 31.6903 123.53 32.9383C123.312 32.881 123.082 32.8858 122.866 32.9524C122.65 33.0189 122.458 33.1444 122.31 33.3146C122.014 33.6633 121.809 34.079 121.711 34.5254C121.333 35.9246 121.358 37.402 121.783 38.7876L121.76 38.9865C122.335 38.8915 122.771 38.3988 123.042 37.8739C123.313 37.349 123.469 36.7666 123.763 36.2546C124.057 35.7425 124.545 35.2857 125.127 35.2697L125.076 36.1586C125.577 35.9008 126.078 35.6431 126.579 35.3853C126.46 35.67 126.341 35.9546 126.221 36.2393C126.659 36.0567 127.096 35.8741 127.534 35.6915C127.485 35.9652 127.436 36.2389 127.387 36.5127C127.502 36.275 127.664 36.0631 127.863 35.8898C128.062 35.7164 128.294 35.5852 128.545 35.504C128.797 35.4229 129.062 35.3935 129.325 35.4176C129.588 35.4418 129.843 35.519 130.075 35.6445C130.599 35.9961 130.976 36.5259 131.136 37.1349C131.295 37.7426 131.38 38.3671 131.39 38.995C132.066 37.5851 132.211 35.9793 131.799 34.4713Z" fill="#2F2E41"/>
<path d="M37.1447 63.1178C45.7168 63.1178 52.6659 56.1772 52.6659 47.6155C52.6659 39.0539 45.7168 32.1133 37.1447 32.1133C28.5726 32.1133 21.6235 39.0539 21.6235 47.6155C21.6235 56.1772 28.5726 63.1178 37.1447 63.1178Z" fill="#F2F2F2"/>
<path d="M36.803 49.2234C39.4035 49.2234 41.5117 47.1178 41.5117 44.5204C41.5117 41.923 39.4035 39.8174 36.803 39.8174C34.2024 39.8174 32.0942 41.923 32.0942 44.5204C32.0942 47.1178 34.2024 49.2234 36.803 49.2234Z" fill="#9E616A"/>
<path d="M48.5891 57.8513C45.9002 60.9072 42.1158 62.7844 38.053 63.0777C33.9903 63.371 29.975 62.0567 26.874 59.4187L28.2053 55.7085C28.5062 55.0495 28.9809 54.4848 29.5787 54.0748C30.1765 53.6648 30.8747 53.4251 31.5985 53.3813L32.4455 53.3293L34.465 51.5897C34.465 51.5897 39.9064 51.3957 39.8257 51.3027L43.1217 53.2829L43.119 53.2692L44.4147 53.3485C45.1386 53.3921 45.8369 53.6317 46.4347 54.0417C47.0325 54.4518 47.5072 55.0166 47.8079 55.6757L48.5891 57.8513Z" fill="#E6E6E6"/>
<path d="M32.5244 46.6953C32.5151 46.6695 32.5067 46.6435 32.4975 46.6177C32.4794 46.6336 32.462 46.6501 32.4424 46.665L32.5244 46.6953Z" fill="#2F2E41"/>
<path d="M42.4434 42.8475C42.4192 42.3703 42.2941 41.9036 42.0762 41.4782C41.8583 41.0528 41.5526 40.6784 41.1793 40.3796C40.8822 40.1942 40.6203 39.9578 40.4057 39.6812C40.3021 39.4698 40.2142 39.251 40.1429 39.0267C39.7814 38.1673 38.7513 37.7106 37.8272 37.8407C37.3676 37.928 36.9304 38.1068 36.5417 38.3666C36.153 38.6264 35.8207 38.9619 35.5647 39.3529C35.2993 39.2259 35.003 39.1775 34.7109 39.2134C34.4188 39.2494 34.1431 39.3682 33.9165 39.5558C33.6899 39.7433 33.5219 39.9918 33.4323 40.2718C33.3428 40.5518 33.3354 40.8516 33.4111 41.1357C32.9326 40.7506 32.1585 41.0586 31.8598 41.595C31.5611 42.1314 31.6085 42.7877 31.6973 43.395C31.8582 44.4926 32.1262 45.5719 32.4975 46.6174C32.9635 46.2076 32.9348 45.4612 32.8779 44.8303C32.8187 44.1749 32.8542 43.3747 33.428 43.0512C33.9824 42.7388 34.6553 43.0818 35.2666 43.2593C35.75 43.396 36.2572 43.4264 36.7534 43.3485C37.2497 43.2705 37.7231 43.086 38.141 42.8077C38.4418 42.5687 38.7575 42.349 39.0862 42.15C39.2522 42.0521 39.4408 41.9989 39.6335 41.9955C39.8262 41.992 40.0166 42.0386 40.1859 42.1305C40.454 42.3612 40.6341 42.6773 40.6958 43.0254C40.9312 43.8226 41.1665 44.6198 41.4019 45.417C41.7474 45.0865 42.0189 44.6866 42.1984 44.2437C42.3779 43.8008 42.4614 43.325 42.4434 42.8475Z" fill="#2F2E41"/>
<path d="M37.1959 75.0488H35.7144V118.423H37.1959V75.0488Z" fill="#3F3D56"/>
<path d="M81.5529 54.7915H80.0713V118.423H81.5529V54.7915Z" fill="#3F3D56"/>
<path d="M126.001 68.1099H124.519V118.423H126.001V68.1099Z" fill="#3F3D56"/>
<path d="M170.448 43.6934H168.967V118.423H170.448V43.6934Z" fill="#3F3D56"/>
<path d="M214.897 60.7109H213.415V118.423H214.897V60.7109Z" fill="#3F3D56"/>
<path d="M80.9035 60.3385C83.4067 60.3385 85.436 58.3117 85.436 55.8116C85.436 53.3114 83.4067 51.2847 80.9035 51.2847C78.4003 51.2847 76.3711 53.3114 76.3711 55.8116C76.3711 58.3117 78.4003 60.3385 80.9035 60.3385Z" fill="#E6E6E6"/>
<path d="M169.799 48.5001C172.302 48.5001 174.331 46.4734 174.331 43.9732C174.331 41.4731 172.302 39.4463 169.799 39.4463C167.296 39.4463 165.267 41.4731 165.267 43.9732C165.267 46.4734 167.296 48.5001 169.799 48.5001Z" fill="#E6E6E6"/>
<path d="M125.351 72.9166C127.854 72.9166 129.884 70.8899 129.884 68.3897C129.884 65.8896 127.854 63.8628 125.351 63.8628C122.848 63.8628 120.819 65.8896 120.819 68.3897C120.819 70.8899 122.848 72.9166 125.351 72.9166Z" fill="#E9E9E9"/>
<path d="M36.4553 79.5758C38.9585 79.5758 40.9877 77.549 40.9877 75.0489C40.9877 72.5487 38.9585 70.522 36.4553 70.522C33.9521 70.522 31.9229 72.5487 31.9229 75.0489C31.9229 77.549 33.9521 79.5758 36.4553 79.5758Z" fill="#E9E9E9"/>
<path d="M214.247 64.778C216.75 64.778 218.779 62.7512 218.779 60.251C218.779 57.7509 216.75 55.7241 214.247 55.7241C211.744 55.7241 209.714 57.7509 209.714 60.251C209.714 62.7512 211.744 64.778 214.247 64.778Z" fill="#FC773F"/>
<path d="M246.041 117.976H5.41706L3.90625 118.73C3.90626 118.93 3.98585 119.122 4.12751 119.264C4.26918 119.405 4.46131 119.485 4.66166 119.485H246.041C246.241 119.485 246.433 119.405 246.575 119.264C246.717 119.122 246.796 118.93 246.796 118.73C246.796 118.53 246.717 118.338 246.575 118.197C246.433 118.055 246.241 117.976 246.041 117.976Z" fill="#3F3D56"/>
<path d="M4.53244 122.9C7.03564 122.9 9.06488 120.873 9.06488 118.373C9.06488 115.872 7.03564 113.846 4.53244 113.846C2.02924 113.846 0 115.872 0 118.373C0 120.873 2.02924 122.9 4.53244 122.9Z" fill="#3F3D56"/>
<path d="M247.467 122.9C249.971 122.9 252 120.873 252 118.373C252 115.872 249.971 113.846 247.467 113.846C244.964 113.846 242.935 115.872 242.935 118.373C242.935 120.873 244.964 122.9 247.467 122.9Z" fill="#3F3D56"/>
</g>
<defs>
<clipPath id="clip0_726_12609">
<rect width="252" height="136" fill="white"/>
</clipPath>
</defs>
</svg>
