<svg width="182" height="117" viewBox="0 0 182 117" fill="none" xmlns="http://www.w3.org/2000/svg">
<g clip-path="url(#clip0_225_2517)">
<path d="M177.333 106.022C176.506 106.312 175.618 106.385 174.754 106.233C173.891 106.081 173.081 105.71 172.403 105.155C170.677 103.708 170.136 101.325 169.695 99.1183L168.393 92.5906L171.12 94.4654C173.081 95.8137 175.087 97.2053 176.445 99.1582C177.803 101.111 178.395 103.777 177.304 105.89" fill="#E6E6E6"/>
<path d="M176.912 114.379C177.255 111.882 177.608 109.353 177.367 106.829C177.153 104.588 176.468 102.4 175.073 100.604C174.333 99.6532 173.433 98.8384 172.412 98.1964C172.146 98.0288 171.901 98.4497 172.166 98.6167C173.932 99.7309 175.298 101.376 176.067 103.315C176.916 105.472 177.052 107.823 176.906 110.113C176.818 111.499 176.63 112.875 176.441 114.249C176.426 114.312 176.436 114.377 176.467 114.433C176.499 114.488 176.55 114.53 176.611 114.549C176.674 114.566 176.74 114.557 176.796 114.525C176.853 114.493 176.894 114.441 176.911 114.379L176.912 114.379Z" fill="#F2F2F2"/>
<path d="M174.441 110.373C174.086 110.911 173.599 111.349 173.025 111.645C172.452 111.94 171.812 112.083 171.167 112.06C169.509 111.982 168.127 110.827 166.884 109.73L163.205 106.487L165.64 106.371C167.391 106.287 169.187 106.209 170.855 106.749C172.522 107.288 174.06 108.585 174.365 110.309" fill="#E6E6E6"/>
<path d="M177.882 115.814C176.229 112.895 174.313 109.65 170.887 108.613C169.935 108.326 168.937 108.223 167.946 108.31C167.633 108.337 167.711 108.818 168.023 108.791C169.684 108.653 171.342 109.091 172.718 110.031C174.042 110.93 175.072 112.181 175.945 113.507C176.479 114.32 176.958 115.167 177.437 116.013C177.589 116.283 178.037 116.088 177.882 115.814Z" fill="#F2F2F2"/>
<path d="M112.18 3.62305H0.0478516V56.7448H112.18V3.62305Z" fill="#E6E6E6"/>
<path d="M108.973 8.17847H3.25415V52.4996H108.973V8.17847Z" fill="white"/>
<path d="M112.132 0.553955H0V5.30988H112.132V0.553955Z" fill="#FC773F"/>
<path d="M3.54016 4.23198C4.02779 4.23198 4.42309 3.83732 4.42309 3.35049C4.42309 2.86365 4.02779 2.46899 3.54016 2.46899C3.05253 2.46899 2.65723 2.86365 2.65723 3.35049C2.65723 3.83732 3.05253 4.23198 3.54016 4.23198Z" fill="white"/>
<path d="M6.89123 4.23198C7.37886 4.23198 7.77417 3.83732 7.77417 3.35049C7.77417 2.86365 7.37886 2.46899 6.89123 2.46899C6.4036 2.46899 6.0083 2.86365 6.0083 3.35049C6.0083 3.83732 6.4036 4.23198 6.89123 4.23198Z" fill="white"/>
<path d="M10.2428 4.23198C10.7304 4.23198 11.1257 3.83732 11.1257 3.35049C11.1257 2.86365 10.7304 2.46899 10.2428 2.46899C9.75517 2.46899 9.35986 2.86365 9.35986 3.35049C9.35986 3.83732 9.75517 4.23198 10.2428 4.23198Z" fill="white"/>
<path d="M103.784 43.523H51.3655C51.322 43.523 51.2802 43.5058 51.2495 43.475C51.2187 43.4443 51.2014 43.4027 51.2014 43.3592V18.2761C51.2014 18.2326 51.2187 18.191 51.2495 18.1603C51.2802 18.1296 51.322 18.1123 51.3655 18.1123C51.409 18.1123 51.4507 18.1296 51.4815 18.1603C51.5122 18.191 51.5295 18.2326 51.5295 18.2761V43.1955H103.784C103.827 43.1955 103.869 43.2127 103.9 43.2434C103.931 43.2741 103.948 43.3158 103.948 43.3592C103.948 43.4027 103.931 43.4443 103.9 43.475C103.869 43.5058 103.827 43.523 103.784 43.523Z" fill="#3F3D56"/>
<path d="M62.5652 41.7215H57.7975C57.6684 41.7214 57.5446 41.6701 57.4533 41.579C57.3621 41.4879 57.3107 41.3643 57.3105 41.2354V34.6739C57.3107 34.545 57.3621 34.4214 57.4533 34.3303C57.5446 34.2392 57.6684 34.1879 57.7975 34.1877H62.5652C62.6943 34.1879 62.818 34.2392 62.9093 34.3303C63.0006 34.4214 63.052 34.545 63.0521 34.6739V41.2354C63.052 41.3643 63.0006 41.4879 62.9093 41.579C62.818 41.6701 62.6943 41.7214 62.5652 41.7215Z" fill="#FC773F"/>
<path d="M71.2595 41.7215H66.4919C66.3628 41.7213 66.239 41.6701 66.1477 41.5789C66.0564 41.4878 66.005 41.3642 66.0049 41.2353V28.4502C66.005 28.3214 66.0564 28.1978 66.1477 28.1067C66.239 28.0155 66.3628 27.9643 66.4919 27.9641H71.2595C71.3886 27.9643 71.5124 28.0155 71.6037 28.1067C71.695 28.1978 71.7463 28.3214 71.7465 28.4502V41.2353C71.7463 41.3642 71.695 41.4878 71.6037 41.5789C71.5124 41.6701 71.3886 41.7213 71.2595 41.7215Z" fill="#FC773F"/>
<path d="M79.9538 41.7215H75.1862C75.0571 41.7214 74.9333 41.6701 74.842 41.579C74.7507 41.4879 74.6994 41.3643 74.6992 41.2354V34.6739C74.6994 34.545 74.7507 34.4214 74.842 34.3303C74.9333 34.2392 75.0571 34.1879 75.1862 34.1877H79.9538C80.0829 34.1879 80.2067 34.2392 80.298 34.3303C80.3893 34.4214 80.4407 34.545 80.4408 34.6739V41.2354C80.4407 41.3643 80.3893 41.4879 80.298 41.579C80.2067 41.6701 80.0829 41.7214 79.9538 41.7215Z" fill="#FC773F"/>
<path d="M88.6484 41.7217H83.8808C83.7546 41.7244 83.6325 41.6771 83.5412 41.5901C83.45 41.5031 83.3969 41.3835 83.3938 41.2576V25.9718C83.3969 25.8458 83.45 25.7263 83.5412 25.6393C83.6325 25.5523 83.7546 25.505 83.8808 25.5077H88.6484C88.7746 25.505 88.8967 25.5523 88.988 25.6393C89.0792 25.7263 89.1323 25.8458 89.1354 25.9718V41.2576C89.1323 41.3835 89.0792 41.5031 88.988 41.5901C88.8967 41.6771 88.7746 41.7244 88.6484 41.7217Z" fill="#FC773F"/>
<path d="M97.343 41.7217H92.5753C92.4462 41.7216 92.3225 41.6703 92.2312 41.5792C92.1399 41.488 92.0885 41.3645 92.0884 41.2356V21.5718C92.0885 21.4429 92.1399 21.3194 92.2312 21.2282C92.3225 21.1371 92.4462 21.0858 92.5753 21.0857H97.343C97.4721 21.0858 97.5959 21.1371 97.6872 21.2282C97.7785 21.3194 97.8298 21.4429 97.83 21.5718V41.2356C97.8298 41.3645 97.7785 41.488 97.6872 41.5792C97.5959 41.6703 97.4721 41.7216 97.343 41.7217Z" fill="#FC773F"/>
<path d="M60.1813 32.2224C60.7249 32.2224 61.1656 31.7825 61.1656 31.2397C61.1656 30.697 60.7249 30.2571 60.1813 30.2571C59.6377 30.2571 59.197 30.697 59.197 31.2397C59.197 31.7825 59.6377 32.2224 60.1813 32.2224Z" fill="#3F3D56"/>
<path d="M68.8756 25.8352C69.4192 25.8352 69.8599 25.3953 69.8599 24.8525C69.8599 24.3098 69.4192 23.8699 68.8756 23.8699C68.332 23.8699 67.8914 24.3098 67.8914 24.8525C67.8914 25.3953 68.332 25.8352 68.8756 25.8352Z" fill="#3F3D56"/>
<path d="M77.5702 32.2224C78.1138 32.2224 78.5545 31.7825 78.5545 31.2397C78.5545 30.697 78.1138 30.2571 77.5702 30.2571C77.0266 30.2571 76.5859 30.697 76.5859 31.2397C76.5859 31.7825 77.0266 32.2224 77.5702 32.2224Z" fill="#3F3D56"/>
<path d="M86.2645 22.7231C86.8081 22.7231 87.2488 22.2832 87.2488 21.7405C87.2488 21.1978 86.8081 20.7578 86.2645 20.7578C85.7209 20.7578 85.2803 21.1978 85.2803 21.7405C85.2803 22.2832 85.7209 22.7231 86.2645 22.7231Z" fill="#3F3D56"/>
<path d="M94.9591 19.1201C95.5027 19.1201 95.9434 18.6802 95.9434 18.1375C95.9434 17.5947 95.5027 17.1548 94.9591 17.1548C94.4155 17.1548 93.9749 17.5947 93.9749 18.1375C93.9749 18.6802 94.4155 19.1201 94.9591 19.1201Z" fill="#3F3D56"/>
<path d="M77.591 31.46L68.8759 24.9429L60.2797 31.371L60.083 31.1087L68.8759 24.5335L77.5494 31.0197L86.1688 21.6028L86.2034 21.5887L94.8978 18.0913L95.0205 18.3952L86.3606 21.8785L77.591 31.46Z" fill="#3F3D56"/>
<path d="M30.0941 13.5957H15.2048V14.713H30.0941V13.5957Z" fill="#E6E6E6"/>
<path d="M38.1971 16.8755H15.2048V17.9928H38.1971V16.8755Z" fill="#FC773F"/>
<path d="M34.182 19.9995H15.4438V21.1168H34.182V19.9995Z" fill="#E6E6E6"/>
<path d="M26.1439 23.427H15.2048V24.5443H26.1439V23.427Z" fill="#E6E6E6"/>
<path d="M31.7147 26.7747H15.2048V27.8919H31.7147V26.7747Z" fill="#FC773F"/>
<path d="M10.2416 13.2441H8.41846V15.0643H10.2416V13.2441Z" fill="#E6E6E6"/>
<path d="M10.2416 16.5242H8.41846V18.3444H10.2416V16.5242Z" fill="#FC773F"/>
<path d="M10.2416 19.6479H8.41846V21.4681H10.2416V19.6479Z" fill="#E6E6E6"/>
<path d="M10.2416 23.0752H8.41846V24.8954H10.2416V23.0752Z" fill="#E6E6E6"/>
<path d="M10.2416 26.4233H8.41846V28.2435H10.2416V26.4233Z" fill="#FC773F"/>
<path d="M30.0941 30.1436H15.2048V31.2608H30.0941V30.1436Z" fill="#E6E6E6"/>
<path d="M38.1971 33.4236H15.2048V34.5409H38.1971V33.4236Z" fill="#FC773F"/>
<path d="M34.182 36.5471H15.4438V37.6644H34.182V36.5471Z" fill="#E6E6E6"/>
<path d="M26.1439 39.9746H15.2048V41.0919H26.1439V39.9746Z" fill="#E6E6E6"/>
<path d="M31.7147 43.3228H15.2048V44.44H31.7147V43.3228Z" fill="#E6E6E6"/>
<path d="M10.2416 29.792H8.41846V31.6122H10.2416V29.792Z" fill="#E6E6E6"/>
<path d="M10.2416 33.072H8.41846V34.8922H10.2416V33.072Z" fill="#FC773F"/>
<path d="M10.2416 36.1958H8.41846V38.016H10.2416V36.1958Z" fill="#E6E6E6"/>
<path d="M10.2416 39.6233H8.41846V41.4435H10.2416V39.6233Z" fill="#E6E6E6"/>
<path d="M10.2416 42.9712H8.41846V44.7914H10.2416V42.9712Z" fill="#E6E6E6"/>
<path d="M136.091 34.8175C136.718 32.822 138.145 30.9919 140.117 30.3173C142.089 29.6427 145.53 30.2733 146.46 32.1457C147.801 34.8444 147.199 38.1493 146.488 41.0794C146.117 41.0598 145.743 41.0444 145.368 41.0303L144.837 39.2644V41.0129C141.909 40.9226 138.86 40.9792 135.81 41.0377C135.537 38.9632 135.464 36.813 136.091 34.8175Z" fill="#2F2E41"/>
<path d="M162.998 110.854L160.535 111.885L155.381 102.89L159.016 101.369L162.998 110.854Z" fill="#FFB7B7"/>
<path d="M164.627 112.975L156.684 116.299L156.642 116.198C156.298 115.38 156.295 114.458 156.631 113.637C156.968 112.816 157.618 112.161 158.438 111.818L158.438 111.818L163.289 109.789L164.627 112.975Z" fill="#2F2E41"/>
<path d="M126.875 68.363C126.721 68.1413 126.617 67.8886 126.572 67.6227C126.527 67.3569 126.54 67.0843 126.612 66.8242C126.683 66.5641 126.811 66.3228 126.986 66.1174C127.161 65.9119 127.379 65.7472 127.624 65.6349L132.919 49.6851L136.464 51.5731L130.145 66.6576C130.307 67.0821 130.307 67.551 130.145 67.9754C129.984 68.3999 129.672 68.7504 129.269 68.9606C128.865 69.1709 128.399 69.2261 127.958 69.116C127.517 69.0058 127.131 68.7379 126.875 68.363Z" fill="#FFB7B7"/>
<path d="M133.402 113.714L130.731 113.714L129.461 103.429L133.403 103.429L133.402 113.714Z" fill="#FFB7B7"/>
<path d="M134.084 116.299L125.472 116.298V116.189C125.472 115.302 125.825 114.451 126.454 113.823C127.082 113.196 127.935 112.843 128.824 112.843H128.824L134.084 112.843L134.084 116.299Z" fill="#2F2E41"/>
<path d="M144.111 55.2148L144.716 56.7857L144.595 58.3566L132.976 56.9067L133.339 55.5775L134.67 54.0066L144.111 55.2148Z" fill="#FFB7B7"/>
<path d="M140.366 41.0784C142.702 41.0784 144.596 39.1876 144.596 36.8551C144.596 34.5227 142.702 32.6318 140.366 32.6318C138.03 32.6318 136.136 34.5227 136.136 36.8551C136.136 39.1876 138.03 41.0784 140.366 41.0784Z" fill="#FFB8B8"/>
<path d="M144.78 56.8984L133.258 55.6747L132.759 54.0449C132.604 53.8326 131.141 51.7633 131.466 49.6948C131.546 49.2075 131.726 48.7419 131.994 48.3269C132.262 47.9119 132.613 47.5564 133.025 47.2824L135.826 44.0076L138.291 42.543L143.149 42.0581L143.166 42.0618L147.527 43.0472L147.474 51.0295L144.78 56.8984Z" fill="#CCCCCC"/>
<path d="M133.549 57.7442L130.321 57.3615L130.329 57.2603C130.359 56.9044 131.065 48.5233 131.788 46.5983C132.526 44.6319 135.726 44.0193 135.861 43.9943L135.901 43.9871L136.612 44.4129L134.65 50.5342L133.549 57.7442Z" fill="#CCCCCC"/>
<path d="M144.716 57.7525V60.4366C144.716 60.4366 147.863 64.5194 146.168 67.6612C146.168 67.6612 149.799 74.4281 150.042 76.8448L153.43 87.9618C153.43 87.9618 161.903 96.4204 161.177 102.462L161.661 104.396L156.093 106.812L154.883 105.121L145.442 88.9285L137.454 74.1864L136.001 91.587C136.001 91.587 136.97 105.121 134.307 106.571L134.065 108.746H128.414V106.678C128.414 106.678 126.319 99.3205 127.529 93.762L127.045 70.3196C127.045 70.3196 129.224 60.411 131.886 58.7192L132.855 56.3025L144.716 57.7525Z" fill="#2F2E41"/>
<path d="M140.692 63.3021C140.79 63.324 140.886 63.3535 140.979 63.3904L148.363 58.3154L148.194 56.1476L151.438 55.4653L152.111 59.2741C152.165 59.5818 152.118 59.8988 151.977 60.1775C151.835 60.4562 151.607 60.6816 151.326 60.8198L142.179 65.3239C142.144 65.707 141.993 66.0705 141.747 66.3661C141.5 66.6617 141.169 66.8752 140.798 66.9784C140.426 67.0816 140.033 67.0695 139.668 66.9437C139.304 66.8179 138.987 66.5844 138.759 66.2743C138.531 65.9641 138.403 65.592 138.392 65.2075C138.381 64.8229 138.487 64.4441 138.697 64.1214C138.907 63.7988 139.21 63.5476 139.567 63.4012C139.923 63.2548 140.316 63.2203 140.692 63.3021Z" fill="#FFB7B7"/>
<path d="M148.293 58.5958L146.79 48.5846L145.557 43.413L147.4 43.0284C147.45 43.0098 148.951 42.5032 150.163 43.3189C151.035 43.906 151.519 45.0201 151.599 46.6304L152.088 58.0858L148.293 58.5958Z" fill="#CCCCCC"/>
<path d="M137.459 31.3559C138.272 30.8612 139.203 30.5936 140.155 30.581C141.107 30.5685 142.045 30.8115 142.87 31.2847C143.696 31.7578 144.379 32.4437 144.848 33.2706C145.317 34.0975 145.555 35.0351 145.537 35.9854C143.173 36.0939 140.689 36.1222 138.17 36.1271L137.575 34.6726L137.224 36.1281C136.457 36.1281 135.688 36.1271 134.917 36.1251C134.886 35.1776 135.104 34.2384 135.55 33.4015C135.996 32.5645 136.655 31.8592 137.459 31.3559Z" fill="#2F2E41"/>
<path d="M181.789 116.554H101.473C101.417 116.554 101.363 116.532 101.324 116.492C101.284 116.453 101.262 116.399 101.262 116.344C101.262 116.288 101.284 116.234 101.324 116.195C101.363 116.155 101.417 116.133 101.473 116.133H181.789C181.845 116.133 181.899 116.155 181.938 116.195C181.978 116.234 182 116.288 182 116.344C182 116.399 181.978 116.453 181.938 116.492C181.899 116.532 181.845 116.554 181.789 116.554Z" fill="#CBCBCB"/>
</g>
<defs>
<clipPath id="clip0_225_2517">
<rect width="182" height="116" fill="white" transform="translate(0 0.553955)"/>
</clipPath>
</defs>
</svg>
