<svg width="168" height="113" viewBox="0 0 168 113" fill="none" xmlns="http://www.w3.org/2000/svg">
<g clip-path="url(#clip0_225_2162)">
<path d="M166.365 2.11959e-09H52.687C52.254 0.000376191 51.8388 0.171773 51.5327 0.476563C51.2265 0.781353 51.0543 1.19463 51.054 1.62566V42.53H78.5652C79.3099 42.5309 80.0239 42.8258 80.5506 43.35C81.0772 43.8743 81.3735 44.585 81.3744 45.3264V79.9332H166.365C166.601 79.9332 166.835 79.8822 167.049 79.7837C167.263 79.6852 167.454 79.5415 167.607 79.3627C167.62 79.3487 167.632 79.3337 167.642 79.3179C167.74 79.1993 167.819 79.0667 167.877 78.9246C167.959 78.7291 168.001 78.5193 168 78.3075V1.62566C168 1.19433 167.827 0.780829 167.521 0.476008C167.214 0.171187 166.798 -2.1996e-05 166.365 2.11959e-09Z" fill="#F2F2F2"/>
<path d="M167.766 6.51587H51.2864V6.9807H167.766V6.51587Z" fill="#CCCCCC"/>
<path d="M55.2547 4.87994C56.0282 4.87994 56.6553 4.25574 56.6553 3.48575C56.6553 2.71576 56.0282 2.09155 55.2547 2.09155C54.4811 2.09155 53.854 2.71576 53.854 3.48575C53.854 4.25574 54.4811 4.87994 55.2547 4.87994Z" fill="#CCCCCC"/>
<path d="M59.2813 4.87994C60.0548 4.87994 60.6819 4.25574 60.6819 3.48575C60.6819 2.71576 60.0548 2.09155 59.2813 2.09155C58.5077 2.09155 57.8806 2.71576 57.8806 3.48575C57.8806 4.25574 58.5077 4.87994 59.2813 4.87994Z" fill="#CCCCCC"/>
<path d="M63.3079 4.87994C64.0814 4.87994 64.7085 4.25574 64.7085 3.48575C64.7085 2.71576 64.0814 2.09155 63.3079 2.09155C62.5343 2.09155 61.9072 2.71576 61.9072 3.48575C61.9072 4.25574 62.5343 4.87994 63.3079 4.87994Z" fill="#CCCCCC"/>
<path d="M138.742 16.6631H80.3106C79.6649 16.6631 79.0456 16.9184 78.5891 17.3729C78.1325 17.8274 77.876 18.4439 77.876 19.0867C77.876 19.7294 78.1325 20.3459 78.5891 20.8004C79.0456 21.2549 79.6649 21.5102 80.3106 21.5102H138.742C139.387 21.5102 140.007 21.2549 140.463 20.8004C140.92 20.3459 141.176 19.7294 141.176 19.0867C141.176 18.4439 140.92 17.8274 140.463 17.3729C140.007 16.9184 139.387 16.6631 138.742 16.6631ZM138.742 21.1374H80.3106C79.7642 21.1374 79.2402 20.9213 78.8539 20.5367C78.4676 20.1521 78.2505 19.6305 78.2505 19.0867C78.2505 18.5428 78.4676 18.0212 78.8539 17.6366C79.2402 17.252 79.7642 17.0359 80.3106 17.0359H138.742C139.288 17.0359 139.812 17.252 140.198 17.6366C140.585 18.0212 140.802 18.5428 140.802 19.0867C140.802 19.6305 140.585 20.1521 140.198 20.5367C139.812 20.9213 139.288 21.1374 138.742 21.1374Z" fill="#CCCCCC"/>
<path d="M156.621 35.9714H98.19C97.5443 35.9714 96.925 36.2268 96.4685 36.6813C96.0119 37.1358 95.7554 37.7522 95.7554 38.395C95.7554 39.0378 96.0119 39.6542 96.4685 40.1087C96.925 40.5632 97.5443 40.8186 98.19 40.8186H156.621C157.267 40.8186 157.886 40.5632 158.342 40.1087C158.799 39.6542 159.056 39.0378 159.056 38.395C159.056 37.7522 158.799 37.1358 158.342 36.6813C157.886 36.2268 157.267 35.9714 156.621 35.9714Z" fill="white"/>
<path d="M156.621 44.9199H98.19C97.5443 44.9199 96.925 45.1753 96.4685 45.6298C96.0119 46.0843 95.7554 46.7007 95.7554 47.3435C95.7554 47.9863 96.0119 48.6027 96.4685 49.0572C96.925 49.5117 97.5443 49.7671 98.19 49.7671H156.621C157.267 49.7671 157.886 49.5117 158.342 49.0572C158.799 48.6027 159.056 47.9863 159.056 47.3435C159.056 46.7007 158.799 46.0843 158.342 45.6298C157.886 45.1753 157.267 44.9199 156.621 44.9199Z" fill="white"/>
<path d="M156.621 53.8687H98.19C97.5443 53.8687 96.925 54.124 96.4685 54.5785C96.0119 55.033 95.7554 55.6495 95.7554 56.2922C95.7554 56.935 96.0119 57.5514 96.4685 58.0059C96.925 58.4605 97.5443 58.7158 98.19 58.7158H156.621C157.267 58.7158 157.886 58.4605 158.342 58.0059C158.799 57.5514 159.056 56.935 159.056 56.2922C159.056 55.6495 158.799 55.033 158.342 54.5785C157.886 54.124 157.267 53.8687 156.621 53.8687Z" fill="white"/>
<path d="M88.7475 31.9631H62.1502C61.5797 31.9638 61.0327 32.1897 60.6293 32.5913C60.2259 32.9928 59.999 33.5373 59.9983 34.1052V42.5299H60.3728V34.1052C60.3736 33.6362 60.5611 33.1866 60.8942 32.855C61.2274 32.5233 61.679 32.3367 62.1502 32.336H88.7475C89.2187 32.3364 89.6705 32.5229 90.0037 32.8546C90.337 33.1863 90.5243 33.6361 90.5247 34.1052V60.5818C90.5243 61.0509 90.337 61.5007 90.0037 61.8324C89.6705 62.1641 89.2187 62.3506 88.7475 62.351H81.3743V62.7239H88.7475C89.3181 62.7235 89.8652 62.4977 90.2686 62.0961C90.6721 61.6944 90.8989 61.1498 90.8993 60.5818V34.1052C90.8989 33.5372 90.6721 32.9926 90.2686 32.5909C89.8652 32.1893 89.3181 31.9635 88.7475 31.9631Z" fill="#CCCCCC"/>
<path d="M19.7811 59.2036C19.687 59.2074 15.6778 58.9307 15.5754 58.9272L15.9356 55.3483L18.2192 55.2799L22.5827 47.2345C21.9775 46.0857 22.7223 44.5614 24.0061 44.3265C26.5932 43.7411 27.4819 47.7928 24.8869 48.3319L21.2776 58.1629C21.1644 58.4675 20.9604 58.7304 20.693 58.9164C20.4255 59.1023 20.1074 59.2026 19.7811 59.2036Z" fill="#FFB8B8"/>
<path d="M9.21112 61.0471C5.39595 61.0564 5.06103 55.3167 8.88466 54.9123C18.9955 54.3041 17.716 51.7762 18.4839 59.2328C18.5075 59.4539 18.4419 59.6754 18.3017 59.8485C18.1614 60.0217 17.9579 60.1324 17.7358 60.1563L9.54228 61.0295C9.43229 61.0412 9.32174 61.0471 9.21112 61.0471Z" fill="#FC773F"/>
<path d="M8.34052 42.8999C13.5964 45.8772 9.28158 53.7326 3.92771 50.9353C-1.32801 47.9582 2.98682 40.1028 8.34052 42.8999Z" fill="#FFB8B8"/>
<path d="M13.1188 110.519L15.4146 110.519L16.507 101.703L13.1184 101.703L13.1188 110.519Z" fill="#FFB8B8"/>
<path d="M12.6268 112.642L19.8428 112.641C19.8153 108.935 14.9889 110.003 12.6267 109.866L12.6268 112.642Z" fill="#2F2E41"/>
<path d="M3.193 110.519L5.48885 110.519L6.58125 101.703L3.19263 101.703L3.193 110.519Z" fill="#FFB8B8"/>
<path d="M2.70105 112.642L9.91704 112.641C9.88947 108.935 5.06311 110.003 2.70093 109.866L2.70105 112.642Z" fill="#2F2E41"/>
<path d="M5.80219 107.44C5.24728 107.289 2.23194 107.747 1.87608 107.145C0.633296 94.7458 0.909551 82.6109 3.66828 75.9428L13.1536 75.3647C15.2747 79.2193 20.1504 104.797 17.2093 106.352L13.4273 106.486C13.2116 106.494 13.0001 106.426 12.8283 106.297C12.6564 106.167 12.5347 105.982 12.4835 105.773L9.31952 87.8542C8.5316 86.7578 6.98279 106.725 6.72702 106.651C6.69367 106.871 6.58191 107.072 6.41213 107.217C6.24235 107.362 6.02587 107.441 5.80219 107.44Z" fill="#2F2E41"/>
<path d="M3.36724 77.5102C-1.42178 72.5225 1.63296 59.1509 1.47836 59.4353C1.49148 59.1078 2.57618 54.0632 5.38208 53.2353C7.60821 52.5039 10.0721 54.6916 10.3761 56.9043L13.7108 76.5079C13.7281 76.6146 13.7199 76.7238 13.6869 76.8268C13.6539 76.9298 13.5971 77.0236 13.521 77.1007C13.6849 77.6089 3.60168 77.4083 3.36724 77.5102Z" fill="#FC773F"/>
<path d="M4.92131 46.4082C5.34188 46.1435 5.54917 45.6896 5.79397 45.2761C7.08347 44.5445 8.56584 46.3143 9.92973 45.6538C13.7863 41.9683 9.82217 40.881 6.27021 40.6866C5.43113 40.5837 4.71734 40.88 4.08296 41.3694C-3.01222 40.8299 0.390529 50.2215 4.86845 51.4619C5.65907 51.8066 6.25215 51.1089 5.55492 50.4747C4.59027 49.468 3.39529 47.4415 4.92131 46.4082Z" fill="#2F2E41"/>
<path d="M78.5652 42.157H27.2509C26.4069 42.1582 25.5978 42.4925 25.001 43.0866C24.4041 43.6807 24.0683 44.4861 24.0671 45.3263V109.831C24.0683 110.671 24.4041 111.476 25.001 112.07C25.5978 112.664 26.4069 112.999 27.2509 113H78.5652C79.4093 112.999 80.2183 112.664 80.8152 112.07C81.412 111.476 81.7478 110.671 81.749 109.831V45.3263C81.7478 44.4861 81.412 43.6807 80.8152 43.0866C80.2183 42.4925 79.4093 42.1582 78.5652 42.157ZM81.3744 109.831C81.3735 110.572 81.0773 111.283 80.5506 111.807C80.024 112.331 79.31 112.626 78.5652 112.627H27.2509C26.5061 112.626 25.7921 112.331 25.2655 111.807C24.7389 111.283 24.4426 110.572 24.4417 109.831V45.3263C24.4426 44.5849 24.7389 43.8741 25.2655 43.3499C25.7921 42.8257 26.5061 42.5307 27.2509 42.5298H78.5652C79.31 42.5307 80.024 42.8257 80.5506 43.3499C81.0773 43.8741 81.3735 44.5849 81.3744 45.3263V109.831Z" fill="#3F3D56"/>
<path d="M12.7925 69.3007C11.1013 69.4914 10.3588 65.5736 9.71216 64.5753L13.0803 63.2734L14.1763 65.2688L23.3582 65.496C23.4128 65.4224 23.4724 65.3526 23.5366 65.2872C25.3575 63.3892 28.3229 66.233 26.5089 68.1269C26.3088 68.3386 26.0658 68.5057 25.7961 68.6171C25.5264 68.7285 25.236 68.7818 24.9441 68.7734C24.6522 68.765 24.3654 68.6951 24.1026 68.5683C23.8398 68.4415 23.607 68.2608 23.4194 68.0379C23.1927 68.054 13.0143 69.3066 12.7925 69.3007Z" fill="#FFB8B8"/>
<path d="M10.2981 67.4306C9.73502 67.9708 5.41191 60.3886 5.09608 60.1743C2.9116 56.7944 8.05427 53.4573 10.2764 56.8189L14.7705 63.6942C14.8922 63.8808 14.9345 64.1078 14.8883 64.3253C14.842 64.5429 14.7109 64.7334 14.5238 64.8549C14.319 64.9503 10.4427 67.636 10.2981 67.4306Z" fill="#FC773F"/>
<path d="M68.4523 86.8069H37.364C34.1883 86.7916 34.1751 81.9762 37.3641 81.9597H68.4523C71.6257 81.9745 71.6429 86.7903 68.4523 86.8069Z" fill="#CCCCCC"/>
<path d="M68.4523 95.7553H37.364C34.1883 95.7401 34.1751 90.9247 37.3641 90.9082H68.4523C71.6257 90.923 71.6429 95.7388 68.4523 95.7553Z" fill="#CCCCCC"/>
<path d="M68.4523 104.704H37.364C34.1883 104.689 34.1751 99.8732 37.3641 99.8567H68.4523C71.6257 99.8715 71.6429 104.687 68.4523 104.704Z" fill="#CCCCCC"/>
<path d="M80.0633 48.1228C79.1003 48.1228 78.1589 47.8385 77.3581 47.3059C76.5574 46.7733 75.9333 46.0162 75.5647 45.1305C75.1962 44.2448 75.0998 43.2702 75.2877 42.33C75.4755 41.3897 75.9393 40.5261 76.6203 39.8482C77.3012 39.1703 78.1688 38.7086 79.1134 38.5216C80.0579 38.3346 81.037 38.4306 81.9267 38.7974C82.8165 39.1643 83.5769 39.7856 84.112 40.5827C84.647 41.3798 84.9326 42.3169 84.9326 43.2756C84.9311 44.5607 84.4176 45.7928 83.5048 46.7015C82.592 47.6102 81.3543 48.1213 80.0633 48.1228Z" fill="#FC773F"/>
<path d="M82.3109 43.0893H80.2508V40.7589C80.2508 40.7095 80.2311 40.6621 80.196 40.6271C80.1608 40.5921 80.1132 40.5725 80.0635 40.5725C80.0139 40.5725 79.9662 40.5921 79.9311 40.6271C79.896 40.6621 79.8763 40.7095 79.8763 40.7589V43.0893H77.8162C77.7665 43.0893 77.7189 43.1089 77.6838 43.1439C77.6486 43.1789 77.6289 43.2263 77.6289 43.2757C77.6289 43.3252 77.6486 43.3726 77.6838 43.4075C77.7189 43.4425 77.7665 43.4622 77.8162 43.4622H79.8763V45.7925C79.8763 45.842 79.896 45.8894 79.9311 45.9243C79.9662 45.9593 80.0139 45.9789 80.0635 45.9789C80.1132 45.9789 80.1608 45.9593 80.196 45.9243C80.2311 45.8894 80.2508 45.842 80.2508 45.7925V43.4622H82.3109C82.3605 43.4622 82.4082 43.4425 82.4433 43.4075C82.4784 43.3726 82.4982 43.3252 82.4982 43.2757C82.4982 43.2263 82.4784 43.1789 82.4433 43.1439C82.4082 43.1089 82.3605 43.0893 82.3109 43.0893Z" fill="white"/>
<path d="M67.8901 76.1429H37.9255C37.1063 76.142 36.3208 75.8176 35.7415 75.241C35.1622 74.6643 34.8364 73.8824 34.8354 73.0669V56.3629C34.8364 55.5474 35.1622 54.7655 35.7415 54.1888C36.3208 53.6122 37.1063 53.2878 37.9255 53.2869H67.8901C68.7094 53.2878 69.4948 53.6122 70.0741 54.1888C70.6535 54.7655 70.9793 55.5474 70.9802 56.3629V73.0669C70.9793 73.8824 70.6535 74.6643 70.0741 75.241C69.4948 75.8176 68.7094 76.142 67.8901 76.1429Z" fill="#FC773F"/>
</g>
<defs>
<clipPath id="clip0_225_2162">
<rect width="168" height="113" fill="white"/>
</clipPath>
</defs>
</svg>
