<svg width="112" height="119" viewBox="0 0 112 119" fill="none" xmlns="http://www.w3.org/2000/svg">
<g clip-path="url(#clip0_225_3033)">
<path d="M42.8754 18.9356C45.8078 18.9356 48.1849 16.552 48.1849 13.6117C48.1849 10.6714 45.8078 8.28784 42.8754 8.28784C39.9431 8.28784 37.5659 10.6714 37.5659 13.6117C37.5659 16.552 39.9431 18.9356 42.8754 18.9356Z" fill="#FD6584"/>
<path d="M54.7585 11.0908C54.6088 10.5985 54.3187 10.1608 53.9241 9.83169C53.5294 9.50257 53.0474 9.29635 52.5373 9.23843C52.5254 9.23743 52.5134 9.23743 52.5015 9.23843C52.4872 9.23395 52.4726 9.23062 52.4578 9.22846C50.68 8.99717 48.7035 9.55945 47.3731 10.7837C46.8793 11.231 46.4843 11.7771 46.2138 12.3868C45.9672 12.0491 45.6422 11.7767 45.2669 11.5932C44.8917 11.4098 44.4775 11.3208 44.0603 11.334C43.5221 11.3697 43.008 11.5709 42.5881 11.9103C42.1682 12.2496 41.8629 12.7105 41.7138 13.2302C41.6974 13.2937 41.7019 13.3608 41.7266 13.4216C41.7513 13.4823 41.795 13.5334 41.851 13.5672C42.0109 13.7044 42.2011 13.8014 42.4058 13.8503C42.8453 13.9441 43.2887 14.0298 43.7321 14.1076C44.5991 14.2591 45.4708 14.3821 46.3471 14.4764C46.9257 14.5382 47.5057 14.5874 48.087 14.624C49.2881 14.6998 50.4951 14.7177 51.6982 14.6798C52.2947 14.6599 52.8674 14.6399 53.4123 14.3767C53.8093 14.1809 54.1486 13.8848 54.3966 13.5174C54.6301 13.164 54.7835 12.7636 54.846 12.3443C54.9085 11.9251 54.8787 11.4972 54.7585 11.0908Z" fill="#E6E6E6"/>
<path d="M43.8356 18.847C43.8255 18.6239 43.7881 18.4029 43.7242 18.189C43.5738 17.6967 43.2833 17.2592 42.8883 16.9302C42.4934 16.6011 42.0113 16.3948 41.5011 16.3367C41.4898 16.3357 41.4785 16.3357 41.4673 16.3367C41.4522 16.3324 41.437 16.3291 41.4215 16.3267C40.4376 16.2058 39.4392 16.3087 38.5004 16.6278C37.0567 17.1123 35.79 18.0893 35.1795 19.485C34.9327 19.1471 34.6073 18.8745 34.2317 18.6911C33.8561 18.5076 33.4416 18.4188 33.024 18.4322C32.4858 18.4679 31.9718 18.6691 31.5519 19.0085C31.1319 19.3478 30.8266 19.8088 30.6775 20.3285C30.6621 20.392 30.667 20.4587 30.6916 20.5193C30.7163 20.5798 30.7594 20.6309 30.8147 20.6654C30.9749 20.8022 31.165 20.8992 31.3695 20.9486C31.811 21.0423 32.2524 21.128 32.6979 21.2058C33.5649 21.3573 34.4358 21.4803 35.3108 21.5747C37.0884 21.766 38.877 21.8339 40.6639 21.778C41.2585 21.7581 41.8332 21.7381 42.378 21.475C42.7745 21.2791 43.1131 20.9829 43.3603 20.6156C43.7089 20.0947 43.876 19.4729 43.8356 18.847Z" fill="#E6E6E6"/>
<path d="M83.1461 86.0332H78.3061V10.2706C77.9799 10.0294 77.6518 9.7901 77.3197 9.55681C77.2541 9.51095 77.1885 9.46509 77.1229 9.41923C73.2948 6.73437 69.1538 4.5287 64.7921 2.85129L63.8535 15.8316L63.8534 15.8324H57.8143V0.675935C57.4206 0.578234 57.0269 0.486513 56.6292 0.400775V15.8324H33.8248V0C33.4291 0.0737747 33.0333 0.149544 32.6396 0.231294V15.8324H26.4017L26.4016 15.8316L25.4173 2.21922C21.1725 3.69459 17.1158 5.66619 13.331 8.09328C13.1998 8.17702 13.0686 8.26077 12.9373 8.3485C12.6729 8.51998 12.4084 8.69544 12.1479 8.8729V86.0332H5.33321C4.46133 86.0327 3.60264 86.2466 2.83241 86.6563C2.06218 87.0659 1.40394 87.6588 0.915382 88.3829C0.426828 89.1069 0.122883 89.9402 0.0302009 90.8094C-0.0624808 91.6787 0.0589279 92.5575 0.383782 93.3688C0.48125 93.6141 0.597598 93.8514 0.731773 94.0786C0.90507 94.375 1.10616 94.6541 1.33231 94.9121C1.83187 95.4829 2.44719 95.9403 3.13715 96.2535C3.82712 96.5668 4.57583 96.7287 5.33322 96.7286H83.1461C84.5606 96.7286 85.9171 96.1651 86.9173 95.1623C87.9175 94.1594 88.4794 92.7992 88.4794 91.3809C88.4794 89.9626 87.9175 88.6024 86.9173 87.5995C85.9171 86.5966 84.5606 86.0332 83.1461 86.0332ZM62.5529 33.8531L58.7887 86.0332H31.4664L27.7021 33.8531H62.5529ZM63.7679 17.0206L62.8393 29.8925H57.8143V17.0206H63.7679ZM56.6292 17.0206V29.8925H47.5551C47.3734 29.535 47.0966 29.2348 46.7554 29.0251C46.4142 28.8154 46.0219 28.7044 45.6217 28.7043H44.4367C44.0366 28.7044 43.6442 28.8154 43.303 29.0251C42.9618 29.2348 42.6851 29.535 42.5034 29.8925H33.8248V17.0206H56.6292ZM32.6396 29.8925H27.4158L26.4872 17.0206H32.6396V29.8925Z" fill="#F2F2F2"/>
<path d="M0.470947 94.6562C2.19843 96.7087 4.06689 98.6375 6.06267 100.429L81.5431 100.628C83.5388 98.8369 85.4073 96.9081 87.1348 94.8556L0.470947 94.6562Z" fill="#3F3D56"/>
<path d="M38.5889 75.3533V95.8028H52.8764V75.3533C52.8767 75.2062 52.8298 75.0629 52.7429 74.9445C52.6559 74.826 52.5333 74.7387 52.3932 74.6953C52.3271 74.6734 52.2579 74.6626 52.1884 74.6634H39.2789C39.1884 74.6632 39.0987 74.6809 39.0151 74.7155C38.9314 74.7501 38.8554 74.8009 38.7913 74.8649C38.7272 74.929 38.6763 75.0051 38.6416 75.0889C38.6069 75.1727 38.589 75.2625 38.5889 75.3533ZM44.1647 82.3798C44.1685 81.9767 44.3308 81.5914 44.6164 81.3077C44.9021 81.024 45.2879 80.8648 45.6899 80.8648C46.0919 80.8648 46.4777 81.024 46.7633 81.3077C47.0489 81.5914 47.2113 81.9767 47.2151 82.3798V84.7526C47.213 85.1568 47.0514 85.5438 46.7656 85.8289C46.4798 86.114 46.0931 86.2741 45.6899 86.2741C45.2867 86.2741 44.9 86.114 44.6142 85.8289C44.3283 85.5438 44.1668 85.1568 44.1647 84.7526V82.3798Z" fill="#2F2E41"/>
<path d="M38.5452 95.1487V97.1207C38.5455 97.2228 38.586 97.3207 38.6578 97.3931C38.7297 97.4655 38.8271 97.5066 38.9289 97.5075H52.5364C52.6384 97.507 52.736 97.466 52.8079 97.3935C52.8799 97.321 52.9202 97.2229 52.9202 97.1207V95.1487H38.5452Z" fill="#3F3D56"/>
<path d="M16.1125 44.5433V81.8812C16.1129 82.357 16.3016 82.8133 16.6372 83.1497C16.9727 83.4862 17.4277 83.6754 17.9022 83.6757H73.0838C73.5583 83.6754 74.0133 83.4862 74.3488 83.1497C74.6844 82.8133 74.873 82.357 74.8734 81.8812V44.5433C74.8723 44.0679 74.6833 43.6123 74.3479 43.2763C74.0124 42.9403 73.5579 42.7513 73.0838 42.7507H17.9022C17.4281 42.7513 16.9735 42.9403 16.6381 43.2763C16.3027 43.6123 16.1137 44.0679 16.1125 44.5433Z" fill="#3F3D56"/>
<path d="M17.4072 45.0079V81.4207C17.4077 81.6749 17.5086 81.9186 17.6879 82.0984C17.8671 82.2782 18.1102 82.3793 18.3637 82.3798H72.6246C72.8781 82.3793 73.1211 82.2782 73.3004 82.0984C73.4797 81.9186 73.5806 81.6749 73.581 81.4207V45.0079C73.581 44.7534 73.4803 44.5093 73.301 44.3291C73.1217 44.1489 72.8784 44.0474 72.6246 44.0469H18.3637C18.1099 44.0474 17.8666 44.1489 17.6873 44.3291C17.508 44.5093 17.4073 44.7534 17.4072 45.0079Z" fill="#FC773F"/>
<path d="M28.4712 97.9722C28.5264 98.0416 28.5966 98.0976 28.6765 98.136C28.7564 98.1743 28.844 98.194 28.9325 98.1935H61.2143C61.3025 98.1934 61.3897 98.1736 61.4694 98.1354C61.549 98.0973 61.6192 98.0419 61.6749 97.9731C61.7305 97.9043 61.7701 97.824 61.7909 97.738C61.8116 97.6519 61.813 97.5624 61.7949 97.4757L61.2938 95.089C61.273 94.9917 61.2283 94.9011 61.1637 94.8255C61.0991 94.75 61.0167 94.6918 60.9239 94.6563C60.8568 94.6299 60.7853 94.6164 60.7131 94.6165H29.4317C29.3595 94.6164 29.288 94.6299 29.2209 94.6563C29.1281 94.6918 29.0457 94.75 28.9811 94.8255C28.9165 94.9011 28.8718 94.9917 28.851 95.089L28.3499 97.4757C28.3321 97.5623 28.3337 97.6518 28.3547 97.7377C28.3757 97.8236 28.4155 97.9037 28.4712 97.9722Z" fill="#2F2E41"/>
<path d="M29.4317 95.1148C29.4219 95.1146 29.4122 95.1163 29.403 95.1198C29.3872 95.1252 29.373 95.1345 29.3616 95.1467C29.3502 95.159 29.3421 95.1739 29.3378 95.1901L28.8364 97.5781C28.8338 97.592 28.8342 97.6062 28.8377 97.6198C28.8412 97.6335 28.8477 97.6462 28.8566 97.657L28.8589 97.6597C28.8675 97.671 28.8787 97.6801 28.8915 97.6862C28.9044 97.6923 28.9185 97.6952 28.9327 97.6948H61.2143C61.2284 97.6949 61.2424 97.6919 61.2551 97.6859C61.2679 97.6798 61.2791 97.6709 61.2879 97.6599C61.2973 97.6493 61.3041 97.6365 61.3078 97.6228C61.3115 97.609 61.3119 97.5946 61.309 97.5807L60.8074 95.1913C60.8037 95.1757 60.7963 95.1612 60.7857 95.1491C60.7752 95.137 60.7619 95.1276 60.747 95.1218C60.7363 95.1172 60.7248 95.1148 60.7132 95.1148H29.4317Z" fill="white"/>
<path d="M20.1081 49.0629H70.8798C70.9326 49.0617 70.9828 49.0398 71.0197 49.002C71.0566 48.9642 71.0772 48.9133 71.0772 48.8604C71.0772 48.8075 71.0566 48.7567 71.0197 48.7188C70.9828 48.681 70.9326 48.6591 70.8798 48.658H20.1081C20.0553 48.6591 20.0051 48.681 19.9682 48.7188C19.9313 48.7567 19.9106 48.8075 19.9106 48.8604C19.9106 48.9133 19.9313 48.9642 19.9682 49.002C20.0051 49.0398 20.0553 49.0617 20.1081 49.0629Z" fill="#3F3D56"/>
<path d="M67.4237 47.6243C68.0772 47.6243 68.607 47.0813 68.607 46.4114C68.607 45.7415 68.0772 45.1985 67.4237 45.1985C66.7702 45.1985 66.2405 45.7415 66.2405 46.4114C66.2405 47.0813 66.7702 47.6243 67.4237 47.6243Z" fill="#3F3D56"/>
<path d="M63.3361 47.6243C63.9896 47.6243 64.5193 47.0813 64.5193 46.4114C64.5193 45.7415 63.9896 45.1985 63.3361 45.1985C62.6826 45.1985 62.1528 45.7415 62.1528 46.4114C62.1528 47.0813 62.6826 47.6243 63.3361 47.6243Z" fill="#3F3D56"/>
<path d="M59.2484 47.6243C59.9019 47.6243 60.4317 47.0813 60.4317 46.4114C60.4317 45.7415 59.9019 45.1985 59.2484 45.1985C58.5949 45.1985 58.0652 45.7415 58.0652 46.4114C58.0652 47.0813 58.5949 47.6243 59.2484 47.6243Z" fill="#3F3D56"/>
<path d="M22.3528 45.7196C22.3527 45.7483 22.3582 45.7767 22.369 45.8033C22.3798 45.8298 22.3957 45.8539 22.4158 45.8743C22.436 45.8947 22.4599 45.9109 22.4863 45.922C22.5127 45.9331 22.5409 45.9388 22.5695 45.939H25.4728C25.5302 45.9376 25.5848 45.9138 25.6249 45.8726C25.665 45.8315 25.6875 45.7762 25.6875 45.7186C25.6875 45.6611 25.665 45.6058 25.6249 45.5646C25.5848 45.5234 25.5302 45.4996 25.4728 45.4983H22.5695C22.5116 45.499 22.4563 45.5227 22.4156 45.5641C22.375 45.6056 22.3524 45.6615 22.3528 45.7196Z" fill="#3F3D56"/>
<path d="M22.3528 46.5473C22.3526 46.5759 22.3581 46.6043 22.369 46.6309C22.3798 46.6574 22.3957 46.6816 22.4158 46.7019C22.436 46.7223 22.4599 46.7385 22.4863 46.7496C22.5126 46.7607 22.5409 46.7665 22.5695 46.7666H25.4728C25.5302 46.7653 25.5849 46.7415 25.625 46.7004C25.6652 46.6592 25.6877 46.6039 25.6877 46.5463C25.6877 46.4887 25.6652 46.4333 25.625 46.3922C25.5849 46.351 25.5302 46.3272 25.4728 46.3259H22.5695C22.5116 46.3266 22.4563 46.3503 22.4156 46.3918C22.375 46.4332 22.3524 46.4891 22.3528 46.5473Z" fill="#3F3D56"/>
<path d="M22.3528 47.3727C22.3524 47.4308 22.375 47.4867 22.4156 47.5281C22.4563 47.5696 22.5116 47.5933 22.5695 47.594H25.4728C25.5302 47.5926 25.5848 47.5688 25.6249 47.5277C25.665 47.4865 25.6875 47.4312 25.6875 47.3736C25.6875 47.3161 25.665 47.2608 25.6249 47.2196C25.5848 47.1785 25.5302 47.1547 25.4728 47.1533H22.5695C22.5409 47.1534 22.5126 47.1592 22.4863 47.1703C22.4599 47.1814 22.436 47.1976 22.4158 47.218C22.3957 47.2383 22.3798 47.2625 22.369 47.289C22.3581 47.3156 22.3527 47.344 22.3528 47.3727Z" fill="#3F3D56"/>
<path d="M63.3148 55.2427H27.6731C27.2048 55.2432 26.7559 55.43 26.4249 55.762C26.0938 56.0939 25.9075 56.544 25.907 57.0135V74.4078C25.9075 74.8773 26.0937 75.3274 26.4248 75.6594C26.7559 75.9914 27.2048 76.1782 27.6731 76.1787H63.3148C63.7831 76.1782 64.232 75.9914 64.5631 75.6594C64.8941 75.3274 65.0804 74.8773 65.0809 74.4078V57.0135C65.0803 56.544 64.8941 56.0939 64.563 55.762C64.2319 55.43 63.783 55.2432 63.3148 55.2427ZM64.6832 57.0135V62.0884H52.1555V55.6415H63.3148C63.6776 55.6419 64.0254 55.7866 64.282 56.0438C64.5385 56.301 64.6828 56.6498 64.6832 57.0135ZM39.2301 68.9343V62.4871H51.7578V68.9343H39.2301ZM51.7578 69.333V75.7799H39.2301V69.333H51.7578ZM38.8324 68.9343H26.3047V62.4871H38.8324V68.9343ZM39.2301 62.0884V55.6415H51.7578V62.0884H39.2301ZM52.1555 62.4871H64.6832V68.9343H52.1555V62.4871ZM27.6731 55.6415H38.8324V62.0884H26.3047V57.0135C26.3051 56.6498 26.4494 56.301 26.7059 56.0438C26.9625 55.7866 27.3103 55.6419 27.6731 55.6415ZM26.3047 74.4078V69.333H38.8324V75.7799H27.6731C27.3103 75.7795 26.9624 75.6348 26.7059 75.3776C26.4494 75.1203 26.3051 74.7716 26.3047 74.4078ZM63.3148 75.7799H52.1555V69.333H64.6832V74.4078C64.6828 74.7716 64.5385 75.1203 64.282 75.3776C64.0255 75.6348 63.6776 75.7795 63.3148 75.7799Z" fill="#3F3D56"/>
<path d="M43.6825 59.659C43.3662 59.1345 42.9914 58.5744 42.4044 58.4031C41.7247 58.2048 41.0264 58.5988 40.4342 58.9876C38.6629 60.1505 36.9571 61.4107 35.3247 62.7624L35.3265 62.7828L39.1392 62.5191C40.0575 62.4557 41.0073 62.3834 41.8188 61.9478C42.1267 61.7826 42.4268 61.5618 42.7758 61.5464C43.2093 61.5273 43.5873 61.8309 43.8843 62.148C45.6415 64.0243 46.15 66.8934 48.1213 68.5418C46.8783 65.4678 45.394 62.4976 43.6825 59.659Z" fill="white"/>
<path d="M54.4834 75.5725C54.2891 75.3265 54.2097 75.2688 54.018 75.0205C52.4573 72.9966 50.9904 70.9042 49.6173 68.7435C48.6846 67.2761 47.7982 65.7804 46.958 64.2566C46.558 63.5322 46.1689 62.802 45.7909 62.0662C45.4975 61.4957 45.2107 60.9217 44.9304 60.3444C44.8502 60.1795 44.7724 60.0138 44.6949 59.8478C44.5123 59.4573 44.333 59.0649 44.1406 58.6798C43.9417 58.2174 43.6373 57.8084 43.2518 57.4856C43.0685 57.3459 42.8494 57.2614 42.62 57.2419C42.2969 57.2437 41.9805 57.3346 41.7055 57.5046C39.6233 58.6022 37.6797 59.946 35.9165 61.5074C34.1506 63.0625 32.5721 64.8194 31.2133 66.7423C31.1718 66.8018 31.0735 66.745 31.1154 66.6851C31.2807 66.4508 31.4491 66.219 31.6209 65.9898C33.7567 63.1416 36.3756 60.6922 39.3577 58.7537C39.8594 58.4277 40.3705 58.117 40.8911 57.8215C41.1535 57.6725 41.417 57.5255 41.6851 57.3875C41.9419 57.2365 42.23 57.147 42.527 57.1259C43.5486 57.11 44.0775 58.27 44.4408 59.0505C44.555 59.2962 44.6705 59.5411 44.7875 59.7852C45.2294 60.7121 45.6884 61.6305 46.1644 62.5405C46.4582 63.1023 46.7584 63.6608 47.065 64.216C48.0192 65.9451 49.0334 67.6391 50.1077 69.2981C51.5307 71.4957 52.9424 73.4371 54.5636 75.4921C54.6082 75.549 54.5284 75.6301 54.4834 75.5725Z" fill="white"/>
<path d="M35.8158 60.9347C35.7564 60.8683 35.6975 60.802 35.6377 60.7356C35.1667 60.2133 34.6612 59.6969 34.0143 59.3975C33.7059 59.2501 33.3692 59.1719 33.0275 59.1681C32.675 59.1778 32.3275 59.2538 32.003 59.3921C31.8487 59.4539 31.6979 59.5241 31.5493 59.5987C31.3795 59.6844 31.2128 59.7758 31.0469 59.8679C30.7353 60.0408 30.4278 60.2212 30.1244 60.4093C29.5206 60.7834 28.9357 61.1861 28.3698 61.6174C28.0764 61.8411 27.789 62.0721 27.5078 62.3104C27.2461 62.5318 26.9898 62.7591 26.7388 62.9924C26.6851 63.042 26.6049 62.9617 26.6586 62.912C26.7248 62.8502 26.7917 62.7888 26.8586 62.7282C27.0477 62.5568 27.2397 62.3887 27.4348 62.224C27.7906 61.923 28.1555 61.6336 28.5297 61.3558C29.1115 60.9237 29.7134 60.5208 30.3353 60.1473C30.6461 59.9608 30.9612 59.7821 31.2805 59.6113C31.3769 59.5597 31.4745 59.5093 31.5731 59.4615C31.797 59.3483 32.0297 59.2533 32.2688 59.1776C32.6075 59.0677 32.9659 59.0324 33.3194 59.0741C33.6608 59.1239 33.9897 59.238 34.2888 59.4104C34.9239 59.7663 35.4166 60.3168 35.8959 60.8539C35.9443 60.9085 35.8646 60.9893 35.8158 60.9347Z" fill="white"/>
<path d="M48.8297 66.348L50.3517 65.7898L51.1074 65.5127C51.3515 65.4141 51.6005 65.3281 51.8534 65.255C52.0745 65.1917 52.3092 65.1947 52.5287 65.2637C52.7243 65.3363 52.9034 65.4476 53.0553 65.591C53.2105 65.7343 53.3549 65.889 53.4873 66.0536C53.6519 66.2519 53.8139 66.4522 53.9768 66.6519C54.6488 67.4759 55.3164 68.3035 55.9796 69.1347C56.6427 69.9659 57.3015 70.8006 57.9558 71.6389C58.6117 72.4792 59.2631 73.323 59.91 74.1703C59.9893 74.2741 60.0684 74.378 60.1476 74.4819C60.1913 74.5393 60.2898 74.4827 60.2455 74.4245C59.5938 73.5686 58.9376 72.7163 58.2769 71.8674C57.6145 71.0166 56.9475 70.1693 56.276 69.3257C55.6045 68.482 54.9284 67.6421 54.2478 66.8058C54.0783 66.5974 53.9085 66.3893 53.7383 66.1814C53.5948 66.006 53.453 65.8288 53.2956 65.6656C53.1616 65.5036 52.997 65.3698 52.8114 65.2717C52.6257 65.1737 52.4226 65.1133 52.2136 65.094C51.9606 65.1029 51.7112 65.1578 51.4777 65.2562C51.2233 65.3485 50.9695 65.4425 50.7153 65.5357L49.1827 66.0978L48.7996 66.2383C48.7316 66.2633 48.7609 66.3732 48.8297 66.348Z" fill="white"/>
<path d="M33.814 60.0547C33.4229 59.8615 32.9876 59.7761 32.5527 59.8073C32.1178 59.8385 31.699 59.9851 31.3394 60.2322C32.695 60.4667 34.0359 60.7805 35.355 61.172C34.8072 60.8501 34.3787 60.3458 33.814 60.0547Z" fill="white"/>
<path d="M31.3324 60.231L31.1829 60.3525C31.2335 60.31 31.286 60.2701 31.3401 60.2323L31.3324 60.231Z" fill="white"/>
<path d="M52.998 66.3536C52.8648 66.1567 52.6792 66.0013 52.4621 65.905L52.2529 65.9133C53.8456 68.7351 55.9965 71.2009 58.5738 73.1591L52.998 66.3536Z" fill="white"/>
<path d="M52.0193 63.2641C52.6847 63.2641 53.2241 62.7232 53.2241 62.056C53.2241 61.3888 52.6847 60.8479 52.0193 60.8479C51.3539 60.8479 50.8145 61.3888 50.8145 62.056C50.8145 62.7232 51.3539 63.2641 52.0193 63.2641Z" fill="white"/>
<path d="M69.5032 75.4809C69.7404 75.4806 69.9679 75.3859 70.1356 75.2177C70.3033 75.0496 70.3977 74.8215 70.3981 74.5837V56.0403C70.3981 55.8024 70.3038 55.5741 70.136 55.4059C69.9682 55.2376 69.7406 55.1431 69.5032 55.1431C69.2659 55.1431 69.0383 55.2376 68.8705 55.4059C68.7027 55.5741 68.6084 55.8024 68.6084 56.0403V74.5837C68.6088 74.8215 68.7031 75.0496 68.8709 75.2177C69.0386 75.3859 69.266 75.4806 69.5032 75.4809Z" fill="#3F3D56"/>
<path d="M69.5032 75.4809C69.7404 75.4805 69.9679 75.3859 70.1356 75.2177C70.3033 75.0495 70.3977 74.8215 70.3981 74.5836V70.6516C70.295 70.5107 70.1603 70.3961 70.0048 70.3172C69.8493 70.2382 69.6775 70.197 69.5032 70.197C69.329 70.197 69.1571 70.2382 69.0017 70.3172C68.8462 70.3961 68.7115 70.5107 68.6084 70.6516V74.5836C68.6088 74.8215 68.7031 75.0495 68.8709 75.2177C69.0386 75.3859 69.266 75.4805 69.5032 75.4809Z" fill="#2F2E41"/>
<path d="M69.5034 71.6924C69.7585 71.692 70.0031 71.5902 70.1835 71.4094C70.3639 71.2285 70.4654 70.9832 70.4658 70.7274V66.4987C70.3549 66.3471 70.21 66.2239 70.0428 66.139C69.8756 66.054 69.6908 66.0098 69.5034 66.0098C69.3159 66.0098 69.1312 66.054 68.964 66.139C68.7968 66.2239 68.6519 66.3471 68.541 66.4987V70.7274C68.5414 70.9832 68.6429 71.2285 68.8233 71.4094C69.0037 71.5902 69.2483 71.692 69.5034 71.6924Z" fill="#FC773F"/>
<path d="M69.5032 70.9236C69.6893 70.9233 69.8677 70.8491 69.9992 70.7172C70.1308 70.5852 70.2049 70.4064 70.2051 70.2198V67.1354C70.1243 67.0249 70.0186 66.935 69.8967 66.8731C69.7747 66.8111 69.6399 66.7788 69.5032 66.7788C69.3665 66.7788 69.2317 66.8111 69.1098 66.8731C68.9878 66.935 68.8821 67.0249 68.8013 67.1354V70.2198C68.8016 70.4064 68.8756 70.5852 69.0072 70.7172C69.1388 70.8491 69.3171 70.9233 69.5032 70.9236Z" fill="#3F3D56"/>
<path d="M41.8978 96.313C41.7407 96.1719 41.6459 95.9741 41.6341 95.7629C41.6222 95.5518 41.6944 95.3446 41.8348 95.1868L49.6529 86.4153C49.7225 86.3372 49.8067 86.2736 49.9008 86.2281C49.9949 86.1827 50.0971 86.1563 50.2013 86.1504C50.3056 86.1446 50.4101 86.1593 50.5087 86.1939C50.6072 86.2285 50.6981 86.2823 50.776 86.3521C50.8538 86.4218 50.9173 86.5063 50.9626 86.6007C51.0079 86.6951 51.0342 86.7975 51.0401 86.902C51.0459 87.0066 51.0312 87.1113 50.9967 87.2102C50.9622 87.309 50.9086 87.4001 50.839 87.4782L43.021 96.2497C42.8803 96.4073 42.683 96.5024 42.4724 96.5142C42.2619 96.5261 42.0552 96.4537 41.8978 96.313Z" fill="#FC773F"/>
<path d="M106.754 110.755C106.754 112.209 106.412 113.321 106.454 114.21C104.108 115.237 101.697 116.104 99.2353 116.807C98.9569 116.886 98.6785 116.962 98.3981 117.038C96.8809 112.38 95.3616 108.115 94.7631 107.662C93.393 106.632 92.707 110.897 92.707 109.866C92.707 108.835 93.393 108.835 91.6809 107.461C89.9668 106.087 90.9948 99.9042 90.9948 99.9042L88.5967 93.7211L91.2792 83.8592L94.7631 71.0483H98.1893C98.1893 71.0483 98.2907 71.1221 98.4598 71.2597C99.3168 71.9615 101.902 74.3064 101.616 76.8885C101.53 77.6581 101.721 79.8953 102.053 82.8742C103.063 91.8687 105.384 101.647 105.384 104.227C105.384 107.662 106.754 108.693 106.754 110.755Z" fill="#E6E6E6"/>
<path d="M103.881 82.8405C103.877 82.8306 103.875 82.8226 103.871 82.8146C103.794 82.6072 103.704 82.4047 103.602 82.2085C103.024 81.1178 103.636 79.4429 102.984 77.5926C101.93 74.5937 100.645 72.8251 98.7623 71.24C98.7066 71.1921 98.651 71.1463 98.5933 71.0984L98.5913 71.0964C97.3345 70.0616 95.8193 69.0945 93.9381 67.8902C93.5464 67.639 93.1368 67.3778 92.7112 67.1026C92.1624 66.7497 92.1922 65.5733 92.224 64.3291C92.2598 62.9473 92.2976 61.5157 91.6215 60.6224L91.5778 60.5646L91.5082 60.5466C89.1901 60.0869 86.8258 59.9042 84.4648 60.0023H84.4628C83.4604 60.0396 82.4649 60.186 81.494 60.439C81.4224 60.4589 81.3508 60.4788 81.2812 60.5028C81.2275 60.5167 81.1738 60.5347 81.1201 60.5526L81.0764 60.5686L81.0426 60.6005C80.3883 61.2565 80.2372 62.4329 80.1656 63.6591V63.6611C80.1517 63.8845 80.1398 64.1078 80.1298 64.3311C80.0741 65.5234 80.0225 66.65 79.585 67.1385C78.6092 68.247 77.4297 69.1568 76.111 69.8183C74.0569 70.8352 72.4322 70.8033 72.4084 70.8033L72.2195 70.7973L72.2016 70.9847C70.8374 73.5908 70.8891 80.3143 70.8474 87.5143C70.8454 87.915 70.8428 88.3178 70.8394 88.7226C70.8156 92.0763 70.752 95.4879 70.5014 98.5964C70.392 99.9323 70.2508 101.21 70.0619 102.405C69.1432 108.221 64.9812 103.392 62.9907 107.262C63.0561 107.643 63.1663 108.014 63.3188 108.369C63.5475 108.504 63.7822 108.636 64.0148 108.767C65.0469 109.344 66.0981 109.881 67.1686 110.38C67.2283 110.408 67.2879 110.436 67.3476 110.462C69.3111 111.373 71.3349 112.147 73.4046 112.779C73.8083 112.903 74.212 113.02 74.6196 113.132C78.2255 114.13 81.9385 114.688 85.6778 114.793C85.693 114.791 85.7083 114.791 85.7236 114.791C90.1458 114.668 94.5392 114.033 98.816 112.899C98.8756 112.883 98.9353 112.867 98.995 112.851C99.2753 112.775 99.5537 112.699 99.8321 112.62C102.294 111.917 104.705 111.05 107.05 110.023C107.053 110.111 107.062 110.198 107.076 110.285C107.078 110.313 107.082 110.341 107.088 110.368C107.092 110.337 107.096 110.305 107.098 110.273C107.11 110.179 107.12 110.083 107.13 109.988C108.347 98.088 105.82 87.9848 103.881 82.8405Z" fill="#3F3D56"/>
<path d="M76.5517 53.6761C77.7654 55.9014 79.6987 57.6459 82.0333 58.6224C84.3678 59.5988 86.9644 59.7489 89.3954 59.0479C91.8264 58.347 93.9469 56.8368 95.4076 54.766C96.8682 52.6953 97.5821 50.1875 97.4315 47.6556C97.2809 45.1237 96.2748 42.7188 94.579 40.8368C92.8832 38.9548 90.5988 37.7081 88.1019 37.3018C85.605 36.8956 83.0446 37.3541 80.8424 38.6019C78.6401 39.8496 76.9273 41.8122 75.986 44.1665C75.9351 44.2942 75.8892 44.422 75.8434 44.5548C75.3112 46.0389 75.0992 47.6193 75.2213 49.1917C75.3434 50.764 75.7969 52.2925 76.5517 53.6761Z" fill="#FFB6B6"/>
<path d="M74.9516 44.5547C75.4306 43.2108 75.2216 43.9108 75.7058 42.572C75.3898 43.7575 75.8892 44.4218 75.8434 44.5547H89.0985V36.8285C85.2152 35.2852 81.4186 33.972 79.1253 36.8285C77.0817 36.8285 75.1219 37.6426 73.6769 39.0915C72.2319 40.5404 71.42 42.5056 71.4199 44.5547H74.9516Z" fill="#2F2E41"/>
<path d="M79.6502 66.032C79.6604 65.8889 79.6757 65.7407 79.6961 65.5976C79.8387 64.545 80.1955 63.5332 80.5573 62.5317C80.9395 61.4535 81.3268 60.3701 81.7141 59.292C81.2154 61.2491 81.3675 63.316 82.1473 65.1786C84.3845 63.431 82.9729 59.435 85.8981 59.435C92.9307 59.435 100.167 53.717 100.167 46.6602C100.167 39.6084 97.1504 34.335 90.1177 34.335C83.0799 34.335 77.3722 37.5644 77.2346 44.6162C85.8981 46.6602 78.0144 65.3166 79.6502 66.032Z" fill="#2F2E41"/>
<path d="M99.2886 45.5794C103.792 45.5794 107.442 41.9189 107.442 37.4035C107.442 32.888 103.792 29.2275 99.2886 29.2275C94.7854 29.2275 91.1348 32.888 91.1348 37.4035C91.1348 41.9189 94.7854 45.5794 99.2886 45.5794Z" fill="#2F2E41"/>
<path d="M112 84.292C111.972 84.7127 111.948 85.1607 111.927 85.6359C111.505 94.5866 111.869 106.636 109.027 113.174C108.391 113.523 107.748 113.856 107.098 114.175C107.072 114.187 107.049 114.199 107.027 114.211C106.852 114.296 106.677 114.38 106.502 114.46C106.495 114.465 106.488 114.469 106.48 114.472C104.558 115.382 102.578 116.162 100.552 116.807C100.304 116.886 100.053 116.962 99.8025 117.038C99.7488 117.054 99.6951 117.07 99.6414 117.086C95.8248 118.218 91.8792 118.854 87.9012 118.978C87.6944 118.984 87.4915 118.988 87.2947 118.992C87.2251 118.994 87.1575 118.996 87.0898 118.996C86.8672 118.998 86.6464 119 86.4237 119C85.9743 119 85.5269 118.993 85.0815 118.98C81.3421 118.875 77.6292 118.317 74.0233 117.319C73.6156 117.207 73.2119 117.09 72.8083 116.966C70.7386 116.334 68.7147 115.56 66.7512 114.649C66.6916 114.623 66.6319 114.595 66.5723 114.568C65.5024 114.069 64.4512 113.531 63.4185 112.954C63.1858 112.823 62.9512 112.691 62.7225 112.556C62.5699 112.201 62.4598 111.83 62.3944 111.449C61.943 109.274 61.5811 110.741 61.3226 106.215C61.0859 102.066 60.9348 97.9045 60.8791 95.5257C60.8612 94.8916 60.8553 94.3832 60.8533 94.0363C61.0641 92.5249 64.4525 90.8101 69.394 89.1811C69.8613 89.0276 70.3445 88.874 70.8396 88.7225C72.1759 88.3098 73.6037 87.905 75.0951 87.5142C78.8932 86.5172 83.1108 85.602 87.2967 84.8463C89.3627 84.4755 91.4209 84.1425 93.4193 83.8594C96.9251 83.3609 100.242 83.0159 103.08 82.8744C103.352 82.8604 103.618 82.8484 103.881 82.8405C104.163 82.8285 104.44 82.8205 104.71 82.8145C108.799 82.7248 111.59 83.1515 112 84.292Z" fill="#2F2E41"/>
<path opacity="0.2" d="M112 84.292C111.972 84.7128 111.948 85.1607 111.927 85.6359C108.828 82.2901 75.453 97.2365 61.3226 106.215C61.0859 102.066 60.9348 97.9044 60.8791 95.5257C60.8612 94.8916 60.8553 94.3832 60.8533 94.0363C61.0641 92.5249 64.4525 90.8101 69.394 89.1811C69.8613 89.0276 70.3445 88.874 70.8396 88.7225C72.1759 88.3098 73.6037 87.905 75.0951 87.5142C78.8932 86.5172 83.1108 85.602 87.2967 84.8463C89.3627 84.4755 91.4209 84.1425 93.4193 83.8593C96.9251 83.3609 100.242 83.0159 103.08 82.8744C103.352 82.8604 103.618 82.8484 103.881 82.8405C104.163 82.8285 104.44 82.8205 104.71 82.8145C108.799 82.7248 111.59 83.1515 112 84.292Z" fill="black"/>
<path d="M44.1255 94.663C44.4385 95.0586 44.8342 95.3806 45.2847 95.6064C45.7352 95.8321 46.2296 95.956 46.7331 95.9694C47.2365 95.9829 47.7368 95.8854 48.1986 95.684C48.6604 95.4826 49.0726 95.1821 49.4061 94.8037L60.7304 99.4672L59.5084 93.2071L48.942 89.7382C48.2708 89.2186 47.4329 88.9639 46.587 89.0224C45.7411 89.0809 44.9459 89.4484 44.3523 90.0555C43.7586 90.6625 43.4076 91.4668 43.3658 92.316C43.324 93.1652 43.5943 94.0003 44.1255 94.663Z" fill="#FFB6B6"/>
<path d="M81.795 68.5945L81.7329 68.5879L75.1292 69.0686C74.2908 69.1296 73.4749 69.3687 72.7357 69.7701C71.9965 70.1715 71.3509 70.7259 70.8418 71.3966C70.6051 71.7073 70.4003 72.0411 70.2303 72.393L70.2286 72.394C69.6593 73.562 69.4878 74.885 69.7402 76.1601L72.8491 91.8527L65.3686 91.1712L62.638 91.6392L59.4156 90.3356L52.8035 90.4484L52.6503 90.9566L51.2632 95.5672L51.1543 95.9294L61.2511 102.309L64.1784 101.416L65.5574 102.479L65.6236 102.48L68.3582 102.534L80.0205 102.764L83.2083 97.1008L83.7064 96.2129C87.4087 87.8965 88.3223 82.0908 88.0325 78.0912C87.8806 75.9779 87.3933 74.3715 86.8034 73.1609C84.9794 69.4198 81.9233 68.626 81.795 68.5945Z" fill="#3F3D56"/>
<path d="M100.32 44.662C98.7734 44.3135 97.3399 43.5792 96.152 42.5271C94.9641 41.4751 94.0602 40.1394 93.5243 38.6438C93.0459 37.2525 92.8653 35.7247 92.0623 34.4865C93.2856 32.802 94.2666 30.9534 94.9764 28.995C95.2512 28.2369 95.8946 26.8605 94.8038 26.4435C93.9348 26.1112 92.9474 26.9132 92.4323 27.546C92.0409 28.0255 91.7603 28.5859 91.6104 29.1871C91.4327 28.4005 91.2551 27.6139 91.0774 26.8273C91.0548 26.7518 91.0041 26.6879 90.9357 26.649C90.8674 26.6101 90.7867 26.5991 90.7105 26.6184C89.2546 26.8672 88.1986 28.219 88.0152 29.6428C87.9151 30.3759 88.0814 31.1205 88.4837 31.7408C88.9514 32.4542 89.6363 32.9657 90.2881 33.4974C90.9812 34.0628 91.5688 34.665 91.9414 35.4919C92.3287 36.3513 92.5031 37.2917 92.76 38.1941C93.2477 39.9273 94.1926 41.4964 95.4951 42.7363C96.7977 43.9761 98.4096 44.8406 100.161 45.2388C100.535 45.3208 100.695 44.7443 100.32 44.662ZM92.0978 30.3626C92.0509 29.6112 92.249 28.8649 92.662 28.2362C92.8687 27.9174 93.1278 27.636 93.4282 27.4039C93.713 27.1857 94.1332 26.8968 94.51 26.9769C94.9987 27.0809 94.8021 27.6279 94.6983 27.9578C94.5614 28.393 94.4108 28.8236 94.2466 29.2496C93.9268 30.0768 93.5555 30.883 93.1351 31.6637C92.9167 32.07 92.6834 32.4677 92.4398 32.8589C92.2718 32.1153 92.1039 31.3717 91.9359 30.6281C91.9888 30.6087 92.0336 30.5719 92.063 30.5236C92.0924 30.4754 92.1047 30.4187 92.0978 30.3626ZM88.614 30.4816C88.5164 29.8022 88.6579 29.1098 89.0141 28.5236C89.3704 27.9374 89.9191 27.4939 90.5661 27.2693C91.0396 29.3656 91.5131 31.4619 91.9866 33.5583C91.8888 33.7028 91.788 33.8451 91.687 33.9873C91.6605 33.9568 91.6363 33.9252 91.6088 33.8952C90.6156 32.8115 88.8839 32.0727 88.614 30.4816Z" fill="#FC773F"/>
</g>
<defs>
<clipPath id="clip0_225_3033">
<rect width="112" height="119" fill="white"/>
</clipPath>
</defs>
</svg>
