<svg width="130" height="118" viewBox="0 0 130 118" fill="none" xmlns="http://www.w3.org/2000/svg">
<g clip-path="url(#clip0_225_3404)">
<path d="M91.0213 22.1993C91.0849 22.6412 91.318 23.0407 91.6709 23.3129C92.0238 23.5851 92.4687 23.7084 92.9109 23.6567C93.0007 23.6447 93.0892 23.6254 93.1758 23.5988L96.7381 28.3937L99.8003 27.4371L94.2123 21.3977C94.0745 21.0464 93.8247 20.7507 93.5017 20.5568C93.1788 20.3629 92.8009 20.2816 92.4271 20.3257C92.2146 20.3528 92.0095 20.4216 91.8235 20.5282C91.6376 20.6348 91.4744 20.7771 91.3433 20.947C91.2121 21.1168 91.1157 21.3109 91.0593 21.5182C91.003 21.7254 90.988 21.9417 91.015 22.1548C91.0169 22.1697 91.019 22.1845 91.0213 22.1993Z" fill="#A0616A"/>
<path d="M116.176 43.6151C116.176 43.6151 102.874 37.3899 99.5094 33.4137L93.4802 25.9067L96.538 23.3982L102.205 29.9442C102.154 31.3196 108.852 32.7298 112.453 34.7346L116.176 43.6151Z" fill="#E6E6E6"/>
<path d="M119.446 114.938L116.837 114.938L115.596 104.846L119.446 104.846L119.446 114.938Z" fill="#A0616A"/>
<path d="M119.538 117.667L111.515 117.667V117.565C111.515 116.735 111.844 115.938 112.429 115.351C113.015 114.764 113.809 114.434 114.637 114.434L116.103 113.319L118.838 114.434L119.538 114.434L119.538 117.667Z" fill="#2F2E41"/>
<path d="M113.226 112.63L110.685 113.224L107.19 103.679L110.94 102.802L113.226 112.63Z" fill="#A0616A"/>
<path d="M113.934 115.267L106.121 117.095L106.098 116.996C105.909 116.187 106.049 115.336 106.487 114.631C106.924 113.926 107.623 113.423 108.429 113.234L108.429 113.234L109.604 111.815L112.519 112.278L113.201 112.118L113.934 115.267Z" fill="#2F2E41"/>
<path d="M87.7605 56.0082H15.1386C14.6803 56.0029 14.2241 55.9449 13.7789 55.8354C12.4503 55.5153 11.2682 54.7551 10.424 53.6776C9.57973 52.6002 9.12266 51.2687 9.12674 49.8984V25.1451C9.12927 23.5259 9.77218 21.9739 10.9144 20.8295C12.0566 19.6852 13.6049 19.0419 15.2195 19.0408H87.7605C88.7384 19.0382 89.7021 19.2747 90.5682 19.7299C90.9131 19.9093 91.2393 20.1227 91.5418 20.367C92.2646 20.9343 92.8485 21.6597 93.2491 22.4878C93.6497 23.3158 93.8563 24.2247 93.8533 25.1451V49.8984C93.8515 51.5183 93.209 53.0713 92.0668 54.2167C90.9246 55.3622 89.3759 56.0065 87.7605 56.0082Z" fill="#F2F2F2"/>
<path d="M82.8928 55.467C86.1901 47.4306 89.6638 39.4736 93.3137 31.5959V44.9521C90.7826 48.7403 87.9764 52.2958 84.7223 55.467H82.8928Z" fill="#FC773F"/>
<path d="M91.2037 20.7888C84.6792 32.5268 77.8525 44.0862 70.7236 55.4671H69.4824C76.73 43.9076 83.6755 32.1552 90.3187 20.2097C90.6322 20.3727 90.9287 20.5667 91.2037 20.7888Z" fill="#FC773F"/>
<path d="M43.3249 33.6039C39.0613 41.1634 34.3563 48.4639 29.2344 55.4672H21.8357C26.6819 49.5468 31.5316 43.6264 36.3849 37.706C37.7773 36.0012 39.2883 34.2154 41.3768 33.5227L43.3249 33.6039Z" fill="#FC773F"/>
<path d="M33.4923 32.3916C32.7206 33.1979 31.9812 34.0367 31.2851 34.9081C29.7524 36.7589 28.2414 38.6259 26.725 40.4875C25.7805 41.6456 24.8361 42.8037 23.9025 43.9618C23.6061 43.7709 23.3246 43.5574 23.0607 43.3233C21.5694 42.0254 20.6445 40.1934 20.484 38.2198C20.3235 36.2463 20.9403 34.2882 22.2021 32.7652C23.464 31.2422 25.2706 30.2754 27.2347 30.072C29.1988 29.8687 31.1642 30.4449 32.7098 31.6772C32.9883 31.8951 33.2499 32.1339 33.4923 32.3916Z" fill="white"/>
<path d="M75.2243 37.6518L61.0421 32.4512L53.9995 29.8698C51.706 29.0309 49.4178 28.0731 47.0487 27.467C44.9884 26.8765 42.8007 26.9047 40.7563 27.5481C38.9332 28.2247 37.2648 29.2628 35.8508 30.6003C35.2248 31.1794 34.6185 31.7765 34.0321 32.3916C33.2604 33.198 32.521 34.0368 31.8249 34.9081C30.2922 36.7589 28.7812 38.6259 27.2648 40.4876C26.3204 41.6456 25.376 42.8038 24.4424 43.9619C21.3231 47.788 18.2219 51.6231 15.1386 55.4672C14.7238 55.4624 14.311 55.4097 13.9082 55.3102C17.1246 51.3056 20.3554 47.3099 23.6005 43.3233C23.9729 42.8579 24.356 42.387 24.7338 41.9216C26.315 39.9789 27.898 38.0379 29.4828 36.0986C30.7078 34.5996 31.922 33.0897 33.2496 31.6773C33.3683 31.5474 33.4871 31.4229 33.6112 31.293C36.3041 28.5006 39.6662 26.0329 43.692 25.9679C46.0611 25.93 48.3493 26.6823 50.5511 27.4778C52.9202 28.3383 55.2839 29.215 57.653 30.0862L71.9324 35.3248L75.505 36.6344C76.1363 36.8617 75.8665 37.8899 75.2243 37.6518Z" fill="#FC773F"/>
<path d="M0.375765 27.9158V13.0551C0.376549 12.5913 0.560752 12.1468 0.887966 11.819C1.21518 11.4913 1.65868 11.307 2.12118 11.3067H21.3245V10.9299H2.12118C1.55905 10.9303 1.02003 11.1543 0.62237 11.5527C0.224709 11.9511 0.000883051 12.4914 0 13.0551V27.9158L0.375765 27.9158Z" fill="#3F3D56"/>
<path d="M1.70874 63.6931C1.32807 63.6013 0.989388 63.3835 0.747489 63.0748C0.505589 62.7662 0.374625 62.3847 0.375774 61.9921V47.1333H9.3836e-06V61.9921C-0.00140773 62.4691 0.157722 62.9327 0.451648 63.3078C0.745574 63.6829 1.1571 63.9476 1.61966 64.059C1.77464 64.0971 1.93347 64.1173 2.09303 64.1192H21.3245V63.7424H2.09533C1.96501 63.7407 1.83532 63.7242 1.70874 63.6931Z" fill="#3F3D56"/>
<path d="M87.7405 47.1333V61.9921C87.74 62.4561 87.5559 62.901 87.2287 63.2291C86.9015 63.5572 86.4578 63.7418 85.9951 63.7424H66.7917V64.1192H85.9951C86.5574 64.1185 87.0966 63.8942 87.4943 63.4955C87.8919 63.0967 88.1156 62.556 88.1163 61.9921V47.1333H87.7405Z" fill="#3F3D56"/>
<path d="M87.3632 11.5043C87.4617 11.5556 87.555 11.6167 87.6414 11.6866C87.8486 11.849 88.016 12.0567 88.1308 12.2939C88.2457 12.5311 88.305 12.7915 88.3042 13.0551V27.9158H88.68V13.0551C88.681 12.7347 88.6091 12.4183 88.4696 12.13C88.3302 11.8417 88.1269 11.5892 87.8753 11.3917C87.7699 11.3066 87.6564 11.2323 87.5363 11.1699C87.2347 11.0114 86.8992 10.929 86.5588 10.9299H67.3555V11.3068H86.5588C86.8389 11.306 87.115 11.3738 87.3632 11.5043Z" fill="#3F3D56"/>
<path d="M121.706 65.9375L105.473 66.7534L104.346 72.2173V77.0839L103.654 95.2044L108.479 109.334H112.348L111.955 107.544C112.17 107.243 112.29 106.885 112.302 106.515C112.313 106.145 112.215 105.78 112.019 105.467L111.709 104.969L111.204 102.833L110.076 94.9204L114.904 77.0839L115.525 109.616H119.728L120.344 108.91C120.686 108.518 120.89 108.024 120.924 107.504C120.957 106.984 120.819 106.467 120.53 106.034V105.245L120.034 102.457L124.666 67.8446L121.706 65.9375Z" fill="#2F2E41"/>
<path d="M114.692 32.019L109.397 32.291L108.796 34.8078L104.95 37.759C104.081 38.4263 103.415 39.324 103.027 40.3508C102.64 41.3776 102.546 42.4926 102.757 43.5699L104.889 54.4441L104.75 61.2501L105.058 64.0371L105.035 64.4591L104.564 64.8456C104.244 65.1085 104.022 65.4729 103.936 65.8789C103.849 66.2848 103.903 66.7082 104.089 67.0792C104.089 67.0792 101.769 72.1102 105.126 72.3661C108.484 72.622 110.561 69.1209 113.769 70.4821C116.977 71.8432 119.841 72.0027 120.72 70.4821C121.6 68.9614 124.275 69.3159 124.597 67.9874C124.919 66.659 123.29 65.1553 123.071 63.1753C122.852 61.1952 122.289 51.9632 122.289 51.9632L123.865 42.8995C124.088 41.6163 123.889 40.2951 123.298 39.1353C122.707 37.9755 121.755 37.0399 120.587 36.4697L115.541 34.0058L114.692 32.019Z" fill="#E6E6E6"/>
<path d="M87.1145 60.3972C87.3274 59.9363 87.7113 59.5769 88.1845 59.3955C88.6576 59.2141 89.1827 59.225 89.6479 59.4259C89.7419 59.4683 89.8321 59.5183 89.9178 59.5756L95.3591 55.5125L98.3865 57.5558L90.3325 62.3137C90.0682 62.6516 89.6998 62.8923 89.2848 62.9982C88.8697 63.1041 88.4314 63.0692 88.0381 62.899C87.8153 62.8 87.6141 62.658 87.446 62.481C87.278 62.304 87.1463 62.0956 87.0585 61.8676C86.9708 61.6396 86.9287 61.3965 86.9346 61.1522C86.9406 60.9078 86.9944 60.6671 87.0932 60.4436C87.1 60.4281 87.1071 60.4126 87.1145 60.3972Z" fill="#A0616A"/>
<path d="M104.021 38.9692C104.021 38.9692 96.9673 51.8486 94.2359 55.6366L92.1624 57.2607L92.3502 62.5691L96.9837 60.0051C96.9837 60.0051 106.334 52.9029 106.066 49.9458C105.797 46.9887 104.021 38.9692 104.021 38.9692Z" fill="#E6E6E6"/>
<path d="M111.595 31.5938C114.359 31.5938 116.599 29.3474 116.599 26.5762C116.599 23.8051 114.359 21.5586 111.595 21.5586C108.832 21.5586 106.592 23.8051 106.592 26.5762C106.592 29.3474 108.832 31.5938 111.595 31.5938Z" fill="#A0616A"/>
<path d="M113.529 31.1826C112.093 31.1354 111.963 30.755 110.527 30.7078C110.07 30.6927 109.53 30.6299 109.309 30.2283C109.152 29.9423 109.224 29.5821 109.363 29.2864C109.526 29.0042 109.674 28.7128 109.805 28.4138C109.884 28.1793 109.904 27.9291 109.865 27.6847C109.826 27.4404 109.728 27.2094 109.58 27.0115C109.431 26.8137 109.237 26.6551 109.014 26.5493C108.791 26.4436 108.546 26.3939 108.299 26.4046C107.862 26.4235 107.452 26.6296 107.016 26.6672C106.418 26.7189 105.097 24.7402 105.372 24.2058C105.64 23.6855 106.179 23.293 106.264 22.7137C106.319 22.3348 106.163 21.9583 106.142 21.576C106.11 21.0091 107.543 22.2873 107.281 21.7842C106.637 20.5501 112.704 19.02 113.702 20.5659C114.076 21.1437 114.741 21.1043 115.334 21.4513C115.722 21.6787 116.704 22.4633 116.927 22.9523C117.132 23.4513 117.229 23.9883 117.211 24.5276C117.22 27.0361 116.839 29.3436 114.821 30.8264" fill="#2F2E41"/>
<path d="M88.5839 116.512C87.2271 116.632 85.8607 116.446 84.5846 115.969C83.3084 115.492 82.1548 114.734 81.2078 113.753C79.9695 112.444 79.1198 110.759 78.298 109.129C78.0588 108.655 77.8116 108.164 77.56 107.694C77.2796 107.182 77.1585 106.597 77.2125 106.015C77.2665 105.433 77.493 104.881 77.8628 104.429C78.2173 103.977 78.6985 103.642 79.2444 103.468C79.7903 103.293 80.376 103.286 80.9259 103.448L81.0458 103.482L82.125 107.705C82.286 107.075 82.6316 105.656 82.8498 104.266L82.8681 104.149L82.9756 104.197C84.1025 104.697 85.1621 105.338 86.1294 106.103C87.8431 107.481 89.2368 109.218 90.2138 111.191C91.1908 113.164 91.7276 115.326 91.7869 117.529L91.7898 117.66L88.5839 116.512Z" fill="#F2F2F2"/>
<path d="M129.776 117.942L77.4045 118C77.3452 118 77.2885 117.976 77.2467 117.934C77.2049 117.892 77.1814 117.835 77.1814 117.776C77.1814 117.716 77.2049 117.659 77.2467 117.617C77.2885 117.575 77.3452 117.551 77.4045 117.551L129.776 117.493C129.806 117.493 129.835 117.499 129.862 117.51C129.889 117.522 129.914 117.538 129.935 117.559C129.956 117.58 129.972 117.604 129.984 117.632C129.995 117.659 130.001 117.688 130.001 117.718C130.001 117.747 129.995 117.776 129.984 117.804C129.972 117.831 129.956 117.856 129.935 117.877C129.914 117.897 129.889 117.914 129.862 117.925C129.835 117.936 129.806 117.942 129.776 117.942Z" fill="#CACACA"/>
<path d="M29.9582 79.6175C28.9859 79.6175 28.0355 79.3284 27.2272 78.7867C26.4188 78.245 25.7887 77.4752 25.4167 76.5744C25.0446 75.6737 24.9473 74.6825 25.1369 73.7263C25.3266 72.7701 25.7948 71.8917 26.4823 71.2023C27.1697 70.513 28.0456 70.0435 28.9992 69.8533C29.9527 69.6631 30.9411 69.7607 31.8393 70.1338C32.7375 70.5069 33.5053 71.1387 34.0454 71.9493C34.5856 72.76 34.8739 73.7131 34.8739 74.688C34.8739 75.9954 34.356 77.2492 33.4341 78.1737C32.5122 79.0981 31.2619 79.6175 29.9582 79.6175Z" fill="#E6E6E6"/>
<path d="M31.8978 74.2017H30.4431V72.7429C30.4429 72.6141 30.3917 72.4906 30.3008 72.3997C30.2099 72.3087 30.0867 72.2576 29.9582 72.2576C29.8298 72.2576 29.7066 72.3087 29.6157 72.3997C29.5248 72.4906 29.4736 72.6141 29.4733 72.7429V74.2017H28.0186C27.8902 74.2019 27.7671 74.2533 27.6764 74.3444C27.5856 74.4356 27.5347 74.5591 27.5347 74.6879C27.5347 74.8167 27.5856 74.9403 27.6764 75.0314C27.7671 75.1226 27.8902 75.1739 28.0186 75.1742H29.4733V76.633C29.4736 76.7618 29.5248 76.8852 29.6157 76.9762C29.7066 77.0672 29.8298 77.1183 29.9582 77.1183C30.0867 77.1183 30.2099 77.0672 30.3008 76.9762C30.3917 76.8852 30.4429 76.7618 30.4431 76.633V75.1742H31.8978C31.9616 75.1743 32.0248 75.1618 32.0837 75.1375C32.1426 75.1131 32.1962 75.0773 32.2413 75.0321C32.2865 74.9869 32.3223 74.9333 32.3467 74.8742C32.3711 74.8152 32.3837 74.7519 32.3837 74.6879C32.3837 74.624 32.3711 74.5607 32.3467 74.5016C32.3223 74.4426 32.2865 74.3889 32.2413 74.3438C32.1962 74.2986 32.1426 74.2628 32.0837 74.2384C32.0248 74.214 31.9616 74.2015 31.8978 74.2017Z" fill="white"/>
<path d="M44.3398 79.6175C43.3675 79.6175 42.4171 79.3284 41.6087 78.7867C40.8004 78.245 40.1703 77.4752 39.7983 76.5744C39.4262 75.6737 39.3289 74.6825 39.5185 73.7263C39.7082 72.7701 40.1764 71.8917 40.8638 71.2023C41.5513 70.513 42.4272 70.0435 43.3808 69.8533C44.3343 69.6631 45.3227 69.7607 46.2209 70.1338C47.1191 70.5069 47.8869 71.1387 48.427 71.9493C48.9671 72.76 49.2554 73.7131 49.2554 74.688C49.2554 75.9954 48.7375 77.2492 47.8157 78.1737C46.8938 79.0981 45.6435 79.6175 44.3398 79.6175Z" fill="#E6E6E6"/>
<path d="M46.2794 74.2017H42.4002C42.2718 74.2019 42.1487 74.2533 42.0579 74.3444C41.9672 74.4356 41.9163 74.5591 41.9163 74.6879C41.9163 74.8167 41.9672 74.9403 42.0579 75.0314C42.1487 75.1226 42.2718 75.1739 42.4002 75.1742H46.2794C46.408 75.1742 46.5314 75.123 46.6223 75.0318C46.7132 74.9406 46.7643 74.8169 46.7643 74.6879C46.7643 74.559 46.7132 74.4353 46.6223 74.3441C46.5314 74.2529 46.408 74.2017 46.2794 74.2017Z" fill="white"/>
<path d="M58.7216 79.6175C57.7494 79.6175 56.799 79.3284 55.9906 78.7867C55.1822 78.245 54.5522 77.4752 54.1801 76.5744C53.808 75.6737 53.7107 74.6825 53.9004 73.7263C54.09 72.7701 54.5582 71.8917 55.2457 71.2023C55.9332 70.513 56.8091 70.0435 57.7626 69.8533C58.7162 69.6631 59.7045 69.7607 60.6028 70.1338C61.501 70.5069 62.2687 71.1387 62.8088 71.9493C63.349 72.76 63.6373 73.7131 63.6373 74.688C63.6373 75.9954 63.1194 77.2492 62.1975 78.1737C61.2756 79.0981 60.0253 79.6175 58.7216 79.6175Z" fill="#E6E6E6"/>
<path d="M61.4871 74.4536L60.0935 72.4138C60.0628 72.3689 60.0237 72.3305 59.9782 72.3008C59.9327 72.2711 59.8818 72.2507 59.8285 72.2407C59.7751 72.2307 59.7203 72.2313 59.6672 72.2426C59.6141 72.2538 59.5638 72.2754 59.519 72.3062C59.4742 72.3369 59.4359 72.3763 59.4063 72.4219C59.3767 72.4675 59.3563 72.5185 59.3463 72.572C59.3363 72.6255 59.337 72.6804 59.3482 72.7337C59.3594 72.7869 59.381 72.8374 59.4116 72.8823L60.3129 74.2015H56.782C56.7183 74.2015 56.6553 74.2141 56.5965 74.2385C56.5376 74.263 56.4842 74.2988 56.4391 74.3439C56.3941 74.3891 56.3584 74.4427 56.334 74.5017C56.3097 74.5607 56.2971 74.6239 56.2971 74.6878C56.2971 74.7516 56.3097 74.8149 56.334 74.8739C56.3584 74.9329 56.3941 74.9865 56.4391 75.0316C56.4842 75.0768 56.5376 75.1126 56.5965 75.137C56.6553 75.1615 56.7183 75.174 56.782 75.174H60.3572L59.4116 76.5581C59.3497 76.6488 59.3262 76.7605 59.3463 76.8685C59.3664 76.9765 59.4286 77.0721 59.519 77.1343C59.6094 77.1964 59.7207 77.22 59.8285 77.1998C59.9362 77.1796 60.0316 77.1173 60.0935 77.0266L61.4871 74.9869C61.5325 74.9054 61.5563 74.8136 61.5563 74.7202C61.5563 74.6269 61.5325 74.5351 61.4871 74.4536Z" fill="white"/>
<path d="M44.3399 10.4679C47.2225 10.4679 49.5593 8.12459 49.5593 5.23396C49.5593 2.34332 47.2225 0 44.3399 0C41.4574 0 39.1206 2.34332 39.1206 5.23396C39.1206 8.12459 41.4574 10.4679 44.3399 10.4679Z" fill="#FC773F"/>
<path d="M43.6279 7.95788C43.5377 7.95788 43.4488 7.93683 43.3682 7.8964C43.2876 7.85597 43.2175 7.79726 43.1634 7.72494L41.7395 5.82104C41.6936 5.75989 41.6602 5.69026 41.6412 5.61614C41.6221 5.54201 41.6178 5.46485 41.6286 5.38907C41.6393 5.31328 41.6648 5.24037 41.7037 5.17449C41.7425 5.10861 41.794 5.05106 41.855 5.00514C41.9161 4.95921 41.9856 4.92581 42.0596 4.90685C42.1335 4.88789 42.2105 4.88374 42.286 4.89464C42.3616 4.90553 42.4342 4.93126 42.4999 4.97035C42.5655 5.00944 42.6228 5.06112 42.6685 5.12244L43.6 6.36792L45.9927 2.76898C46.0349 2.70529 46.0893 2.65057 46.1526 2.60796C46.216 2.56534 46.2871 2.53567 46.3619 2.52063C46.4367 2.5056 46.5137 2.50549 46.5886 2.52032C46.6634 2.53515 46.7346 2.56463 46.7981 2.60706C46.8616 2.6495 46.9161 2.70406 46.9585 2.76763C47.0009 2.83121 47.0305 2.90255 47.0454 2.97757C47.0603 3.05259 47.0604 3.12983 47.0455 3.20487C47.0307 3.27991 47.0012 3.35127 46.9588 3.41489L44.111 7.69861C44.0595 7.77608 43.9902 7.84004 43.9089 7.88512C43.8277 7.93019 43.7368 7.95508 43.644 7.95769C43.6386 7.95778 43.6333 7.95788 43.6279 7.95788Z" fill="white"/>
</g>
<defs>
<clipPath id="clip0_225_3404">
<rect width="130" height="118" fill="white"/>
</clipPath>
</defs>
</svg>
