<svg width="300" height="45" viewBox="0 0 300 45" fill="none" xmlns="http://www.w3.org/2000/svg">
<rect width="300" height="45" rx="6" fill="#FEE500"/>
<path d="M125.215 17.215C125.2 21.79 123.115 24.85 119.29 26.86L118.3 25.75C120.235 24.865 121.855 23.44 122.77 21.595L118.855 22.015L118.615 20.68L123.28 20.335C123.445 19.735 123.565 19.12 123.61 18.46H119.29V17.215H125.215ZM128.83 15.82V21.04H130.9V22.315H128.83V29.185H127.285V15.82H128.83ZM138.194 17.215C138.179 21.79 136.094 24.85 132.269 26.86L131.279 25.75C133.214 24.865 134.834 23.44 135.749 21.595L131.834 22.015L131.594 20.68L136.259 20.335C136.424 19.735 136.544 19.12 136.589 18.46H132.269V17.215H138.194ZM141.809 15.82V21.04H143.879V22.315H141.809V29.185H140.264V15.82H141.809ZM156.482 27.475H144.407V26.245H149.657V23.965C147.182 23.725 145.607 22.315 145.607 20.32C145.607 18.115 147.542 16.645 150.437 16.645C153.377 16.645 155.297 18.115 155.297 20.32C155.297 22.33 153.692 23.74 151.187 23.98V26.245H156.482V27.475ZM153.752 20.335C153.752 18.91 152.447 17.905 150.437 17.905C148.472 17.905 147.152 18.91 147.152 20.335C147.152 21.745 148.472 22.705 150.437 22.705C152.432 22.705 153.752 21.745 153.752 20.335ZM172.231 24.025H168.106V26.26H173.401V27.49H161.326V26.26H166.576V24.025H162.871V19.705H170.311V17.98H162.826V16.75H171.841V20.95H164.416V22.78H172.231V24.025ZM186.379 27.235H174.304V25.99H186.379V27.235ZM184.804 17.26C184.804 20.8 184.579 23.305 184.219 25.06L182.704 24.865C183.034 23.53 183.259 20.635 183.259 18.475H175.699V17.26H184.804ZM198.278 25.51H196.748V15.82H198.278V25.51ZM198.593 28.795H189.443V24.595H190.973V27.565H198.593V28.795ZM194.528 20.08C194.528 21.985 193.148 23.35 191.108 23.35C189.068 23.35 187.658 21.985 187.658 20.095C187.658 18.19 189.053 16.81 191.108 16.81C193.148 16.81 194.528 18.175 194.528 20.08ZM192.998 20.08C192.998 18.91 192.278 18.085 191.108 18.085C189.968 18.085 189.203 18.94 189.203 20.08C189.203 21.175 189.968 22.045 191.108 22.045C192.278 22.045 192.998 21.175 192.998 20.08Z" fill="black" fill-opacity="0.85"/>
<g clip-path="url(#clip0_455_11703)">
<path fill-rule="evenodd" clip-rule="evenodd" d="M23 13.9761C18.0292 13.9761 14 17.1055 14 20.9651C14 23.3655 15.5584 25.4815 17.9315 26.7401L16.933 30.4069C16.8448 30.7309 17.2134 30.9892 17.4965 30.8014L21.8734 27.8974C22.2427 27.9333 22.6181 27.9542 23 27.9542C27.9705 27.9542 31.9999 24.8249 31.9999 20.9651C31.9999 17.1055 27.9705 13.9761 23 13.9761Z" fill="black"/>
</g>
<defs>
<clipPath id="clip0_455_11703">
<rect width="18" height="18" fill="white" transform="translate(14 13.5)"/>
</clipPath>
</defs>
</svg>
