<svg width="157" height="42" viewBox="0 0 157 42" fill="none" xmlns="http://www.w3.org/2000/svg">
<path opacity="0.8" d="M32 18C32 22.4189 28.6421 26 24.5 26C20.3579 26 17 22.418 17 18" stroke="url(#paint0_linear_225_11456)" stroke-width="3.51084" stroke-miterlimit="10" stroke-linecap="round"/>
<path d="M10 19C11.6569 19 13 17.6569 13 16C13 14.3431 11.6569 13 10 13C8.34315 13 7 14.3431 7 16C7 17.6569 8.34315 19 10 19Z" fill="#F47642"/>
<path opacity="0.8" d="M24 19C25.6569 19 27 17.6569 27 16C27 14.3431 25.6569 13 24 13C22.3431 13 21 14.3431 21 16C21 17.6569 22.3431 19 24 19Z" fill="#C9C9C9"/>
<path d="M17 18C17 22.4189 13.6421 26 9.49956 26C5.35704 26 2 22.418 2 18" stroke="url(#paint1_linear_225_11456)" stroke-width="3.51084" stroke-miterlimit="10" stroke-linecap="round"/>
<path d="M50.3 21.716C50.3 22.612 50.0013 23.424 49.404 24.152C48.2093 25.608 46.5107 26.308 44.308 26.252C43.4307 26.2333 42.4693 26.0373 41.424 25.664C40.3973 25.2907 39.5573 24.824 38.904 24.264L41.004 21.548C42.012 22.5 43.0853 22.976 44.224 22.976H44.308C44.7747 22.976 45.1947 22.892 45.568 22.724C46.0533 22.5 46.296 22.1827 46.296 21.772V21.66C46.24 21.2307 45.9507 20.9227 45.428 20.736C45.2227 20.6987 44.784 20.6147 44.112 20.484C43.272 20.316 42.5627 20.1107 41.984 19.868C40.2853 19.14 39.436 17.8613 39.436 16.032C39.436 14.2773 40.304 12.9613 42.04 12.084C42.8053 11.692 43.636 11.4867 44.532 11.468C45.4653 11.4493 46.436 11.608 47.444 11.944C48.6013 12.336 49.4227 12.8493 49.908 13.484L47.388 15.752C46.7347 15.0987 46.0253 14.772 45.26 14.772C44.0653 14.772 43.468 15.164 43.468 15.948V16.004C43.468 16.3773 43.9533 16.6947 44.924 16.956C44.9987 16.9747 45.6147 17.096 46.772 17.32C49.124 17.768 50.3 19.2053 50.3 21.632V21.716ZM67.8164 26.14C67.8164 28.2493 67.0884 30.0227 65.6324 31.46C64.195 32.8973 62.4217 33.616 60.3124 33.616V29.836C61.339 29.836 62.2164 29.472 62.9444 28.744C63.6724 28.0347 64.0364 27.1667 64.0364 26.14V25.468C62.879 26.1213 61.6377 26.448 60.3124 26.448C58.2217 26.448 56.4484 25.72 54.9924 24.264C53.5364 22.808 52.8084 21.0347 52.8084 18.944V11.44H56.5884L56.6164 18.944C56.6164 19.9707 56.971 20.848 57.6804 21.576C58.4084 22.304 59.2857 22.668 60.3124 22.668C61.339 22.668 62.2164 22.304 62.9444 21.576C63.6724 20.848 64.0364 19.9707 64.0364 18.944V11.44H67.8164V26.14ZM85.3295 26H81.5495L81.5215 18.916C81.5215 17.908 81.1575 17.04 80.4295 16.312C79.7015 15.584 78.8335 15.22 77.8255 15.22C76.7988 15.22 75.9215 15.584 75.1935 16.312C74.4655 17.0213 74.1015 17.8893 74.1015 18.916V26H70.3215V18.916C70.3215 16.8253 71.0495 15.0613 72.5055 13.624C73.9615 12.168 75.7348 11.44 77.8255 11.44C79.9161 11.44 81.6895 12.168 83.1455 13.624C84.6015 15.0613 85.3295 16.8253 85.3295 18.916V26ZM100.519 24.32C99.0626 25.72 97.3359 26.42 95.3386 26.42C93.2293 26.42 91.4466 25.7013 89.9906 24.264C88.5533 22.808 87.8346 21.0253 87.8346 18.916C87.8346 16.8253 88.5626 15.0613 90.0186 13.624C91.4746 12.168 93.2479 11.44 95.3386 11.44C97.2426 11.44 98.9039 12.084 100.323 13.372L98.0546 16.424C97.3266 15.6213 96.4212 15.22 95.3386 15.22C94.3119 15.22 93.4346 15.584 92.7066 16.312C91.9786 17.0213 91.6146 17.8893 91.6146 18.916C91.6146 19.9427 91.9786 20.82 92.7066 21.548C93.4346 22.276 94.3119 22.64 95.3386 22.64C96.4586 22.64 97.3826 22.2107 98.1106 21.352L100.519 24.32ZM110.445 15.22C109.419 15.22 108.541 15.584 107.813 16.312C107.085 17.0213 106.721 17.8893 106.721 18.916V26H102.941V18.916C102.941 16.8253 103.669 15.0613 105.125 13.624C106.581 12.168 108.355 11.44 110.445 11.44V15.22ZM127.86 18.916C127.86 19.2893 127.832 19.6627 127.776 20.036H116.828C117.071 20.82 117.519 21.4547 118.172 21.94C118.826 22.4067 119.563 22.64 120.384 22.64C121.523 22.64 122.466 22.2013 123.212 21.324L125.508 24.376C124.071 25.7387 122.363 26.42 120.384 26.42C118.275 26.42 116.492 25.7013 115.036 24.264C113.599 22.808 112.88 21.0253 112.88 18.916C112.88 16.8253 113.608 15.0613 115.064 13.624C116.52 12.168 118.294 11.44 120.384 11.44C122.475 11.44 124.239 12.168 125.676 13.624C127.132 15.0613 127.86 16.8253 127.86 18.916ZM123.632 17.208C122.942 15.8827 121.859 15.22 120.384 15.22C118.891 15.22 117.799 15.8827 117.108 17.208H123.632ZM156.041 18.944C156.041 21.0533 155.313 22.836 153.857 24.292C152.42 25.7293 150.647 26.448 148.537 26.448C146.465 26.448 144.692 25.7013 143.217 24.208C141.743 25.7013 139.969 26.448 137.897 26.448C135.788 26.448 134.005 25.7293 132.549 24.292C131.112 22.836 130.393 21.0533 130.393 18.944V11.468H134.173V18.944C134.173 19.9707 134.537 20.848 135.265 21.576C135.993 22.304 136.871 22.668 137.897 22.668C138.924 22.668 139.792 22.304 140.501 21.576C141.229 20.848 141.593 19.9707 141.593 18.944L141.621 11.468H145.401V20.876H145.373C146.101 22.0707 147.156 22.668 148.537 22.668C149.564 22.668 150.432 22.304 151.141 21.576C151.869 20.848 152.233 19.9707 152.233 18.944L152.261 11.468H156.041V18.944Z" fill="black"/>
<defs>
<linearGradient id="paint0_linear_225_11456" x1="15.4736" y1="22.0004" x2="33.5255" y2="22.0004" gradientUnits="userSpaceOnUse">
<stop stop-color="#E6E7E8"/>
<stop offset="1" stop-color="#C9C9C9" stop-opacity="0.8"/>
</linearGradient>
<linearGradient id="paint1_linear_225_11456" x1="0.519594" y1="22.0004" x2="18.4804" y2="22.0004" gradientUnits="userSpaceOnUse">
<stop stop-color="#F47642"/>
<stop offset="1" stop-color="#F47642" stop-opacity="0.6"/>
</linearGradient>
</defs>
</svg>
