<svg width="32" height="32" viewBox="0 0 32 32" fill="none" xmlns="http://www.w3.org/2000/svg">
<path d="M16 6C10.477 6 6 10.477 6 16C6 17.272 6.26199 18.561 6.71899 19.719L7.5 21.312C7.995 22.341 7.82101 23.311 7.15601 24.5C6.78901 25.158 7.247 25.951 8 25.969C9.017 25.992 10.707 25.668 12 25.188C13.194 25.739 14.668 26 16 26C21.523 26 26 21.523 26 16C26 10.477 21.523 6 16 6ZM16 8C20.418 8 24 11.582 24 16C24 20.418 20.418 24 16 24C14.85 24 13.405 23.704 12.5 23.219C12.232 23.075 11.904 23.037 11.625 23.156C10.987 23.429 10.343 23.634 9.59399 23.781C9.89399 22.73 9.80501 21.527 9.28101 20.438L8.53101 18.906C8.19801 18.054 8 17.02 8 16C8 11.582 11.582 8 16 8ZM12 15C11.448 15 11 15.448 11 16C11 16.552 11.448 17 12 17C12.552 17 13 16.552 13 16C13 15.448 12.552 15 12 15ZM16 15C15.448 15 15 15.448 15 16C15 16.552 15.448 17 16 17C16.552 17 17 16.552 17 16C17 15.448 16.552 15 16 15ZM20 15C19.448 15 19 15.448 19 16C19 16.552 19.448 17 20 17C20.552 17 21 16.552 21 16C21 15.448 20.552 15 20 15Z" fill="#FC773F"/>
</svg>
