<svg width="26" height="26" viewBox="0 0 26 26" fill="none" xmlns="http://www.w3.org/2000/svg">
<path d="M12.9976 2.11621C11.8005 2.11621 10.8309 3.08578 10.8309 4.28287H5.41427C4.81627 4.28287 4.33093 4.7682 4.33093 5.3662C4.33093 5.9642 4.81627 6.44952 5.41427 6.44952V19.4495C5.41427 21.822 7.36968 23.7828 9.7476 23.7828H16.2476C18.6255 23.7828 20.5809 21.8274 20.5809 19.4495V6.44952C21.1789 6.44952 21.6643 5.9642 21.6643 5.3662C21.6643 4.7682 21.1789 4.28287 20.5809 4.28287H15.1643C15.1643 3.08578 14.1947 2.11621 12.9976 2.11621ZM7.58093 6.44952H18.4143V19.4495C18.4143 20.6379 17.4501 21.6162 16.2812 21.6162L9.7476 21.5826C8.55377 21.5826 7.58093 20.6184 7.58093 19.4495V6.44952ZM10.8309 8.61619C10.2329 8.61619 9.7476 9.10152 9.7476 9.69952V18.3662C9.7476 18.9642 10.2329 19.4495 10.8309 19.4495C11.4289 19.4495 11.9143 18.9642 11.9143 18.3662V9.69952C11.9143 9.10152 11.4289 8.61619 10.8309 8.61619ZM15.1643 8.61619C14.5663 8.61619 14.0809 9.10152 14.0809 9.69952V18.3662C14.0809 18.9642 14.5663 19.4495 15.1643 19.4495C15.7623 19.4495 16.2476 18.9642 16.2476 18.3662V9.69952C16.2476 9.10152 15.7623 8.61619 15.1643 8.61619Z" fill="#C5C5C5"/>
</svg>
