<svg width="20" height="20" viewBox="0 0 20 20" fill="none" xmlns="http://www.w3.org/2000/svg">
<path d="M9.99772 1.62772C9.07689 1.62772 8.33105 2.37354 8.33105 3.29437H4.16439C3.70439 3.29437 3.33105 3.66771 3.33105 4.12771C3.33105 4.58771 3.70439 4.96103 4.16439 4.96103V14.961C4.16439 16.786 5.66855 18.2943 7.49772 18.2943H12.4977C14.3269 18.2943 15.8311 16.7902 15.8311 14.961V4.96103C16.2911 4.96103 16.6644 4.58771 16.6644 4.12771C16.6644 3.66771 16.2911 3.29437 15.8311 3.29437H11.6644C11.6644 2.37354 10.9186 1.62772 9.99772 1.62772ZM5.83105 4.96103H14.1644V14.961C14.1644 15.8752 13.4227 16.6277 12.5236 16.6277L7.49772 16.6018C6.57939 16.6018 5.83105 15.8602 5.83105 14.961V4.96103ZM8.33105 6.6277C7.87105 6.6277 7.49772 7.00103 7.49772 7.46103V14.1277C7.49772 14.5877 7.87105 14.961 8.33105 14.961C8.79105 14.961 9.16439 14.5877 9.16439 14.1277V7.46103C9.16439 7.00103 8.79105 6.6277 8.33105 6.6277ZM11.6644 6.6277C11.2044 6.6277 10.8311 7.00103 10.8311 7.46103V14.1277C10.8311 14.5877 11.2044 14.961 11.6644 14.961C12.1244 14.961 12.4977 14.5877 12.4977 14.1277V7.46103C12.4977 7.00103 12.1244 6.6277 11.6644 6.6277Z" fill="white"/>
</svg>
