<svg width="32" height="32" viewBox="0 0 32 32" fill="none" xmlns="http://www.w3.org/2000/svg">
<path d="M9.33126 3.98755C6.38592 3.98755 3.99792 6.37555 3.99792 9.32088V22.6542C3.99792 25.5995 6.38592 27.9875 9.33126 27.9875H22.6646C25.6099 27.9875 27.9979 25.5995 27.9979 22.6542V9.32088C27.9979 6.37555 25.6099 3.98755 22.6646 3.98755H9.33126ZM21.3312 7.98755C22.8046 7.98755 23.9979 9.18088 23.9979 10.6542C23.9979 12.1275 22.8046 13.3209 21.3312 13.3209C19.8579 13.3209 18.6646 12.1275 18.6646 10.6542C18.6646 9.18088 19.8579 7.98755 21.3312 7.98755ZM11.3312 14.6542C12.1072 14.6555 13.2859 15.8635 14.4139 17.9462C14.8619 18.7702 15.2632 19.6782 15.6232 20.5715C15.8392 21.1049 16.0059 21.5129 16.0806 21.7369C16.4446 22.8262 17.9219 22.9809 18.4979 21.9875C18.5552 21.8889 18.6592 21.6995 18.8312 21.4462C19.1192 21.0195 19.4472 20.5875 19.7899 20.1955C20.6459 19.2142 21.4726 18.6542 21.9979 18.6542C22.5299 18.6675 23.3512 19.2262 24.2059 20.1955C24.5526 20.5889 24.8726 21.0195 25.1646 21.4462C25.2566 21.5795 25.2699 21.6422 25.3312 21.7369V22.6542C25.3312 24.1275 24.1379 25.3209 22.6646 25.3209H9.33126C7.85792 25.3209 6.66459 24.1275 6.66459 22.6542V21.5289C6.74859 21.2915 6.8606 21.0102 7.03927 20.5715C7.40326 19.6782 7.79791 18.7715 8.24858 17.9462C9.3859 15.8595 10.5566 14.6529 11.3312 14.6542Z" fill="#818181"/>
</svg>
