<svg width="32" height="32" viewBox="0 0 32 32" fill="none" xmlns="http://www.w3.org/2000/svg">
<path d="M16 6C13.2386 6 11 8.35054 11 11.25C11 14.1495 13.2386 16.5 16 16.5C18.7614 16.5 21 14.1495 21 11.25C21 8.35054 18.7614 6 16 6ZM16 8.1C17.6569 8.1 19 9.51027 19 11.25C19 12.9898 17.6569 14.4 16 14.4C14.3431 14.4 13 12.9898 13 11.25C13 9.51027 14.3431 8.1 16 8.1ZM12.4688 17.8781C9.8545 18.6283 8 21.0152 8 23.85V25.95C8 26.5299 8.4477 27 9 27H23C23.5523 27 24 26.5299 24 25.95V23.85C24 21.0152 22.1455 18.6283 19.5312 17.8781C19.3071 17.8138 19.0869 17.8435 18.875 17.9437C17.9595 18.377 16.9849 18.6 16 18.6C15.0151 18.6 14.0405 18.377 13.125 17.9437C12.9131 17.8435 12.6929 17.8138 12.4688 17.8781ZM12.875 19.9781C13.8848 20.3791 14.9197 20.7 16 20.7C17.0803 20.7 18.1152 20.3791 19.125 19.9781C20.8284 20.5199 22 22.0297 22 23.85V24.9H10V23.85C10 22.0297 11.1716 20.5199 12.875 19.9781Z" fill="#FC773F"/>
</svg>
