<svg width="32" height="32" viewBox="0 0 32 32" fill="none" xmlns="http://www.w3.org/2000/svg">
<path d="M16.0001 5.33325C10.1089 5.33325 5.3537 10.1013 5.33344 15.9834C5.31317 21.8569 10.1142 26.6548 16.0001 26.6665C21.8859 26.6783 26.6774 21.8154 26.6667 15.9834C26.656 10.1013 21.8912 5.33325 16.0001 5.33325ZM16.0001 7.46328C20.7127 7.46328 24.5334 11.2782 24.5334 15.9834C24.5334 18.3797 23.5339 20.5395 21.9392 22.088C21.1531 20.3915 19.4668 19.1784 17.5329 19.1784C17.15 19.1784 14.8503 19.1784 14.4663 19.1784C12.5356 19.1784 10.8524 20.3766 10.0662 22.0742C8.47265 20.5257 7.46677 18.3797 7.46677 15.9834C7.46677 11.2782 11.2876 7.46328 16.0001 7.46328ZM16.0001 9.59331C13.6438 9.59331 11.7334 11.5008 11.7334 13.8534C11.7334 16.206 13.6438 18.1134 16.0001 18.1134C18.3564 18.1134 20.2668 16.206 20.2668 13.8534C20.2668 11.5008 18.3564 9.59331 16.0001 9.59331ZM16.0001 11.7233C17.1788 11.7233 18.1335 12.6765 18.1335 13.8534C18.1335 15.0302 17.1788 15.9834 16.0001 15.9834C14.8215 15.9834 13.8668 15.0302 13.8668 13.8534C13.8668 12.6765 14.8215 11.7233 16.0001 11.7233ZM14.4663 21.3085C14.8503 21.3085 17.15 21.3085 17.5329 21.3085C18.7233 21.3085 19.8006 22.1754 20.1782 23.397C18.655 24.2948 16.9537 24.5035 16.0001 24.5035C15.0209 24.5035 13.3964 24.2841 11.8348 23.4246C12.2092 22.1924 13.2865 21.3085 14.4663 21.3085Z" fill="#818181"/>
</svg>
