<svg width="32" height="32" viewBox="0 0 32 32" fill="none" xmlns="http://www.w3.org/2000/svg">
<path d="M14.4159 6C9.76789 6 6 9.76824 6 14.4159C6 19.0637 9.76789 22.8319 14.4159 22.8319C16.3481 22.8319 18.1795 22.1681 19.6 21.0741L24.1796 25.6923C24.5905 26.1026 25.281 26.1026 25.6919 25.6923C26.1027 25.281 26.1027 24.5909 25.6919 24.1795L21.0805 19.5927C22.1754 18.1726 22.8318 16.3484 22.8318 14.4159C22.8318 9.76824 19.0639 6 14.4159 6ZM14.4159 8.10399C17.9019 8.10399 20.7278 10.9296 20.7278 14.4159C20.7278 17.9023 17.9019 20.728 14.4159 20.728C10.9299 20.728 8.10397 17.9023 8.10397 14.4159C8.10397 10.9296 10.9299 8.10399 14.4159 8.10399Z" fill="#FC773F"/>
</svg>
