<svg width="32" height="32" viewBox="0 0 32 32" fill="none" xmlns="http://www.w3.org/2000/svg">
<path d="M4.41365 12.408C3.54645 12.772 3.00819 13.42 3.00005 14.3373C2.99445 14.9787 3.42725 15.84 4.29445 16.192C4.65165 16.3373 9.66699 17.012 9.66699 17.012C9.66699 17.012 10.9945 21.208 11.4729 22.6827C11.6114 23.1093 11.6903 23.3187 11.9943 23.5973C12.5101 24.0693 13.3819 23.9215 13.759 23.5428C14.7566 22.5428 16.3334 21 16.3334 21L16.997 21.54C16.997 21.54 19.9438 23.8907 21.5546 24.9973C22.503 25.6493 23.1613 26.3293 24.2287 26.3333C24.7725 26.336 25.6446 26.0653 26.2211 25.4053C26.6021 24.9693 26.8465 24.272 26.941 23.6467C27.1559 22.2267 29.6774 6.87206 29.6667 6.33471C29.6497 5.47738 28.9285 4.99471 28.329 5.00004C27.9525 5.00404 27.6422 5.11339 26.9518 5.32406C21.6113 6.95472 4.76739 12.26 4.41365 12.408ZM24.3334 9.00004C24.3334 9.00004 17.2961 15.1253 14.4839 17.944C13.583 18.8467 13.5194 20.396 13.5194 20.396L12.0658 15.7453L24.3334 9.00004Z" fill="white"/>
</svg>
