<svg width="31" height="31" viewBox="0 0 31 31" fill="none" xmlns="http://www.w3.org/2000/svg">
<circle cx="15.5" cy="15.5" r="15.5" fill="#FC773F"/>
<path d="M15.9909 4.99878C12.4386 4.99878 9.99093 7.44679 9.99093 10.9988C9.99093 11.4838 9.99093 12.9688 9.99093 12.9988C9.99093 13.3208 9.82833 13.5398 9.27213 13.9988C9.20903 14.0508 8.94453 14.2778 8.86593 14.3428C7.60053 15.3888 6.97773 16.3688 6.99093 17.9988C7.00423 19.6468 8.34763 20.9799 9.99093 20.9989H13.1669C13.1669 20.9989 12.9909 21.6099 12.9909 21.9989C12.9909 23.6559 14.3339 24.9989 15.9909 24.9989C17.6479 24.9989 18.9909 23.6559 18.9909 21.9989C18.9909 21.6099 18.8229 20.9989 18.8229 20.9989H21.9909C23.6309 21.0049 24.9929 19.6538 24.9909 17.9988C24.9889 16.3808 24.3649 15.3838 23.1159 14.3428C23.0339 14.2738 22.7439 14.0528 22.6779 13.9988C22.1339 13.5448 21.9909 13.3168 21.9909 12.9988C21.9909 11.7488 21.9909 10.9988 21.9909 10.9988C21.9909 7.44679 19.5429 4.99878 15.9909 4.99878ZM15.9909 6.99879C18.4389 6.99879 19.9909 8.55079 19.9909 10.9988C19.9909 10.9988 19.9909 11.7488 19.9909 12.9988C19.9909 14.0608 20.4389 14.7308 21.3969 15.5298C21.4729 15.5928 21.7939 15.8448 21.8659 15.9048C22.7039 16.6038 22.9899 17.0768 22.9909 17.9988C22.9919 18.5428 22.5259 19.0008 21.9909 18.9988C21.8019 18.9978 18.8909 18.9978 15.9909 18.9988C13.0912 18.9998 10.2034 19.0008 9.99093 18.9988C9.43273 18.9918 8.99543 18.5538 8.99093 17.9988C8.98353 17.0788 9.26943 16.6048 10.1159 15.9048C10.185 15.8478 10.4807 15.5898 10.5534 15.5298C11.5266 14.7258 11.9909 14.0708 11.9909 12.9988C11.9909 12.9688 11.9909 11.4838 11.9909 10.9988C11.9909 8.55079 13.5432 6.99879 15.9909 6.99879ZM15.9909 20.9989C16.5429 20.9989 16.9909 21.4469 16.9909 21.9989C16.9909 22.5509 16.5429 22.9989 15.9909 22.9989C15.4389 22.9989 14.9909 22.5509 14.9909 21.9989C14.9909 21.4469 15.4389 20.9989 15.9909 20.9989Z" fill="white"/>
</svg>
