<svg width="24" height="24" viewBox="0 0 24 24" fill="none" xmlns="http://www.w3.org/2000/svg">
<path fill-rule="evenodd" clip-rule="evenodd" d="M5.59987 8.5C5.59987 6.56722 7.21174 5 9.19957 5C11.1874 5 12.7993 6.56722 12.7993 8.5C12.7993 10.4328 11.1874 12 9.19957 12C7.21174 12 5.59987 10.4328 5.59987 8.5ZM4 16.6667C4 15.0769 4.98233 13.6341 6.44941 13.0453C6.65419 12.9629 6.87336 12.98 7.07495 13.0694C7.80769 13.3938 8.49963 13.5556 9.19957 13.5556C9.90191 13.5556 10.5915 13.4023 11.2994 13.0936C11.5042 13.0049 11.7434 13.0072 11.9497 13.0936C13.4112 13.7064 14.3991 15.1142 14.3991 16.6667V18.2222C14.3991 18.6516 14.0408 19 13.5992 19H4.79993C4.35837 19 4 18.6516 4 18.2222V16.6667ZM18.6159 9.20619C18.7719 9.05452 18.9855 8.98762 19.1903 8.98762C19.3951 8.98762 19.6094 9.05452 19.7654 9.20619C20.0782 9.51029 20.0782 10.0205 19.7654 10.3246L16.5657 13.4357C16.2537 13.739 15.7282 13.739 15.4162 13.4357L13.8163 11.8801C13.5035 11.576 13.5035 11.0658 13.8163 10.7617C14.1283 10.4584 14.6538 10.4584 14.9658 10.7617L15.9905 11.758L18.6159 9.20619Z" fill="white"/>
</svg>
