<svg width="24" height="24" viewBox="0 0 24 24" fill="none" xmlns="http://www.w3.org/2000/svg">
<path d="M9.19999 5C7.21199 5 5.6 6.56699 5.6 8.5C5.6 10.433 7.21199 12 9.19999 12C11.188 12 12.8 10.433 12.8 8.5C12.8 6.56699 11.188 5 9.19999 5ZM17.6 9.66667C17.1584 9.66667 16.8 10.0149 16.8 10.4444V11.2222H16C15.5584 11.2222 15.2 11.5704 15.2 12C15.2 12.4296 15.5584 12.7778 16 12.7778H16.8V13.5556C16.8 13.9851 17.1584 14.3333 17.6 14.3333C18.0416 14.3333 18.4 13.9851 18.4 13.5556V12.7778H19.2C19.6416 12.7778 20 12.4296 20 12C20 11.5704 19.6416 11.2222 19.2 11.2222H18.4V10.4444C18.4 10.0149 18.0416 9.66667 17.6 9.66667ZM6.4496 13.0452C4.9824 13.6338 4 15.077 4 16.6667V18.2222C4 18.6518 4.3584 19 4.8 19H13.6C14.0416 19 14.4 18.6518 14.4 18.2222V16.6667C14.4 15.1144 13.412 13.7062 11.9504 13.0937C11.744 13.0075 11.5048 13.0049 11.3 13.0937C10.592 13.4022 9.9024 13.5554 9.19999 13.5556C8.49999 13.5556 7.80799 13.3938 7.07519 13.0694C6.87359 12.9803 6.65439 12.9633 6.4496 13.0452Z" fill="white"/>
</svg>
