<svg width="235" height="75" viewBox="0 0 235 75" fill="none" xmlns="http://www.w3.org/2000/svg">
<path d="M23.75 39.35C23.75 40.95 23.2167 42.4 22.15 43.7C20.0167 46.3 16.9833 47.55 13.05 47.45C11.4833 47.4167 9.76667 47.0667 7.9 46.4C6.06667 45.7333 4.56667 44.9 3.4 43.9L7.15 39.05C8.95 40.75 10.8667 41.6 12.9 41.6H13.05C13.8833 41.6 14.6333 41.45 15.3 41.15C16.1667 40.75 16.6 40.1833 16.6 39.45V39.25C16.5 38.4833 15.9833 37.9333 15.05 37.6C14.6833 37.5333 13.9 37.3833 12.7 37.15C11.2 36.85 9.93333 36.4833 8.9 36.05C5.86667 34.75 4.35 32.4667 4.35 29.2C4.35 26.0667 5.9 23.7167 9 22.15C10.3667 21.45 11.85 21.0833 13.45 21.05C15.1167 21.0167 16.85 21.3 18.65 21.9C20.7167 22.6 22.1833 23.5167 23.05 24.65L18.55 28.7C17.3833 27.5333 16.1167 26.95 14.75 26.95C12.6167 26.95 11.55 27.65 11.55 29.05V29.15C11.55 29.8167 12.4167 30.3833 14.15 30.85C14.2833 30.8833 15.3833 31.1 17.45 31.5C21.65 32.3 23.75 34.8667 23.75 39.2V39.35ZM55.0293 47.25C55.0293 51.0167 53.7293 54.1833 51.1293 56.75C48.5626 59.3167 45.396 60.6 41.6293 60.6V53.85C43.4626 53.85 45.0293 53.2 46.3293 51.9C47.6293 50.6333 48.2793 49.0833 48.2793 47.25V46.05C46.2126 47.2167 43.996 47.8 41.6293 47.8C37.896 47.8 34.7293 46.5 32.1293 43.9C29.5293 41.3 28.2293 38.1333 28.2293 34.4V21H34.9793L35.0293 34.4C35.0293 36.2333 35.6626 37.8 36.9293 39.1C38.2293 40.4 39.796 41.05 41.6293 41.05C43.4626 41.05 45.0293 40.4 46.3293 39.1C47.6293 37.8 48.2793 36.2333 48.2793 34.4V21H55.0293V47.25ZM86.3027 47H79.5527L79.5027 34.35C79.5027 32.55 78.8527 31 77.5527 29.7C76.2527 28.4 74.7027 27.75 72.9027 27.75C71.0694 27.75 69.5027 28.4 68.2027 29.7C66.9027 30.9667 66.2527 32.5167 66.2527 34.35V47H59.5027V34.35C59.5027 30.6167 60.8027 27.4667 63.4027 24.9C66.0027 22.3 69.1694 21 72.9027 21C76.6361 21 79.8027 22.3 82.4027 24.9C85.0027 27.4667 86.3027 30.6167 86.3027 34.35V47ZM113.426 44C110.826 46.5 107.743 47.75 104.176 47.75C100.41 47.75 97.2262 46.4667 94.6262 43.9C92.0595 41.3 90.7762 38.1167 90.7762 34.35C90.7762 30.6167 92.0762 27.4667 94.6762 24.9C97.2762 22.3 100.443 21 104.176 21C107.576 21 110.543 22.15 113.076 24.45L109.026 29.9C107.726 28.4667 106.11 27.75 104.176 27.75C102.343 27.75 100.776 28.4 99.4762 29.7C98.1762 30.9667 97.5262 32.5167 97.5262 34.35C97.5262 36.1833 98.1762 37.75 99.4762 39.05C100.776 40.35 102.343 41 104.176 41C106.176 41 107.826 40.2333 109.126 38.7L113.426 44ZM131.153 27.75C129.319 27.75 127.753 28.4 126.453 29.7C125.153 30.9667 124.503 32.5167 124.503 34.35V47H117.753V34.35C117.753 30.6167 119.053 27.4667 121.653 24.9C124.253 22.3 127.419 21 131.153 21V27.75ZM162.251 34.35C162.251 35.0167 162.201 35.6833 162.101 36.35H142.551C142.984 37.75 143.784 38.8833 144.951 39.75C146.117 40.5833 147.434 41 148.901 41C150.934 41 152.617 40.2167 153.951 38.65L158.051 44.1C155.484 46.5333 152.434 47.75 148.901 47.75C145.134 47.75 141.951 46.4667 139.351 43.9C136.784 41.3 135.501 38.1167 135.501 34.35C135.501 30.6167 136.801 27.4667 139.401 24.9C142.001 22.3 145.167 21 148.901 21C152.634 21 155.784 22.3 158.351 24.9C160.951 27.4667 162.251 30.6167 162.251 34.35ZM154.701 31.3C153.467 28.9333 151.534 27.75 148.901 27.75C146.234 27.75 144.284 28.9333 143.051 31.3H154.701Z" fill="black"/>
<path opacity="0.8" d="M231 31C231 39.8377 224.284 47 216 47C207.716 47 201 39.836 201 31" stroke="url(#paint0_linear_64_119)" stroke-width="7.02168" stroke-miterlimit="10" stroke-linecap="round"/>
<path d="M187 33C190.314 33 193 30.3137 193 27C193 23.6863 190.314 21 187 21C183.686 21 181 23.6863 181 27C181 30.3137 183.686 33 187 33Z" fill="#F47642"/>
<path opacity="0.8" d="M215 33C218.314 33 221 30.3137 221 27C221 23.6863 218.314 21 215 21C211.686 21 209 23.6863 209 27C209 30.3137 211.686 33 215 33Z" fill="#C9C9C9"/>
<path d="M201 31C201 39.8377 194.284 47 185.999 47C177.714 47 171 39.836 171 31" stroke="url(#paint1_linear_64_119)" stroke-width="7.02168" stroke-miterlimit="10" stroke-linecap="round"/>
<defs>
<linearGradient id="paint0_linear_64_119" x1="197.947" y1="39.0008" x2="234.051" y2="39.0008" gradientUnits="userSpaceOnUse">
<stop stop-color="#E6E7E8"/>
<stop offset="1" stop-color="#C9C9C9" stop-opacity="0.8"/>
</linearGradient>
<linearGradient id="paint1_linear_64_119" x1="168.039" y1="39.0008" x2="203.961" y2="39.0008" gradientUnits="userSpaceOnUse">
<stop stop-color="#F47642"/>
<stop offset="1" stop-color="#F47642" stop-opacity="0.6"/>
</linearGradient>
</defs>
</svg>
