<svg width="287" height="75" viewBox="0 0 287 75" fill="none" xmlns="http://www.w3.org/2000/svg">
<path d="M97.75 39.35C97.75 40.95 97.2167 42.4 96.15 43.7C94.0167 46.3 90.9833 47.55 87.05 47.45C85.4833 47.4167 83.7667 47.0667 81.9 46.4C80.0667 45.7333 78.5667 44.9 77.4 43.9L81.15 39.05C82.95 40.75 84.8667 41.6 86.9 41.6H87.05C87.8833 41.6 88.6333 41.45 89.3 41.15C90.1667 40.75 90.6 40.1833 90.6 39.45V39.25C90.5 38.4833 89.9833 37.9333 89.05 37.6C88.6833 37.5333 87.9 37.3833 86.7 37.15C85.2 36.85 83.9333 36.4833 82.9 36.05C79.8667 34.75 78.35 32.4667 78.35 29.2C78.35 26.0667 79.9 23.7167 83 22.15C84.3667 21.45 85.85 21.0833 87.45 21.05C89.1167 21.0167 90.85 21.3 92.65 21.9C94.7167 22.6 96.1833 23.5167 97.05 24.65L92.55 28.7C91.3833 27.5333 90.1167 26.95 88.75 26.95C86.6167 26.95 85.55 27.65 85.55 29.05V29.15C85.55 29.8167 86.4167 30.3833 88.15 30.85C88.2833 30.8833 89.3833 31.1 91.45 31.5C95.65 32.3 97.75 34.8667 97.75 39.2V39.35ZM129.029 47.25C129.029 51.0167 127.729 54.1833 125.129 56.75C122.563 59.3167 119.396 60.6 115.629 60.6V53.85C117.463 53.85 119.029 53.2 120.329 51.9C121.629 50.6333 122.279 49.0833 122.279 47.25V46.05C120.213 47.2167 117.996 47.8 115.629 47.8C111.896 47.8 108.729 46.5 106.129 43.9C103.529 41.3 102.229 38.1333 102.229 34.4V21H108.979L109.029 34.4C109.029 36.2333 109.663 37.8 110.929 39.1C112.229 40.4 113.796 41.05 115.629 41.05C117.463 41.05 119.029 40.4 120.329 39.1C121.629 37.8 122.279 36.2333 122.279 34.4V21H129.029V47.25ZM160.303 47H153.553L153.503 34.35C153.503 32.55 152.853 31 151.553 29.7C150.253 28.4 148.703 27.75 146.903 27.75C145.069 27.75 143.503 28.4 142.203 29.7C140.903 30.9667 140.253 32.5167 140.253 34.35V47H133.503V34.35C133.503 30.6167 134.803 27.4667 137.403 24.9C140.003 22.3 143.169 21 146.903 21C150.636 21 153.803 22.3 156.403 24.9C159.003 27.4667 160.303 30.6167 160.303 34.35V47ZM187.426 44C184.826 46.5 181.743 47.75 178.176 47.75C174.41 47.75 171.226 46.4667 168.626 43.9C166.06 41.3 164.776 38.1167 164.776 34.35C164.776 30.6167 166.076 27.4667 168.676 24.9C171.276 22.3 174.443 21 178.176 21C181.576 21 184.543 22.15 187.076 24.45L183.026 29.9C181.726 28.4667 180.11 27.75 178.176 27.75C176.343 27.75 174.776 28.4 173.476 29.7C172.176 30.9667 171.526 32.5167 171.526 34.35C171.526 36.1833 172.176 37.75 173.476 39.05C174.776 40.35 176.343 41 178.176 41C180.176 41 181.826 40.2333 183.126 38.7L187.426 44ZM205.153 27.75C203.319 27.75 201.753 28.4 200.453 29.7C199.153 30.9667 198.503 32.5167 198.503 34.35V47H191.753V34.35C191.753 30.6167 193.053 27.4667 195.653 24.9C198.253 22.3 201.419 21 205.153 21V27.75ZM236.251 34.35C236.251 35.0167 236.201 35.6833 236.101 36.35H216.551C216.984 37.75 217.784 38.8833 218.951 39.75C220.117 40.5833 221.434 41 222.901 41C224.934 41 226.617 40.2167 227.951 38.65L232.051 44.1C229.484 46.5333 226.434 47.75 222.901 47.75C219.134 47.75 215.951 46.4667 213.351 43.9C210.784 41.3 209.501 38.1167 209.501 34.35C209.501 30.6167 210.801 27.4667 213.401 24.9C216.001 22.3 219.167 21 222.901 21C226.634 21 229.784 22.3 232.351 24.9C234.951 27.4667 236.251 30.6167 236.251 34.35ZM228.701 31.3C227.467 28.9333 225.534 27.75 222.901 27.75C220.234 27.75 218.284 28.9333 217.051 31.3H228.701ZM286.574 34.4C286.574 38.1667 285.274 41.35 282.674 43.95C280.108 46.5167 276.941 47.8 273.174 47.8C269.474 47.8 266.308 46.4667 263.674 43.8C261.041 46.4667 257.874 47.8 254.174 47.8C250.408 47.8 247.224 46.5167 244.624 43.95C242.058 41.35 240.774 38.1667 240.774 34.4V21.05H247.524V34.4C247.524 36.2333 248.174 37.8 249.474 39.1C250.774 40.4 252.341 41.05 254.174 41.05C256.008 41.05 257.558 40.4 258.824 39.1C260.124 37.8 260.774 36.2333 260.774 34.4L260.824 21.05H267.574V37.85H267.524C268.824 39.9833 270.708 41.05 273.174 41.05C275.008 41.05 276.558 40.4 277.824 39.1C279.124 37.8 279.774 36.2333 279.774 34.4L279.824 21.05H286.574V34.4Z" fill="black"/>
<path opacity="0.8" d="M64 31C64 39.8377 57.2843 47 49 47C40.7157 47 34 39.836 34 31" stroke="url(#paint0_linear_64_147)" stroke-width="7.02168" stroke-miterlimit="10" stroke-linecap="round"/>
<path d="M20 33C23.3137 33 26 30.3137 26 27C26 23.6863 23.3137 21 20 21C16.6863 21 14 23.6863 14 27C14 30.3137 16.6863 33 20 33Z" fill="#F47642"/>
<path opacity="0.8" d="M48 33C51.3137 33 54 30.3137 54 27C54 23.6863 51.3137 21 48 21C44.6863 21 42 23.6863 42 27C42 30.3137 44.6863 33 48 33Z" fill="#C9C9C9"/>
<path d="M34 31C34 39.8377 27.2842 47 18.9991 47C10.7141 47 4 39.836 4 31" stroke="url(#paint1_linear_64_147)" stroke-width="7.02168" stroke-miterlimit="10" stroke-linecap="round"/>
<defs>
<linearGradient id="paint0_linear_64_147" x1="30.9472" y1="39.0008" x2="67.051" y2="39.0008" gradientUnits="userSpaceOnUse">
<stop stop-color="#E6E7E8"/>
<stop offset="1" stop-color="#C9C9C9" stop-opacity="0.8"/>
</linearGradient>
<linearGradient id="paint1_linear_64_147" x1="1.03919" y1="39.0008" x2="36.9608" y2="39.0008" gradientUnits="userSpaceOnUse">
<stop stop-color="#F47642"/>
<stop offset="1" stop-color="#F47642" stop-opacity="0.6"/>
</linearGradient>
</defs>
</svg>
