<svg width="200" height="53" viewBox="0 0 200 53" fill="none" xmlns="http://www.w3.org/2000/svg">
<path d="M67.625 27.645C67.625 28.765 67.2517 29.78 66.505 30.69C65.0117 32.51 62.8883 33.385 60.135 33.315C59.0383 33.2917 57.8367 33.0467 56.53 32.58C55.2467 32.1133 54.1967 31.53 53.38 30.83L56.005 27.435C57.265 28.625 58.6067 29.22 60.03 29.22H60.135C60.7183 29.22 61.2433 29.115 61.71 28.905C62.3167 28.625 62.62 28.2283 62.62 27.715V27.575C62.55 27.0383 62.1883 26.6533 61.535 26.42C61.2783 26.3733 60.73 26.2683 59.89 26.105C58.84 25.895 57.9533 25.6383 57.23 25.335C55.1067 24.425 54.045 22.8267 54.045 20.54C54.045 18.3467 55.13 16.7017 57.3 15.605C58.2567 15.115 59.295 14.8583 60.415 14.835C61.5817 14.8117 62.795 15.01 64.055 15.43C65.5017 15.92 66.5283 16.5617 67.135 17.355L63.985 20.19C63.1683 19.3733 62.2817 18.965 61.325 18.965C59.8317 18.965 59.085 19.455 59.085 20.435V20.505C59.085 20.9717 59.6917 21.3683 60.905 21.695C60.9983 21.7183 61.7683 21.87 63.215 22.15C66.155 22.71 67.625 24.5067 67.625 27.54V27.645ZM89.5205 33.175C89.5205 35.8117 88.6105 38.0283 86.7905 39.825C84.9938 41.6217 82.7772 42.52 80.1405 42.52V37.795C81.4238 37.795 82.5205 37.34 83.4305 36.43C84.3405 35.5433 84.7955 34.4583 84.7955 33.175V32.335C83.3488 33.1517 81.7972 33.56 80.1405 33.56C77.5272 33.56 75.3105 32.65 73.4905 30.83C71.6705 29.01 70.7605 26.7933 70.7605 24.18V14.8H75.4855L75.5205 24.18C75.5205 25.4633 75.9638 26.56 76.8505 27.47C77.7605 28.38 78.8572 28.835 80.1405 28.835C81.4238 28.835 82.5205 28.38 83.4305 27.47C84.3405 26.56 84.7955 25.4633 84.7955 24.18V14.8H89.5205V33.175ZM111.412 33H106.687L106.652 24.145C106.652 22.885 106.197 21.8 105.287 20.89C104.377 19.98 103.292 19.525 102.032 19.525C100.749 19.525 99.6519 19.98 98.7419 20.89C97.8319 21.7767 97.3769 22.8617 97.3769 24.145V33H92.6519V24.145C92.6519 21.5317 93.5619 19.3267 95.3819 17.53C97.2019 15.71 99.4186 14.8 102.032 14.8C104.645 14.8 106.862 15.71 108.682 17.53C110.502 19.3267 111.412 21.5317 111.412 24.145V33ZM130.398 30.9C128.578 32.65 126.42 33.525 123.923 33.525C121.287 33.525 119.058 32.6267 117.238 30.83C115.442 29.01 114.543 26.7817 114.543 24.145C114.543 21.5317 115.453 19.3267 117.273 17.53C119.093 15.71 121.31 14.8 123.923 14.8C126.303 14.8 128.38 15.605 130.153 17.215L127.318 21.03C126.408 20.0267 125.277 19.525 123.923 19.525C122.64 19.525 121.543 19.98 120.633 20.89C119.723 21.7767 119.268 22.8617 119.268 24.145C119.268 25.4283 119.723 26.525 120.633 27.435C121.543 28.345 122.64 28.8 123.923 28.8C125.323 28.8 126.478 28.2633 127.388 27.19L130.398 30.9ZM142.807 19.525C141.524 19.525 140.427 19.98 139.517 20.89C138.607 21.7767 138.152 22.8617 138.152 24.145V33H133.427V24.145C133.427 21.5317 134.337 19.3267 136.157 17.53C137.977 15.71 140.194 14.8 142.807 14.8V19.525ZM164.576 24.145C164.576 24.6117 164.541 25.0783 164.471 25.545H150.786C151.089 26.525 151.649 27.3183 152.466 27.925C153.282 28.5083 154.204 28.8 155.231 28.8C156.654 28.8 157.832 28.2517 158.766 27.155L161.636 30.97C159.839 32.6733 157.704 33.525 155.231 33.525C152.594 33.525 150.366 32.6267 148.546 30.83C146.749 29.01 145.851 26.7817 145.851 24.145C145.851 21.5317 146.761 19.3267 148.581 17.53C150.401 15.71 152.617 14.8 155.231 14.8C157.844 14.8 160.049 15.71 161.846 17.53C163.666 19.3267 164.576 21.5317 164.576 24.145ZM159.291 22.01C158.427 20.3533 157.074 19.525 155.231 19.525C153.364 19.525 151.999 20.3533 151.136 22.01H159.291ZM199.802 24.18C199.802 26.8167 198.892 29.045 197.072 30.865C195.275 32.6617 193.059 33.56 190.422 33.56C187.832 33.56 185.615 32.6267 183.772 30.76C181.929 32.6267 179.712 33.56 177.122 33.56C174.485 33.56 172.257 32.6617 170.437 30.865C168.64 29.045 167.742 26.8167 167.742 24.18V14.835H172.467V24.18C172.467 25.4633 172.922 26.56 173.832 27.47C174.742 28.38 175.839 28.835 177.122 28.835C178.405 28.835 179.49 28.38 180.377 27.47C181.287 26.56 181.742 25.4633 181.742 24.18L181.777 14.835H186.502V26.595H186.467C187.377 28.0883 188.695 28.835 190.422 28.835C191.705 28.835 192.79 28.38 193.677 27.47C194.587 26.56 195.042 25.4633 195.042 24.18L195.077 14.835H199.802V24.18Z" fill="black"/>
<path opacity="0.8" d="M44.6129 21.9231C44.6129 28.0415 39.9552 33 34.2097 33C28.4641 33 23.8064 28.0404 23.8064 21.9231" stroke="url(#paint0_linear_64_140)" stroke-width="4.86986" stroke-miterlimit="10" stroke-linecap="round"/>
<path d="M14.0968 23.3077C16.395 23.3077 18.2581 21.448 18.2581 19.1538C18.2581 16.8597 16.395 15 14.0968 15C11.7985 15 9.93547 16.8597 9.93547 19.1538C9.93547 21.448 11.7985 23.3077 14.0968 23.3077Z" fill="#F47642"/>
<path opacity="0.8" d="M33.5161 23.3077C35.8143 23.3077 37.6774 21.448 37.6774 19.1538C37.6774 16.8597 35.8143 15 33.5161 15C31.2179 15 29.3548 16.8597 29.3548 19.1538C29.3548 21.448 31.2179 23.3077 33.5161 23.3077Z" fill="#C9C9C9"/>
<path d="M23.8064 21.9231C23.8064 28.0415 19.1487 33 13.4026 33C7.65652 33 2.99998 28.0404 2.99998 21.9231" stroke="url(#paint1_linear_64_140)" stroke-width="4.86986" stroke-miterlimit="10" stroke-linecap="round"/>
<defs>
<linearGradient id="paint0_linear_64_140" x1="21.6892" y1="27.4621" x2="46.7289" y2="27.4621" gradientUnits="userSpaceOnUse">
<stop stop-color="#E6E7E8"/>
<stop offset="1" stop-color="#C9C9C9" stop-opacity="0.8"/>
</linearGradient>
<linearGradient id="paint1_linear_64_140" x1="0.946518" y1="27.4621" x2="25.8599" y2="27.4621" gradientUnits="userSpaceOnUse">
<stop stop-color="#F47642"/>
<stop offset="1" stop-color="#F47642" stop-opacity="0.6"/>
</linearGradient>
</defs>
</svg>
