<svg width="165" height="53" viewBox="0 0 165 53" fill="none" xmlns="http://www.w3.org/2000/svg">
<path d="M16.625 27.645C16.625 28.765 16.2517 29.78 15.505 30.69C14.0117 32.51 11.8883 33.385 9.135 33.315C8.03833 33.2917 6.83667 33.0467 5.53 32.58C4.24667 32.1133 3.19667 31.53 2.38 30.83L5.005 27.435C6.265 28.625 7.60667 29.22 9.03 29.22H9.135C9.71833 29.22 10.2433 29.115 10.71 28.905C11.3167 28.625 11.62 28.2283 11.62 27.715V27.575C11.55 27.0383 11.1883 26.6533 10.535 26.42C10.2783 26.3733 9.73 26.2683 8.89 26.105C7.84 25.895 6.95333 25.6383 6.23 25.335C4.10667 24.425 3.045 22.8267 3.045 20.54C3.045 18.3467 4.13 16.7017 6.3 15.605C7.25667 15.115 8.295 14.8583 9.415 14.835C10.5817 14.8117 11.795 15.01 13.055 15.43C14.5017 15.92 15.5283 16.5617 16.135 17.355L12.985 20.19C12.1683 19.3733 11.2817 18.965 10.325 18.965C8.83167 18.965 8.085 19.455 8.085 20.435V20.505C8.085 20.9717 8.69167 21.3683 9.905 21.695C9.99833 21.7183 10.7683 21.87 12.215 22.15C15.155 22.71 16.625 24.5067 16.625 27.54V27.645ZM38.5205 33.175C38.5205 35.8117 37.6105 38.0283 35.7905 39.825C33.9938 41.6217 31.7772 42.52 29.1405 42.52V37.795C30.4238 37.795 31.5205 37.34 32.4305 36.43C33.3405 35.5433 33.7955 34.4583 33.7955 33.175V32.335C32.3488 33.1517 30.7972 33.56 29.1405 33.56C26.5272 33.56 24.3105 32.65 22.4905 30.83C20.6705 29.01 19.7605 26.7933 19.7605 24.18V14.8H24.4855L24.5205 24.18C24.5205 25.4633 24.9638 26.56 25.8505 27.47C26.7605 28.38 27.8572 28.835 29.1405 28.835C30.4238 28.835 31.5205 28.38 32.4305 27.47C33.3405 26.56 33.7955 25.4633 33.7955 24.18V14.8H38.5205V33.175ZM60.4119 33H55.6869L55.6519 24.145C55.6519 22.885 55.1969 21.8 54.2869 20.89C53.3769 19.98 52.2919 19.525 51.0319 19.525C49.7486 19.525 48.6519 19.98 47.7419 20.89C46.8319 21.7767 46.3769 22.8617 46.3769 24.145V33H41.6519V24.145C41.6519 21.5317 42.5619 19.3267 44.3819 17.53C46.2019 15.71 48.4186 14.8 51.0319 14.8C53.6452 14.8 55.8619 15.71 57.6819 17.53C59.5019 19.3267 60.4119 21.5317 60.4119 24.145V33ZM79.3983 30.9C77.5783 32.65 75.42 33.525 72.9233 33.525C70.2867 33.525 68.0583 32.6267 66.2383 30.83C64.4417 29.01 63.5433 26.7817 63.5433 24.145C63.5433 21.5317 64.4533 19.3267 66.2733 17.53C68.0933 15.71 70.31 14.8 72.9233 14.8C75.3033 14.8 77.38 15.605 79.1533 17.215L76.3183 21.03C75.4083 20.0267 74.2767 19.525 72.9233 19.525C71.64 19.525 70.5433 19.98 69.6333 20.89C68.7233 21.7767 68.2683 22.8617 68.2683 24.145C68.2683 25.4283 68.7233 26.525 69.6333 27.435C70.5433 28.345 71.64 28.8 72.9233 28.8C74.3233 28.8 75.4783 28.2633 76.3883 27.19L79.3983 30.9ZM91.8069 19.525C90.5236 19.525 89.4269 19.98 88.5169 20.89C87.6069 21.7767 87.1519 22.8617 87.1519 24.145V33H82.4269V24.145C82.4269 21.5317 83.3369 19.3267 85.1569 17.53C86.9769 15.71 89.1936 14.8 91.8069 14.8V19.525ZM113.576 24.145C113.576 24.6117 113.541 25.0783 113.471 25.545H99.7855C100.089 26.525 100.649 27.3183 101.466 27.925C102.282 28.5083 103.204 28.8 104.231 28.8C105.654 28.8 106.832 28.2517 107.766 27.155L110.636 30.97C108.839 32.6733 106.704 33.525 104.231 33.525C101.594 33.525 99.3655 32.6267 97.5455 30.83C95.7489 29.01 94.8505 26.7817 94.8505 24.145C94.8505 21.5317 95.7605 19.3267 97.5805 17.53C99.4005 15.71 101.617 14.8 104.231 14.8C106.844 14.8 109.049 15.71 110.846 17.53C112.666 19.3267 113.576 21.5317 113.576 24.145ZM108.291 22.01C107.427 20.3533 106.074 19.525 104.231 19.525C102.364 19.525 100.999 20.3533 100.136 22.01H108.291Z" fill="black"/>
<path opacity="0.8" d="M161.613 21.9231C161.613 28.0415 156.955 33 151.21 33C145.464 33 140.806 28.0404 140.806 21.9231" stroke="url(#paint0_linear_64_112)" stroke-width="4.86986" stroke-miterlimit="10" stroke-linecap="round"/>
<path d="M131.097 23.3077C133.395 23.3077 135.258 21.448 135.258 19.1538C135.258 16.8597 133.395 15 131.097 15C128.799 15 126.935 16.8597 126.935 19.1538C126.935 21.448 128.799 23.3077 131.097 23.3077Z" fill="#F47642"/>
<path opacity="0.8" d="M150.516 23.3077C152.814 23.3077 154.677 21.448 154.677 19.1538C154.677 16.8597 152.814 15 150.516 15C148.218 15 146.355 16.8597 146.355 19.1538C146.355 21.448 148.218 23.3077 150.516 23.3077Z" fill="#C9C9C9"/>
<path d="M140.806 21.9231C140.806 28.0415 136.149 33 130.403 33C124.657 33 120 28.0404 120 21.9231" stroke="url(#paint1_linear_64_112)" stroke-width="4.86986" stroke-miterlimit="10" stroke-linecap="round"/>
<defs>
<linearGradient id="paint0_linear_64_112" x1="138.689" y1="27.4621" x2="163.729" y2="27.4621" gradientUnits="userSpaceOnUse">
<stop stop-color="#E6E7E8"/>
<stop offset="1" stop-color="#C9C9C9" stop-opacity="0.8"/>
</linearGradient>
<linearGradient id="paint1_linear_64_112" x1="117.947" y1="27.4621" x2="142.86" y2="27.4621" gradientUnits="userSpaceOnUse">
<stop stop-color="#F47642"/>
<stop offset="1" stop-color="#F47642" stop-opacity="0.6"/>
</linearGradient>
</defs>
</svg>
