<svg width="347" height="110" viewBox="0 0 347 110" fill="none" xmlns="http://www.w3.org/2000/svg">
<path d="M34.675 57.831C34.675 60.167 33.8963 62.284 32.339 64.182C29.2243 67.978 24.7957 69.803 19.053 69.657C16.7657 69.6083 14.2593 69.0973 11.534 68.124C8.85733 67.1507 6.66733 65.934 4.964 64.474L10.439 57.393C13.067 59.875 15.8653 61.116 18.834 61.116H19.053C20.2697 61.116 21.3647 60.897 22.338 60.459C23.6033 59.875 24.236 59.0477 24.236 57.977V57.685C24.09 56.5657 23.3357 55.7627 21.973 55.276C21.4377 55.1787 20.294 54.9597 18.542 54.619C16.352 54.181 14.5027 53.6457 12.994 53.013C8.56533 51.115 6.351 47.7813 6.351 43.012C6.351 38.4373 8.614 35.0063 13.14 32.719C15.1353 31.697 17.301 31.1617 19.637 31.113C22.0703 31.0643 24.601 31.478 27.229 32.354C30.2463 33.376 32.3877 34.7143 33.653 36.369L27.083 42.282C25.3797 40.5787 23.5303 39.727 21.535 39.727C18.4203 39.727 16.863 40.749 16.863 42.793V42.939C16.863 43.9123 18.1283 44.7397 20.659 45.421C20.8537 45.4697 22.4597 45.786 25.477 46.37C31.609 47.538 34.675 51.2853 34.675 57.612V57.831ZM80.3428 69.365C80.3428 74.8643 78.4448 79.4877 74.6488 83.235C70.9014 86.9823 66.2781 88.856 60.7788 88.856V79.001C63.4554 79.001 65.7428 78.052 67.6408 76.154C69.5388 74.3047 70.4878 72.0417 70.4878 69.365V67.613C67.4704 69.3163 64.2341 70.168 60.7788 70.168C55.3281 70.168 50.7048 68.27 46.9088 64.474C43.1128 60.678 41.2148 56.0547 41.2148 50.604V31.04H51.0698L51.1428 50.604C51.1428 53.2807 52.0674 55.568 53.9168 57.466C55.8148 59.364 58.1021 60.313 60.7788 60.313C63.4554 60.313 65.7428 59.364 67.6408 57.466C69.5388 55.568 70.4878 53.2807 70.4878 50.604V31.04H80.3428V69.365ZM126.002 69H116.147L116.074 50.531C116.074 47.903 115.125 45.64 113.227 43.742C111.329 41.844 109.066 40.895 106.438 40.895C103.761 40.895 101.474 41.844 99.576 43.742C97.678 45.5913 96.729 47.8543 96.729 50.531V69H86.874V50.531C86.874 45.0803 88.772 40.4813 92.568 36.734C96.364 32.938 100.987 31.04 106.438 31.04C111.889 31.04 116.512 32.938 120.308 36.734C124.104 40.4813 126.002 45.0803 126.002 50.531V69ZM165.602 64.62C161.806 68.27 157.305 70.095 152.097 70.095C146.598 70.095 141.95 68.2213 138.154 64.474C134.407 60.678 132.533 56.0303 132.533 50.531C132.533 45.0803 134.431 40.4813 138.227 36.734C142.023 32.938 146.647 31.04 152.097 31.04C157.061 31.04 161.393 32.719 165.091 36.077L159.178 44.034C157.28 41.9413 154.92 40.895 152.097 40.895C149.421 40.895 147.133 41.844 145.235 43.742C143.337 45.5913 142.388 47.8543 142.388 50.531C142.388 53.2077 143.337 55.495 145.235 57.393C147.133 59.291 149.421 60.24 152.097 60.24C155.017 60.24 157.426 59.1207 159.324 56.882L165.602 64.62ZM191.483 40.895C188.806 40.895 186.519 41.844 184.621 43.742C182.723 45.5913 181.774 47.8543 181.774 50.531V69H171.919V50.531C171.919 45.0803 173.817 40.4813 177.613 36.734C181.409 32.938 186.032 31.04 191.483 31.04V40.895ZM236.886 50.531C236.886 51.5043 236.813 52.4777 236.667 53.451H208.124C208.757 55.495 209.925 57.1497 211.628 58.415C213.331 59.6317 215.254 60.24 217.395 60.24C220.364 60.24 222.821 59.0963 224.768 56.809L230.754 64.766C227.007 68.3187 222.554 70.095 217.395 70.095C211.896 70.095 207.248 68.2213 203.452 64.474C199.705 60.678 197.831 56.0303 197.831 50.531C197.831 45.0803 199.729 40.4813 203.525 36.734C207.321 32.938 211.944 31.04 217.395 31.04C222.846 31.04 227.445 32.938 231.192 36.734C234.988 40.4813 236.886 45.0803 236.886 50.531ZM225.863 46.078C224.062 42.6227 221.24 40.895 217.395 40.895C213.502 40.895 210.655 42.6227 208.854 46.078H225.863Z" fill="black"/>
<path opacity="0.8" d="M341 45C341 58.2566 330.926 69 318.5 69C306.074 69 296 58.2541 296 45" stroke="url(#paint0_linear_64_126)" stroke-width="10.5325" stroke-miterlimit="10" stroke-linecap="round"/>
<path d="M275 48C279.971 48 284 43.9706 284 39C284 34.0294 279.971 30 275 30C270.029 30 266 34.0294 266 39C266 43.9706 270.029 48 275 48Z" fill="#F47642"/>
<path opacity="0.8" d="M317 48C321.971 48 326 43.9706 326 39C326 34.0294 321.971 30 317 30C312.029 30 308 34.0294 308 39C308 43.9706 312.029 48 317 48Z" fill="#C9C9C9"/>
<path d="M296 45C296 58.2566 285.926 69 273.499 69C261.071 69 251 58.2541 251 45" stroke="url(#paint1_linear_64_126)" stroke-width="10.5325" stroke-miterlimit="10" stroke-linecap="round"/>
<defs>
<linearGradient id="paint0_linear_64_126" x1="291.421" y1="57.0013" x2="345.576" y2="57.0013" gradientUnits="userSpaceOnUse">
<stop stop-color="#E6E7E8"/>
<stop offset="1" stop-color="#C9C9C9" stop-opacity="0.8"/>
</linearGradient>
<linearGradient id="paint1_linear_64_126" x1="246.559" y1="57.0013" x2="300.441" y2="57.0013" gradientUnits="userSpaceOnUse">
<stop stop-color="#F47642"/>
<stop offset="1" stop-color="#F47642" stop-opacity="0.6"/>
</linearGradient>
</defs>
</svg>
