<svg width="417" height="110" viewBox="0 0 417 110" fill="none" xmlns="http://www.w3.org/2000/svg">
<path d="M140.675 57.831C140.675 60.167 139.896 62.284 138.339 64.182C135.224 67.978 130.796 69.803 125.053 69.657C122.766 69.6083 120.259 69.0973 117.534 68.124C114.857 67.1507 112.667 65.934 110.964 64.474L116.439 57.393C119.067 59.875 121.865 61.116 124.834 61.116H125.053C126.27 61.116 127.365 60.897 128.338 60.459C129.603 59.875 130.236 59.0477 130.236 57.977V57.685C130.09 56.5657 129.336 55.7627 127.973 55.276C127.438 55.1787 126.294 54.9597 124.542 54.619C122.352 54.181 120.503 53.6457 118.994 53.013C114.565 51.115 112.351 47.7813 112.351 43.012C112.351 38.4373 114.614 35.0063 119.14 32.719C121.135 31.697 123.301 31.1617 125.637 31.113C128.07 31.0643 130.601 31.478 133.229 32.354C136.246 33.376 138.388 34.7143 139.653 36.369L133.083 42.282C131.38 40.5787 129.53 39.727 127.535 39.727C124.42 39.727 122.863 40.749 122.863 42.793V42.939C122.863 43.9123 124.128 44.7397 126.659 45.421C126.854 45.4697 128.46 45.786 131.477 46.37C137.609 47.538 140.675 51.2853 140.675 57.612V57.831ZM186.343 69.365C186.343 74.8643 184.445 79.4877 180.649 83.235C176.901 86.9823 172.278 88.856 166.779 88.856V79.001C169.455 79.001 171.743 78.052 173.641 76.154C175.539 74.3047 176.488 72.0417 176.488 69.365V67.613C173.47 69.3163 170.234 70.168 166.779 70.168C161.328 70.168 156.705 68.27 152.909 64.474C149.113 60.678 147.215 56.0547 147.215 50.604V31.04H157.07L157.143 50.604C157.143 53.2807 158.067 55.568 159.917 57.466C161.815 59.364 164.102 60.313 166.779 60.313C169.455 60.313 171.743 59.364 173.641 57.466C175.539 55.568 176.488 53.2807 176.488 50.604V31.04H186.343V69.365ZM232.002 69H222.147L222.074 50.531C222.074 47.903 221.125 45.64 219.227 43.742C217.329 41.844 215.066 40.895 212.438 40.895C209.761 40.895 207.474 41.844 205.576 43.742C203.678 45.5913 202.729 47.8543 202.729 50.531V69H192.874V50.531C192.874 45.0803 194.772 40.4813 198.568 36.734C202.364 32.938 206.987 31.04 212.438 31.04C217.889 31.04 222.512 32.938 226.308 36.734C230.104 40.4813 232.002 45.0803 232.002 50.531V69ZM271.602 64.62C267.806 68.27 263.305 70.095 258.097 70.095C252.598 70.095 247.95 68.2213 244.154 64.474C240.407 60.678 238.533 56.0303 238.533 50.531C238.533 45.0803 240.431 40.4813 244.227 36.734C248.023 32.938 252.647 31.04 258.097 31.04C263.061 31.04 267.393 32.719 271.091 36.077L265.178 44.034C263.28 41.9413 260.92 40.895 258.097 40.895C255.421 40.895 253.133 41.844 251.235 43.742C249.337 45.5913 248.388 47.8543 248.388 50.531C248.388 53.2077 249.337 55.495 251.235 57.393C253.133 59.291 255.421 60.24 258.097 60.24C261.017 60.24 263.426 59.1207 265.324 56.882L271.602 64.62ZM297.483 40.895C294.806 40.895 292.519 41.844 290.621 43.742C288.723 45.5913 287.774 47.8543 287.774 50.531V69H277.919V50.531C277.919 45.0803 279.817 40.4813 283.613 36.734C287.409 32.938 292.032 31.04 297.483 31.04V40.895ZM342.886 50.531C342.886 51.5043 342.813 52.4777 342.667 53.451H314.124C314.757 55.495 315.925 57.1497 317.628 58.415C319.331 59.6317 321.254 60.24 323.395 60.24C326.364 60.24 328.821 59.0963 330.768 56.809L336.754 64.766C333.007 68.3187 328.554 70.095 323.395 70.095C317.896 70.095 313.248 68.2213 309.452 64.474C305.705 60.678 303.831 56.0303 303.831 50.531C303.831 45.0803 305.729 40.4813 309.525 36.734C313.321 32.938 317.944 31.04 323.395 31.04C328.846 31.04 333.445 32.938 337.192 36.734C340.988 40.4813 342.886 45.0803 342.886 50.531ZM331.863 46.078C330.062 42.6227 327.24 40.895 323.395 40.895C319.502 40.895 316.655 42.6227 314.854 46.078H331.863ZM416.358 50.604C416.358 56.1033 414.46 60.751 410.664 64.547C406.917 68.2943 402.294 70.168 396.794 70.168C391.392 70.168 386.769 68.2213 382.924 64.328C379.08 68.2213 374.456 70.168 369.054 70.168C363.555 70.168 358.907 68.2943 355.111 64.547C351.364 60.751 349.49 56.1033 349.49 50.604V31.113H359.345V50.604C359.345 53.2807 360.294 55.568 362.192 57.466C364.09 59.364 366.378 60.313 369.054 60.313C371.731 60.313 373.994 59.364 375.843 57.466C377.741 55.568 378.69 53.2807 378.69 50.604L378.763 31.113H388.618V55.641H388.545C390.443 58.7557 393.193 60.313 396.794 60.313C399.471 60.313 401.734 59.364 403.583 57.466C405.481 55.568 406.43 53.2807 406.43 50.604L406.503 31.113H416.358V50.604Z" fill="black"/>
<path opacity="0.8" d="M96 45C96 58.2566 85.9264 69 73.5 69C61.0736 69 51 58.2541 51 45" stroke="url(#paint0_linear_64_154)" stroke-width="10.5325" stroke-miterlimit="10" stroke-linecap="round"/>
<path d="M30 48C34.9706 48 39 43.9706 39 39C39 34.0294 34.9706 30 30 30C25.0294 30 21 34.0294 21 39C21 43.9706 25.0294 48 30 48Z" fill="#F47642"/>
<path opacity="0.8" d="M72 48C76.9706 48 81 43.9706 81 39C81 34.0294 76.9706 30 72 30C67.0294 30 63 34.0294 63 39C63 43.9706 67.0294 48 72 48Z" fill="#C9C9C9"/>
<path d="M51 45C51 58.2566 40.9263 69 28.4987 69C16.0711 69 6 58.2541 6 45" stroke="url(#paint1_linear_64_154)" stroke-width="10.5325" stroke-miterlimit="10" stroke-linecap="round"/>
<defs>
<linearGradient id="paint0_linear_64_154" x1="46.4209" y1="57.0013" x2="100.576" y2="57.0013" gradientUnits="userSpaceOnUse">
<stop stop-color="#E6E7E8"/>
<stop offset="1" stop-color="#C9C9C9" stop-opacity="0.8"/>
</linearGradient>
<linearGradient id="paint1_linear_64_154" x1="1.55878" y1="57.0013" x2="55.4412" y2="57.0013" gradientUnits="userSpaceOnUse">
<stop stop-color="#F47642"/>
<stop offset="1" stop-color="#F47642" stop-opacity="0.6"/>
</linearGradient>
</defs>
</svg>
