<svg width="128" height="42" viewBox="0 0 128 42" fill="none" xmlns="http://www.w3.org/2000/svg">
<path d="M13.3 21.716C13.3 22.612 13.0013 23.424 12.404 24.152C11.2093 25.608 9.51067 26.308 7.308 26.252C6.43067 26.2333 5.46933 26.0373 4.424 25.664C3.39733 25.2907 2.55733 24.824 1.904 24.264L4.004 21.548C5.012 22.5 6.08533 22.976 7.224 22.976H7.308C7.77467 22.976 8.19467 22.892 8.568 22.724C9.05333 22.5 9.296 22.1827 9.296 21.772V21.66C9.24 21.2307 8.95067 20.9227 8.428 20.736C8.22267 20.6987 7.784 20.6147 7.112 20.484C6.272 20.316 5.56267 20.1107 4.984 19.868C3.28533 19.14 2.436 17.8613 2.436 16.032C2.436 14.2773 3.304 12.9613 5.04 12.084C5.80533 11.692 6.636 11.4867 7.532 11.468C8.46533 11.4493 9.436 11.608 10.444 11.944C11.6013 12.336 12.4227 12.8493 12.908 13.484L10.388 15.752C9.73467 15.0987 9.02533 14.772 8.26 14.772C7.06533 14.772 6.468 15.164 6.468 15.948V16.004C6.468 16.3773 6.95333 16.6947 7.924 16.956C7.99867 16.9747 8.61467 17.096 9.772 17.32C12.124 17.768 13.3 19.2053 13.3 21.632V21.716ZM30.8164 26.14C30.8164 28.2493 30.0884 30.0227 28.6324 31.46C27.1951 32.8973 25.4217 33.616 23.3124 33.616V29.836C24.3391 29.836 25.2164 29.472 25.9444 28.744C26.6724 28.0347 27.0364 27.1667 27.0364 26.14V25.468C25.8791 26.1213 24.6377 26.448 23.3124 26.448C21.2217 26.448 19.4484 25.72 17.9924 24.264C16.5364 22.808 15.8084 21.0347 15.8084 18.944V11.44H19.5884L19.6164 18.944C19.6164 19.9707 19.9711 20.848 20.6804 21.576C21.4084 22.304 22.2857 22.668 23.3124 22.668C24.3391 22.668 25.2164 22.304 25.9444 21.576C26.6724 20.848 27.0364 19.9707 27.0364 18.944V11.44H30.8164V26.14ZM48.3295 26H44.5495L44.5215 18.916C44.5215 17.908 44.1575 17.04 43.4295 16.312C42.7015 15.584 41.8335 15.22 40.8255 15.22C39.7989 15.22 38.9215 15.584 38.1935 16.312C37.4655 17.0213 37.1015 17.8893 37.1015 18.916V26H33.3215V18.916C33.3215 16.8253 34.0495 15.0613 35.5055 13.624C36.9615 12.168 38.7349 11.44 40.8255 11.44C42.9162 11.44 44.6895 12.168 46.1455 13.624C47.6015 15.0613 48.3295 16.8253 48.3295 18.916V26ZM63.5187 24.32C62.0627 25.72 60.336 26.42 58.3387 26.42C56.2293 26.42 54.4467 25.7013 52.9907 24.264C51.5533 22.808 50.8347 21.0253 50.8347 18.916C50.8347 16.8253 51.5627 15.0613 53.0187 13.624C54.4747 12.168 56.248 11.44 58.3387 11.44C60.2427 11.44 61.904 12.084 63.3227 13.372L61.0547 16.424C60.3267 15.6213 59.4213 15.22 58.3387 15.22C57.312 15.22 56.4347 15.584 55.7067 16.312C54.9787 17.0213 54.6147 17.8893 54.6147 18.916C54.6147 19.9427 54.9787 20.82 55.7067 21.548C56.4347 22.276 57.312 22.64 58.3387 22.64C59.4587 22.64 60.3827 22.2107 61.1107 21.352L63.5187 24.32ZM73.4455 15.22C72.4189 15.22 71.5415 15.584 70.8135 16.312C70.0855 17.0213 69.7215 17.8893 69.7215 18.916V26H65.9415V18.916C65.9415 16.8253 66.6695 15.0613 68.1255 13.624C69.5815 12.168 71.3549 11.44 73.4455 11.44V15.22ZM90.8604 18.916C90.8604 19.2893 90.8324 19.6627 90.7764 20.036H79.8284C80.0711 20.82 80.5191 21.4547 81.1724 21.94C81.8258 22.4067 82.5631 22.64 83.3844 22.64C84.5231 22.64 85.4658 22.2013 86.2124 21.324L88.5084 24.376C87.0711 25.7387 85.3631 26.42 83.3844 26.42C81.2751 26.42 79.4924 25.7013 78.0364 24.264C76.5991 22.808 75.8804 21.0253 75.8804 18.916C75.8804 16.8253 76.6084 15.0613 78.0644 13.624C79.5204 12.168 81.2938 11.44 83.3844 11.44C85.4751 11.44 87.2391 12.168 88.6764 13.624C90.1324 15.0613 90.8604 16.8253 90.8604 18.916ZM86.6324 17.208C85.9418 15.8827 84.8591 15.22 83.3844 15.22C81.8911 15.22 80.7991 15.8827 80.1084 17.208H86.6324Z" fill="black"/>
<path opacity="0.8" d="M126 18C126 22.4189 122.642 26 118.5 26C114.358 26 111 22.418 111 18" stroke="url(#paint0_linear_64_105)" stroke-width="3.51084" stroke-miterlimit="10" stroke-linecap="round"/>
<path d="M104 19C105.657 19 107 17.6569 107 16C107 14.3431 105.657 13 104 13C102.343 13 101 14.3431 101 16C101 17.6569 102.343 19 104 19Z" fill="#F47642"/>
<path opacity="0.8" d="M118 19C119.657 19 121 17.6569 121 16C121 14.3431 119.657 13 118 13C116.343 13 115 14.3431 115 16C115 17.6569 116.343 19 118 19Z" fill="#C9C9C9"/>
<path d="M111 18C111 22.4189 107.642 26 103.5 26C99.357 26 96 22.418 96 18" stroke="url(#paint1_linear_64_105)" stroke-width="3.51084" stroke-miterlimit="10" stroke-linecap="round"/>
<defs>
<linearGradient id="paint0_linear_64_105" x1="109.474" y1="22.0004" x2="127.525" y2="22.0004" gradientUnits="userSpaceOnUse">
<stop stop-color="#E6E7E8"/>
<stop offset="1" stop-color="#C9C9C9" stop-opacity="0.8"/>
</linearGradient>
<linearGradient id="paint1_linear_64_105" x1="94.5196" y1="22.0004" x2="112.48" y2="22.0004" gradientUnits="userSpaceOnUse">
<stop stop-color="#F47642"/>
<stop offset="1" stop-color="#F47642" stop-opacity="0.6"/>
</linearGradient>
</defs>
</svg>
